<svg xmlns="http://www.w3.org/2000/svg" width="1700" height="1134" viewBox="0 0 1700 1134"><style>.eyebrow { font: 700 14px "Avenir Next", "Segoe UI", sans-serif; letter-spacing: 0.14em; text-transform: uppercase; fill: #7a6a55; }.title { font: 700 30px "Iowan Old Style", "Palatino Linotype", serif; fill: #231f18; }.subtitle { font: 400 16px "Avenir Next", "Segoe UI", sans-serif; fill: #5f5547; }.section { font: 700 17px "Avenir Next", "Segoe UI", sans-serif; fill: #2c271f; }.section-small { font: 700 17px "Avenir Next", "Segoe UI", sans-serif; fill: #231f18; }.copy { font: 400 15px "Avenir Next", "Segoe UI", sans-serif; fill: #5f5547; }.metric-label { font: 700 12px "Avenir Next", "Segoe UI", sans-serif; letter-spacing: 0.08em; text-transform: uppercase; fill: #7a6a55; }.move-label { font: 700 12px "Avenir Next", "Segoe UI", sans-serif; fill: #231f18; }.board-label { font: 700 11px "Avenir Next", "Segoe UI", sans-serif; fill: #7a6a55; }.board-copy { font: 400 13px "Avenir Next", "Segoe UI", sans-serif; fill: #5f5547; }.board-piece { font: 700 28px "Georgia", "Times New Roman", serif; text-anchor: middle; dominant-baseline: middle; paint-order: stroke; }.board-piece.white { fill: #f0e6d0; stroke: #2b2116; stroke-width: 1.8px; }.board-piece.black { fill: #2a221b; stroke: #f7f0e4; stroke-width: 0.65px; }</style><rect width="100%" height="100%" fill="#ece6d8" /><rect x="24" y="24" width="1652" height="1086" rx="28" fill="#fbf7ef" stroke="#ddd5c7" /><text x="40" y="62" class="eyebrow">N12 anchored entrypoints review</text><text x="40" y="96" class="title">Opening, middlegame, and endgame over one object</text><text x="40" y="124" class="subtitle">initial-represented-subset:2026-04-11-fixture-004 · preset switches move camera and anchor without changing diagram family</text><defs><clipPath id="anchored-entrypoint-panel-0-clip"><rect x="40" y="176" width="516" height="620" rx="26" /></clipPath></defs><rect x="40" y="176" width="516" height="620" rx="26" fill="#fdfbf6" stroke="#dcd3c4" /><ellipse cx="298" cy="721.6" rx="144.48" ry="37.2" fill="#ece3d3" opacity="0.72" /><g clip-path="url(#anchored-entrypoint-panel-0-clip)"><path d="M286.334 523.105 L288.751 517.348 L290.92 511.53 L293.076 505.761 L295.476 500.141 L298.288 494.73 L301.517 489.531 L305.004 484.477 L308.495 479.458 L311.757 474.354 " fill="none" stroke="#cbd5e1" stroke-width="2.216448" stroke-linecap="round" stroke-linejoin="round" opacity="0.32" /><path d="M286.334 523.105 L288.751 517.348 L290.92 511.53 L293.076 505.761 L295.476 500.141 L298.288 494.73 L301.517 489.531 L305.004 484.477 L308.495 479.458 L311.757 474.354 " fill="none" stroke="#334155" stroke-width="1.3824" stroke-linecap="round" stroke-linejoin="round" opacity="0.96" /><path d="M311.757 474.354 L312.762 470.189 L314.391 465.726 L316.065 460.863 L317.139 455.559 L317.186 449.814 L316.192 443.642 L314.567 437.073 L312.961 430.169 L311.974 423.043 " fill="none" stroke="#cbd5e1" stroke-width="2.262624" stroke-linecap="round" stroke-linejoin="round" opacity="0.32" /><path d="M311.757 474.354 L312.762 470.189 L314.391 465.726 L316.065 460.863 L317.139 455.559 L317.186 449.814 L316.192 443.642 L314.567 437.073 L312.961 430.169 L311.974 423.043 " fill="none" stroke="#334155" stroke-width="1.4112" stroke-linecap="round" stroke-linejoin="round" opacity="0.96" /><path d="M311.974 423.043 L313.939 418.958 L316.794 414.758 L319.767 410.294 L321.996 405.453 L322.915 400.18 L322.506 394.479 L321.315 388.423 L320.204 382.147 L319.97 375.822 " fill="none" stroke="#cbd5e1" stroke-width="2.216448" stroke-linecap="round" stroke-linejoin="round" opacity="0.32" /><path d="M311.974 423.043 L313.939 418.958 L316.794 414.758 L319.767 410.294 L321.996 405.453 L322.915 400.18 L322.506 394.479 L321.315 388.423 L320.204 382.147 L319.97 375.822 " fill="none" stroke="#334155" stroke-width="1.3824" stroke-linecap="round" stroke-linejoin="round" opacity="0.96" /><circle cx="286.334" cy="523.105" r="2.872" fill="#fff5d6" opacity="0.46" /><circle cx="286.334" cy="523.105" r="2.081" fill="#2563eb" /><circle cx="286.334" cy="523.105" r="5.081" fill="none" stroke="#b7791f" stroke-width="2.4" opacity="0.95" /><circle cx="311.757" cy="474.354" r="2.006" fill="#f6efe1" opacity="0.22" /><circle cx="311.757" cy="474.354" r="1.76" fill="#2563eb" /><circle cx="311.757" cy="474.354" r="4.76" fill="none" stroke="#d8cbb3" stroke-width="1.4" opacity="0.55" /><circle cx="311.974" cy="423.043" r="1.914" fill="#f6efe1" opacity="0.22" /><circle cx="311.974" cy="423.043" r="1.679" fill="#2563eb" /><circle cx="311.974" cy="423.043" r="4.679" fill="none" stroke="#d8cbb3" stroke-width="1.4" opacity="0.55" /><circle cx="319.97" cy="375.822" r="1.914" fill="#f6efe1" opacity="0.22" /><circle cx="319.97" cy="375.822" r="1.679" fill="#2563eb" /><circle cx="319.97" cy="375.822" r="4.679" fill="none" stroke="#d8cbb3" stroke-width="1.4" opacity="0.55" /><rect x="282.688" y="506.73" width="78" height="17.6" rx="8.8" fill="#deebf4" stroke="#3a6b87" opacity="0.74" /><text x="289.888" y="518.73" class="move-label" style="font-size:9.6px">out d4</text><rect x="307.315" y="412.18" width="78" height="17.6" rx="8.8" fill="#f7f1e6" stroke="#334155" opacity="0.41" /><text x="314.515" y="424.18" class="move-label" style="font-size:9.6px">c4</text><rect x="231.774" y="489.105" width="109.12" height="17.6" rx="8.8" fill="#f7f1e6" stroke="#7a6a55" opacity="0.7" /><text x="238.974" y="501.105" class="move-label" style="font-size:9.6px">Initial position</text><circle cx="286.334" cy="523.105" r="10" fill="none" stroke="#7a4b12" stroke-width="2.4" opacity="0.8" /></g><defs><clipPath id="anchored-entrypoint-panel-1-clip"><rect x="592" y="176" width="516" height="620" rx="26" /></clipPath></defs><rect x="592" y="176" width="516" height="620" rx="26" fill="#fdfbf6" stroke="#dcd3c4" /><ellipse cx="850" cy="721.6" rx="144.48" ry="37.2" fill="#ece3d3" opacity="0.72" /><g clip-path="url(#anchored-entrypoint-panel-1-clip)"><path d="M849.974 475.625 L843.307 478.679 L832.019 486.466 L819.881 495.62 L810.496 502.695 L805.917 505.576 L806.099 504.145 L809.417 499.888 L813.849 494.783 L817.995 490.265 L821.47 486.78 L824.752 483.898 L828.717 480.771 L833.934 476.815 L839.901 472.431 L844.43 469.536 " fill="none" stroke="#99f6e4" stroke-width="2.53968" stroke-linecap="round" stroke-linejoin="round" opacity="0.32" /><path d="M849.974 475.625 L843.307 478.679 L832.019 486.466 L819.881 495.62 L810.496 502.695 L805.917 505.576 L806.099 504.145 L809.417 499.888 L813.849 494.783 L817.995 490.265 L821.47 486.78 L824.752 483.898 L828.717 480.771 L833.934 476.815 L839.901 472.431 L844.43 469.536 " fill="none" stroke="#0f766e" stroke-width="1.584" stroke-linecap="round" stroke-linejoin="round" opacity="0.96" /><path d="M849.974 475.625 L843.307 478.679 L832.019 486.466 L819.881 495.62 L810.496 502.695 L805.917 505.576 L806.099 504.145 L809.417 499.888 L813.849 494.783 L817.995 490.265 L821.47 486.78 L824.752 483.898 L828.717 480.771 L833.934 476.815 L839.901 472.431 L844.43 469.536 " fill="none" stroke="#14b8a6" stroke-width="0.35640000000000005" stroke-linecap="round" stroke-linejoin="round" opacity="0.88" /><path d="M852.634 489.101 L844.471 488.527 L830.581 490.702 L815.62 493.978 L804.062 496.498 L798.47 497.019 L798.791 495.368 L803.011 492.305 L808.628 488.924 L813.915 486.059 L818.403 484 L822.692 482.531 L827.864 481.185 L834.618 479.625 L842.323 478.016 L848.268 477.272 " fill="none" stroke="#99f6e4" stroke-width="2.53968" stroke-linecap="round" stroke-linejoin="round" opacity="0.32" /><path d="M852.634 489.101 L844.471 488.527 L830.581 490.702 L815.62 493.978 L804.062 496.498 L798.47 497.019 L798.791 495.368 L803.011 492.305 L808.628 488.924 L813.915 486.059 L818.403 484 L822.692 482.531 L827.864 481.185 L834.618 479.625 L842.323 478.016 L848.268 477.272 " fill="none" stroke="#0f766e" stroke-width="1.584" stroke-linecap="round" stroke-linejoin="round" opacity="0.96" /><path d="M852.634 489.101 L844.471 488.527 L830.581 490.702 L815.62 493.978 L804.062 496.498 L798.47 497.019 L798.791 495.368 L803.011 492.305 L808.628 488.924 L813.915 486.059 L818.403 484 L822.692 482.531 L827.864 481.185 L834.618 479.625 L842.323 478.016 L848.268 477.272 " fill="none" stroke="#14b8a6" stroke-width="0.35640000000000005" stroke-linecap="round" stroke-linejoin="round" opacity="0.88" /><path d="M862.158 502.011 L859.983 501.369 L855.496 502.532 L850.093 504.599 L845.822 506.09 L844.382 505.693 L846.302 502.912 L850.677 498.322 L855.603 493.298 L859.112 489.333 L860.091 487.335 L858.708 487.265 L856.156 488.281 L853.914 489.268 L852.871 489.485 L852.634 489.101 " fill="none" stroke="#cbd5e1" stroke-width="2.262624" stroke-linecap="round" stroke-linejoin="round" opacity="0.32" /><path d="M862.158 502.011 L859.983 501.369 L855.496 502.532 L850.093 504.599 L845.822 506.09 L844.382 505.693 L846.302 502.912 L850.677 498.322 L855.603 493.298 L859.112 489.333 L860.091 487.335 L858.708 487.265 L856.156 488.281 L853.914 489.268 L852.871 489.485 L852.634 489.101 " fill="none" stroke="#334155" stroke-width="1.4112" stroke-linecap="round" stroke-linejoin="round" opacity="0.96" /><path d="M862.158 502.011 L859.983 501.369 L855.496 502.532 L850.093 504.599 L845.822 506.09 L844.382 505.693 L846.302 502.912 L850.677 498.322 L855.603 493.298 L859.112 489.333 L860.091 487.335 L858.708 487.265 L856.156 488.281 L853.914 489.268 L852.871 489.485 L852.634 489.101 " fill="none" stroke="#94a3b8" stroke-width="0.31751999999999997" stroke-linecap="round" stroke-linejoin="round" opacity="0.88" /><path d="M852.634 489.101 L850.62 487.824 L845.664 487.222 L839.513 487.046 L834.758 486.798 L833.561 485.994 L836.608 484.41 L842.757 482.201 L849.599 479.83 L854.643 477.835 L856.483 476.569 L855.328 476.062 L852.685 476.042 L850.426 476.111 L849.685 475.973 L849.974 475.625 " fill="none" stroke="#cbd5e1" stroke-width="2.262624" stroke-linecap="round" stroke-linejoin="round" opacity="0.32" /><path d="M852.634 489.101 L850.62 487.824 L845.664 487.222 L839.513 487.046 L834.758 486.798 L833.561 485.994 L836.608 484.41 L842.757 482.201 L849.599 479.83 L854.643 477.835 L856.483 476.569 L855.328 476.062 L852.685 476.042 L850.426 476.111 L849.685 475.973 L849.974 475.625 " fill="none" stroke="#334155" stroke-width="1.4112" stroke-linecap="round" stroke-linejoin="round" opacity="0.96" /><path d="M852.634 489.101 L850.62 487.824 L845.664 487.222 L839.513 487.046 L834.758 486.798 L833.561 485.994 L836.608 484.41 L842.757 482.201 L849.599 479.83 L854.643 477.835 L856.483 476.569 L855.328 476.062 L852.685 476.042 L850.426 476.111 L849.685 475.973 L849.974 475.625 " fill="none" stroke="#94a3b8" stroke-width="0.31751999999999997" stroke-linecap="round" stroke-linejoin="round" opacity="0.88" /><path d="M849.375 476.201 L847.441 475.023 L842.419 474.111 L836.131 473.431 L831.292 472.828 L830.175 472.112 L833.509 471.162 L840.103 469.991 L847.422 468.743 L852.849 467.619 L854.911 466.778 L853.829 466.266 L851.185 466.012 L848.944 465.871 L848.294 465.709 L848.725 465.474 " fill="none" stroke="#cbd5e1" stroke-width="2.285712" stroke-linecap="round" stroke-linejoin="round" opacity="0.32" /><path d="M849.375 476.201 L847.441 475.023 L842.419 474.111 L836.131 473.431 L831.292 472.828 L830.175 472.112 L833.509 471.162 L840.103 469.991 L847.422 468.743 L852.849 467.619 L854.911 466.778 L853.829 466.266 L851.185 466.012 L848.944 465.871 L848.294 465.709 L848.725 465.474 " fill="none" stroke="#334155" stroke-width="1.4256" stroke-linecap="round" stroke-linejoin="round" opacity="0.96" /><path d="M849.375 476.201 L847.441 475.023 L842.419 474.111 L836.131 473.431 L831.292 472.828 L830.175 472.112 L833.509 471.162 L840.103 469.991 L847.422 468.743 L852.849 467.619 L854.911 466.778 L853.829 466.266 L851.185 466.012 L848.944 465.871 L848.294 465.709 L848.725 465.474 " fill="none" stroke="#94a3b8" stroke-width="0.32076" stroke-linecap="round" stroke-linejoin="round" opacity="0.88" /><path d="M864.206 531.241 L862.47 528.823 L858.228 526.679 L852.947 524.812 L848.826 523.07 L847.721 521.237 L850.235 519.15 L855.41 516.787 L861.205 514.282 L865.503 511.851 L867.114 509.686 L866.218 507.863 L864.097 506.325 L862.324 504.926 L861.825 503.513 L862.158 502.011 " fill="none" stroke="#cbd5e1" stroke-width="2.216448" stroke-linecap="round" stroke-linejoin="round" opacity="0.32" /><path d="M864.206 531.241 L862.47 528.823 L858.228 526.679 L852.947 524.812 L848.826 523.07 L847.721 521.237 L850.235 519.15 L855.41 516.787 L861.205 514.282 L865.503 511.851 L867.114 509.686 L866.218 507.863 L864.097 506.325 L862.324 504.926 L861.825 503.513 L862.158 502.011 " fill="none" stroke="#334155" stroke-width="1.3824" stroke-linecap="round" stroke-linejoin="round" opacity="0.96" /><path d="M864.206 531.241 L862.47 528.823 L858.228 526.679 L852.947 524.812 L848.826 523.07 L847.721 521.237 L850.235 519.15 L855.41 516.787 L861.205 514.282 L865.503 511.851 L867.114 509.686 L866.218 507.863 L864.097 506.325 L862.324 504.926 L861.825 503.513 L862.158 502.011 " fill="none" stroke="#94a3b8" stroke-width="0.31104" stroke-linecap="round" stroke-linejoin="round" opacity="0.88" /><path d="M852.634 489.101 L850.767 488.232 L846.218 488.101 L840.543 488.396 L836.089 488.535 L834.84 487.961 L837.451 486.422 L842.914 484.107 L849.049 481.55 L853.59 479.368 L855.252 477.961 L854.221 477.353 L851.856 477.23 L849.837 477.149 L849.162 476.794 L849.375 476.201 " fill="none" stroke="#cbd5e1" stroke-width="2.216448" stroke-linecap="round" stroke-linejoin="round" opacity="0.32" /><path d="M852.634 489.101 L850.767 488.232 L846.218 488.101 L840.543 488.396 L836.089 488.535 L834.84 487.961 L837.451 486.422 L842.914 484.107 L849.049 481.55 L853.59 479.368 L855.252 477.961 L854.221 477.353 L851.856 477.23 L849.837 477.149 L849.162 476.794 L849.375 476.201 " fill="none" stroke="#334155" stroke-width="1.3824" stroke-linecap="round" stroke-linejoin="round" opacity="0.96" /><path d="M852.634 489.101 L850.767 488.232 L846.218 488.101 L840.543 488.396 L836.089 488.535 L834.84 487.961 L837.451 486.422 L842.914 484.107 L849.049 481.55 L853.59 479.368 L855.252 477.961 L854.221 477.353 L851.856 477.23 L849.837 477.149 L849.162 476.794 L849.375 476.201 " fill="none" stroke="#94a3b8" stroke-width="0.31104" stroke-linecap="round" stroke-linejoin="round" opacity="0.88" /><path d="M852.634 489.101 L850.834 487.91 L846.284 487.097 L840.578 486.559 L836.123 486.027 L834.953 485.212 L837.742 483.951 L843.452 482.297 L849.85 480.493 L854.612 478.851 L856.425 477.596 L855.48 476.776 L853.171 476.259 L851.22 475.827 L850.65 475.301 L850.99 474.654 " fill="none" stroke="#cbd5e1" stroke-width="2.216448" stroke-linecap="round" stroke-linejoin="round" opacity="0.32" /><path d="M852.634 489.101 L850.834 487.91 L846.284 487.097 L840.578 486.559 L836.123 486.027 L834.953 485.212 L837.742 483.951 L843.452 482.297 L849.85 480.493 L854.612 478.851 L856.425 477.596 L855.48 476.776 L853.171 476.259 L851.22 475.827 L850.65 475.301 L850.99 474.654 " fill="none" stroke="#334155" stroke-width="1.3824" stroke-linecap="round" stroke-linejoin="round" opacity="0.96" /><path d="M852.634 489.101 L850.834 487.91 L846.284 487.097 L840.578 486.559 L836.123 486.027 L834.953 485.212 L837.742 483.951 L843.452 482.297 L849.85 480.493 L854.612 478.851 L856.425 477.596 L855.48 476.776 L853.171 476.259 L851.22 475.827 L850.65 475.301 L850.99 474.654 " fill="none" stroke="#94a3b8" stroke-width="0.31104" stroke-linecap="round" stroke-linejoin="round" opacity="0.88" /><path d="M852.634 489.101 L851.896 487.729 L851.498 483.478 L851.244 477.846 L850.827 473.328 L849.988 472.112 L848.647 474.954 L846.937 480.836 L845.134 487.506 L843.531 492.562 L842.301 494.541 L841.436 493.516 L840.767 490.893 L840.075 488.499 L839.229 487.452 L838.28 487.34 " fill="none" stroke="#cbd5e1" stroke-width="2.216448" stroke-linecap="round" stroke-linejoin="round" opacity="0.32" /><path d="M852.634 489.101 L851.896 487.729 L851.498 483.478 L851.244 477.846 L850.827 473.328 L849.988 472.112 L848.647 474.954 L846.937 480.836 L845.134 487.506 L843.531 492.562 L842.301 494.541 L841.436 493.516 L840.767 490.893 L840.075 488.499 L839.229 487.452 L838.28 487.34 " fill="none" stroke="#334155" stroke-width="1.3824" stroke-linecap="round" stroke-linejoin="round" opacity="0.96" /><path d="M852.634 489.101 L851.896 487.729 L851.498 483.478 L851.244 477.846 L850.827 473.328 L849.988 472.112 L848.647 474.954 L846.937 480.836 L845.134 487.506 L843.531 492.562 L842.301 494.541 L841.436 493.516 L840.767 490.893 L840.075 488.499 L839.229 487.452 L838.28 487.34 " fill="none" stroke="#94a3b8" stroke-width="0.31104" stroke-linecap="round" stroke-linejoin="round" opacity="0.88" /><path d="M852.634 489.101 L852.558 487.646 L853.599 483.52 L855.126 478.101 L856.142 473.703 L855.802 472.358 L853.844 474.773 L850.703 480.009 L847.278 485.98 L844.504 490.458 L842.932 492.08 L842.507 490.91 L842.66 488.251 L842.677 485.801 L842.144 484.597 L841.254 484.263 " fill="none" stroke="#cbd5e1" stroke-width="2.216448" stroke-linecap="round" stroke-linejoin="round" opacity="0.32" /><path d="M852.634 489.101 L852.558 487.646 L853.599 483.52 L855.126 478.101 L856.142 473.703 L855.802 472.358 L853.844 474.773 L850.703 480.009 L847.278 485.98 L844.504 490.458 L842.932 492.08 L842.507 490.91 L842.66 488.251 L842.677 485.801 L842.144 484.597 L841.254 484.263 " fill="none" stroke="#334155" stroke-width="1.3824" stroke-linecap="round" stroke-linejoin="round" opacity="0.96" /><path d="M852.634 489.101 L852.558 487.646 L853.599 483.52 L855.126 478.101 L856.142 473.703 L855.802 472.358 L853.844 474.773 L850.703 480.009 L847.278 485.98 L844.504 490.458 L842.932 492.08 L842.507 490.91 L842.66 488.251 L842.677 485.801 L842.144 484.597 L841.254 484.263 " fill="none" stroke="#94a3b8" stroke-width="0.31104" stroke-linecap="round" stroke-linejoin="round" opacity="0.88" /><path d="M841.254 484.263 L841.552 482.876 L843.275 478.878 L845.635 473.619 L847.374 469.361 L847.415 468.088 L845.412 470.49 L841.905 475.649 L838.028 481.526 L834.972 485.943 L833.444 487.57 L833.38 486.468 L834.064 483.912 L834.589 481.561 L834.418 480.43 L833.79 480.149 " fill="none" stroke="#cbd5e1" stroke-width="2.216448" stroke-linecap="round" stroke-linejoin="round" opacity="0.32" /><path d="M841.254 484.263 L841.552 482.876 L843.275 478.878 L845.635 473.619 L847.374 469.361 L847.415 468.088 L845.412 470.49 L841.905 475.649 L838.028 481.526 L834.972 485.943 L833.444 487.57 L833.38 486.468 L834.064 483.912 L834.589 481.561 L834.418 480.43 L833.79 480.149 " fill="none" stroke="#334155" stroke-width="1.3824" stroke-linecap="round" stroke-linejoin="round" opacity="0.96" /><path d="M841.254 484.263 L841.552 482.876 L843.275 478.878 L845.635 473.619 L847.374 469.361 L847.415 468.088 L845.412 470.49 L841.905 475.649 L838.028 481.526 L834.972 485.943 L833.444 487.57 L833.38 486.468 L834.064 483.912 L834.589 481.561 L834.418 480.43 L833.79 480.149 " fill="none" stroke="#94a3b8" stroke-width="0.31104" stroke-linecap="round" stroke-linejoin="round" opacity="0.88" /><path d="M850.99 474.654 L851.189 473.177 L852.613 468.989 L854.572 463.509 L855.977 459.098 L855.902 457.815 L854.061 460.363 L850.926 465.771 L847.482 471.915 L844.75 476.531 L843.332 478.249 L843.164 477.148 L843.625 474.562 L843.934 472.215 L843.635 471.152 L842.944 470.97 " fill="none" stroke="#cbd5e1" stroke-width="2.216448" stroke-linecap="round" stroke-linejoin="round" opacity="0.32" /><path d="M850.99 474.654 L851.189 473.177 L852.613 468.989 L854.572 463.509 L855.977 459.098 L855.902 457.815 L854.061 460.363 L850.926 465.771 L847.482 471.915 L844.75 476.531 L843.332 478.249 L843.164 477.148 L843.625 474.562 L843.934 472.215 L843.635 471.152 L842.944 470.97 " fill="none" stroke="#334155" stroke-width="1.3824" stroke-linecap="round" stroke-linejoin="round" opacity="0.96" /><path d="M850.99 474.654 L851.189 473.177 L852.613 468.989 L854.572 463.509 L855.977 459.098 L855.902 457.815 L854.061 460.363 L850.926 465.771 L847.482 471.915 L844.75 476.531 L843.332 478.249 L843.164 477.148 L843.625 474.562 L843.934 472.215 L843.635 471.152 L842.944 470.97 " fill="none" stroke="#94a3b8" stroke-width="0.31104" stroke-linecap="round" stroke-linejoin="round" opacity="0.88" /><path d="M838.28 487.34 L837.37 481.97 L836.636 466.205 L836.022 445.801 L835.414 427.7 L834.702 416.882 L833.829 414.621 L832.812 419.002 L831.734 426.763 L830.696 435.243 L829.779 443.535 L829.016 452.318 L828.395 462.511 L827.893 473.682 L827.496 483.316 L827.211 487.136 " fill="none" stroke="#fed7aa" stroke-width="3.2631040000000002" stroke-linecap="round" stroke-linejoin="round" opacity="0.32" /><path d="M838.28 487.34 L837.37 481.97 L836.636 466.205 L836.022 445.801 L835.414 427.7 L834.702 416.882 L833.829 414.621 L832.812 419.002 L831.734 426.763 L830.696 435.243 L829.779 443.535 L829.016 452.318 L828.395 462.511 L827.893 473.682 L827.496 483.316 L827.211 487.136 " fill="none" stroke="#d97706" stroke-width="2.0352" stroke-linecap="round" stroke-linejoin="round" opacity="0.96" /><path d="M838.28 487.34 L837.37 481.97 L836.636 466.205 L836.022 445.801 L835.414 427.7 L834.702 416.882 L833.829 414.621 L832.812 419.002 L831.734 426.763 L830.696 435.243 L829.779 443.535 L829.016 452.318 L828.395 462.511 L827.893 473.682 L827.496 483.316 L827.211 487.136 " fill="none" stroke="#f59e0b" stroke-width="0.45792" stroke-linecap="round" stroke-linejoin="round" opacity="0.88" /><path d="M848.268 477.272 L849.47 472.041 L853.453 455.75 L858.729 433.968 L863.45 413.856 L866.237 400.914 L866.665 396.94 L865.156 400.355 L862.502 408.012 L859.377 417.202 L856.044 426.84 L852.417 437.305 L848.402 449.104 L844.263 461.384 L840.749 471.381 L838.972 474.879 " fill="none" stroke="#fed7aa" stroke-width="3.30928" stroke-linecap="round" stroke-linejoin="round" opacity="0.32" /><path d="M848.268 477.272 L849.47 472.041 L853.453 455.75 L858.729 433.968 L863.45 413.856 L866.237 400.914 L866.665 396.94 L865.156 400.355 L862.502 408.012 L859.377 417.202 L856.044 426.84 L852.417 437.305 L848.402 449.104 L844.263 461.384 L840.749 471.381 L838.972 474.879 " fill="none" stroke="#d97706" stroke-width="2.064" stroke-linecap="round" stroke-linejoin="round" opacity="0.96" /><path d="M848.268 477.272 L849.47 472.041 L853.453 455.75 L858.729 433.968 L863.45 413.856 L866.237 400.914 L866.665 396.94 L865.156 400.355 L862.502 408.012 L859.377 417.202 L856.044 426.84 L852.417 437.305 L848.402 449.104 L844.263 461.384 L840.749 471.381 L838.972 474.879 " fill="none" stroke="#f59e0b" stroke-width="0.4644" stroke-linecap="round" stroke-linejoin="round" opacity="0.88" /><circle cx="864.206" cy="531.241" r="1.914" fill="#f6efe1" opacity="0.22" /><circle cx="864.206" cy="531.241" r="1.679" fill="#0f766e" /><circle cx="864.206" cy="531.241" r="4.679" fill="none" stroke="#d8cbb3" stroke-width="1.4" opacity="0.55" /><circle cx="862.158" cy="502.011" r="1.914" fill="#f6efe1" opacity="0.22" /><circle cx="862.158" cy="502.011" r="1.679" fill="#0f766e" /><circle cx="862.158" cy="502.011" r="4.679" fill="none" stroke="#d8cbb3" stroke-width="1.4" opacity="0.55" /><circle cx="852.634" cy="489.101" r="2.891" fill="#fff5d6" opacity="0.46" /><circle cx="852.634" cy="489.101" r="2.095" fill="#0f766e" /><circle cx="852.634" cy="489.101" r="5.095" fill="none" stroke="#b7791f" stroke-width="2.4" opacity="0.95" /><circle cx="838.28" cy="487.34" r="1.914" fill="#f6efe1" opacity="0.22" /><circle cx="838.28" cy="487.34" r="1.679" fill="#0f766e" /><circle cx="838.28" cy="487.34" r="4.679" fill="none" stroke="#d8cbb3" stroke-width="1.4" opacity="0.55" /><circle cx="827.211" cy="487.136" r="1.914" fill="#f6efe1" opacity="0.22" /><circle cx="827.211" cy="487.136" r="1.679" fill="#0f766e" /><circle cx="827.211" cy="487.136" r="4.679" fill="none" stroke="#d8cbb3" stroke-width="1.4" opacity="0.55" /><circle cx="841.254" cy="484.263" r="1.914" fill="#f6efe1" opacity="0.22" /><circle cx="841.254" cy="484.263" r="1.679" fill="#0f766e" /><circle cx="841.254" cy="484.263" r="4.679" fill="none" stroke="#d8cbb3" stroke-width="1.4" opacity="0.55" /><circle cx="833.79" cy="480.149" r="1.914" fill="#f6efe1" opacity="0.22" /><circle cx="833.79" cy="480.149" r="1.679" fill="#0f766e" /><circle cx="833.79" cy="480.149" r="4.679" fill="none" stroke="#d8cbb3" stroke-width="1.4" opacity="0.55" /><circle cx="848.268" cy="477.272" r="1.914" fill="#f6efe1" opacity="0.22" /><circle cx="848.268" cy="477.272" r="1.679" fill="#0f766e" /><circle cx="848.268" cy="477.272" r="4.679" fill="none" stroke="#d8cbb3" stroke-width="1.4" opacity="0.55" /><circle cx="849.375" cy="476.201" r="1.914" fill="#f6efe1" opacity="0.22" /><circle cx="849.375" cy="476.201" r="1.679" fill="#0f766e" /><circle cx="849.375" cy="476.201" r="4.679" fill="none" stroke="#d8cbb3" stroke-width="1.4" opacity="0.55" /><circle cx="849.974" cy="475.625" r="1.914" fill="#f6efe1" opacity="0.22" /><circle cx="849.974" cy="475.625" r="1.679" fill="#0f766e" /><circle cx="849.974" cy="475.625" r="4.679" fill="none" stroke="#d8cbb3" stroke-width="1.4" opacity="0.55" /><circle cx="838.972" cy="474.879" r="1.914" fill="#f6efe1" opacity="0.22" /><circle cx="838.972" cy="474.879" r="1.679" fill="#0f766e" /><circle cx="838.972" cy="474.879" r="4.679" fill="none" stroke="#d8cbb3" stroke-width="1.4" opacity="0.55" /><circle cx="850.99" cy="474.654" r="1.914" fill="#f6efe1" opacity="0.22" /><circle cx="850.99" cy="474.654" r="1.679" fill="#0f766e" /><circle cx="850.99" cy="474.654" r="4.679" fill="none" stroke="#d8cbb3" stroke-width="1.4" opacity="0.55" /><circle cx="842.944" cy="470.97" r="1.914" fill="#f6efe1" opacity="0.22" /><circle cx="842.944" cy="470.97" r="1.679" fill="#0f766e" /><circle cx="842.944" cy="470.97" r="4.679" fill="none" stroke="#d8cbb3" stroke-width="1.4" opacity="0.55" /><circle cx="844.43" cy="469.536" r="1.914" fill="#f6efe1" opacity="0.22" /><circle cx="844.43" cy="469.536" r="1.679" fill="#0f766e" /><circle cx="844.43" cy="469.536" r="4.679" fill="none" stroke="#d8cbb3" stroke-width="1.4" opacity="0.55" /><circle cx="848.725" cy="465.474" r="1.914" fill="#f6efe1" opacity="0.22" /><circle cx="848.725" cy="465.474" r="1.679" fill="#0f766e" /><circle cx="848.725" cy="465.474" r="4.679" fill="none" stroke="#d8cbb3" stroke-width="1.4" opacity="0.55" /><rect x="793.028" y="500.924" width="78" height="17.6" rx="8.8" fill="#deebf4" stroke="#3a6b87" opacity="0.82" /><text x="800.228" y="512.924" class="move-label" style="font-size:9.6px">out O-O</text><rect x="820.503" y="465.298" width="78" height="17.6" rx="8.8" fill="#fdebd2" stroke="#c27b1b" opacity="0.82" /><text x="827.703" y="477.298" class="move-label" style="font-size:9.6px">in Nf6</text><rect x="833.999" y="491.83" width="78" height="17.6" rx="8.8" fill="#deebf4" stroke="#3a6b87" opacity="0.82" /><text x="841.199" y="503.83" class="move-label" style="font-size:9.6px">out Ng5</text><rect x="827.402" y="380.012" width="78" height="17.6" rx="8.8" fill="#f7f1e6" stroke="#d97706" opacity="0.43" /><text x="834.602" y="392.012" class="move-label" style="font-size:9.6px">Nxe4</text><circle cx="852.634" cy="489.101" r="10" fill="none" stroke="#7a4b12" stroke-width="2.4" opacity="0.8" /></g><defs><clipPath id="anchored-entrypoint-panel-2-clip"><rect x="1144" y="176" width="516" height="620" rx="26" /></clipPath></defs><rect x="1144" y="176" width="516" height="620" rx="26" fill="#fdfbf6" stroke="#dcd3c4" /><ellipse cx="1402" cy="721.6" rx="144.48" ry="37.2" fill="#ece3d3" opacity="0.72" /><g clip-path="url(#anchored-entrypoint-panel-2-clip)"><path d="M1405.108 485.279 L1405.198 483.962 L1405.738 481.296 L1406.633 477.633 L1407.741 473.519 L1408.916 469.525 L1410.043 466.092 L1411.027 463.484 L1411.778 461.813 L1412.188 461.131 L1412.134 461.495 L1411.511 462.992 L1410.284 465.683 L1408.532 469.503 L1406.454 474.186 L1404.333 479.245 L1402.476 484.04 L1401.146 487.901 L1400.508 490.29 L1400.584 490.962 L1401.245 490.069 L1402.247 488.146 L1403.305 485.947 L1404.179 484.2 L1404.744 483.367 L1405.002 483.524 L1405.06 484.372 L1405.109 485.279 " fill="none" stroke="#cbd5e1" stroke-width="2.285712" stroke-linecap="round" stroke-linejoin="round" opacity="0.32" /><path d="M1405.108 485.279 L1405.198 483.962 L1405.738 481.296 L1406.633 477.633 L1407.741 473.519 L1408.916 469.525 L1410.043 466.092 L1411.027 463.484 L1411.778 461.813 L1412.188 461.131 L1412.134 461.495 L1411.511 462.992 L1410.284 465.683 L1408.532 469.503 L1406.454 474.186 L1404.333 479.245 L1402.476 484.04 L1401.146 487.901 L1400.508 490.29 L1400.584 490.962 L1401.245 490.069 L1402.247 488.146 L1403.305 485.947 L1404.179 484.2 L1404.744 483.367 L1405.002 483.524 L1405.06 484.372 L1405.109 485.279 " fill="none" stroke="#334155" stroke-width="1.4256" stroke-linecap="round" stroke-linejoin="round" opacity="0.96" /><path d="M1405.108 485.279 L1405.198 483.962 L1405.738 481.296 L1406.633 477.633 L1407.741 473.519 L1408.916 469.525 L1410.043 466.092 L1411.027 463.484 L1411.778 461.813 L1412.188 461.131 L1412.134 461.495 L1411.511 462.992 L1410.284 465.683 L1408.532 469.503 L1406.454 474.186 L1404.333 479.245 L1402.476 484.04 L1401.146 487.901 L1400.508 490.29 L1400.584 490.962 L1401.245 490.069 L1402.247 488.146 L1403.305 485.947 L1404.179 484.2 L1404.744 483.367 L1405.002 483.524 L1405.06 484.372 L1405.109 485.279 " fill="none" stroke="#94a3b8" stroke-width="0.32076" stroke-linecap="round" stroke-linejoin="round" opacity="0.88" /><circle cx="1405.198" cy="483.962" r="0.168" fill="#e2e8f0" opacity="0.9" /><circle cx="1410.043" cy="466.092" r="0.168" fill="#e2e8f0" opacity="0.9" /><circle cx="1411.511" cy="462.992" r="0.168" fill="#e2e8f0" opacity="0.9" /><circle cx="1402.476" cy="484.04" r="0.168" fill="#e2e8f0" opacity="0.9" /><circle cx="1402.247" cy="488.146" r="0.168" fill="#e2e8f0" opacity="0.9" /><circle cx="1405.06" cy="484.372" r="0.168" fill="#e2e8f0" opacity="0.9" /><path d="M1405.109 485.279 L1405.174 484.197 L1405.532 481.834 L1406.12 478.523 L1406.85 474.788 L1407.638 471.164 L1408.418 468.057 L1409.134 465.69 L1409.723 464.141 L1410.1 463.437 L1410.159 463.637 L1409.805 464.855 L1408.998 467.206 L1407.791 470.686 L1406.328 475.079 L1404.823 479.93 L1403.503 484.603 L1402.562 488.415 L1402.114 490.804 L1402.169 491.501 L1402.624 490.639 L1403.303 488.738 L1404.004 486.544 L1404.567 484.772 L1404.916 483.872 L1405.064 483.907 L1405.086 484.578 L1405.109 485.28 " fill="none" stroke="#cbd5e1" stroke-width="2.216448" stroke-linecap="round" stroke-linejoin="round" opacity="0.32" /><path d="M1405.109 485.279 L1405.174 484.197 L1405.532 481.834 L1406.12 478.523 L1406.85 474.788 L1407.638 471.164 L1408.418 468.057 L1409.134 465.69 L1409.723 464.141 L1410.1 463.437 L1410.159 463.637 L1409.805 464.855 L1408.998 467.206 L1407.791 470.686 L1406.328 475.079 L1404.823 479.93 L1403.503 484.603 L1402.562 488.415 L1402.114 490.804 L1402.169 491.501 L1402.624 490.639 L1403.303 488.738 L1404.004 486.544 L1404.567 484.772 L1404.916 483.872 L1405.064 483.907 L1405.086 484.578 L1405.109 485.28 " fill="none" stroke="#334155" stroke-width="1.3824" stroke-linecap="round" stroke-linejoin="round" opacity="0.96" /><path d="M1405.109 485.279 L1405.174 484.197 L1405.532 481.834 L1406.12 478.523 L1406.85 474.788 L1407.638 471.164 L1408.418 468.057 L1409.134 465.69 L1409.723 464.141 L1410.1 463.437 L1410.159 463.637 L1409.805 464.855 L1408.998 467.206 L1407.791 470.686 L1406.328 475.079 L1404.823 479.93 L1403.503 484.603 L1402.562 488.415 L1402.114 490.804 L1402.169 491.501 L1402.624 490.639 L1403.303 488.738 L1404.004 486.544 L1404.567 484.772 L1404.916 483.872 L1405.064 483.907 L1405.086 484.578 L1405.109 485.28 " fill="none" stroke="#94a3b8" stroke-width="0.31104" stroke-linecap="round" stroke-linejoin="round" opacity="0.88" /><circle cx="1405.174" cy="484.197" r="0.168" fill="#e2e8f0" opacity="0.9" /><circle cx="1408.418" cy="468.057" r="0.168" fill="#e2e8f0" opacity="0.9" /><circle cx="1409.805" cy="464.855" r="0.168" fill="#e2e8f0" opacity="0.9" /><circle cx="1403.503" cy="484.603" r="0.168" fill="#e2e8f0" opacity="0.9" /><circle cx="1403.303" cy="488.738" r="0.168" fill="#e2e8f0" opacity="0.9" /><circle cx="1405.086" cy="484.578" r="0.168" fill="#e2e8f0" opacity="0.9" /><path d="M1405.109 485.28 L1404.794 490.424 L1404.805 496.346 L1405.1 502.568 L1405.616 508.298 L1406.289 512.639 L1407.056 514.949 L1407.837 515.165 L1408.519 513.895 L1408.944 512.248 L1408.945 511.435 L1408.382 512.318 L1407.199 515.08 L1405.464 519.14 L1403.387 523.345 L1401.291 526.371 L1399.54 527.223 L1398.437 525.602 L1398.132 521.998 L1398.575 517.411 L1399.553 512.868 L1400.773 508.975 L1401.972 505.742 L1402.977 502.707 L1403.731 499.278 L1404.273 495.087 L1404.692 490.224 L1405.11 485.28 " fill="none" stroke="#cbd5e1" stroke-width="2.262624" stroke-linecap="round" stroke-linejoin="round" opacity="0.32" /><path d="M1405.109 485.28 L1404.794 490.424 L1404.805 496.346 L1405.1 502.568 L1405.616 508.298 L1406.289 512.639 L1407.056 514.949 L1407.837 515.165 L1408.519 513.895 L1408.944 512.248 L1408.945 511.435 L1408.382 512.318 L1407.199 515.08 L1405.464 519.14 L1403.387 523.345 L1401.291 526.371 L1399.54 527.223 L1398.437 525.602 L1398.132 521.998 L1398.575 517.411 L1399.553 512.868 L1400.773 508.975 L1401.972 505.742 L1402.977 502.707 L1403.731 499.278 L1404.273 495.087 L1404.692 490.224 L1405.11 485.28 " fill="none" stroke="#334155" stroke-width="1.4112" stroke-linecap="round" stroke-linejoin="round" opacity="0.96" /><path d="M1405.109 485.28 L1404.794 490.424 L1404.805 496.346 L1405.1 502.568 L1405.616 508.298 L1406.289 512.639 L1407.056 514.949 L1407.837 515.165 L1408.519 513.895 L1408.944 512.248 L1408.945 511.435 L1408.382 512.318 L1407.199 515.08 L1405.464 519.14 L1403.387 523.345 L1401.291 526.371 L1399.54 527.223 L1398.437 525.602 L1398.132 521.998 L1398.575 517.411 L1399.553 512.868 L1400.773 508.975 L1401.972 505.742 L1402.977 502.707 L1403.731 499.278 L1404.273 495.087 L1404.692 490.224 L1405.11 485.28 " fill="none" stroke="#94a3b8" stroke-width="0.31751999999999997" stroke-linecap="round" stroke-linejoin="round" opacity="0.88" /><circle cx="1404.794" cy="490.424" r="0.168" fill="#e2e8f0" opacity="0.9" /><circle cx="1407.056" cy="514.949" r="0.168" fill="#e2e8f0" opacity="0.9" /><circle cx="1408.382" cy="512.318" r="0.168" fill="#e2e8f0" opacity="0.9" /><circle cx="1399.54" cy="527.223" r="0.168" fill="#e2e8f0" opacity="0.9" /><circle cx="1400.773" cy="508.975" r="0.168" fill="#e2e8f0" opacity="0.9" /><circle cx="1404.692" cy="490.224" r="0.168" fill="#e2e8f0" opacity="0.9" /><path d="M1248.285 521.645 L1266.351 495.906 L1291.149 472.947 L1320.271 453.653 L1351.138 439.147 L1381.26 430.283 L1408.688 426.957 L1432.301 427.703 L1451.797 429.854 L1467.393 430.299 L1479.409 426.514 L1487.949 417.474 L1492.848 404.08 L1493.877 388.919 L1491.09 375.411 L1485.086 366.654 L1477 364.415 L1468.199 368.692 L1459.838 377.96 L1452.488 389.949 L1446.028 402.548 L1439.851 414.476 L1433.281 425.499 L1426.024 436.175 L1418.434 447.292 L1411.492 459.332 L1406.543 472.19 L1405.108 485.279 " fill="none" stroke="#fed7aa" stroke-width="3.355456" stroke-linecap="round" stroke-linejoin="round" opacity="0.32" /><path d="M1248.285 521.645 L1266.351 495.906 L1291.149 472.947 L1320.271 453.653 L1351.138 439.147 L1381.26 430.283 L1408.688 426.957 L1432.301 427.703 L1451.797 429.854 L1467.393 430.299 L1479.409 426.514 L1487.949 417.474 L1492.848 404.08 L1493.877 388.919 L1491.09 375.411 L1485.086 366.654 L1477 364.415 L1468.199 368.692 L1459.838 377.96 L1452.488 389.949 L1446.028 402.548 L1439.851 414.476 L1433.281 425.499 L1426.024 436.175 L1418.434 447.292 L1411.492 459.332 L1406.543 472.19 L1405.108 485.279 " fill="none" stroke="#d97706" stroke-width="2.0928" stroke-linecap="round" stroke-linejoin="round" opacity="0.96" /><path d="M1248.285 521.645 L1266.351 495.906 L1291.149 472.947 L1320.271 453.653 L1351.138 439.147 L1381.26 430.283 L1408.688 426.957 L1432.301 427.703 L1451.797 429.854 L1467.393 430.299 L1479.409 426.514 L1487.949 417.474 L1492.848 404.08 L1493.877 388.919 L1491.09 375.411 L1485.086 366.654 L1477 364.415 L1468.199 368.692 L1459.838 377.96 L1452.488 389.949 L1446.028 402.548 L1439.851 414.476 L1433.281 425.499 L1426.024 436.175 L1418.434 447.292 L1411.492 459.332 L1406.543 472.19 L1405.108 485.279 " fill="none" stroke="#f59e0b" stroke-width="0.47087999999999997" stroke-linecap="round" stroke-linejoin="round" opacity="0.88" /><circle cx="1266.351" cy="495.906" r="0.21974400000000002" fill="#fde68a" opacity="0.9" /><circle cx="1408.688" cy="426.957" r="0.21974400000000002" fill="#fde68a" opacity="0.9" /><circle cx="1487.949" cy="417.474" r="0.21974400000000002" fill="#fde68a" opacity="0.9" /><circle cx="1477" cy="364.415" r="0.21974400000000002" fill="#fde68a" opacity="0.9" /><circle cx="1439.851" cy="414.476" r="0.21974400000000002" fill="#fde68a" opacity="0.9" /><circle cx="1406.543" cy="472.19" r="0.21974400000000002" fill="#fde68a" opacity="0.9" /><path d="M1248.278 521.658 L1239.876 523.367 L1232.253 526.906 L1225.643 531.97 L1220.543 537.928 L1217.666 543.969 L1217.521 549.32 L1219.882 553.442 L1223.5 556.098 L1226.32 557.277 L1226.105 557.016 L1221.172 555.263 L1211.007 551.877 L1196.624 546.774 L1180.534 540.153 L1166.15 532.675 L1156.677 525.42 L1153.951 519.584 L1157.881 516.049 L1166.8 515.083 L1178.374 516.293 L1190.518 518.808 L1201.939 521.571 L1212.242 523.645 L1221.669 524.486 L1230.672 524.071 L1239.536 522.852 L1248.282 521.651 " fill="none" stroke="#cbd5e1" stroke-width="2.354976" stroke-linecap="round" stroke-linejoin="round" opacity="0.32" /><path d="M1248.278 521.658 L1239.876 523.367 L1232.253 526.906 L1225.643 531.97 L1220.543 537.928 L1217.666 543.969 L1217.521 549.32 L1219.882 553.442 L1223.5 556.098 L1226.32 557.277 L1226.105 557.016 L1221.172 555.263 L1211.007 551.877 L1196.624 546.774 L1180.534 540.153 L1166.15 532.675 L1156.677 525.42 L1153.951 519.584 L1157.881 516.049 L1166.8 515.083 L1178.374 516.293 L1190.518 518.808 L1201.939 521.571 L1212.242 523.645 L1221.669 524.486 L1230.672 524.071 L1239.536 522.852 L1248.282 521.651 " fill="none" stroke="#334155" stroke-width="1.4687999999999999" stroke-linecap="round" stroke-linejoin="round" opacity="0.96" /><path d="M1248.278 521.658 L1239.876 523.367 L1232.253 526.906 L1225.643 531.97 L1220.543 537.928 L1217.666 543.969 L1217.521 549.32 L1219.882 553.442 L1223.5 556.098 L1226.32 557.277 L1226.105 557.016 L1221.172 555.263 L1211.007 551.877 L1196.624 546.774 L1180.534 540.153 L1166.15 532.675 L1156.677 525.42 L1153.951 519.584 L1157.881 516.049 L1166.8 515.083 L1178.374 516.293 L1190.518 518.808 L1201.939 521.571 L1212.242 523.645 L1221.669 524.486 L1230.672 524.071 L1239.536 522.852 L1248.282 521.651 " fill="none" stroke="#94a3b8" stroke-width="0.33048" stroke-linecap="round" stroke-linejoin="round" opacity="0.88" /><circle cx="1239.876" cy="523.367" r="0.168" fill="#e2e8f0" opacity="0.9" /><circle cx="1217.521" cy="549.32" r="0.168" fill="#e2e8f0" opacity="0.9" /><circle cx="1221.172" cy="555.263" r="0.168" fill="#e2e8f0" opacity="0.9" /><circle cx="1156.677" cy="525.42" r="0.168" fill="#e2e8f0" opacity="0.9" /><circle cx="1190.518" cy="518.808" r="0.168" fill="#e2e8f0" opacity="0.9" /><circle cx="1239.536" cy="522.852" r="0.168" fill="#e2e8f0" opacity="0.9" /><path d="M1248.282 521.651 L1224.69 527.679 L1204.665 540.661 L1188.724 560.024 L1177.909 584.526 L1173.337 612.089 L1175.248 640.139 L1182.038 666.394 L1190.097 689.631 L1194.679 709.819 L1191.237 727.501 L1176.625 742.827 L1150.144 754.776 L1114.598 761.002 L1076.835 758.649 L1046.294 746.134 L1030.982 724.763 L1033.367 698.475 L1049.85 671.68 L1073.877 647.161 L1099.493 625.527 L1123.195 605.976 L1144.094 587.426 L1163.144 569.426 L1182.029 552.506 L1202.156 537.942 L1224.178 527.199 L1248.285 521.645 " fill="none" stroke="#fed7aa" stroke-width="3.378544" stroke-linecap="round" stroke-linejoin="round" opacity="0.32" /><path d="M1248.282 521.651 L1224.69 527.679 L1204.665 540.661 L1188.724 560.024 L1177.909 584.526 L1173.337 612.089 L1175.248 640.139 L1182.038 666.394 L1190.097 689.631 L1194.679 709.819 L1191.237 727.501 L1176.625 742.827 L1150.144 754.776 L1114.598 761.002 L1076.835 758.649 L1046.294 746.134 L1030.982 724.763 L1033.367 698.475 L1049.85 671.68 L1073.877 647.161 L1099.493 625.527 L1123.195 605.976 L1144.094 587.426 L1163.144 569.426 L1182.029 552.506 L1202.156 537.942 L1224.178 527.199 L1248.285 521.645 " fill="none" stroke="#d97706" stroke-width="2.1072" stroke-linecap="round" stroke-linejoin="round" opacity="0.96" /><path d="M1248.282 521.651 L1224.69 527.679 L1204.665 540.661 L1188.724 560.024 L1177.909 584.526 L1173.337 612.089 L1175.248 640.139 L1182.038 666.394 L1190.097 689.631 L1194.679 709.819 L1191.237 727.501 L1176.625 742.827 L1150.144 754.776 L1114.598 761.002 L1076.835 758.649 L1046.294 746.134 L1030.982 724.763 L1033.367 698.475 L1049.85 671.68 L1073.877 647.161 L1099.493 625.527 L1123.195 605.976 L1144.094 587.426 L1163.144 569.426 L1182.029 552.506 L1202.156 537.942 L1224.178 527.199 L1248.285 521.645 " fill="none" stroke="#f59e0b" stroke-width="0.47412" stroke-linecap="round" stroke-linejoin="round" opacity="0.88" /><circle cx="1224.69" cy="527.679" r="0.22125599999999998" fill="#fde68a" opacity="0.9" /><circle cx="1175.248" cy="640.139" r="0.22125599999999998" fill="#fde68a" opacity="0.9" /><circle cx="1176.625" cy="742.827" r="0.22125599999999998" fill="#fde68a" opacity="0.9" /><circle cx="1030.982" cy="724.763" r="0.22125599999999998" fill="#fde68a" opacity="0.9" /><circle cx="1123.195" cy="605.976" r="0.22125599999999998" fill="#fde68a" opacity="0.9" /><circle cx="1224.178" cy="527.199" r="0.22125599999999998" fill="#fde68a" opacity="0.9" /><circle cx="1405.11" cy="485.28" r="1.914" fill="#f6efe1" opacity="0.22" /><circle cx="1405.11" cy="485.28" r="1.679" fill="#7c3aed" /><circle cx="1405.11" cy="485.28" r="4.679" fill="none" stroke="#d8cbb3" stroke-width="1.4" opacity="0.55" /><circle cx="1405.109" cy="485.28" r="1.914" fill="#f6efe1" opacity="0.22" /><circle cx="1405.109" cy="485.28" r="1.679" fill="#7c3aed" /><circle cx="1405.109" cy="485.28" r="4.679" fill="none" stroke="#d8cbb3" stroke-width="1.4" opacity="0.55" /><circle cx="1405.109" cy="485.279" r="1.914" fill="#f6efe1" opacity="0.22" /><circle cx="1405.109" cy="485.279" r="1.679" fill="#7c3aed" /><circle cx="1405.109" cy="485.279" r="4.679" fill="none" stroke="#d8cbb3" stroke-width="1.4" opacity="0.55" /><circle cx="1405.108" cy="485.279" r="2.317" fill="#fff5d6" opacity="0.46" /><circle cx="1405.108" cy="485.279" r="1.679" fill="#7c3aed" /><circle cx="1405.108" cy="485.279" r="4.679" fill="none" stroke="#b7791f" stroke-width="2.4" opacity="0.95" /><circle cx="1248.278" cy="521.658" r="1.914" fill="#f6efe1" opacity="0.22" /><circle cx="1248.278" cy="521.658" r="1.679" fill="#2563eb" /><circle cx="1248.278" cy="521.658" r="4.679" fill="none" stroke="#d8cbb3" stroke-width="1.4" opacity="0.55" /><circle cx="1248.282" cy="521.651" r="1.914" fill="#f6efe1" opacity="0.22" /><circle cx="1248.282" cy="521.651" r="1.679" fill="#2563eb" /><circle cx="1248.282" cy="521.651" r="4.679" fill="none" stroke="#d8cbb3" stroke-width="1.4" opacity="0.55" /><circle cx="1248.285" cy="521.645" r="1.914" fill="#f6efe1" opacity="0.22" /><circle cx="1248.285" cy="521.645" r="1.679" fill="#2563eb" /><circle cx="1248.285" cy="521.645" r="4.679" fill="none" stroke="#d8cbb3" stroke-width="1.4" opacity="0.55" /><rect x="1371.354" y="446.186" width="78" height="17.6" rx="8.8" fill="#deebf4" stroke="#3a6b87" opacity="0.88" /><text x="1378.554" y="458.186" class="move-label" style="font-size:9.6px">out Bg7</text><rect x="1390.728" y="487.079" width="78" height="17.6" rx="8.8" fill="#f7f1e6" stroke="#334155" opacity="0.53" /><text x="1397.928" y="499.079" class="move-label" style="font-size:9.6px">b4</text><rect x="1368.287" y="495.345" width="78" height="17.6" rx="8.8" fill="#f7f1e6" stroke="#334155" opacity="0.43" /><text x="1375.487" y="507.345" class="move-label" style="font-size:9.6px">Nc6</text><rect x="1475.49" y="387.411" width="78" height="17.6" rx="8.8" fill="#fdebd2" stroke="#c27b1b" opacity="0.88" /><text x="1482.69" y="399.411" class="move-label" style="font-size:9.6px">in Rxb1</text><rect x="1164.934" y="552.153" width="78" height="17.6" rx="8.8" fill="#f7f1e6" stroke="#334155" opacity="0.48" /><text x="1172.134" y="564.153" class="move-label" style="font-size:9.6px">Kg2</text><rect x="1152" y="730.649" width="78" height="17.6" rx="8.8" fill="#f7f1e6" stroke="#d97706" opacity="0.58" /><text x="1159.2" y="742.649" class="move-label" style="font-size:9.6px">Qxb1</text><circle cx="1405.108" cy="485.279" r="10" fill="none" stroke="#7a4b12" stroke-width="2.4" opacity="0.8" /></g><text x="40" y="154" class="section">Opening · ply 0</text><rect x="40" y="814" width="516" height="130" rx="18" fill="#f4eee4" stroke="#ddd5c7" /><text x="58" y="840" class="section-small">Initial position</text><text x="58" y="862" class="copy">Radius 3 · distance 5.0</text><text x="58" y="886" class="copy">Initial position at full material. The farther stance</text><text x="58" y="904" class="copy">keeps early branch structure readable without leaving</text><text x="58" y="922" class="copy">the same object.</text><text x="592" y="154" class="section">Middlegame · ply 8</text><rect x="592" y="814" width="516" height="130" rx="18" fill="#f4eee4" stroke="#ddd5c7" /><text x="610" y="840" class="section-small">1. e4 subtree</text><text x="610" y="862" class="copy">Radius 2 · distance 4.2</text><text x="610" y="886" class="copy">1. e4 subtree at the branch-rich middle. This keeps</text><text x="610" y="904" class="copy">the current camera grammar baseline while preserving</text><text x="610" y="922" class="copy">local exploration.</text><text x="1144" y="154" class="section">Endgame · ply 35</text><rect x="1144" y="814" width="516" height="130" rx="18" fill="#f4eee4" stroke="#ddd5c7" /><text x="1162" y="840" class="section-small">1. Nc3 subtree</text><text x="1162" y="862" class="copy">Radius 3 · distance 3.3</text><text x="1162" y="886" class="copy">1. Nc3 subtree in the simplified region. The closer</text><text x="1162" y="904" class="copy">stance tightens on terminal-facing structure without</text><text x="1162" y="922" class="copy">changing graph identity.</text><rect x="40" y="972" width="1620" height="88" rx="18" fill="#f4eee4" stroke="#ddd5c7" /><text x="56" y="998" class="metric-label">Expected read</text><text x="56" y="1020" class="copy">Each panel is the same graph object under a different anchor and camera stance. Opening should read as full-material branching, middlegame</text><text x="56" y="1040" class="copy">as branch-rich local complexity, and endgame as simplified routing without turning into a different diagram family.</text><line x1="40" y1="1094" x2="94" y2="1094" stroke="#566574" stroke-width="12" stroke-linecap="round" /><line x1="52" y1="1094" x2="82" y2="1094" stroke="#87a9c8" stroke-width="4.5" stroke-linecap="round" /><circle cx="96" cy="1094" r="4" fill="#dcecff" /><circle cx="108" cy="1094" r="4" fill="#dcecff" /><text x="132" y="1099" class="copy">Entrypoints change anchor and emphasis only. Carrier semantics and label grammar stay continuous across all three views.</text></svg>