<svg xmlns="http://www.w3.org/2000/svg" width="1700" height="1134" viewBox="0 0 1700 1134"><style>.eyebrow { font: 700 14px "Avenir Next", "Segoe UI", sans-serif; letter-spacing: 0.14em; text-transform: uppercase; fill: #7a6a55; }.title { font: 700 30px "Iowan Old Style", "Palatino Linotype", serif; fill: #231f18; }.subtitle { font: 400 16px "Avenir Next", "Segoe UI", sans-serif; fill: #5f5547; }.section { font: 700 17px "Avenir Next", "Segoe UI", sans-serif; fill: #2c271f; }.section-small { font: 700 17px "Avenir Next", "Segoe UI", sans-serif; fill: #231f18; }.copy { font: 400 15px "Avenir Next", "Segoe UI", sans-serif; fill: #5f5547; }.metric-label { font: 700 12px "Avenir Next", "Segoe UI", sans-serif; letter-spacing: 0.08em; text-transform: uppercase; fill: #7a6a55; }.move-label { font: 700 12px "Avenir Next", "Segoe UI", sans-serif; fill: #231f18; }.board-label { font: 700 11px "Avenir Next", "Segoe UI", sans-serif; fill: #7a6a55; }.board-copy { font: 400 13px "Avenir Next", "Segoe UI", sans-serif; fill: #5f5547; }.board-piece { font: 700 28px "Georgia", "Times New Roman", serif; text-anchor: middle; dominant-baseline: middle; paint-order: stroke; }.board-piece.white { fill: #f0e6d0; stroke: #2b2116; stroke-width: 1.8px; }.board-piece.black { fill: #2a221b; stroke: #f7f0e4; stroke-width: 0.65px; }</style><rect width="100%" height="100%" fill="#ece6d8" /><rect x="24" y="24" width="1652" height="1086" rx="28" fill="#fbf7ef" stroke="#ddd5c7" /><text x="40" y="62" class="eyebrow">N12 anchored entrypoints review</text><text x="40" y="96" class="title">Opening, middlegame, and endgame over one object</text><text x="40" y="124" class="subtitle">initial-represented-subset:2026-04-11-fixture-004 · preset switches move camera and anchor without changing diagram family</text><defs><clipPath id="anchored-entrypoint-panel-0-clip"><rect x="40" y="176" width="516" height="620" rx="26" /></clipPath></defs><rect x="40" y="176" width="516" height="620" rx="26" fill="#fdfbf6" stroke="#dcd3c4" /><ellipse cx="298" cy="721.6" rx="144.48" ry="37.2" fill="#ece3d3" opacity="0.72" /><g clip-path="url(#anchored-entrypoint-panel-0-clip)"><path d="M333.837 482.863 L328.263 482.539 L322.665 482.542 L317.123 482.65 L311.7 482.6 L306.428 482.214 L301.303 481.487 L296.285 480.589 L291.306 479.789 L286.282 479.32 " fill="none" stroke="#cbd5e1" stroke-width="2.216448" stroke-linecap="round" stroke-linejoin="round" opacity="0.32" /><path d="M333.837 482.863 L328.263 482.539 L322.665 482.542 L317.123 482.65 L311.7 482.6 L306.428 482.214 L301.303 481.487 L296.285 480.589 L291.306 479.789 L286.282 479.32 " fill="none" stroke="#334155" stroke-width="1.3824" stroke-linecap="round" stroke-linejoin="round" opacity="0.96" /><path d="M286.282 479.32 L282.422 481.29 L278.16 482.573 L273.434 483.608 L268.264 484.934 L262.698 486.917 L256.76 489.553 L250.438 492.471 L243.724 495.114 L236.669 497.021 " fill="none" stroke="#cbd5e1" stroke-width="2.262624" stroke-linecap="round" stroke-linejoin="round" opacity="0.32" /><path d="M286.282 479.32 L282.422 481.29 L278.16 482.573 L273.434 483.608 L268.264 484.934 L262.698 486.917 L256.76 489.553 L250.438 492.471 L243.724 495.114 L236.669 497.021 " fill="none" stroke="#334155" stroke-width="1.4112" stroke-linecap="round" stroke-linejoin="round" opacity="0.96" /><path d="M236.669 497.021 L232.75 497.499 L228.571 496.976 L224.052 496.133 L219.177 495.793 L213.965 496.513 L208.433 498.302 L202.59 500.614 L196.464 502.613 L190.127 503.582 " fill="none" stroke="#cbd5e1" stroke-width="2.216448" stroke-linecap="round" stroke-linejoin="round" opacity="0.32" /><path d="M236.669 497.021 L232.75 497.499 L228.571 496.976 L224.052 496.133 L219.177 495.793 L213.965 496.513 L208.433 498.302 L202.59 500.614 L196.464 502.613 L190.127 503.582 " fill="none" stroke="#334155" stroke-width="1.3824" stroke-linecap="round" stroke-linejoin="round" opacity="0.96" /><circle cx="333.837" cy="482.863" r="2.872" fill="#fff5d6" opacity="0.46" /><circle cx="333.837" cy="482.863" r="2.081" fill="#2563eb" /><circle cx="333.837" cy="482.863" r="5.081" fill="none" stroke="#b7791f" stroke-width="2.4" opacity="0.95" /><circle cx="286.282" cy="479.32" r="2.006" fill="#f6efe1" opacity="0.22" /><circle cx="286.282" cy="479.32" r="1.76" fill="#2563eb" /><circle cx="286.282" cy="479.32" r="4.76" fill="none" stroke="#d8cbb3" stroke-width="1.4" opacity="0.55" /><circle cx="236.669" cy="497.021" r="1.914" fill="#f6efe1" opacity="0.22" /><circle cx="236.669" cy="497.021" r="1.679" fill="#2563eb" /><circle cx="236.669" cy="497.021" r="4.679" fill="none" stroke="#d8cbb3" stroke-width="1.4" opacity="0.55" /><circle cx="190.127" cy="503.582" r="1.914" fill="#f6efe1" opacity="0.22" /><circle cx="190.127" cy="503.582" r="1.679" fill="#2563eb" /><circle cx="190.127" cy="503.582" r="4.679" fill="none" stroke="#d8cbb3" stroke-width="1.4" opacity="0.55" /><rect x="290.828" y="494.214" width="78" height="17.6" rx="8.8" fill="#deebf4" stroke="#3a6b87" opacity="0.74" /><text x="298.028" y="506.214" class="move-label" style="font-size:9.6px">out d4</text><rect x="198.365" y="508.513" width="78" height="17.6" rx="8.8" fill="#f7f1e6" stroke="#334155" opacity="0.41" /><text x="205.565" y="520.513" class="move-label" style="font-size:9.6px">c4</text><rect x="276.317" y="448.863" width="115.04" height="17.6" rx="8.8" fill="#f7f1e6" stroke="#7a6a55" opacity="0.7" /><text x="283.517" y="460.863" class="move-label" style="font-size:9.6px">QGD Bogo-Indian A</text><circle cx="333.837" cy="482.863" r="10" fill="none" stroke="#7a4b12" stroke-width="2.4" opacity="0.8" /></g><defs><clipPath id="anchored-entrypoint-panel-1-clip"><rect x="592" y="176" width="516" height="620" rx="26" /></clipPath></defs><rect x="592" y="176" width="516" height="620" rx="26" fill="#fdfbf6" stroke="#dcd3c4" /><ellipse cx="850" cy="721.6" rx="144.48" ry="37.2" fill="#ece3d3" opacity="0.72" /><g clip-path="url(#anchored-entrypoint-panel-1-clip)"><path d="M856.47 477.865 L847.701 475.554 L832.698 474.211 L816.543 473.554 L804.119 473.077 L798.222 472.332 L798.791 471.154 L803.617 469.707 L809.971 468.331 L815.982 467.329 L821.158 466.842 L826.164 466.836 L832.189 467.178 L839.996 467.747 L848.9 468.535 L855.942 469.666 " fill="none" stroke="#99f6e4" stroke-width="2.53968" stroke-linecap="round" stroke-linejoin="round" opacity="0.32" /><path d="M856.47 477.865 L847.701 475.554 L832.698 474.211 L816.543 473.554 L804.119 473.077 L798.222 472.332 L798.791 471.154 L803.617 469.707 L809.971 468.331 L815.982 467.329 L821.158 466.842 L826.164 466.836 L832.189 467.178 L839.996 467.747 L848.9 468.535 L855.942 469.666 " fill="none" stroke="#0f766e" stroke-width="1.584" stroke-linecap="round" stroke-linejoin="round" opacity="0.96" /><path d="M856.47 477.865 L847.701 475.554 L832.698 474.211 L816.543 473.554 L804.119 473.077 L798.222 472.332 L798.791 471.154 L803.617 469.707 L809.971 468.331 L815.982 467.329 L821.158 466.842 L826.164 466.836 L832.189 467.178 L839.996 467.747 L848.9 468.535 L855.942 469.666 " fill="none" stroke="#14b8a6" stroke-width="0.35640000000000005" stroke-linecap="round" stroke-linejoin="round" opacity="0.88" /><path d="M850.121 490.057 L842.488 484.002 L828.979 476.664 L814.301 469.644 L803.032 464.23 L797.826 460.992 L798.652 459.732 L803.452 459.795 L809.666 460.519 L815.542 461.532 L820.618 462.796 L825.52 464.523 L831.36 467.008 L838.847 470.401 L847.343 474.424 L854.106 478.097 " fill="none" stroke="#99f6e4" stroke-width="2.53968" stroke-linecap="round" stroke-linejoin="round" opacity="0.32" /><path d="M850.121 490.057 L842.488 484.002 L828.979 476.664 L814.301 469.644 L803.032 464.23 L797.826 460.992 L798.652 459.732 L803.452 459.795 L809.666 460.519 L815.542 461.532 L820.618 462.796 L825.52 464.523 L831.36 467.008 L838.847 470.401 L847.343 474.424 L854.106 478.097 " fill="none" stroke="#0f766e" stroke-width="1.584" stroke-linecap="round" stroke-linejoin="round" opacity="0.96" /><path d="M850.121 490.057 L842.488 484.002 L828.979 476.664 L814.301 469.644 L803.032 464.23 L797.826 460.992 L798.652 459.732 L803.452 459.795 L809.666 460.519 L815.542 461.532 L820.618 462.796 L825.52 464.523 L831.36 467.008 L838.847 470.401 L847.343 474.424 L854.106 478.097 " fill="none" stroke="#14b8a6" stroke-width="0.35640000000000005" stroke-linecap="round" stroke-linejoin="round" opacity="0.88" /><path d="M849.499 506.044 L847.768 504.051 L843.145 502.062 L837.338 500.25 L832.889 498.724 L831.926 497.494 L835.125 496.482 L841.369 495.567 L848.291 494.647 L853.446 493.686 L855.458 492.727 L854.531 491.856 L852.145 491.16 L850.139 490.674 L849.623 490.35 L850.121 490.057 " fill="none" stroke="#cbd5e1" stroke-width="2.262624" stroke-linecap="round" stroke-linejoin="round" opacity="0.32" /><path d="M849.499 506.044 L847.768 504.051 L843.145 502.062 L837.338 500.25 L832.889 498.724 L831.926 497.494 L835.125 496.482 L841.369 495.567 L848.291 494.647 L853.446 493.686 L855.458 492.727 L854.531 491.856 L852.145 491.16 L850.139 490.674 L849.623 490.35 L850.121 490.057 " fill="none" stroke="#334155" stroke-width="1.4112" stroke-linecap="round" stroke-linejoin="round" opacity="0.96" /><path d="M849.499 506.044 L847.768 504.051 L843.145 502.062 L837.338 500.25 L832.889 498.724 L831.926 497.494 L835.125 496.482 L841.369 495.567 L848.291 494.647 L853.446 493.686 L855.458 492.727 L854.531 491.856 L852.145 491.16 L850.139 490.674 L849.623 490.35 L850.121 490.057 " fill="none" stroke="#94a3b8" stroke-width="0.31751999999999997" stroke-linecap="round" stroke-linejoin="round" opacity="0.88" /><path d="M850.121 490.057 L848.897 487.657 L844.995 483.98 L839.995 479.932 L836.25 476.73 L835.73 475.328 L839.061 475.958 L845.202 478.019 L851.959 480.372 L857.08 481.907 L859.306 482.054 L858.835 480.983 L857.037 479.42 L855.605 478.208 L855.566 477.798 L856.47 477.865 " fill="none" stroke="#cbd5e1" stroke-width="2.262624" stroke-linecap="round" stroke-linejoin="round" opacity="0.32" /><path d="M850.121 490.057 L848.897 487.657 L844.995 483.98 L839.995 479.932 L836.25 476.73 L835.73 475.328 L839.061 475.958 L845.202 478.019 L851.959 480.372 L857.08 481.907 L859.306 482.054 L858.835 480.983 L857.037 479.42 L855.605 478.208 L855.566 477.798 L856.47 477.865 " fill="none" stroke="#334155" stroke-width="1.4112" stroke-linecap="round" stroke-linejoin="round" opacity="0.96" /><path d="M850.121 490.057 L848.897 487.657 L844.995 483.98 L839.995 479.932 L836.25 476.73 L835.73 475.328 L839.061 475.958 L845.202 478.019 L851.959 480.372 L857.08 481.907 L859.306 482.054 L858.835 480.983 L857.037 479.42 L855.605 478.208 L855.566 477.798 L856.47 477.865 " fill="none" stroke="#94a3b8" stroke-width="0.31751999999999997" stroke-linecap="round" stroke-linejoin="round" opacity="0.88" /><path d="M855.642 477.944 L854.445 475.679 L850.714 471.723 L845.95 467.197 L842.387 463.666 L841.895 462.388 L845.066 463.703 L850.906 466.861 L857.326 470.395 L862.188 472.851 L864.305 473.464 L863.876 472.428 L862.205 470.673 L860.9 469.298 L860.922 468.918 L861.84 469.152 " fill="none" stroke="#cbd5e1" stroke-width="2.285712" stroke-linecap="round" stroke-linejoin="round" opacity="0.32" /><path d="M855.642 477.944 L854.445 475.679 L850.714 471.723 L845.95 467.197 L842.387 463.666 L841.895 462.388 L845.066 463.703 L850.906 466.861 L857.326 470.395 L862.188 472.851 L864.305 473.464 L863.876 472.428 L862.205 470.673 L860.9 469.298 L860.922 468.918 L861.84 469.152 " fill="none" stroke="#334155" stroke-width="1.4256" stroke-linecap="round" stroke-linejoin="round" opacity="0.96" /><path d="M855.642 477.944 L854.445 475.679 L850.714 471.723 L845.95 467.197 L842.387 463.666 L841.895 462.388 L845.066 463.703 L850.906 466.861 L857.326 470.395 L862.188 472.851 L864.305 473.464 L863.876 472.428 L862.205 470.673 L860.9 469.298 L860.922 468.918 L861.84 469.152 " fill="none" stroke="#94a3b8" stroke-width="0.32076" stroke-linecap="round" stroke-linejoin="round" opacity="0.88" /><path d="M832.806 530.212 L832.727 527.168 L830.541 522.807 L827.439 518.047 L825.25 514.125 L825.54 512.007 L828.834 511.923 L834.351 513.252 L840.392 514.833 L845.191 515.544 L847.749 514.82 L848.207 512.847 L847.625 510.377 L847.313 508.258 L848.055 506.931 L849.499 506.044 " fill="none" stroke="#cbd5e1" stroke-width="2.216448" stroke-linecap="round" stroke-linejoin="round" opacity="0.32" /><path d="M832.806 530.212 L832.727 527.168 L830.541 522.807 L827.439 518.047 L825.25 514.125 L825.54 512.007 L828.834 511.923 L834.351 513.252 L840.392 514.833 L845.191 515.544 L847.749 514.82 L848.207 512.847 L847.625 510.377 L847.313 508.258 L848.055 506.931 L849.499 506.044 " fill="none" stroke="#334155" stroke-width="1.3824" stroke-linecap="round" stroke-linejoin="round" opacity="0.96" /><path d="M832.806 530.212 L832.727 527.168 L830.541 522.807 L827.439 518.047 L825.25 514.125 L825.54 512.007 L828.834 511.923 L834.351 513.252 L840.392 514.833 L845.191 515.544 L847.749 514.82 L848.207 512.847 L847.625 510.377 L847.313 508.258 L848.055 506.931 L849.499 506.044 " fill="none" stroke="#94a3b8" stroke-width="0.31104" stroke-linecap="round" stroke-linejoin="round" opacity="0.88" /><path d="M850.121 490.057 L848.949 488.134 L845.248 485.14 L840.477 481.809 L836.848 479.14 L836.236 477.918 L839.261 478.336 L844.965 479.898 L851.291 481.668 L856.111 482.737 L858.228 482.644 L857.823 481.537 L856.178 480.022 L854.87 478.784 L854.837 478.184 L855.642 477.944 " fill="none" stroke="#cbd5e1" stroke-width="2.216448" stroke-linecap="round" stroke-linejoin="round" opacity="0.32" /><path d="M850.121 490.057 L848.949 488.134 L845.248 485.14 L840.477 481.809 L836.848 479.14 L836.236 477.918 L839.261 478.336 L844.965 479.898 L851.291 481.668 L856.111 482.737 L858.228 482.644 L857.823 481.537 L856.178 480.022 L854.87 478.784 L854.837 478.184 L855.642 477.944 " fill="none" stroke="#334155" stroke-width="1.3824" stroke-linecap="round" stroke-linejoin="round" opacity="0.96" /><path d="M850.121 490.057 L848.949 488.134 L845.248 485.14 L840.477 481.809 L836.848 479.14 L836.236 477.918 L839.261 478.336 L844.965 479.898 L851.291 481.668 L856.111 482.737 L858.228 482.644 L857.823 481.537 L856.178 480.022 L854.87 478.784 L854.837 478.184 L855.642 477.944 " fill="none" stroke="#94a3b8" stroke-width="0.31104" stroke-linecap="round" stroke-linejoin="round" opacity="0.88" /><path d="M850.121 490.057 L849.203 487.923 L845.928 484.394 L841.656 480.391 L838.447 477.195 L838.049 475.834 L841.038 476.58 L846.52 478.814 L852.579 481.337 L857.233 482.965 L859.372 483.084 L859.168 481.865 L857.813 480.076 L856.778 478.607 L856.934 477.937 L857.872 477.734 " fill="none" stroke="#cbd5e1" stroke-width="2.216448" stroke-linecap="round" stroke-linejoin="round" opacity="0.32" /><path d="M850.121 490.057 L849.203 487.923 L845.928 484.394 L841.656 480.391 L838.447 477.195 L838.049 475.834 L841.038 476.58 L846.52 478.814 L852.579 481.337 L857.233 482.965 L859.372 483.084 L859.168 481.865 L857.813 480.076 L856.778 478.607 L856.934 477.937 L857.872 477.734 " fill="none" stroke="#334155" stroke-width="1.3824" stroke-linecap="round" stroke-linejoin="round" opacity="0.96" /><path d="M850.121 490.057 L849.203 487.923 L845.928 484.394 L841.656 480.391 L838.447 477.195 L838.049 475.834 L841.038 476.58 L846.52 478.814 L852.579 481.337 L857.233 482.965 L859.372 483.084 L859.168 481.865 L857.813 480.076 L856.778 478.607 L856.934 477.937 L857.872 477.734 " fill="none" stroke="#94a3b8" stroke-width="0.31104" stroke-linecap="round" stroke-linejoin="round" opacity="0.88" /><path d="M850.121 490.057 L851.23 488.96 L854.853 486.453 L859.577 483.208 L863.167 480.414 L863.733 479.15 L860.684 479.823 L854.988 481.985 L848.654 484.568 L843.781 486.394 L841.599 486.715 L841.975 485.527 L843.625 483.491 L844.941 481.502 L844.995 480.131 L844.236 479.224 " fill="none" stroke="#cbd5e1" stroke-width="2.216448" stroke-linecap="round" stroke-linejoin="round" opacity="0.32" /><path d="M850.121 490.057 L851.23 488.96 L854.853 486.453 L859.577 483.208 L863.167 480.414 L863.733 479.15 L860.684 479.823 L854.988 481.985 L848.654 484.568 L843.781 486.394 L841.599 486.715 L841.975 485.527 L843.625 483.491 L844.941 481.502 L844.995 480.131 L844.236 479.224 " fill="none" stroke="#334155" stroke-width="1.3824" stroke-linecap="round" stroke-linejoin="round" opacity="0.96" /><path d="M850.121 490.057 L851.23 488.96 L854.853 486.453 L859.577 483.208 L863.167 480.414 L863.733 479.15 L860.684 479.823 L854.988 481.985 L848.654 484.568 L843.781 486.394 L841.599 486.715 L841.975 485.527 L843.625 483.491 L844.941 481.502 L844.995 480.131 L844.236 479.224 " fill="none" stroke="#94a3b8" stroke-width="0.31104" stroke-linecap="round" stroke-linejoin="round" opacity="0.88" /><path d="M850.121 490.057 L850.66 488.616 L853.235 485.122 L856.702 480.607 L859.25 476.831 L859.346 475.358 L856.509 476.747 L851.523 480.301 L846.02 484.436 L841.699 487.439 L839.561 488.252 L839.502 486.905 L840.485 484.388 L841.209 482.004 L840.92 480.561 L839.975 479.79 " fill="none" stroke="#cbd5e1" stroke-width="2.216448" stroke-linecap="round" stroke-linejoin="round" opacity="0.32" /><path d="M850.121 490.057 L850.66 488.616 L853.235 485.122 L856.702 480.607 L859.25 476.831 L859.346 475.358 L856.509 476.747 L851.523 480.301 L846.02 484.436 L841.699 487.439 L839.561 488.252 L839.502 486.905 L840.485 484.388 L841.209 482.004 L840.92 480.561 L839.975 479.79 " fill="none" stroke="#334155" stroke-width="1.3824" stroke-linecap="round" stroke-linejoin="round" opacity="0.96" /><path d="M850.121 490.057 L850.66 488.616 L853.235 485.122 L856.702 480.607 L859.25 476.831 L859.346 475.358 L856.509 476.747 L851.523 480.301 L846.02 484.436 L841.699 487.439 L839.561 488.252 L839.502 486.905 L840.485 484.388 L841.209 482.004 L840.92 480.561 L839.975 479.79 " fill="none" stroke="#94a3b8" stroke-width="0.31104" stroke-linecap="round" stroke-linejoin="round" opacity="0.88" /><path d="M844.236 479.224 L845.603 478.415 L849.69 476.433 L854.976 473.832 L859.05 471.596 L859.868 470.623 L856.789 471.256 L850.849 473.129 L844.217 475.356 L839.157 476.958 L837.006 477.308 L837.623 476.397 L839.623 474.77 L841.269 473.171 L841.554 472.078 L840.96 471.371 " fill="none" stroke="#cbd5e1" stroke-width="2.216448" stroke-linecap="round" stroke-linejoin="round" opacity="0.32" /><path d="M844.236 479.224 L845.603 478.415 L849.69 476.433 L854.976 473.832 L859.05 471.596 L859.868 470.623 L856.789 471.256 L850.849 473.129 L844.217 475.356 L839.157 476.958 L837.006 477.308 L837.623 476.397 L839.623 474.77 L841.269 473.171 L841.554 472.078 L840.96 471.371 " fill="none" stroke="#334155" stroke-width="1.3824" stroke-linecap="round" stroke-linejoin="round" opacity="0.96" /><path d="M844.236 479.224 L845.603 478.415 L849.69 476.433 L854.976 473.832 L859.05 471.596 L859.868 470.623 L856.789 471.256 L850.849 473.129 L844.217 475.356 L839.157 476.958 L837.006 477.308 L837.623 476.397 L839.623 474.77 L841.269 473.171 L841.554 472.078 L840.96 471.371 " fill="none" stroke="#94a3b8" stroke-width="0.31104" stroke-linecap="round" stroke-linejoin="round" opacity="0.88" /><path d="M857.872 477.734 L859.215 476.795 L863.179 474.483 L868.278 471.464 L872.177 468.906 L872.911 467.854 L869.873 468.7 L864.082 470.996 L857.637 473.695 L852.718 475.651 L850.601 476.14 L851.136 475.167 L852.975 473.38 L854.445 471.651 L854.587 470.534 L853.882 469.866 " fill="none" stroke="#cbd5e1" stroke-width="2.216448" stroke-linecap="round" stroke-linejoin="round" opacity="0.32" /><path d="M857.872 477.734 L859.215 476.795 L863.179 474.483 L868.278 471.464 L872.177 468.906 L872.911 467.854 L869.873 468.7 L864.082 470.996 L857.637 473.695 L852.718 475.651 L850.601 476.14 L851.136 475.167 L852.975 473.38 L854.445 471.651 L854.587 470.534 L853.882 469.866 " fill="none" stroke="#334155" stroke-width="1.3824" stroke-linecap="round" stroke-linejoin="round" opacity="0.96" /><path d="M857.872 477.734 L859.215 476.795 L863.179 474.483 L868.278 471.464 L872.177 468.906 L872.911 467.854 L869.873 468.7 L864.082 470.996 L857.637 473.695 L852.718 475.651 L850.601 476.14 L851.136 475.167 L852.975 473.38 L854.445 471.651 L854.587 470.534 L853.882 469.866 " fill="none" stroke="#94a3b8" stroke-width="0.31104" stroke-linecap="round" stroke-linejoin="round" opacity="0.88" /><path d="M839.975 479.79 L843.72 475.399 L853.956 462.927 L866.895 446.82 L878.14 432.45 L884.646 423.673 L885.718 421.485 L882.608 424.414 L877.326 429.938 L871.451 435.994 L865.461 441.87 L858.888 448.094 L851.184 455.391 L842.711 463.449 L835.177 470.341 L831.409 472.761 " fill="none" stroke="#fed7aa" stroke-width="3.2631040000000002" stroke-linecap="round" stroke-linejoin="round" opacity="0.32" /><path d="M839.975 479.79 L843.72 475.399 L853.956 462.927 L866.895 446.82 L878.14 432.45 L884.646 423.673 L885.718 421.485 L882.608 424.414 L877.326 429.938 L871.451 435.994 L865.461 441.87 L858.888 448.094 L851.184 455.391 L842.711 463.449 L835.177 470.341 L831.409 472.761 " fill="none" stroke="#d97706" stroke-width="2.0352" stroke-linecap="round" stroke-linejoin="round" opacity="0.96" /><path d="M839.975 479.79 L843.72 475.399 L853.956 462.927 L866.895 446.82 L878.14 432.45 L884.646 423.673 L885.718 421.485 L882.608 424.414 L877.326 429.938 L871.451 435.994 L865.461 441.87 L858.888 448.094 L851.184 455.391 L842.711 463.449 L835.177 470.341 L831.409 472.761 " fill="none" stroke="#f59e0b" stroke-width="0.45792" stroke-linecap="round" stroke-linejoin="round" opacity="0.88" /><path d="M854.106 478.097 L859.923 475.307 L874.685 465.558 L893.546 452.245 L910.588 439.816 L921.462 431.72 L924.878 429.115 L922.179 431.037 L915.822 435.501 L907.82 440.757 L898.886 446.07 L888.663 451.666 L876.834 457.912 L864.301 464.368 L853.57 469.404 L848.325 470.461 " fill="none" stroke="#fed7aa" stroke-width="3.30928" stroke-linecap="round" stroke-linejoin="round" opacity="0.32" /><path d="M854.106 478.097 L859.923 475.307 L874.685 465.558 L893.546 452.245 L910.588 439.816 L921.462 431.72 L924.878 429.115 L922.179 431.037 L915.822 435.501 L907.82 440.757 L898.886 446.07 L888.663 451.666 L876.834 457.912 L864.301 464.368 L853.57 469.404 L848.325 470.461 " fill="none" stroke="#d97706" stroke-width="2.064" stroke-linecap="round" stroke-linejoin="round" opacity="0.96" /><path d="M854.106 478.097 L859.923 475.307 L874.685 465.558 L893.546 452.245 L910.588 439.816 L921.462 431.72 L924.878 429.115 L922.179 431.037 L915.822 435.501 L907.82 440.757 L898.886 446.07 L888.663 451.666 L876.834 457.912 L864.301 464.368 L853.57 469.404 L848.325 470.461 " fill="none" stroke="#f59e0b" stroke-width="0.4644" stroke-linecap="round" stroke-linejoin="round" opacity="0.88" /><circle cx="832.806" cy="530.212" r="1.914" fill="#f6efe1" opacity="0.22" /><circle cx="832.806" cy="530.212" r="1.679" fill="#0f766e" /><circle cx="832.806" cy="530.212" r="4.679" fill="none" stroke="#d8cbb3" stroke-width="1.4" opacity="0.55" /><circle cx="849.499" cy="506.044" r="1.914" fill="#f6efe1" opacity="0.22" /><circle cx="849.499" cy="506.044" r="1.679" fill="#0f766e" /><circle cx="849.499" cy="506.044" r="4.679" fill="none" stroke="#d8cbb3" stroke-width="1.4" opacity="0.55" /><circle cx="850.121" cy="490.057" r="2.891" fill="#fff5d6" opacity="0.46" /><circle cx="850.121" cy="490.057" r="2.095" fill="#0f766e" /><circle cx="850.121" cy="490.057" r="5.095" fill="none" stroke="#b7791f" stroke-width="2.4" opacity="0.95" /><circle cx="839.975" cy="479.79" r="1.914" fill="#f6efe1" opacity="0.22" /><circle cx="839.975" cy="479.79" r="1.679" fill="#0f766e" /><circle cx="839.975" cy="479.79" r="4.679" fill="none" stroke="#d8cbb3" stroke-width="1.4" opacity="0.55" /><circle cx="844.236" cy="479.224" r="1.914" fill="#f6efe1" opacity="0.22" /><circle cx="844.236" cy="479.224" r="1.679" fill="#0f766e" /><circle cx="844.236" cy="479.224" r="4.679" fill="none" stroke="#d8cbb3" stroke-width="1.4" opacity="0.55" /><circle cx="854.106" cy="478.097" r="1.914" fill="#f6efe1" opacity="0.22" /><circle cx="854.106" cy="478.097" r="1.679" fill="#0f766e" /><circle cx="854.106" cy="478.097" r="4.679" fill="none" stroke="#d8cbb3" stroke-width="1.4" opacity="0.55" /><circle cx="855.642" cy="477.944" r="1.914" fill="#f6efe1" opacity="0.22" /><circle cx="855.642" cy="477.944" r="1.679" fill="#0f766e" /><circle cx="855.642" cy="477.944" r="4.679" fill="none" stroke="#d8cbb3" stroke-width="1.4" opacity="0.55" /><circle cx="856.47" cy="477.865" r="1.914" fill="#f6efe1" opacity="0.22" /><circle cx="856.47" cy="477.865" r="1.679" fill="#0f766e" /><circle cx="856.47" cy="477.865" r="4.679" fill="none" stroke="#d8cbb3" stroke-width="1.4" opacity="0.55" /><circle cx="857.872" cy="477.734" r="1.914" fill="#f6efe1" opacity="0.22" /><circle cx="857.872" cy="477.734" r="1.679" fill="#0f766e" /><circle cx="857.872" cy="477.734" r="4.679" fill="none" stroke="#d8cbb3" stroke-width="1.4" opacity="0.55" /><circle cx="831.409" cy="472.761" r="1.914" fill="#f6efe1" opacity="0.22" /><circle cx="831.409" cy="472.761" r="1.679" fill="#0f766e" /><circle cx="831.409" cy="472.761" r="4.679" fill="none" stroke="#d8cbb3" stroke-width="1.4" opacity="0.55" /><circle cx="840.96" cy="471.371" r="1.914" fill="#f6efe1" opacity="0.22" /><circle cx="840.96" cy="471.371" r="1.679" fill="#0f766e" /><circle cx="840.96" cy="471.371" r="4.679" fill="none" stroke="#d8cbb3" stroke-width="1.4" opacity="0.55" /><circle cx="848.325" cy="470.461" r="1.914" fill="#f6efe1" opacity="0.22" /><circle cx="848.325" cy="470.461" r="1.679" fill="#0f766e" /><circle cx="848.325" cy="470.461" r="4.679" fill="none" stroke="#d8cbb3" stroke-width="1.4" opacity="0.55" /><circle cx="853.882" cy="469.866" r="1.914" fill="#f6efe1" opacity="0.22" /><circle cx="853.882" cy="469.866" r="1.679" fill="#0f766e" /><circle cx="853.882" cy="469.866" r="4.679" fill="none" stroke="#d8cbb3" stroke-width="1.4" opacity="0.55" /><circle cx="855.942" cy="469.666" r="1.914" fill="#f6efe1" opacity="0.22" /><circle cx="855.942" cy="469.666" r="1.679" fill="#0f766e" /><circle cx="855.942" cy="469.666" r="4.679" fill="none" stroke="#d8cbb3" stroke-width="1.4" opacity="0.55" /><circle cx="861.84" cy="469.152" r="1.914" fill="#f6efe1" opacity="0.22" /><circle cx="861.84" cy="469.152" r="1.679" fill="#0f766e" /><circle cx="861.84" cy="469.152" r="4.679" fill="none" stroke="#d8cbb3" stroke-width="1.4" opacity="0.55" /><rect x="794.066" y="472.519" width="78" height="17.6" rx="8.8" fill="#deebf4" stroke="#3a6b87" opacity="0.82" /><text x="801.266" y="484.519" class="move-label" style="font-size:9.6px">out O-O</text><rect x="813.191" y="466.647" width="78" height="17.6" rx="8.8" fill="#fdebd2" stroke="#c27b1b" opacity="0.82" /><text x="820.391" y="478.647" class="move-label" style="font-size:9.6px">in Nf6</text><rect x="836.359" y="492.372" width="78" height="17.6" rx="8.8" fill="#deebf4" stroke="#3a6b87" opacity="0.82" /><text x="843.559" y="504.372" class="move-label" style="font-size:9.6px">out Ng5</text><rect x="880.722" y="407.501" width="78" height="17.6" rx="8.8" fill="#f7f1e6" stroke="#d97706" opacity="0.43" /><text x="887.922" y="419.501" class="move-label" style="font-size:9.6px">Nxe4</text><circle cx="850.121" cy="490.057" r="10" fill="none" stroke="#7a4b12" stroke-width="2.4" opacity="0.8" /></g><defs><clipPath id="anchored-entrypoint-panel-2-clip"><rect x="1144" y="176" width="516" height="620" rx="26" /></clipPath></defs><rect x="1144" y="176" width="516" height="620" rx="26" fill="#fdfbf6" stroke="#dcd3c4" /><ellipse cx="1402" cy="721.6" rx="144.48" ry="37.2" fill="#ece3d3" opacity="0.72" /><g clip-path="url(#anchored-entrypoint-panel-2-clip)"><path d="M1405.108 485.279 L1405.196 483.964 L1405.731 481.3 L1406.62 477.637 L1407.72 473.524 L1408.888 469.529 L1410.008 466.094 L1410.986 463.483 L1411.734 461.81 L1412.143 461.126 L1412.089 461.49 L1411.469 462.989 L1410.248 465.684 L1408.504 469.511 L1406.436 474.2 L1404.326 479.266 L1402.478 484.067 L1401.156 487.931 L1400.522 490.32 L1400.599 490.989 L1401.258 490.093 L1402.256 488.165 L1403.309 485.962 L1404.179 484.211 L1404.742 483.375 L1405 483.529 L1405.059 484.375 L1405.109 485.279 " fill="none" stroke="#cbd5e1" stroke-width="2.285712" stroke-linecap="round" stroke-linejoin="round" opacity="0.32" /><path d="M1405.108 485.279 L1405.196 483.964 L1405.731 481.3 L1406.62 477.637 L1407.72 473.524 L1408.888 469.529 L1410.008 466.094 L1410.986 463.483 L1411.734 461.81 L1412.143 461.126 L1412.089 461.49 L1411.469 462.989 L1410.248 465.684 L1408.504 469.511 L1406.436 474.2 L1404.326 479.266 L1402.478 484.067 L1401.156 487.931 L1400.522 490.32 L1400.599 490.989 L1401.258 490.093 L1402.256 488.165 L1403.309 485.962 L1404.179 484.211 L1404.742 483.375 L1405 483.529 L1405.059 484.375 L1405.109 485.279 " fill="none" stroke="#334155" stroke-width="1.4256" stroke-linecap="round" stroke-linejoin="round" opacity="0.96" /><path d="M1405.108 485.279 L1405.196 483.964 L1405.731 481.3 L1406.62 477.637 L1407.72 473.524 L1408.888 469.529 L1410.008 466.094 L1410.986 463.483 L1411.734 461.81 L1412.143 461.126 L1412.089 461.49 L1411.469 462.989 L1410.248 465.684 L1408.504 469.511 L1406.436 474.2 L1404.326 479.266 L1402.478 484.067 L1401.156 487.931 L1400.522 490.32 L1400.599 490.989 L1401.258 490.093 L1402.256 488.165 L1403.309 485.962 L1404.179 484.211 L1404.742 483.375 L1405 483.529 L1405.059 484.375 L1405.109 485.279 " fill="none" stroke="#94a3b8" stroke-width="0.32076" stroke-linecap="round" stroke-linejoin="round" opacity="0.88" /><circle cx="1405.196" cy="483.964" r="0.168" fill="#e2e8f0" opacity="0.9" /><circle cx="1410.008" cy="466.094" r="0.168" fill="#e2e8f0" opacity="0.9" /><circle cx="1411.469" cy="462.989" r="0.168" fill="#e2e8f0" opacity="0.9" /><circle cx="1402.478" cy="484.067" r="0.168" fill="#e2e8f0" opacity="0.9" /><circle cx="1402.256" cy="488.165" r="0.168" fill="#e2e8f0" opacity="0.9" /><circle cx="1405.059" cy="484.375" r="0.168" fill="#e2e8f0" opacity="0.9" /><path d="M1405.109 485.279 L1405.172 484.199 L1405.526 481.836 L1406.108 478.526 L1406.831 474.791 L1407.612 471.166 L1408.385 468.057 L1409.096 465.688 L1409.682 464.136 L1410.057 463.429 L1410.116 463.628 L1409.765 464.848 L1408.964 467.202 L1407.763 470.687 L1406.31 475.087 L1404.815 479.943 L1403.505 484.621 L1402.571 488.435 L1402.128 490.824 L1402.184 491.519 L1402.637 490.654 L1403.312 488.749 L1404.008 486.553 L1404.567 484.779 L1404.915 483.876 L1405.062 483.91 L1405.085 484.58 L1405.109 485.28 " fill="none" stroke="#cbd5e1" stroke-width="2.216448" stroke-linecap="round" stroke-linejoin="round" opacity="0.32" /><path d="M1405.109 485.279 L1405.172 484.199 L1405.526 481.836 L1406.108 478.526 L1406.831 474.791 L1407.612 471.166 L1408.385 468.057 L1409.096 465.688 L1409.682 464.136 L1410.057 463.429 L1410.116 463.628 L1409.765 464.848 L1408.964 467.202 L1407.763 470.687 L1406.31 475.087 L1404.815 479.943 L1403.505 484.621 L1402.571 488.435 L1402.128 490.824 L1402.184 491.519 L1402.637 490.654 L1403.312 488.749 L1404.008 486.553 L1404.567 484.779 L1404.915 483.876 L1405.062 483.91 L1405.085 484.58 L1405.109 485.28 " fill="none" stroke="#334155" stroke-width="1.3824" stroke-linecap="round" stroke-linejoin="round" opacity="0.96" /><path d="M1405.109 485.279 L1405.172 484.199 L1405.526 481.836 L1406.108 478.526 L1406.831 474.791 L1407.612 471.166 L1408.385 468.057 L1409.096 465.688 L1409.682 464.136 L1410.057 463.429 L1410.116 463.628 L1409.765 464.848 L1408.964 467.202 L1407.763 470.687 L1406.31 475.087 L1404.815 479.943 L1403.505 484.621 L1402.571 488.435 L1402.128 490.824 L1402.184 491.519 L1402.637 490.654 L1403.312 488.749 L1404.008 486.553 L1404.567 484.779 L1404.915 483.876 L1405.062 483.91 L1405.085 484.58 L1405.109 485.28 " fill="none" stroke="#94a3b8" stroke-width="0.31104" stroke-linecap="round" stroke-linejoin="round" opacity="0.88" /><circle cx="1405.172" cy="484.199" r="0.168" fill="#e2e8f0" opacity="0.9" /><circle cx="1408.385" cy="468.057" r="0.168" fill="#e2e8f0" opacity="0.9" /><circle cx="1409.765" cy="464.848" r="0.168" fill="#e2e8f0" opacity="0.9" /><circle cx="1403.505" cy="484.621" r="0.168" fill="#e2e8f0" opacity="0.9" /><circle cx="1403.312" cy="488.749" r="0.168" fill="#e2e8f0" opacity="0.9" /><circle cx="1405.085" cy="484.58" r="0.168" fill="#e2e8f0" opacity="0.9" /><path d="M1405.109 485.28 L1404.801 490.428 L1404.82 496.347 L1405.125 502.56 L1405.65 508.276 L1406.328 512.601 L1407.098 514.895 L1407.881 515.095 L1408.56 513.813 L1408.984 512.159 L1408.983 511.347 L1408.422 512.24 L1407.242 515.023 L1405.513 519.113 L1403.442 523.354 L1401.35 526.419 L1399.6 527.303 L1398.495 525.705 L1398.184 522.11 L1398.621 517.519 L1399.592 512.96 L1400.807 509.047 L1402.001 505.792 L1403.001 502.74 L1403.751 499.298 L1404.287 495.099 L1404.699 490.23 L1405.11 485.28 " fill="none" stroke="#cbd5e1" stroke-width="2.262624" stroke-linecap="round" stroke-linejoin="round" opacity="0.32" /><path d="M1405.109 485.28 L1404.801 490.428 L1404.82 496.347 L1405.125 502.56 L1405.65 508.276 L1406.328 512.601 L1407.098 514.895 L1407.881 515.095 L1408.56 513.813 L1408.984 512.159 L1408.983 511.347 L1408.422 512.24 L1407.242 515.023 L1405.513 519.113 L1403.442 523.354 L1401.35 526.419 L1399.6 527.303 L1398.495 525.705 L1398.184 522.11 L1398.621 517.519 L1399.592 512.96 L1400.807 509.047 L1402.001 505.792 L1403.001 502.74 L1403.751 499.298 L1404.287 495.099 L1404.699 490.23 L1405.11 485.28 " fill="none" stroke="#334155" stroke-width="1.4112" stroke-linecap="round" stroke-linejoin="round" opacity="0.96" /><path d="M1405.109 485.28 L1404.801 490.428 L1404.82 496.347 L1405.125 502.56 L1405.65 508.276 L1406.328 512.601 L1407.098 514.895 L1407.881 515.095 L1408.56 513.813 L1408.984 512.159 L1408.983 511.347 L1408.422 512.24 L1407.242 515.023 L1405.513 519.113 L1403.442 523.354 L1401.35 526.419 L1399.6 527.303 L1398.495 525.705 L1398.184 522.11 L1398.621 517.519 L1399.592 512.96 L1400.807 509.047 L1402.001 505.792 L1403.001 502.74 L1403.751 499.298 L1404.287 495.099 L1404.699 490.23 L1405.11 485.28 " fill="none" stroke="#94a3b8" stroke-width="0.31751999999999997" stroke-linecap="round" stroke-linejoin="round" opacity="0.88" /><circle cx="1404.801" cy="490.428" r="0.168" fill="#e2e8f0" opacity="0.9" /><circle cx="1407.098" cy="514.895" r="0.168" fill="#e2e8f0" opacity="0.9" /><circle cx="1408.422" cy="512.24" r="0.168" fill="#e2e8f0" opacity="0.9" /><circle cx="1399.6" cy="527.303" r="0.168" fill="#e2e8f0" opacity="0.9" /><circle cx="1400.807" cy="509.047" r="0.168" fill="#e2e8f0" opacity="0.9" /><circle cx="1404.699" cy="490.23" r="0.168" fill="#e2e8f0" opacity="0.9" /><path d="M1248.285 521.645 L1266.307 495.886 L1291.063 472.892 L1320.149 453.553 L1350.989 438.998 L1381.095 430.085 L1408.517 426.716 L1432.134 427.426 L1451.636 429.551 L1467.235 429.977 L1479.246 426.181 L1487.771 417.136 L1492.645 403.746 L1493.645 388.597 L1490.834 375.11 L1484.816 366.378 L1476.728 364.169 L1467.94 368.475 L1459.601 377.771 L1452.278 389.785 L1445.847 402.406 L1439.696 414.355 L1433.151 425.401 L1425.918 436.1 L1418.353 447.242 L1411.437 459.304 L1406.515 472.179 L1405.108 485.279 " fill="none" stroke="#fed7aa" stroke-width="3.355456" stroke-linecap="round" stroke-linejoin="round" opacity="0.32" /><path d="M1248.285 521.645 L1266.307 495.886 L1291.063 472.892 L1320.149 453.553 L1350.989 438.998 L1381.095 430.085 L1408.517 426.716 L1432.134 427.426 L1451.636 429.551 L1467.235 429.977 L1479.246 426.181 L1487.771 417.136 L1492.645 403.746 L1493.645 388.597 L1490.834 375.11 L1484.816 366.378 L1476.728 364.169 L1467.94 368.475 L1459.601 377.771 L1452.278 389.785 L1445.847 402.406 L1439.696 414.355 L1433.151 425.401 L1425.918 436.1 L1418.353 447.242 L1411.437 459.304 L1406.515 472.179 L1405.108 485.279 " fill="none" stroke="#d97706" stroke-width="2.0928" stroke-linecap="round" stroke-linejoin="round" opacity="0.96" /><path d="M1248.285 521.645 L1266.307 495.886 L1291.063 472.892 L1320.149 453.553 L1350.989 438.998 L1381.095 430.085 L1408.517 426.716 L1432.134 427.426 L1451.636 429.551 L1467.235 429.977 L1479.246 426.181 L1487.771 417.136 L1492.645 403.746 L1493.645 388.597 L1490.834 375.11 L1484.816 366.378 L1476.728 364.169 L1467.94 368.475 L1459.601 377.771 L1452.278 389.785 L1445.847 402.406 L1439.696 414.355 L1433.151 425.401 L1425.918 436.1 L1418.353 447.242 L1411.437 459.304 L1406.515 472.179 L1405.108 485.279 " fill="none" stroke="#f59e0b" stroke-width="0.47087999999999997" stroke-linecap="round" stroke-linejoin="round" opacity="0.88" /><circle cx="1266.307" cy="495.886" r="0.21974400000000002" fill="#fde68a" opacity="0.9" /><circle cx="1408.517" cy="426.716" r="0.21974400000000002" fill="#fde68a" opacity="0.9" /><circle cx="1487.771" cy="417.136" r="0.21974400000000002" fill="#fde68a" opacity="0.9" /><circle cx="1476.728" cy="364.169" r="0.21974400000000002" fill="#fde68a" opacity="0.9" /><circle cx="1439.696" cy="414.355" r="0.21974400000000002" fill="#fde68a" opacity="0.9" /><circle cx="1406.515" cy="472.179" r="0.21974400000000002" fill="#fde68a" opacity="0.9" /><path d="M1248.278 521.658 L1239.877 523.373 L1232.258 526.913 L1225.653 531.976 L1220.561 537.929 L1217.692 543.964 L1217.555 549.308 L1219.923 553.421 L1223.545 556.07 L1226.368 557.245 L1226.153 556.984 L1221.216 555.238 L1211.044 551.867 L1196.65 546.785 L1180.548 540.19 L1166.15 532.737 L1156.666 525.503 L1153.931 519.678 L1157.857 516.145 L1166.776 515.172 L1178.353 516.369 L1190.503 518.869 L1201.93 521.615 L1212.238 523.677 L1221.668 524.508 L1230.673 524.084 L1239.536 522.859 L1248.282 521.651 " fill="none" stroke="#cbd5e1" stroke-width="2.354976" stroke-linecap="round" stroke-linejoin="round" opacity="0.32" /><path d="M1248.278 521.658 L1239.877 523.373 L1232.258 526.913 L1225.653 531.976 L1220.561 537.929 L1217.692 543.964 L1217.555 549.308 L1219.923 553.421 L1223.545 556.07 L1226.368 557.245 L1226.153 556.984 L1221.216 555.238 L1211.044 551.867 L1196.65 546.785 L1180.548 540.19 L1166.15 532.737 L1156.666 525.503 L1153.931 519.678 L1157.857 516.145 L1166.776 515.172 L1178.353 516.369 L1190.503 518.869 L1201.93 521.615 L1212.238 523.677 L1221.668 524.508 L1230.673 524.084 L1239.536 522.859 L1248.282 521.651 " fill="none" stroke="#334155" stroke-width="1.4687999999999999" stroke-linecap="round" stroke-linejoin="round" opacity="0.96" /><path d="M1248.278 521.658 L1239.877 523.373 L1232.258 526.913 L1225.653 531.976 L1220.561 537.929 L1217.692 543.964 L1217.555 549.308 L1219.923 553.421 L1223.545 556.07 L1226.368 557.245 L1226.153 556.984 L1221.216 555.238 L1211.044 551.867 L1196.65 546.785 L1180.548 540.19 L1166.15 532.737 L1156.666 525.503 L1153.931 519.678 L1157.857 516.145 L1166.776 515.172 L1178.353 516.369 L1190.503 518.869 L1201.93 521.615 L1212.238 523.677 L1221.668 524.508 L1230.673 524.084 L1239.536 522.859 L1248.282 521.651 " fill="none" stroke="#94a3b8" stroke-width="0.33048" stroke-linecap="round" stroke-linejoin="round" opacity="0.88" /><circle cx="1239.877" cy="523.373" r="0.168" fill="#e2e8f0" opacity="0.9" /><circle cx="1217.555" cy="549.308" r="0.168" fill="#e2e8f0" opacity="0.9" /><circle cx="1221.216" cy="555.238" r="0.168" fill="#e2e8f0" opacity="0.9" /><circle cx="1156.666" cy="525.503" r="0.168" fill="#e2e8f0" opacity="0.9" /><circle cx="1190.503" cy="518.869" r="0.168" fill="#e2e8f0" opacity="0.9" /><circle cx="1239.536" cy="522.859" r="0.168" fill="#e2e8f0" opacity="0.9" /><path d="M1248.282 521.651 L1224.694 527.693 L1204.684 540.673 L1188.767 560.021 L1177.985 584.497 L1173.451 612.022 L1175.401 640.03 L1182.23 666.243 L1190.325 689.44 L1194.937 709.598 L1191.519 727.261 L1176.924 742.581 L1150.45 754.54 L1114.9 760.791 L1077.121 758.475 L1046.554 746.005 L1031.21 724.675 L1033.561 698.42 L1050.014 671.646 L1074.014 647.138 L1099.607 625.512 L1123.288 605.966 L1144.166 587.424 L1163.195 569.433 L1182.06 552.521 L1202.17 537.96 L1224.182 527.214 L1248.285 521.645 " fill="none" stroke="#fed7aa" stroke-width="3.378544" stroke-linecap="round" stroke-linejoin="round" opacity="0.32" /><path d="M1248.282 521.651 L1224.694 527.693 L1204.684 540.673 L1188.767 560.021 L1177.985 584.497 L1173.451 612.022 L1175.401 640.03 L1182.23 666.243 L1190.325 689.44 L1194.937 709.598 L1191.519 727.261 L1176.924 742.581 L1150.45 754.54 L1114.9 760.791 L1077.121 758.475 L1046.554 746.005 L1031.21 724.675 L1033.561 698.42 L1050.014 671.646 L1074.014 647.138 L1099.607 625.512 L1123.288 605.966 L1144.166 587.424 L1163.195 569.433 L1182.06 552.521 L1202.17 537.96 L1224.182 527.214 L1248.285 521.645 " fill="none" stroke="#d97706" stroke-width="2.1072" stroke-linecap="round" stroke-linejoin="round" opacity="0.96" /><path d="M1248.282 521.651 L1224.694 527.693 L1204.684 540.673 L1188.767 560.021 L1177.985 584.497 L1173.451 612.022 L1175.401 640.03 L1182.23 666.243 L1190.325 689.44 L1194.937 709.598 L1191.519 727.261 L1176.924 742.581 L1150.45 754.54 L1114.9 760.791 L1077.121 758.475 L1046.554 746.005 L1031.21 724.675 L1033.561 698.42 L1050.014 671.646 L1074.014 647.138 L1099.607 625.512 L1123.288 605.966 L1144.166 587.424 L1163.195 569.433 L1182.06 552.521 L1202.17 537.96 L1224.182 527.214 L1248.285 521.645 " fill="none" stroke="#f59e0b" stroke-width="0.47412" stroke-linecap="round" stroke-linejoin="round" opacity="0.88" /><circle cx="1224.694" cy="527.693" r="0.22125599999999998" fill="#fde68a" opacity="0.9" /><circle cx="1175.401" cy="640.03" r="0.22125599999999998" fill="#fde68a" opacity="0.9" /><circle cx="1176.924" cy="742.581" r="0.22125599999999998" fill="#fde68a" opacity="0.9" /><circle cx="1031.21" cy="724.675" r="0.22125599999999998" fill="#fde68a" opacity="0.9" /><circle cx="1123.288" cy="605.966" r="0.22125599999999998" fill="#fde68a" opacity="0.9" /><circle cx="1224.182" cy="527.214" r="0.22125599999999998" fill="#fde68a" opacity="0.9" /><circle cx="1405.11" cy="485.28" r="1.914" fill="#f6efe1" opacity="0.22" /><circle cx="1405.11" cy="485.28" r="1.679" fill="#7c3aed" /><circle cx="1405.11" cy="485.28" r="4.679" fill="none" stroke="#d8cbb3" stroke-width="1.4" opacity="0.55" /><circle cx="1405.109" cy="485.28" r="1.914" fill="#f6efe1" opacity="0.22" /><circle cx="1405.109" cy="485.28" r="1.679" fill="#7c3aed" /><circle cx="1405.109" cy="485.28" r="4.679" fill="none" stroke="#d8cbb3" stroke-width="1.4" opacity="0.55" /><circle cx="1405.109" cy="485.279" r="1.914" fill="#f6efe1" opacity="0.22" /><circle cx="1405.109" cy="485.279" r="1.679" fill="#7c3aed" /><circle cx="1405.109" cy="485.279" r="4.679" fill="none" stroke="#d8cbb3" stroke-width="1.4" opacity="0.55" /><circle cx="1405.108" cy="485.279" r="2.317" fill="#fff5d6" opacity="0.46" /><circle cx="1405.108" cy="485.279" r="1.679" fill="#7c3aed" /><circle cx="1405.108" cy="485.279" r="4.679" fill="none" stroke="#b7791f" stroke-width="2.4" opacity="0.95" /><circle cx="1248.278" cy="521.658" r="1.914" fill="#f6efe1" opacity="0.22" /><circle cx="1248.278" cy="521.658" r="1.679" fill="#2563eb" /><circle cx="1248.278" cy="521.658" r="4.679" fill="none" stroke="#d8cbb3" stroke-width="1.4" opacity="0.55" /><circle cx="1248.282" cy="521.651" r="1.914" fill="#f6efe1" opacity="0.22" /><circle cx="1248.282" cy="521.651" r="1.679" fill="#2563eb" /><circle cx="1248.282" cy="521.651" r="4.679" fill="none" stroke="#d8cbb3" stroke-width="1.4" opacity="0.55" /><circle cx="1248.285" cy="521.645" r="1.914" fill="#f6efe1" opacity="0.22" /><circle cx="1248.285" cy="521.645" r="1.679" fill="#2563eb" /><circle cx="1248.285" cy="521.645" r="4.679" fill="none" stroke="#d8cbb3" stroke-width="1.4" opacity="0.55" /><rect x="1371.336" y="446.2" width="78" height="17.6" rx="8.8" fill="#deebf4" stroke="#3a6b87" opacity="0.88" /><text x="1378.536" y="458.2" class="move-label" style="font-size:9.6px">out Bg7</text><rect x="1390.71" y="487.087" width="78" height="17.6" rx="8.8" fill="#f7f1e6" stroke="#334155" opacity="0.53" /><text x="1397.91" y="499.087" class="move-label" style="font-size:9.6px">b4</text><rect x="1368.342" y="495.354" width="78" height="17.6" rx="8.8" fill="#f7f1e6" stroke="#334155" opacity="0.43" /><text x="1375.542" y="507.354" class="move-label" style="font-size:9.6px">Nc6</text><rect x="1475.234" y="387.11" width="78" height="17.6" rx="8.8" fill="#fdebd2" stroke="#c27b1b" opacity="0.88" /><text x="1482.434" y="399.11" class="move-label" style="font-size:9.6px">in Rxb1</text><rect x="1164.948" y="552.19" width="78" height="17.6" rx="8.8" fill="#f7f1e6" stroke="#334155" opacity="0.48" /><text x="1172.148" y="564.19" class="move-label" style="font-size:9.6px">Kg2</text><rect x="1152" y="730.475" width="78" height="17.6" rx="8.8" fill="#f7f1e6" stroke="#d97706" opacity="0.58" /><text x="1159.2" y="742.475" class="move-label" style="font-size:9.6px">Qxb1</text><circle cx="1405.108" cy="485.279" r="10" fill="none" stroke="#7a4b12" stroke-width="2.4" opacity="0.8" /></g><text x="40" y="154" class="section">Opening · ply 0</text><rect x="40" y="814" width="516" height="130" rx="18" fill="#f4eee4" stroke="#ddd5c7" /><text x="58" y="840" class="section-small">QGD Bogo-Indian A</text><text x="58" y="862" class="copy">Radius 3 · distance 5.0</text><text x="58" y="886" class="copy">QGD Bogo-Indian A at full material. The farther stance</text><text x="58" y="904" class="copy">keeps early branch identity readable without leaving</text><text x="58" y="922" class="copy">the same object.</text><text x="592" y="154" class="section">Middlegame · ply 8</text><rect x="592" y="814" width="516" height="130" rx="18" fill="#f4eee4" stroke="#ddd5c7" /><text x="610" y="840" class="section-small">Italian Branch Lab</text><text x="610" y="862" class="copy">Radius 2 · distance 4.2</text><text x="610" y="886" class="copy">Italian Branch Lab at the branch-rich middle. This</text><text x="610" y="904" class="copy">keeps the current camera grammar baseline while</text><text x="610" y="922" class="copy">preserving local exploration.</text><text x="1144" y="154" class="section">Endgame · ply 35</text><rect x="1144" y="814" width="516" height="130" rx="18" fill="#f4eee4" stroke="#ddd5c7" /><text x="1162" y="840" class="section-small">Endgame Simplification Lab</text><text x="1162" y="862" class="copy">Radius 3 · distance 3.3</text><text x="1162" y="886" class="copy">Endgame Simplification Lab in the simplified region.</text><text x="1162" y="904" class="copy">The closer stance tightens on terminal-facing</text><text x="1162" y="922" class="copy">structure without changing graph identity.</text><rect x="40" y="972" width="1620" height="88" rx="18" fill="#f4eee4" stroke="#ddd5c7" /><text x="56" y="998" class="metric-label">Expected read</text><text x="56" y="1020" class="copy">Each panel is the same graph object under a different anchor and camera stance. Opening should read as full-material branching, middlegame</text><text x="56" y="1040" class="copy">as branch-rich local complexity, and endgame as simplified routing without turning into a different diagram family.</text><line x1="40" y1="1094" x2="94" y2="1094" stroke="#566574" stroke-width="12" stroke-linecap="round" /><line x1="52" y1="1094" x2="82" y2="1094" stroke="#87a9c8" stroke-width="4.5" stroke-linecap="round" /><circle cx="96" cy="1094" r="4" fill="#dcecff" /><circle cx="108" cy="1094" r="4" fill="#dcecff" /><text x="132" y="1099" class="copy">Entrypoints change anchor and emphasis only. Carrier semantics and label grammar stay continuous across all three views.</text></svg>