<svg xmlns="http://www.w3.org/2000/svg" width="1700" height="920" viewBox="0 0 1700 920"><style>.eyebrow { font: 700 14px "Avenir Next", "Segoe UI", sans-serif; letter-spacing: 0.14em; text-transform: uppercase; fill: #7a6a55; }.title { font: 700 30px "Iowan Old Style", "Palatino Linotype", serif; fill: #231f18; }.subtitle { font: 400 16px "Avenir Next", "Segoe UI", sans-serif; fill: #5f5547; }.section { font: 700 17px "Avenir Next", "Segoe UI", sans-serif; fill: #2c271f; }.section-small { font: 700 17px "Avenir Next", "Segoe UI", sans-serif; fill: #231f18; }.copy { font: 400 15px "Avenir Next", "Segoe UI", sans-serif; fill: #5f5547; }.metric-label { font: 700 12px "Avenir Next", "Segoe UI", sans-serif; letter-spacing: 0.08em; text-transform: uppercase; fill: #7a6a55; }.move-label { font: 700 12px "Avenir Next", "Segoe UI", sans-serif; fill: #231f18; }.board-label { font: 700 11px "Avenir Next", "Segoe UI", sans-serif; fill: #7a6a55; }.board-copy { font: 400 13px "Avenir Next", "Segoe UI", sans-serif; fill: #5f5547; }.board-piece { font: 700 28px "Georgia", "Times New Roman", serif; text-anchor: middle; dominant-baseline: middle; paint-order: stroke; }.board-piece.white { fill: #f0e6d0; stroke: #2b2116; stroke-width: 1.8px; }.board-piece.black { fill: #2a221b; stroke: #f7f0e4; stroke-width: 0.65px; }</style><rect width="100%" height="100%" fill="#ece4d7" /><rect x="24" y="24" width="1652" height="872" rx="28" fill="#fbf7ef" stroke="#ddd5c7" /><text x="40" y="62" class="eyebrow">Viewer refinement review</text><text x="40" y="96" class="title">Italian Branch Lab: refinement toward b4, d3, d4, h3, Ng5, O-O</text><text x="40" y="124" class="subtitle">Italian Branch Lab · White to move · fixed radius 2</text><defs><clipPath id="refinement-panel-0-clip"><rect x="40" y="176" width="516" height="620" rx="26" /></clipPath></defs><rect x="40" y="176" width="516" height="620" rx="26" fill="#fdfbf6" stroke="#dcd3c4" /><ellipse cx="298" cy="721.6" rx="144.48" ry="37.2" fill="#ece3d3" opacity="0.72" /><g clip-path="url(#refinement-panel-0-clip)"><path d="M286.894 495.081 L287.238 492.21 L286.284 488.259 L285.029 484.3 L284.565 481.457 L285.595 480.432 L288.132 481.215 L291.495 483.084 L294.607 484.896 L296.483 485.568 " fill="none" stroke="#d9e2ea" stroke-width="2.262624" stroke-linecap="round" stroke-linejoin="round" opacity="0.32" /><path d="M286.894 495.081 L287.238 492.21 L286.284 488.259 L285.029 484.3 L284.565 481.457 L285.595 480.432 L288.132 481.215 L291.495 483.084 L294.607 484.896 L296.483 485.568 " fill="none" stroke="#566574" stroke-width="1.4112" stroke-linecap="round" stroke-linejoin="round" opacity="0.96" /><path d="M296.483 485.568 L297.281 483.072 L297.428 478.997 L297.429 474.792 L297.837 471.995 L299.009 471.575 L300.96 473.527 L303.355 476.874 L305.665 480.072 L307.395 481.664 " fill="none" stroke="#d9e2ea" stroke-width="2.262624" stroke-linecap="round" stroke-linejoin="round" opacity="0.32" /><path d="M296.483 485.568 L297.281 483.072 L297.428 478.997 L297.429 474.792 L297.837 471.995 L299.009 471.575 L300.96 473.527 L303.355 476.874 L305.665 480.072 L307.395 481.664 " fill="none" stroke="#566574" stroke-width="1.4112" stroke-linecap="round" stroke-linejoin="round" opacity="0.96" /><circle cx="286.894" cy="495.081" r="1.916" fill="#f6efe1" opacity="0.22" /><circle cx="286.894" cy="495.081" r="1.68" fill="#0f766e" /><circle cx="286.894" cy="495.081" r="4.68" fill="none" stroke="#d8cbb3" stroke-width="1.4" opacity="0.55" /><circle cx="296.483" cy="485.568" r="2.902" fill="#fff5d6" opacity="0.46" /><circle cx="296.483" cy="485.568" r="2.103" fill="#0f766e" /><circle cx="296.483" cy="485.568" r="5.103" fill="none" stroke="#b7791f" stroke-width="2.4" opacity="0.95" /><circle cx="307.395" cy="481.664" r="1.916" fill="#f6efe1" opacity="0.22" /><circle cx="307.395" cy="481.664" r="1.68" fill="#0f766e" /><circle cx="307.395" cy="481.664" r="4.68" fill="none" stroke="#d8cbb3" stroke-width="1.4" opacity="0.55" /><rect x="250.495" y="452.432" width="78" height="17.6" rx="8.8" fill="#fdebd2" stroke="#c27b1b" opacity="0.74" /><text x="257.695" y="464.432" class="move-label" style="font-size:9.6px">in Nf6</text><rect x="283.409" y="483.575" width="78" height="17.6" rx="8.8" fill="#deebf4" stroke="#3a6b87" opacity="0.74" /><text x="290.609" y="495.575" class="move-label" style="font-size:9.6px">out Ng5</text><circle cx="296.483" cy="485.568" r="10" fill="none" stroke="#7a4b12" stroke-width="2.4" opacity="0.8" /></g><defs><clipPath id="refinement-panel-1-clip"><rect x="592" y="176" width="516" height="620" rx="26" /></clipPath></defs><rect x="592" y="176" width="516" height="620" rx="26" fill="#fdfbf6" stroke="#dcd3c4" /><ellipse cx="850" cy="721.6" rx="144.48" ry="37.2" fill="#ece3d3" opacity="0.72" /><g clip-path="url(#refinement-panel-1-clip)"><path d="M834.457 500.056 L834.059 496.99 L831.398 491.821 L827.775 485.968 L825.16 481.394 L825.213 479.665 L828.476 481.197 L834.088 485.043 L840.213 489.37 L844.964 492.364 L847.279 493.075 L847.319 491.748 L846.222 489.546 L845.412 487.839 L845.756 487.39 L846.898 487.714 " fill="none" stroke="#d9e2ea" stroke-width="2.262624" stroke-linecap="round" stroke-linejoin="round" opacity="0.32" /><path d="M834.457 500.056 L834.059 496.99 L831.398 491.821 L827.775 485.968 L825.16 481.394 L825.213 479.665 L828.476 481.197 L834.088 485.043 L840.213 489.37 L844.964 492.364 L847.279 493.075 L847.319 491.748 L846.222 489.546 L845.412 487.839 L845.756 487.39 L846.898 487.714 " fill="none" stroke="#566574" stroke-width="1.4112" stroke-linecap="round" stroke-linejoin="round" opacity="0.96" /><path d="M834.457 500.056 L834.059 496.99 L831.398 491.821 L827.775 485.968 L825.16 481.394 L825.213 479.665 L828.476 481.197 L834.088 485.043 L840.213 489.37 L844.964 492.364 L847.279 493.075 L847.319 491.748 L846.222 489.546 L845.412 487.839 L845.756 487.39 L846.898 487.714 " fill="none" stroke="#87a9c8" stroke-width="0.31751999999999997" stroke-linecap="round" stroke-linejoin="round" opacity="0.88" /><path d="M846.898 487.714 L847.181 484.699 L846.335 478.714 L845.017 471.67 L844.211 466.278 L844.742 464.741 L846.871 467.685 L850.161 473.836 L853.697 480.656 L856.548 485.616 L858.206 487.368 L858.766 486.217 L858.801 483.758 L859.018 481.897 L859.838 481.732 L861.066 482.647 " fill="none" stroke="#d9e2ea" stroke-width="2.262624" stroke-linecap="round" stroke-linejoin="round" opacity="0.32" /><path d="M846.898 487.714 L847.181 484.699 L846.335 478.714 L845.017 471.67 L844.211 466.278 L844.742 464.741 L846.871 467.685 L850.161 473.836 L853.697 480.656 L856.548 485.616 L858.206 487.368 L858.766 486.217 L858.801 483.758 L859.018 481.897 L859.838 481.732 L861.066 482.647 " fill="none" stroke="#566574" stroke-width="1.4112" stroke-linecap="round" stroke-linejoin="round" opacity="0.96" /><path d="M846.898 487.714 L847.181 484.699 L846.335 478.714 L845.017 471.67 L844.211 466.278 L844.742 464.741 L846.871 467.685 L850.161 473.836 L853.697 480.656 L856.548 485.616 L858.206 487.368 L858.766 486.217 L858.801 483.758 L859.018 481.897 L859.838 481.732 L861.066 482.647 " fill="none" stroke="#87a9c8" stroke-width="0.31751999999999997" stroke-linecap="round" stroke-linejoin="round" opacity="0.88" /><path d="M846.898 487.714 L847.454 485.219 L847.207 479.887 L846.616 473.475 L846.379 468.529 L847.086 467.149 L848.933 469.96 L851.611 475.784 L854.474 482.235 L856.858 486.922 L858.399 488.564 L859.168 487.45 L859.573 485.08 L860.107 483.239 L861.059 482.933 L862.281 483.576 " fill="none" stroke="#d9e2ea" stroke-width="2.216448" stroke-linecap="round" stroke-linejoin="round" opacity="0.32" /><path d="M846.898 487.714 L847.454 485.219 L847.207 479.887 L846.616 473.475 L846.379 468.529 L847.086 467.149 L848.933 469.96 L851.611 475.784 L854.474 482.235 L856.858 486.922 L858.399 488.564 L859.168 487.45 L859.573 485.08 L860.107 483.239 L861.059 482.933 L862.281 483.576 " fill="none" stroke="#566574" stroke-width="1.3824" stroke-linecap="round" stroke-linejoin="round" opacity="0.96" /><path d="M846.898 487.714 L847.454 485.219 L847.207 479.887 L846.616 473.475 L846.379 468.529 L847.086 467.149 L848.933 469.96 L851.611 475.784 L854.474 482.235 L856.858 486.922 L858.399 488.564 L859.168 487.45 L859.573 485.08 L860.107 483.239 L861.059 482.933 L862.281 483.576 " fill="none" stroke="#87a9c8" stroke-width="0.31104" stroke-linecap="round" stroke-linejoin="round" opacity="0.88" /><path d="M846.898 487.714 L847.093 485.201 L846.107 479.981 L844.615 473.737 L843.647 468.9 L844.08 467.474 L846.2 470.049 L849.56 475.501 L853.199 481.55 L856.132 485.914 L857.815 487.371 L858.341 486.199 L858.31 483.832 L858.454 481.974 L859.202 481.585 L860.346 482.1 " fill="none" stroke="#d9e2ea" stroke-width="2.216448" stroke-linecap="round" stroke-linejoin="round" opacity="0.32" /><path d="M846.898 487.714 L847.093 485.201 L846.107 479.981 L844.615 473.737 L843.647 468.9 L844.08 467.474 L846.2 470.049 L849.56 475.501 L853.199 481.55 L856.132 485.914 L857.815 487.371 L858.341 486.199 L858.31 483.832 L858.454 481.974 L859.202 481.585 L860.346 482.1 " fill="none" stroke="#566574" stroke-width="1.3824" stroke-linecap="round" stroke-linejoin="round" opacity="0.96" /><path d="M846.898 487.714 L847.093 485.201 L846.107 479.981 L844.615 473.737 L843.647 468.9 L844.08 467.474 L846.2 470.049 L849.56 475.501 L853.199 481.55 L856.132 485.914 L857.815 487.371 L858.341 486.199 L858.31 483.832 L858.454 481.974 L859.202 481.585 L860.346 482.1 " fill="none" stroke="#87a9c8" stroke-width="0.31104" stroke-linecap="round" stroke-linejoin="round" opacity="0.88" /><path d="M846.898 487.714 L848.909 487.766 L853.95 488.532 L860.32 489.482 L865.329 489.916 L866.712 489.317 L863.765 487.603 L857.64 485.143 L850.743 482.567 L845.593 480.468 L843.681 479.138 L844.845 478.454 L847.531 477.987 L849.796 477.271 L850.528 476.096 L850.276 474.698 " fill="none" stroke="#d9e2ea" stroke-width="2.216448" stroke-linecap="round" stroke-linejoin="round" opacity="0.32" /><path d="M846.898 487.714 L848.909 487.766 L853.95 488.532 L860.32 489.482 L865.329 489.916 L866.712 489.317 L863.765 487.603 L857.64 485.143 L850.743 482.567 L845.593 480.468 L843.681 479.138 L844.845 478.454 L847.531 477.987 L849.796 477.271 L850.528 476.096 L850.276 474.698 " fill="none" stroke="#566574" stroke-width="1.3824" stroke-linecap="round" stroke-linejoin="round" opacity="0.96" /><path d="M846.898 487.714 L848.909 487.766 L853.95 488.532 L860.32 489.482 L865.329 489.916 L866.712 489.317 L863.765 487.603 L857.64 485.143 L850.743 482.567 L845.593 480.468 L843.681 479.138 L844.845 478.454 L847.531 477.987 L849.796 477.271 L850.528 476.096 L850.276 474.698 " fill="none" stroke="#87a9c8" stroke-width="0.31104" stroke-linecap="round" stroke-linejoin="round" opacity="0.88" /><circle cx="834.457" cy="500.056" r="1.916" fill="#f6efe1" opacity="0.22" /><circle cx="834.457" cy="500.056" r="1.68" fill="#0f766e" /><circle cx="834.457" cy="500.056" r="4.68" fill="none" stroke="#d8cbb3" stroke-width="1.4" opacity="0.55" /><circle cx="846.898" cy="487.714" r="2.902" fill="#fff5d6" opacity="0.46" /><circle cx="846.898" cy="487.714" r="2.103" fill="#0f766e" /><circle cx="846.898" cy="487.714" r="5.103" fill="none" stroke="#b7791f" stroke-width="2.4" opacity="0.95" /><circle cx="862.281" cy="483.576" r="1.916" fill="#f6efe1" opacity="0.22" /><circle cx="862.281" cy="483.576" r="1.68" fill="#0f766e" /><circle cx="862.281" cy="483.576" r="4.68" fill="none" stroke="#d8cbb3" stroke-width="1.4" opacity="0.55" /><circle cx="861.066" cy="482.647" r="1.916" fill="#f6efe1" opacity="0.22" /><circle cx="861.066" cy="482.647" r="1.68" fill="#0f766e" /><circle cx="861.066" cy="482.647" r="4.68" fill="none" stroke="#d8cbb3" stroke-width="1.4" opacity="0.55" /><circle cx="860.346" cy="482.1" r="1.916" fill="#f6efe1" opacity="0.22" /><circle cx="860.346" cy="482.1" r="1.68" fill="#0f766e" /><circle cx="860.346" cy="482.1" r="4.68" fill="none" stroke="#d8cbb3" stroke-width="1.4" opacity="0.55" /><circle cx="850.276" cy="474.698" r="1.916" fill="#f6efe1" opacity="0.22" /><circle cx="850.276" cy="474.698" r="1.68" fill="#0f766e" /><circle cx="850.276" cy="474.698" r="4.68" fill="none" stroke="#d8cbb3" stroke-width="1.4" opacity="0.55" /><rect x="838.097" y="492.656" width="78" height="17.6" rx="8.8" fill="#deebf4" stroke="#3a6b87" opacity="0.82" /><text x="845.297" y="504.656" class="move-label" style="font-size:9.6px">out Ng5</text><rect x="805.113" y="461.37" width="78" height="17.6" rx="8.8" fill="#fdebd2" stroke="#c27b1b" opacity="0.82" /><text x="812.313" y="473.37" class="move-label" style="font-size:9.6px">in Nf6</text><rect x="835.143" y="494.567" width="78" height="17.6" rx="8.8" fill="#deebf4" stroke="#3a6b87" opacity="0.82" /><text x="842.343" y="506.567" class="move-label" style="font-size:9.6px">out d3</text><circle cx="846.898" cy="487.714" r="10" fill="none" stroke="#7a4b12" stroke-width="2.4" opacity="0.8" /></g><defs><clipPath id="refinement-panel-2-clip"><rect x="1144" y="176" width="516" height="620" rx="26" /></clipPath></defs><rect x="1144" y="176" width="516" height="620" rx="26" fill="#fdfbf6" stroke="#dcd3c4" /><ellipse cx="1402" cy="721.6" rx="144.48" ry="37.2" fill="#ece3d3" opacity="0.72" /><g clip-path="url(#refinement-panel-2-clip)"><path d="M1417.98 482.119 L1413.5 476.155 L1406.282 468.161 L1397.383 459.076 L1387.901 449.845 L1378.816 441.27 L1370.823 433.863 L1364.27 427.795 L1359.197 422.958 L1355.493 419.123 L1353.092 416.16 L1352.111 414.17 L1352.819 413.463 L1355.452 414.369 L1359.991 417.011 L1366.033 421.157 L1372.82 426.225 L1379.418 431.434 L1385.008 436.046 L1389.201 439.65 L1392.225 442.341 L1394.849 444.698 L1398.027 447.501 L1402.434 451.347 L1408.15 456.362 L1414.639 462.144 L1420.939 467.899 L1425.814 472.569 " fill="none" stroke="#cdeae6" stroke-width="2.53968" stroke-linecap="round" stroke-linejoin="round" opacity="0.32" /><path d="M1417.98 482.119 L1413.5 476.155 L1406.282 468.161 L1397.383 459.076 L1387.901 449.845 L1378.816 441.27 L1370.823 433.863 L1364.27 427.795 L1359.197 422.958 L1355.493 419.123 L1353.092 416.16 L1352.111 414.17 L1352.819 413.463 L1355.452 414.369 L1359.991 417.011 L1366.033 421.157 L1372.82 426.225 L1379.418 431.434 L1385.008 436.046 L1389.201 439.65 L1392.225 442.341 L1394.849 444.698 L1398.027 447.501 L1402.434 451.347 L1408.15 456.362 L1414.639 462.144 L1420.939 467.899 L1425.814 472.569 " fill="none" stroke="#0f766e" stroke-width="1.584" stroke-linecap="round" stroke-linejoin="round" opacity="0.96" /><path d="M1417.98 482.119 L1413.5 476.155 L1406.282 468.161 L1397.383 459.076 L1387.901 449.845 L1378.816 441.27 L1370.823 433.863 L1364.27 427.795 L1359.197 422.958 L1355.493 419.123 L1353.092 416.16 L1352.111 414.17 L1352.819 413.463 L1355.452 414.369 L1359.991 417.011 L1366.033 421.157 L1372.82 426.225 L1379.418 431.434 L1385.008 436.046 L1389.201 439.65 L1392.225 442.341 L1394.849 444.698 L1398.027 447.501 L1402.434 451.347 L1408.15 456.362 L1414.639 462.144 L1420.939 467.899 L1425.814 472.569 " fill="none" stroke="#41c8bb" stroke-width="0.35640000000000005" stroke-linecap="round" stroke-linejoin="round" opacity="0.88" /><circle cx="1413.5" cy="476.155" r="0.168" fill="#baf3eb" opacity="0.9" /><circle cx="1370.823" cy="433.863" r="0.168" fill="#baf3eb" opacity="0.9" /><circle cx="1352.111" cy="414.17" r="0.168" fill="#baf3eb" opacity="0.9" /><circle cx="1372.82" cy="426.225" r="0.168" fill="#baf3eb" opacity="0.9" /><circle cx="1394.849" cy="444.698" r="0.168" fill="#baf3eb" opacity="0.9" /><circle cx="1420.939" cy="467.899" r="0.168" fill="#baf3eb" opacity="0.9" /><path d="M1398.498 489.085 L1396.603 481.767 L1392.978 471.624 L1388.248 459.892 L1383.074 447.833 L1378.058 436.536 L1373.644 426.72 L1370.071 418.664 L1367.394 412.267 L1365.567 407.267 L1364.561 403.513 L1364.444 401.141 L1365.364 400.548 L1367.445 402.143 L1370.659 406.047 L1374.751 411.913 L1379.256 418.93 L1383.61 426.035 L1387.327 432.245 L1390.183 437.032 L1392.332 440.558 L1394.248 443.627 L1396.512 447.298 L1399.529 452.362 L1403.347 458.963 L1407.636 466.538 L1411.818 474.012 L1415.149 479.974 " fill="none" stroke="#cdeae6" stroke-width="2.53968" stroke-linecap="round" stroke-linejoin="round" opacity="0.32" /><path d="M1398.498 489.085 L1396.603 481.767 L1392.978 471.624 L1388.248 459.892 L1383.074 447.833 L1378.058 436.536 L1373.644 426.72 L1370.071 418.664 L1367.394 412.267 L1365.567 407.267 L1364.561 403.513 L1364.444 401.141 L1365.364 400.548 L1367.445 402.143 L1370.659 406.047 L1374.751 411.913 L1379.256 418.93 L1383.61 426.035 L1387.327 432.245 L1390.183 437.032 L1392.332 440.558 L1394.248 443.627 L1396.512 447.298 L1399.529 452.362 L1403.347 458.963 L1407.636 466.538 L1411.818 474.012 L1415.149 479.974 " fill="none" stroke="#0f766e" stroke-width="1.584" stroke-linecap="round" stroke-linejoin="round" opacity="0.96" /><path d="M1398.498 489.085 L1396.603 481.767 L1392.978 471.624 L1388.248 459.892 L1383.074 447.833 L1378.058 436.536 L1373.644 426.72 L1370.071 418.664 L1367.394 412.267 L1365.567 407.267 L1364.561 403.513 L1364.444 401.141 L1365.364 400.548 L1367.445 402.143 L1370.659 406.047 L1374.751 411.913 L1379.256 418.93 L1383.61 426.035 L1387.327 432.245 L1390.183 437.032 L1392.332 440.558 L1394.248 443.627 L1396.512 447.298 L1399.529 452.362 L1403.347 458.963 L1407.636 466.538 L1411.818 474.012 L1415.149 479.974 " fill="none" stroke="#41c8bb" stroke-width="0.35640000000000005" stroke-linecap="round" stroke-linejoin="round" opacity="0.88" /><circle cx="1396.603" cy="481.767" r="0.168" fill="#baf3eb" opacity="0.9" /><circle cx="1373.644" cy="426.72" r="0.168" fill="#baf3eb" opacity="0.9" /><circle cx="1364.444" cy="401.141" r="0.168" fill="#baf3eb" opacity="0.9" /><circle cx="1379.256" cy="418.93" r="0.168" fill="#baf3eb" opacity="0.9" /><circle cx="1394.248" cy="443.627" r="0.168" fill="#baf3eb" opacity="0.9" /><circle cx="1411.818" cy="474.012" r="0.168" fill="#baf3eb" opacity="0.9" /><path d="M1381.409 506.035 L1381.54 504.026 L1380.607 500.935 L1378.853 497.071 L1376.652 492.902 L1374.385 488.915 L1372.356 485.484 L1370.781 482.806 L1369.825 480.937 L1369.658 479.858 L1370.469 479.558 L1372.426 480.067 L1375.588 481.432 L1379.818 483.638 L1384.757 486.532 L1389.867 489.787 L1394.535 492.935 L1398.194 495.453 L1400.454 496.894 L1401.203 497.024 L1400.656 495.921 L1399.312 493.979 L1397.802 491.79 L1396.69 489.945 L1396.305 488.831 L1396.677 488.523 L1397.566 488.781 L1398.498 489.085 " fill="none" stroke="#d9e2ea" stroke-width="2.262624" stroke-linecap="round" stroke-linejoin="round" opacity="0.32" /><path d="M1381.409 506.035 L1381.54 504.026 L1380.607 500.935 L1378.853 497.071 L1376.652 492.902 L1374.385 488.915 L1372.356 485.484 L1370.781 482.806 L1369.825 480.937 L1369.658 479.858 L1370.469 479.558 L1372.426 480.067 L1375.588 481.432 L1379.818 483.638 L1384.757 486.532 L1389.867 489.787 L1394.535 492.935 L1398.194 495.453 L1400.454 496.894 L1401.203 497.024 L1400.656 495.921 L1399.312 493.979 L1397.802 491.79 L1396.69 489.945 L1396.305 488.831 L1396.677 488.523 L1397.566 488.781 L1398.498 489.085 " fill="none" stroke="#566574" stroke-width="1.4112" stroke-linecap="round" stroke-linejoin="round" opacity="0.96" /><path d="M1381.409 506.035 L1381.54 504.026 L1380.607 500.935 L1378.853 497.071 L1376.652 492.902 L1374.385 488.915 L1372.356 485.484 L1370.781 482.806 L1369.825 480.937 L1369.658 479.858 L1370.469 479.558 L1372.426 480.067 L1375.588 481.432 L1379.818 483.638 L1384.757 486.532 L1389.867 489.787 L1394.535 492.935 L1398.194 495.453 L1400.454 496.894 L1401.203 497.024 L1400.656 495.921 L1399.312 493.979 L1397.802 491.79 L1396.69 489.945 L1396.305 488.831 L1396.677 488.523 L1397.566 488.781 L1398.498 489.085 " fill="none" stroke="#87a9c8" stroke-width="0.31751999999999997" stroke-linecap="round" stroke-linejoin="round" opacity="0.88" /><circle cx="1381.54" cy="504.026" r="0.168" fill="#dcecff" opacity="0.9" /><circle cx="1372.356" cy="485.484" r="0.168" fill="#dcecff" opacity="0.9" /><circle cx="1372.426" cy="480.067" r="0.168" fill="#dcecff" opacity="0.9" /><circle cx="1394.535" cy="492.935" r="0.168" fill="#dcecff" opacity="0.9" /><circle cx="1399.312" cy="493.979" r="0.168" fill="#dcecff" opacity="0.9" /><circle cx="1397.566" cy="488.781" r="0.168" fill="#dcecff" opacity="0.9" /><path d="M1398.498 489.085 L1398.915 487.299 L1398.794 484.027 L1398.259 479.666 L1397.505 474.824 L1396.732 470.126 L1396.099 466.055 L1395.717 462.894 L1395.662 460.767 L1396.003 459.731 L1396.814 459.86 L1398.159 461.256 L1400.06 463.985 L1402.456 467.972 L1405.189 472.911 L1408.018 478.258 L1410.664 483.309 L1412.862 487.328 L1414.417 489.729 L1415.262 490.241 L1415.485 489.03 L1415.315 486.681 L1415.057 484.026 L1414.994 481.867 L1415.299 480.714 L1415.998 480.653 L1416.972 481.354 L1417.98 482.119 " fill="none" stroke="#d9e2ea" stroke-width="2.262624" stroke-linecap="round" stroke-linejoin="round" opacity="0.32" /><path d="M1398.498 489.085 L1398.915 487.299 L1398.794 484.027 L1398.259 479.666 L1397.505 474.824 L1396.732 470.126 L1396.099 466.055 L1395.717 462.894 L1395.662 460.767 L1396.003 459.731 L1396.814 459.86 L1398.159 461.256 L1400.06 463.985 L1402.456 467.972 L1405.189 472.911 L1408.018 478.258 L1410.664 483.309 L1412.862 487.328 L1414.417 489.729 L1415.262 490.241 L1415.485 489.03 L1415.315 486.681 L1415.057 484.026 L1414.994 481.867 L1415.299 480.714 L1415.998 480.653 L1416.972 481.354 L1417.98 482.119 " fill="none" stroke="#566574" stroke-width="1.4112" stroke-linecap="round" stroke-linejoin="round" opacity="0.96" /><path d="M1398.498 489.085 L1398.915 487.299 L1398.794 484.027 L1398.259 479.666 L1397.505 474.824 L1396.732 470.126 L1396.099 466.055 L1395.717 462.894 L1395.662 460.767 L1396.003 459.731 L1396.814 459.86 L1398.159 461.256 L1400.06 463.985 L1402.456 467.972 L1405.189 472.911 L1408.018 478.258 L1410.664 483.309 L1412.862 487.328 L1414.417 489.729 L1415.262 490.241 L1415.485 489.03 L1415.315 486.681 L1415.057 484.026 L1414.994 481.867 L1415.299 480.714 L1415.998 480.653 L1416.972 481.354 L1417.98 482.119 " fill="none" stroke="#87a9c8" stroke-width="0.31751999999999997" stroke-linecap="round" stroke-linejoin="round" opacity="0.88" /><circle cx="1398.915" cy="487.299" r="0.168" fill="#dcecff" opacity="0.9" /><circle cx="1396.099" cy="466.055" r="0.168" fill="#dcecff" opacity="0.9" /><circle cx="1398.159" cy="461.256" r="0.168" fill="#dcecff" opacity="0.9" /><circle cx="1410.664" cy="483.309" r="0.168" fill="#dcecff" opacity="0.9" /><circle cx="1415.315" cy="486.681" r="0.168" fill="#dcecff" opacity="0.9" /><circle cx="1416.972" cy="481.354" r="0.168" fill="#dcecff" opacity="0.9" /><path d="M1416.991 481.366 L1417.251 479.746 L1417.164 476.536 L1416.817 472.153 L1416.35 467.234 L1415.908 462.437 L1415.608 458.273 L1415.519 455.047 L1415.672 452.903 L1416.079 451.925 L1416.747 452.214 L1417.687 453.893 L1418.907 457.036 L1420.388 461.544 L1422.069 467.066 L1423.841 472.999 L1425.562 478.572 L1427.077 482.997 L1428.258 485.653 L1429.037 486.263 L1429.441 485.019 L1429.591 482.557 L1429.671 479.774 L1429.864 477.524 L1430.295 476.349 L1430.991 476.336 L1431.879 477.131 L1432.794 477.993 " fill="none" stroke="#d9e2ea" stroke-width="2.285712" stroke-linecap="round" stroke-linejoin="round" opacity="0.32" /><path d="M1416.991 481.366 L1417.251 479.746 L1417.164 476.536 L1416.817 472.153 L1416.35 467.234 L1415.908 462.437 L1415.608 458.273 L1415.519 455.047 L1415.672 452.903 L1416.079 451.925 L1416.747 452.214 L1417.687 453.893 L1418.907 457.036 L1420.388 461.544 L1422.069 467.066 L1423.841 472.999 L1425.562 478.572 L1427.077 482.997 L1428.258 485.653 L1429.037 486.263 L1429.441 485.019 L1429.591 482.557 L1429.671 479.774 L1429.864 477.524 L1430.295 476.349 L1430.991 476.336 L1431.879 477.131 L1432.794 477.993 " fill="none" stroke="#566574" stroke-width="1.4256" stroke-linecap="round" stroke-linejoin="round" opacity="0.96" /><path d="M1416.991 481.366 L1417.251 479.746 L1417.164 476.536 L1416.817 472.153 L1416.35 467.234 L1415.908 462.437 L1415.608 458.273 L1415.519 455.047 L1415.672 452.903 L1416.079 451.925 L1416.747 452.214 L1417.687 453.893 L1418.907 457.036 L1420.388 461.544 L1422.069 467.066 L1423.841 472.999 L1425.562 478.572 L1427.077 482.997 L1428.258 485.653 L1429.037 486.263 L1429.441 485.019 L1429.591 482.557 L1429.671 479.774 L1429.864 477.524 L1430.295 476.349 L1430.991 476.336 L1431.879 477.131 L1432.794 477.993 " fill="none" stroke="#87a9c8" stroke-width="0.32076" stroke-linecap="round" stroke-linejoin="round" opacity="0.88" /><circle cx="1417.251" cy="479.746" r="0.168" fill="#dcecff" opacity="0.9" /><circle cx="1415.608" cy="458.273" r="0.168" fill="#dcecff" opacity="0.9" /><circle cx="1417.687" cy="453.893" r="0.168" fill="#dcecff" opacity="0.9" /><circle cx="1425.562" cy="478.572" r="0.168" fill="#dcecff" opacity="0.9" /><circle cx="1429.591" cy="482.557" r="0.168" fill="#dcecff" opacity="0.9" /><circle cx="1431.879" cy="477.131" r="0.168" fill="#dcecff" opacity="0.9" /><path d="M1398.498 489.085 L1399.063 487.666 L1399.246 484.831 L1399.138 480.952 L1398.876 476.608 L1398.602 472.391 L1398.426 468.746 L1398.422 465.914 L1398.637 463.981 L1399.116 462.981 L1399.913 462.986 L1401.082 464.131 L1402.65 466.539 L1404.588 470.204 L1406.793 474.877 L1409.098 480.047 L1411.296 485.011 L1413.187 489.019 L1414.62 491.452 L1415.534 492.015 L1415.988 490.851 L1416.146 488.536 L1416.231 485.894 L1416.454 483.718 L1416.941 482.503 L1417.71 482.323 L1418.673 482.844 L1419.651 483.396 " fill="none" stroke="#d9e2ea" stroke-width="2.216448" stroke-linecap="round" stroke-linejoin="round" opacity="0.32" /><path d="M1398.498 489.085 L1399.063 487.666 L1399.246 484.831 L1399.138 480.952 L1398.876 476.608 L1398.602 472.391 L1398.426 468.746 L1398.422 465.914 L1398.637 463.981 L1399.116 462.981 L1399.913 462.986 L1401.082 464.131 L1402.65 466.539 L1404.588 470.204 L1406.793 474.877 L1409.098 480.047 L1411.296 485.011 L1413.187 489.019 L1414.62 491.452 L1415.534 492.015 L1415.988 490.851 L1416.146 488.536 L1416.231 485.894 L1416.454 483.718 L1416.941 482.503 L1417.71 482.323 L1418.673 482.844 L1419.651 483.396 " fill="none" stroke="#566574" stroke-width="1.3824" stroke-linecap="round" stroke-linejoin="round" opacity="0.96" /><path d="M1398.498 489.085 L1399.063 487.666 L1399.246 484.831 L1399.138 480.952 L1398.876 476.608 L1398.602 472.391 L1398.426 468.746 L1398.422 465.914 L1398.637 463.981 L1399.116 462.981 L1399.913 462.986 L1401.082 464.131 L1402.65 466.539 L1404.588 470.204 L1406.793 474.877 L1409.098 480.047 L1411.296 485.011 L1413.187 489.019 L1414.62 491.452 L1415.534 492.015 L1415.988 490.851 L1416.146 488.536 L1416.231 485.894 L1416.454 483.718 L1416.941 482.503 L1417.71 482.323 L1418.673 482.844 L1419.651 483.396 " fill="none" stroke="#87a9c8" stroke-width="0.31104" stroke-linecap="round" stroke-linejoin="round" opacity="0.88" /><circle cx="1399.063" cy="487.666" r="0.168" fill="#dcecff" opacity="0.9" /><circle cx="1398.426" cy="468.746" r="0.168" fill="#dcecff" opacity="0.9" /><circle cx="1401.082" cy="464.131" r="0.168" fill="#dcecff" opacity="0.9" /><circle cx="1411.296" cy="485.011" r="0.168" fill="#dcecff" opacity="0.9" /><circle cx="1416.146" cy="488.536" r="0.168" fill="#dcecff" opacity="0.9" /><circle cx="1418.673" cy="482.844" r="0.168" fill="#dcecff" opacity="0.9" /><path d="M1398.498 489.085 L1398.853 487.63 L1398.647 484.82 L1398.014 481.014 L1397.157 476.768 L1396.284 472.65 L1395.556 469.087 L1395.077 466.308 L1394.915 464.392 L1395.141 463.366 L1395.84 463.294 L1397.102 464.298 L1398.976 466.502 L1401.417 469.899 L1404.268 474.259 L1407.266 479.1 L1410.094 483.753 L1412.447 487.501 L1414.096 489.752 L1414.956 490.218 L1415.122 489.034 L1414.849 486.748 L1414.473 484.146 L1414.303 481.988 L1414.525 480.749 L1415.157 480.497 L1416.065 480.917 L1416.991 481.366 " fill="none" stroke="#d9e2ea" stroke-width="2.216448" stroke-linecap="round" stroke-linejoin="round" opacity="0.32" /><path d="M1398.498 489.085 L1398.853 487.63 L1398.647 484.82 L1398.014 481.014 L1397.157 476.768 L1396.284 472.65 L1395.556 469.087 L1395.077 466.308 L1394.915 464.392 L1395.141 463.366 L1395.84 463.294 L1397.102 464.298 L1398.976 466.502 L1401.417 469.899 L1404.268 474.259 L1407.266 479.1 L1410.094 483.753 L1412.447 487.501 L1414.096 489.752 L1414.956 490.218 L1415.122 489.034 L1414.849 486.748 L1414.473 484.146 L1414.303 481.988 L1414.525 480.749 L1415.157 480.497 L1416.065 480.917 L1416.991 481.366 " fill="none" stroke="#566574" stroke-width="1.3824" stroke-linecap="round" stroke-linejoin="round" opacity="0.96" /><path d="M1398.498 489.085 L1398.853 487.63 L1398.647 484.82 L1398.014 481.014 L1397.157 476.768 L1396.284 472.65 L1395.556 469.087 L1395.077 466.308 L1394.915 464.392 L1395.141 463.366 L1395.84 463.294 L1397.102 464.298 L1398.976 466.502 L1401.417 469.899 L1404.268 474.259 L1407.266 479.1 L1410.094 483.753 L1412.447 487.501 L1414.096 489.752 L1414.956 490.218 L1415.122 489.034 L1414.849 486.748 L1414.473 484.146 L1414.303 481.988 L1414.525 480.749 L1415.157 480.497 L1416.065 480.917 L1416.991 481.366 " fill="none" stroke="#87a9c8" stroke-width="0.31104" stroke-linecap="round" stroke-linejoin="round" opacity="0.88" /><circle cx="1398.853" cy="487.63" r="0.168" fill="#dcecff" opacity="0.9" /><circle cx="1395.556" cy="469.087" r="0.168" fill="#dcecff" opacity="0.9" /><circle cx="1397.102" cy="464.298" r="0.168" fill="#dcecff" opacity="0.9" /><circle cx="1410.094" cy="483.753" r="0.168" fill="#dcecff" opacity="0.9" /><circle cx="1414.849" cy="486.748" r="0.168" fill="#dcecff" opacity="0.9" /><circle cx="1416.065" cy="480.917" r="0.168" fill="#dcecff" opacity="0.9" /><path d="M1398.498 489.085 L1399.516 489.009 L1401.97 489.343 L1405.555 489.972 L1409.757 490.686 L1414.001 491.248 L1417.802 491.471 L1420.847 491.281 L1422.978 490.731 L1424.114 489.949 L1424.147 489.06 L1422.907 488.124 L1420.216 487.111 L1416.015 485.927 L1410.542 484.48 L1404.422 482.75 L1398.612 480.841 L1394.138 478.962 L1391.74 477.355 L1391.618 476.191 L1393.395 475.498 L1396.279 475.162 L1399.349 474.968 L1401.824 474.681 L1403.27 474.138 L1403.679 473.293 L1403.419 472.239 L1403.145 471.182 " fill="none" stroke="#d9e2ea" stroke-width="2.216448" stroke-linecap="round" stroke-linejoin="round" opacity="0.32" /><path d="M1398.498 489.085 L1399.516 489.009 L1401.97 489.343 L1405.555 489.972 L1409.757 490.686 L1414.001 491.248 L1417.802 491.471 L1420.847 491.281 L1422.978 490.731 L1424.114 489.949 L1424.147 489.06 L1422.907 488.124 L1420.216 487.111 L1416.015 485.927 L1410.542 484.48 L1404.422 482.75 L1398.612 480.841 L1394.138 478.962 L1391.74 477.355 L1391.618 476.191 L1393.395 475.498 L1396.279 475.162 L1399.349 474.968 L1401.824 474.681 L1403.27 474.138 L1403.679 473.293 L1403.419 472.239 L1403.145 471.182 " fill="none" stroke="#566574" stroke-width="1.3824" stroke-linecap="round" stroke-linejoin="round" opacity="0.96" /><path d="M1398.498 489.085 L1399.516 489.009 L1401.97 489.343 L1405.555 489.972 L1409.757 490.686 L1414.001 491.248 L1417.802 491.471 L1420.847 491.281 L1422.978 490.731 L1424.114 489.949 L1424.147 489.06 L1422.907 488.124 L1420.216 487.111 L1416.015 485.927 L1410.542 484.48 L1404.422 482.75 L1398.612 480.841 L1394.138 478.962 L1391.74 477.355 L1391.618 476.191 L1393.395 475.498 L1396.279 475.162 L1399.349 474.968 L1401.824 474.681 L1403.27 474.138 L1403.679 473.293 L1403.419 472.239 L1403.145 471.182 " fill="none" stroke="#87a9c8" stroke-width="0.31104" stroke-linecap="round" stroke-linejoin="round" opacity="0.88" /><circle cx="1399.516" cy="489.009" r="0.168" fill="#dcecff" opacity="0.9" /><circle cx="1417.802" cy="491.471" r="0.168" fill="#dcecff" opacity="0.9" /><circle cx="1422.907" cy="488.124" r="0.168" fill="#dcecff" opacity="0.9" /><circle cx="1398.612" cy="480.841" r="0.168" fill="#dcecff" opacity="0.9" /><circle cx="1396.279" cy="475.162" r="0.168" fill="#dcecff" opacity="0.9" /><circle cx="1403.419" cy="472.239" r="0.168" fill="#dcecff" opacity="0.9" /><path d="M1398.498 489.085 L1399.348 488.625 L1401.679 488.163 L1405.176 487.67 L1409.311 487.087 L1413.491 486.342 L1417.217 485.387 L1420.165 484.24 L1422.174 482.999 L1423.154 481.81 L1422.99 480.826 L1421.503 480.153 L1418.504 479.81 L1413.934 479.721 L1408.043 479.728 L1401.488 479.64 L1395.264 479.291 L1390.434 478.601 L1387.762 477.598 L1387.449 476.392 L1389.099 475.118 L1391.892 473.88 L1394.874 472.727 L1397.239 471.65 L1398.542 470.612 L1398.78 469.572 L1398.331 468.518 L1397.869 467.465 " fill="none" stroke="#d9e2ea" stroke-width="2.216448" stroke-linecap="round" stroke-linejoin="round" opacity="0.32" /><path d="M1398.498 489.085 L1399.348 488.625 L1401.679 488.163 L1405.176 487.67 L1409.311 487.087 L1413.491 486.342 L1417.217 485.387 L1420.165 484.24 L1422.174 482.999 L1423.154 481.81 L1422.99 480.826 L1421.503 480.153 L1418.504 479.81 L1413.934 479.721 L1408.043 479.728 L1401.488 479.64 L1395.264 479.291 L1390.434 478.601 L1387.762 477.598 L1387.449 476.392 L1389.099 475.118 L1391.892 473.88 L1394.874 472.727 L1397.239 471.65 L1398.542 470.612 L1398.78 469.572 L1398.331 468.518 L1397.869 467.465 " fill="none" stroke="#566574" stroke-width="1.3824" stroke-linecap="round" stroke-linejoin="round" opacity="0.96" /><path d="M1398.498 489.085 L1399.348 488.625 L1401.679 488.163 L1405.176 487.67 L1409.311 487.087 L1413.491 486.342 L1417.217 485.387 L1420.165 484.24 L1422.174 482.999 L1423.154 481.81 L1422.99 480.826 L1421.503 480.153 L1418.504 479.81 L1413.934 479.721 L1408.043 479.728 L1401.488 479.64 L1395.264 479.291 L1390.434 478.601 L1387.762 477.598 L1387.449 476.392 L1389.099 475.118 L1391.892 473.88 L1394.874 472.727 L1397.239 471.65 L1398.542 470.612 L1398.78 469.572 L1398.331 468.518 L1397.869 467.465 " fill="none" stroke="#87a9c8" stroke-width="0.31104" stroke-linecap="round" stroke-linejoin="round" opacity="0.88" /><circle cx="1399.348" cy="488.625" r="0.168" fill="#dcecff" opacity="0.9" /><circle cx="1417.217" cy="485.387" r="0.168" fill="#dcecff" opacity="0.9" /><circle cx="1421.503" cy="480.153" r="0.168" fill="#dcecff" opacity="0.9" /><circle cx="1395.264" cy="479.291" r="0.168" fill="#dcecff" opacity="0.9" /><circle cx="1391.892" cy="473.88" r="0.168" fill="#dcecff" opacity="0.9" /><circle cx="1398.331" cy="468.518" r="0.168" fill="#dcecff" opacity="0.9" /><path d="M1403.145 471.182 L1404.175 471.344 L1406.638 472.069 L1410.23 473.215 L1414.433 474.53 L1418.666 475.73 L1422.444 476.585 L1425.451 476.986 L1427.539 476.949 L1428.636 476.563 L1428.648 475.914 L1427.415 475.023 L1424.759 473.837 L1420.616 472.272 L1415.208 470.29 L1409.145 467.975 L1403.371 465.564 L1398.905 463.392 L1396.492 461.773 L1396.338 460.877 L1398.074 460.667 L1400.918 460.924 L1403.951 461.324 L1406.395 461.554 L1407.813 461.411 L1408.197 460.857 L1407.911 460.026 L1407.611 459.189 " fill="none" stroke="#d9e2ea" stroke-width="2.216448" stroke-linecap="round" stroke-linejoin="round" opacity="0.32" /><path d="M1403.145 471.182 L1404.175 471.344 L1406.638 472.069 L1410.23 473.215 L1414.433 474.53 L1418.666 475.73 L1422.444 476.585 L1425.451 476.986 L1427.539 476.949 L1428.636 476.563 L1428.648 475.914 L1427.415 475.023 L1424.759 473.837 L1420.616 472.272 L1415.208 470.29 L1409.145 467.975 L1403.371 465.564 L1398.905 463.392 L1396.492 461.773 L1396.338 460.877 L1398.074 460.667 L1400.918 460.924 L1403.951 461.324 L1406.395 461.554 L1407.813 461.411 L1408.197 460.857 L1407.911 460.026 L1407.611 459.189 " fill="none" stroke="#566574" stroke-width="1.3824" stroke-linecap="round" stroke-linejoin="round" opacity="0.96" /><path d="M1403.145 471.182 L1404.175 471.344 L1406.638 472.069 L1410.23 473.215 L1414.433 474.53 L1418.666 475.73 L1422.444 476.585 L1425.451 476.986 L1427.539 476.949 L1428.636 476.563 L1428.648 475.914 L1427.415 475.023 L1424.759 473.837 L1420.616 472.272 L1415.208 470.29 L1409.145 467.975 L1403.371 465.564 L1398.905 463.392 L1396.492 461.773 L1396.338 460.877 L1398.074 460.667 L1400.918 460.924 L1403.951 461.324 L1406.395 461.554 L1407.813 461.411 L1408.197 460.857 L1407.911 460.026 L1407.611 459.189 " fill="none" stroke="#87a9c8" stroke-width="0.31104" stroke-linecap="round" stroke-linejoin="round" opacity="0.88" /><circle cx="1404.175" cy="471.344" r="0.168" fill="#dcecff" opacity="0.9" /><circle cx="1422.444" cy="476.585" r="0.168" fill="#dcecff" opacity="0.9" /><circle cx="1427.415" cy="475.023" r="0.168" fill="#dcecff" opacity="0.9" /><circle cx="1403.371" cy="465.564" r="0.168" fill="#dcecff" opacity="0.9" /><circle cx="1400.918" cy="460.924" r="0.168" fill="#dcecff" opacity="0.9" /><circle cx="1407.911" cy="460.026" r="0.168" fill="#dcecff" opacity="0.9" /><path d="M1415.149 479.974 L1419.541 481.84 L1430.179 484.394 L1445.879 487.391 L1464.927 490.494 L1485.233 493.331 L1504.789 495.621 L1522.16 497.279 L1536.724 498.445 L1548.522 499.393 L1557.827 500.397 L1564.686 501.594 L1568.671 502.904 L1568.963 504.028 L1564.773 504.527 L1555.96 503.987 L1543.441 502.228 L1529.008 499.401 L1514.535 495.904 L1501.162 492.176 L1488.979 488.508 L1477.313 484.986 L1465.368 481.546 L1452.837 478.099 L1440.259 474.632 L1428.93 471.259 L1420.495 468.194 L1416.643 465.695 " fill="none" stroke="#f2d2ae" stroke-width="3.30928" stroke-linecap="round" stroke-linejoin="round" opacity="0.32" /><path d="M1415.149 479.974 L1419.541 481.84 L1430.179 484.394 L1445.879 487.391 L1464.927 490.494 L1485.233 493.331 L1504.789 495.621 L1522.16 497.279 L1536.724 498.445 L1548.522 499.393 L1557.827 500.397 L1564.686 501.594 L1568.671 502.904 L1568.963 504.028 L1564.773 504.527 L1555.96 503.987 L1543.441 502.228 L1529.008 499.401 L1514.535 495.904 L1501.162 492.176 L1488.979 488.508 L1477.313 484.986 L1465.368 481.546 L1452.837 478.099 L1440.259 474.632 L1428.93 471.259 L1420.495 468.194 L1416.643 465.695 " fill="none" stroke="#b85c1b" stroke-width="2.064" stroke-linecap="round" stroke-linejoin="round" opacity="0.96" /><path d="M1415.149 479.974 L1419.541 481.84 L1430.179 484.394 L1445.879 487.391 L1464.927 490.494 L1485.233 493.331 L1504.789 495.621 L1522.16 497.279 L1536.724 498.445 L1548.522 499.393 L1557.827 500.397 L1564.686 501.594 L1568.671 502.904 L1568.963 504.028 L1564.773 504.527 L1555.96 503.987 L1543.441 502.228 L1529.008 499.401 L1514.535 495.904 L1501.162 492.176 L1488.979 488.508 L1477.313 484.986 L1465.368 481.546 L1452.837 478.099 L1440.259 474.632 L1428.93 471.259 L1420.495 468.194 L1416.643 465.695 " fill="none" stroke="#f4a340" stroke-width="0.4644" stroke-linecap="round" stroke-linejoin="round" opacity="0.88" /><circle cx="1419.541" cy="481.84" r="0.21672000000000002" fill="#ffe0aa" opacity="0.9" /><circle cx="1504.789" cy="495.621" r="0.21672000000000002" fill="#ffe0aa" opacity="0.9" /><circle cx="1564.686" cy="501.594" r="0.21672000000000002" fill="#ffe0aa" opacity="0.9" /><circle cx="1543.441" cy="502.228" r="0.21672000000000002" fill="#ffe0aa" opacity="0.9" /><circle cx="1477.313" cy="484.986" r="0.21672000000000002" fill="#ffe0aa" opacity="0.9" /><circle cx="1420.495" cy="468.194" r="0.21672000000000002" fill="#ffe0aa" opacity="0.9" /><circle cx="1381.409" cy="506.035" r="1.916" fill="#f6efe1" opacity="0.22" /><circle cx="1381.409" cy="506.035" r="1.68" fill="#0f766e" /><circle cx="1381.409" cy="506.035" r="4.68" fill="none" stroke="#d8cbb3" stroke-width="1.4" opacity="0.55" /><circle cx="1398.498" cy="489.085" r="2.902" fill="#fff5d6" opacity="0.46" /><circle cx="1398.498" cy="489.085" r="2.103" fill="#0f766e" /><circle cx="1398.498" cy="489.085" r="5.103" fill="none" stroke="#b7791f" stroke-width="2.4" opacity="0.95" /><circle cx="1419.651" cy="483.396" r="1.916" fill="#f6efe1" opacity="0.22" /><circle cx="1419.651" cy="483.396" r="1.68" fill="#0f766e" /><circle cx="1419.651" cy="483.396" r="4.68" fill="none" stroke="#d8cbb3" stroke-width="1.4" opacity="0.55" /><circle cx="1417.98" cy="482.119" r="1.916" fill="#f6efe1" opacity="0.22" /><circle cx="1417.98" cy="482.119" r="1.68" fill="#0f766e" /><circle cx="1417.98" cy="482.119" r="4.68" fill="none" stroke="#d8cbb3" stroke-width="1.4" opacity="0.55" /><circle cx="1416.991" cy="481.366" r="1.916" fill="#f6efe1" opacity="0.22" /><circle cx="1416.991" cy="481.366" r="1.68" fill="#0f766e" /><circle cx="1416.991" cy="481.366" r="4.68" fill="none" stroke="#d8cbb3" stroke-width="1.4" opacity="0.55" /><circle cx="1415.149" cy="479.974" r="1.916" fill="#f6efe1" opacity="0.22" /><circle cx="1415.149" cy="479.974" r="1.68" fill="#0f766e" /><circle cx="1415.149" cy="479.974" r="4.68" fill="none" stroke="#d8cbb3" stroke-width="1.4" opacity="0.55" /><circle cx="1432.794" cy="477.993" r="1.916" fill="#f6efe1" opacity="0.22" /><circle cx="1432.794" cy="477.993" r="1.68" fill="#0f766e" /><circle cx="1432.794" cy="477.993" r="4.68" fill="none" stroke="#d8cbb3" stroke-width="1.4" opacity="0.55" /><circle cx="1425.814" cy="472.569" r="1.916" fill="#f6efe1" opacity="0.22" /><circle cx="1425.814" cy="472.569" r="1.68" fill="#0f766e" /><circle cx="1425.814" cy="472.569" r="4.68" fill="none" stroke="#d8cbb3" stroke-width="1.4" opacity="0.55" /><circle cx="1403.145" cy="471.182" r="1.916" fill="#f6efe1" opacity="0.22" /><circle cx="1403.145" cy="471.182" r="1.68" fill="#0f766e" /><circle cx="1403.145" cy="471.182" r="4.68" fill="none" stroke="#d8cbb3" stroke-width="1.4" opacity="0.55" /><circle cx="1397.869" cy="467.465" r="1.916" fill="#f6efe1" opacity="0.22" /><circle cx="1397.869" cy="467.465" r="1.68" fill="#0f766e" /><circle cx="1397.869" cy="467.465" r="4.68" fill="none" stroke="#d8cbb3" stroke-width="1.4" opacity="0.55" /><circle cx="1416.643" cy="465.695" r="1.916" fill="#f6efe1" opacity="0.22" /><circle cx="1416.643" cy="465.695" r="1.68" fill="#0f766e" /><circle cx="1416.643" cy="465.695" r="4.68" fill="none" stroke="#d8cbb3" stroke-width="1.4" opacity="0.55" /><circle cx="1407.611" cy="459.189" r="1.916" fill="#f6efe1" opacity="0.22" /><circle cx="1407.611" cy="459.189" r="1.68" fill="#0f766e" /><circle cx="1407.611" cy="459.189" r="4.68" fill="none" stroke="#d8cbb3" stroke-width="1.4" opacity="0.55" /><rect x="1324.891" y="389.011" width="78" height="17.6" rx="8.8" fill="#f7f1e6" stroke="#0f766e" opacity="0.43" /><text x="1332.091" y="401.011" class="move-label" style="font-size:9.6px">O-O</text><rect x="1355.059" y="418.047" width="78" height="17.6" rx="8.8" fill="#deebf4" stroke="#3a6b87" opacity="0.88" /><text x="1362.259" y="430.047" class="move-label" style="font-size:9.6px">out O-O</text><rect x="1349.657" y="458.532" width="78" height="17.6" rx="8.8" fill="#fdebd2" stroke="#c27b1b" opacity="0.88" /><text x="1356.857" y="470.532" class="move-label" style="font-size:9.6px">in Nf6</text><rect x="1389.589" y="484.911" width="78" height="17.6" rx="8.8" fill="#deebf4" stroke="#3a6b87" opacity="0.88" /><text x="1396.789" y="496.911" class="move-label" style="font-size:9.6px">out Ng5</text><rect x="1386.969" y="439.066" width="78" height="17.6" rx="8.8" fill="#f7f1e6" stroke="#566574" opacity="0.38" /><text x="1394.169" y="451.066" class="move-label" style="font-size:9.6px">Bb6</text><rect x="1392.443" y="491.728" width="78" height="17.6" rx="8.8" fill="#deebf4" stroke="#3a6b87" opacity="0.88" /><text x="1399.643" y="503.728" class="move-label" style="font-size:9.6px">out d4</text><rect x="1529.673" y="476.527" width="78" height="17.6" rx="8.8" fill="#f7f1e6" stroke="#b85c1b" opacity="0.48" /><text x="1536.873" y="488.527" class="move-label" style="font-size:9.6px">Nxe4</text><circle cx="1398.498" cy="489.085" r="10" fill="none" stroke="#7a4b12" stroke-width="2.4" opacity="0.8" /></g><text x="40" y="154" class="section">Budget 3</text><text x="40" y="824" class="copy">Only the coarse structure ribbon is active.</text><text x="592" y="154" class="section">Budget 6</text><text x="592" y="824" class="copy">A brighter inner core appears without changing the coarse move read.</text><text x="1144" y="154" class="section">Budget 12</text><text x="1144" y="824" class="copy">Structure stays readable while tactical and contextual residue become visible.</text><text x="40" y="850" class="section">Expected read</text><text x="40" y="878" class="copy">The same move labels stay attached to the same carriers while additional ribbons and labels join the neighborhood as</text><text x="40" y="898" class="copy">the camera moves closer.</text><line x1="40" y1="902" x2="94" y2="902" stroke="#566574" stroke-width="12" stroke-linecap="round" /><line x1="52" y1="902" x2="82" y2="902" stroke="#87a9c8" stroke-width="4.5" stroke-linecap="round" /><circle cx="96" cy="902" r="4" fill="#dcecff" /><circle cx="108" cy="902" r="4" fill="#dcecff" /><text x="132" y="907" class="copy">Structure stays visually dominant while the inner bands add forcing and contextual detail.</text></svg>