<svg xmlns="http://www.w3.org/2000/svg" width="1700" height="920" viewBox="0 0 1700 920"><style>.eyebrow { font: 700 14px "Avenir Next", "Segoe UI", sans-serif; letter-spacing: 0.14em; text-transform: uppercase; fill: #7a6a55; }.title { font: 700 30px "Iowan Old Style", "Palatino Linotype", serif; fill: #231f18; }.subtitle { font: 400 16px "Avenir Next", "Segoe UI", sans-serif; fill: #5f5547; }.section { font: 700 17px "Avenir Next", "Segoe UI", sans-serif; fill: #2c271f; }.section-small { font: 700 17px "Avenir Next", "Segoe UI", sans-serif; fill: #231f18; }.copy { font: 400 15px "Avenir Next", "Segoe UI", sans-serif; fill: #5f5547; }.metric-label { font: 700 12px "Avenir Next", "Segoe UI", sans-serif; letter-spacing: 0.08em; text-transform: uppercase; fill: #7a6a55; }.move-label { font: 700 12px "Avenir Next", "Segoe UI", sans-serif; fill: #231f18; }.board-label { font: 700 11px "Avenir Next", "Segoe UI", sans-serif; fill: #7a6a55; }.board-copy { font: 400 13px "Avenir Next", "Segoe UI", sans-serif; fill: #5f5547; }.board-piece { font: 700 28px "Georgia", "Times New Roman", serif; text-anchor: middle; dominant-baseline: middle; paint-order: stroke; }.board-piece.white { fill: #f0e6d0; stroke: #2b2116; stroke-width: 1.8px; }.board-piece.black { fill: #2a221b; stroke: #f7f0e4; stroke-width: 0.65px; }</style><rect width="100%" height="100%" fill="#ece4d7" /><rect x="24" y="24" width="1652" height="872" rx="28" fill="#fbf7ef" stroke="#ddd5c7" /><text x="40" y="62" class="eyebrow">N10b refinement review</text><text x="40" y="96" class="title">Scholar&apos;s Mate: refinement toward Qxf7#</text><text x="40" y="124" class="subtitle">Scholar&apos;s Mate · White to move · fixed radius 2</text><defs><clipPath id="refinement-panel-0-clip"><rect x="40" y="176" width="516" height="620" rx="26" /></clipPath></defs><rect x="40" y="176" width="516" height="620" rx="26" fill="#fdfbf6" stroke="#dcd3c4" /><ellipse cx="298" cy="721.6" rx="144.48" ry="37.2" fill="#ece3d3" opacity="0.72" /><g clip-path="url(#refinement-panel-0-clip)"><path d="M298 486 L303.359 557.378 L323.396 610.656 L345.409 642.015 L358.232 653.32 L356.515 647.823 L341.837 627.266 L321.573 592.315 L305.856 545.466 L302.845 493.47 " fill="none" stroke="#f8d6df" stroke-width="5.5542240000000005" stroke-linecap="round" stroke-linejoin="round" opacity="0.32" /><path d="M298 486 L303.359 557.378 L323.396 610.656 L345.409 642.015 L358.232 653.32 L356.515 647.823 L341.837 627.266 L321.573 592.315 L305.856 545.466 L302.845 493.47 " fill="none" stroke="#a61e4d" stroke-width="2.9808000000000003" stroke-linecap="round" stroke-linejoin="round" opacity="0.96" /><path d="M291.24 419.289 L301.486 427.001 L310.547 435.921 L317.38 445.254 L321.236 453.999 L321.76 461.453 L319.036 467.592 L313.562 473.083 L306.191 478.937 L298 486 " fill="none" stroke="#d9e2ea" stroke-width="2.629536" stroke-linecap="round" stroke-linejoin="round" opacity="0.32" /><path d="M291.24 419.289 L301.486 427.001 L310.547 435.921 L317.38 445.254 L321.236 453.999 L321.76 461.453 L319.036 467.592 L313.562 473.083 L306.191 478.937 L298 486 " fill="none" stroke="#566574" stroke-width="1.4112" stroke-linecap="round" stroke-linejoin="round" opacity="0.96" /><circle cx="298" cy="486" r="9.799" fill="#fff5d6" opacity="0.46" /><circle cx="298" cy="486" r="5.939" fill="#0f766e" /><circle cx="298" cy="486" r="8.939" fill="none" stroke="#b7791f" stroke-width="2.4" opacity="0.95" /><circle cx="302.845" cy="493.47" r="7.925" fill="#f6efe1" opacity="0.22" /><circle cx="302.845" cy="493.47" r="6.004" fill="#15803d" /><circle cx="302.845" cy="493.47" r="9.004" fill="none" stroke="#d8cbb3" stroke-width="1.4" opacity="0.55" /><circle cx="291.24" cy="419.289" r="7.151" fill="#f6efe1" opacity="0.22" /><circle cx="291.24" cy="419.289" r="5.418" fill="#2563eb" /><circle cx="291.24" cy="419.289" r="8.418" fill="none" stroke="#d8cbb3" stroke-width="1.4" opacity="0.55" /><rect x="340.355" y="659.823" width="80.8" height="22" rx="11" fill="#deebf4" stroke="#3a6b87" opacity="0.96" /><text x="349.355" y="674.823" class="move-label">out Qxf7#</text><rect x="286.66" y="433.453" width="78" height="22" rx="11" fill="#fdebd2" stroke="#c27b1b" opacity="0.96" /><text x="295.66" y="448.453" class="move-label">in Nf6</text><line x1="302.845" y1="493.47" x2="318.845" y2="486.47" stroke="#2f6b38" stroke-width="1.5" opacity="0.8" /><rect x="318.845" y="475.47" width="99.4" height="22" rx="11" fill="#ecf5ea" stroke="#2f6b38" opacity="0.96" /><text x="327.845" y="490.47" class="move-label">Qxf7# · 1-0</text><circle cx="298" cy="486" r="10" fill="none" stroke="#7a4b12" stroke-width="2.4" opacity="0.8" /></g><defs><clipPath id="refinement-panel-1-clip"><rect x="592" y="176" width="516" height="620" rx="26" /></clipPath></defs><rect x="592" y="176" width="516" height="620" rx="26" fill="#fdfbf6" stroke="#dcd3c4" /><ellipse cx="850" cy="721.6" rx="144.48" ry="37.2" fill="#ece3d3" opacity="0.72" /><g clip-path="url(#refinement-panel-1-clip)"><path d="M850 486 L851.364 533.651 L861.637 576.541 L877.385 608.53 L893.101 627.015 L903.88 633.364 L907.395 631.691 L904.31 626.715 L897.162 621.74 L888.588 617.5 L880.084 612.19 L871.988 602.537 L864.39 585.464 L858.027 559.782 L854.366 527.358 L854.845 493.47 " fill="none" stroke="#f8d6df" stroke-width="5.5542240000000005" stroke-linecap="round" stroke-linejoin="round" opacity="0.32" /><path d="M850 486 L851.364 533.651 L861.637 576.541 L877.385 608.53 L893.101 627.015 L903.88 633.364 L907.395 631.691 L904.31 626.715 L897.162 621.74 L888.588 617.5 L880.084 612.19 L871.988 602.537 L864.39 585.464 L858.027 559.782 L854.366 527.358 L854.845 493.47 " fill="none" stroke="#a61e4d" stroke-width="2.9808000000000003" stroke-linecap="round" stroke-linejoin="round" opacity="0.96" /><path d="M850 486 L851.364 533.651 L861.637 576.541 L877.385 608.53 L893.101 627.015 L903.88 633.364 L907.395 631.691 L904.31 626.715 L897.162 621.74 L888.588 617.5 L880.084 612.19 L871.988 602.537 L864.39 585.464 L858.027 559.782 L854.366 527.358 L854.845 493.47 " fill="none" stroke="#ff90af" stroke-width="0.938952" stroke-linecap="round" stroke-linejoin="round" opacity="0.88" /><path d="M843.24 419.289 L849.949 424.386 L856.252 431.13 L861.188 438.726 L864.361 445.738 L866.019 450.831 L866.86 453.496 L867.588 454.338 L868.507 454.737 L869.374 456.131 L869.566 459.366 L868.404 464.399 L865.497 470.423 L860.975 476.357 L855.486 481.489 L850 486 " fill="none" stroke="#d9e2ea" stroke-width="2.629536" stroke-linecap="round" stroke-linejoin="round" opacity="0.32" /><path d="M843.24 419.289 L849.949 424.386 L856.252 431.13 L861.188 438.726 L864.361 445.738 L866.019 450.831 L866.86 453.496 L867.588 454.338 L868.507 454.737 L869.374 456.131 L869.566 459.366 L868.404 464.399 L865.497 470.423 L860.975 476.357 L855.486 481.489 L850 486 " fill="none" stroke="#566574" stroke-width="1.4112" stroke-linecap="round" stroke-linejoin="round" opacity="0.96" /><path d="M843.24 419.289 L849.949 424.386 L856.252 431.13 L861.188 438.726 L864.361 445.738 L866.019 450.831 L866.86 453.496 L867.588 454.338 L868.507 454.737 L869.374 456.131 L869.566 459.366 L868.404 464.399 L865.497 470.423 L860.975 476.357 L855.486 481.489 L850 486 " fill="none" stroke="#87a9c8" stroke-width="0.444528" stroke-linecap="round" stroke-linejoin="round" opacity="0.88" /><path d="M838.046 405.479 L832.265 407.797 L826.935 412.468 L822.893 418.155 L820.379 422.802 L819.063 424.674 L818.318 423.192 L817.617 419.192 L816.858 414.528 L816.433 411.201 L817.042 410.417 L819.325 412.064 L823.54 414.92 L829.425 417.452 L836.293 418.764 L843.24 419.289 " fill="none" stroke="#d9e2ea" stroke-width="2.710032" stroke-linecap="round" stroke-linejoin="round" opacity="0.32" /><path d="M838.046 405.479 L832.265 407.797 L826.935 412.468 L822.893 418.155 L820.379 422.802 L819.063 424.674 L818.318 423.192 L817.617 419.192 L816.858 414.528 L816.433 411.201 L817.042 410.417 L819.325 412.064 L823.54 414.92 L829.425 417.452 L836.293 418.764 L843.24 419.289 " fill="none" stroke="#566574" stroke-width="1.4544000000000001" stroke-linecap="round" stroke-linejoin="round" opacity="0.96" /><path d="M838.046 405.479 L832.265 407.797 L826.935 412.468 L822.893 418.155 L820.379 422.802 L819.063 424.674 L818.318 423.192 L817.617 419.192 L816.858 414.528 L816.433 411.201 L817.042 410.417 L819.325 412.064 L823.54 414.92 L829.425 417.452 L836.293 418.764 L843.24 419.289 " fill="none" stroke="#87a9c8" stroke-width="0.458136" stroke-linecap="round" stroke-linejoin="round" opacity="0.88" /><circle cx="850" cy="486" r="9.799" fill="#fff5d6" opacity="0.46" /><circle cx="850" cy="486" r="5.939" fill="#0f766e" /><circle cx="850" cy="486" r="8.939" fill="none" stroke="#b7791f" stroke-width="2.4" opacity="0.95" /><circle cx="838.046" cy="405.479" r="6.463" fill="#f6efe1" opacity="0.22" /><circle cx="838.046" cy="405.479" r="4.897" fill="#2563eb" /><circle cx="838.046" cy="405.479" r="7.897" fill="none" stroke="#d8cbb3" stroke-width="1.4" opacity="0.55" /><circle cx="854.845" cy="493.47" r="7.925" fill="#f6efe1" opacity="0.22" /><circle cx="854.845" cy="493.47" r="6.004" fill="#15803d" /><circle cx="854.845" cy="493.47" r="9.004" fill="none" stroke="#d8cbb3" stroke-width="1.4" opacity="0.55" /><circle cx="843.24" cy="419.289" r="7.151" fill="#f6efe1" opacity="0.22" /><circle cx="843.24" cy="419.289" r="5.418" fill="#2563eb" /><circle cx="843.24" cy="419.289" r="8.418" fill="none" stroke="#d8cbb3" stroke-width="1.4" opacity="0.55" /><rect x="881.002" y="633.74" width="80.8" height="22" rx="11" fill="#deebf4" stroke="#3a6b87" opacity="0.96" /><text x="890.002" y="648.74" class="move-label">out Qxf7#</text><rect x="833.407" y="426.737" width="78" height="22" rx="11" fill="#fdebd2" stroke="#c27b1b" opacity="0.96" /><text x="842.407" y="441.737" class="move-label">in Nf6</text><rect x="801.258" y="426.528" width="78" height="22" rx="11" fill="#fdebd2" stroke="#c27b1b" opacity="0.96" /><text x="810.258" y="441.528" class="move-label">in Qh5</text><line x1="854.845" y1="493.47" x2="870.845" y2="486.47" stroke="#2f6b38" stroke-width="1.5" opacity="0.8" /><rect x="870.845" y="475.47" width="99.4" height="22" rx="11" fill="#ecf5ea" stroke="#2f6b38" opacity="0.96" /><text x="879.845" y="490.47" class="move-label">Qxf7# · 1-0</text><circle cx="850" cy="486" r="10" fill="none" stroke="#7a4b12" stroke-width="2.4" opacity="0.8" /></g><defs><clipPath id="refinement-panel-2-clip"><rect x="1144" y="176" width="516" height="620" rx="26" /></clipPath></defs><rect x="1144" y="176" width="516" height="620" rx="26" fill="#fdfbf6" stroke="#dcd3c4" /><ellipse cx="1402" cy="721.6" rx="144.48" ry="37.2" fill="#ece3d3" opacity="0.72" /><g clip-path="url(#refinement-panel-2-clip)"><path d="M1402 486 L1401.407 512.624 L1403.373 538.83 L1408.095 563.056 L1415.625 584.041 L1425.634 600.936 L1437.215 613.481 L1448.875 622.039 L1458.78 627.453 L1465.21 630.739 L1467.056 632.742 L1464.198 633.883 L1457.595 634.109 L1449.035 633.078 L1440.614 630.47 L1434.082 626.282 L1430.308 620.922 L1429.049 615.043 L1429.138 609.188 L1429.032 603.432 L1427.472 597.235 L1423.991 589.596 L1419.043 579.468 L1413.739 566.218 L1409.322 549.938 L1406.649 531.459 L1405.932 512.101 L1406.845 493.47 " fill="none" stroke="#f8d6df" stroke-width="5.5542240000000005" stroke-linecap="round" stroke-linejoin="round" opacity="0.32" /><path d="M1402 486 L1401.407 512.624 L1403.373 538.83 L1408.095 563.056 L1415.625 584.041 L1425.634 600.936 L1437.215 613.481 L1448.875 622.039 L1458.78 627.453 L1465.21 630.739 L1467.056 632.742 L1464.198 633.883 L1457.595 634.109 L1449.035 633.078 L1440.614 630.47 L1434.082 626.282 L1430.308 620.922 L1429.049 615.043 L1429.138 609.188 L1429.032 603.432 L1427.472 597.235 L1423.991 589.596 L1419.043 579.468 L1413.739 566.218 L1409.322 549.938 L1406.649 531.459 L1405.932 512.101 L1406.845 493.47 " fill="none" stroke="#a61e4d" stroke-width="2.9808000000000003" stroke-linecap="round" stroke-linejoin="round" opacity="0.96" /><path d="M1402 486 L1401.407 512.624 L1403.373 538.83 L1408.095 563.056 L1415.625 584.041 L1425.634 600.936 L1437.215 613.481 L1448.875 622.039 L1458.78 627.453 L1465.21 630.739 L1467.056 632.742 L1464.198 633.883 L1457.595 634.109 L1449.035 633.078 L1440.614 630.47 L1434.082 626.282 L1430.308 620.922 L1429.049 615.043 L1429.138 609.188 L1429.032 603.432 L1427.472 597.235 L1423.991 589.596 L1419.043 579.468 L1413.739 566.218 L1409.322 549.938 L1406.649 531.459 L1405.932 512.101 L1406.845 493.47 " fill="none" stroke="#ff90af" stroke-width="0.938952" stroke-linecap="round" stroke-linejoin="round" opacity="0.88" /><circle cx="1401.407" cy="512.624" r="0.382536" fill="#ffd9e6" opacity="0.9" /><circle cx="1437.215" cy="613.481" r="0.382536" fill="#ffd9e6" opacity="0.9" /><circle cx="1464.198" cy="633.883" r="0.382536" fill="#ffd9e6" opacity="0.9" /><circle cx="1430.308" cy="620.922" r="0.382536" fill="#ffd9e6" opacity="0.9" /><circle cx="1423.991" cy="589.596" r="0.382536" fill="#ffd9e6" opacity="0.9" /><circle cx="1405.932" cy="512.101" r="0.382536" fill="#ffd9e6" opacity="0.9" /><path d="M1395.24 419.289 L1399.004 421.917 L1403.053 425.062 L1407.132 428.639 L1410.789 432.498 L1413.484 436.481 L1414.821 440.441 L1414.781 444.247 L1413.813 447.766 L1412.724 450.844 L1412.406 453.317 L1413.489 455.045 L1416.078 455.973 L1419.693 456.193 L1423.44 455.958 L1426.345 455.653 L1427.704 455.704 L1427.303 456.477 L1425.429 458.177 L1422.695 460.801 L1419.763 464.149 L1417.091 467.892 L1414.797 471.67 L1412.693 475.194 L1410.462 478.32 L1407.877 481.058 L1404.959 483.542 L1402 486 " fill="none" stroke="#d9e2ea" stroke-width="2.629536" stroke-linecap="round" stroke-linejoin="round" opacity="0.32" /><path d="M1395.24 419.289 L1399.004 421.917 L1403.053 425.062 L1407.132 428.639 L1410.789 432.498 L1413.484 436.481 L1414.821 440.441 L1414.781 444.247 L1413.813 447.766 L1412.724 450.844 L1412.406 453.317 L1413.489 455.045 L1416.078 455.973 L1419.693 456.193 L1423.44 455.958 L1426.345 455.653 L1427.704 455.704 L1427.303 456.477 L1425.429 458.177 L1422.695 460.801 L1419.763 464.149 L1417.091 467.892 L1414.797 471.67 L1412.693 475.194 L1410.462 478.32 L1407.877 481.058 L1404.959 483.542 L1402 486 " fill="none" stroke="#566574" stroke-width="1.4112" stroke-linecap="round" stroke-linejoin="round" opacity="0.96" /><path d="M1395.24 419.289 L1399.004 421.917 L1403.053 425.062 L1407.132 428.639 L1410.789 432.498 L1413.484 436.481 L1414.821 440.441 L1414.781 444.247 L1413.813 447.766 L1412.724 450.844 L1412.406 453.317 L1413.489 455.045 L1416.078 455.973 L1419.693 456.193 L1423.44 455.958 L1426.345 455.653 L1427.704 455.704 L1427.303 456.477 L1425.429 458.177 L1422.695 460.801 L1419.763 464.149 L1417.091 467.892 L1414.797 471.67 L1412.693 475.194 L1410.462 478.32 L1407.877 481.058 L1404.959 483.542 L1402 486 " fill="none" stroke="#87a9c8" stroke-width="0.444528" stroke-linecap="round" stroke-linejoin="round" opacity="0.88" /><circle cx="1399.004" cy="421.917" r="0.224" fill="#dcecff" opacity="0.9" /><circle cx="1414.821" cy="440.441" r="0.224" fill="#dcecff" opacity="0.9" /><circle cx="1413.489" cy="455.045" r="0.224" fill="#dcecff" opacity="0.9" /><circle cx="1427.704" cy="455.704" r="0.224" fill="#dcecff" opacity="0.9" /><circle cx="1417.091" cy="467.892" r="0.224" fill="#dcecff" opacity="0.9" /><circle cx="1404.959" cy="483.542" r="0.224" fill="#dcecff" opacity="0.9" /><path d="M1390.046 405.479 L1386.796 406.47 L1383.326 408.274 L1379.859 410.717 L1376.781 413.51 L1374.549 416.34 L1373.49 418.94 L1373.617 421.131 L1374.548 422.804 L1375.59 423.879 L1375.969 424.272 L1375.119 423.886 L1372.912 422.653 L1369.735 420.6 L1366.371 417.913 L1363.737 414.955 L1362.561 412.222 L1363.146 410.219 L1365.296 409.318 L1368.456 409.635 L1371.969 410.993 L1375.346 412.982 L1378.421 415.097 L1381.334 416.897 L1384.369 418.128 L1387.742 418.776 L1391.454 419.038 L1395.24 419.289 " fill="none" stroke="#d9e2ea" stroke-width="2.710032" stroke-linecap="round" stroke-linejoin="round" opacity="0.32" /><path d="M1390.046 405.479 L1386.796 406.47 L1383.326 408.274 L1379.859 410.717 L1376.781 413.51 L1374.549 416.34 L1373.49 418.94 L1373.617 421.131 L1374.548 422.804 L1375.59 423.879 L1375.969 424.272 L1375.119 423.886 L1372.912 422.653 L1369.735 420.6 L1366.371 417.913 L1363.737 414.955 L1362.561 412.222 L1363.146 410.219 L1365.296 409.318 L1368.456 409.635 L1371.969 410.993 L1375.346 412.982 L1378.421 415.097 L1381.334 416.897 L1384.369 418.128 L1387.742 418.776 L1391.454 419.038 L1395.24 419.289 " fill="none" stroke="#566574" stroke-width="1.4544000000000001" stroke-linecap="round" stroke-linejoin="round" opacity="0.96" /><path d="M1390.046 405.479 L1386.796 406.47 L1383.326 408.274 L1379.859 410.717 L1376.781 413.51 L1374.549 416.34 L1373.49 418.94 L1373.617 421.131 L1374.548 422.804 L1375.59 423.879 L1375.969 424.272 L1375.119 423.886 L1372.912 422.653 L1369.735 420.6 L1366.371 417.913 L1363.737 414.955 L1362.561 412.222 L1363.146 410.219 L1365.296 409.318 L1368.456 409.635 L1371.969 410.993 L1375.346 412.982 L1378.421 415.097 L1381.334 416.897 L1384.369 418.128 L1387.742 418.776 L1391.454 419.038 L1395.24 419.289 " fill="none" stroke="#87a9c8" stroke-width="0.458136" stroke-linecap="round" stroke-linejoin="round" opacity="0.88" /><circle cx="1386.796" cy="406.47" r="0.224" fill="#dcecff" opacity="0.9" /><circle cx="1373.49" cy="418.94" r="0.224" fill="#dcecff" opacity="0.9" /><circle cx="1375.119" cy="423.886" r="0.224" fill="#dcecff" opacity="0.9" /><circle cx="1362.561" cy="412.222" r="0.224" fill="#dcecff" opacity="0.9" /><circle cx="1375.346" cy="412.982" r="0.224" fill="#dcecff" opacity="0.9" /><circle cx="1391.454" cy="419.038" r="0.224" fill="#dcecff" opacity="0.9" /><circle cx="1402" cy="486" r="9.799" fill="#fff5d6" opacity="0.46" /><circle cx="1402" cy="486" r="5.939" fill="#0f766e" /><circle cx="1402" cy="486" r="8.939" fill="none" stroke="#b7791f" stroke-width="2.4" opacity="0.95" /><circle cx="1390.046" cy="405.479" r="6.463" fill="#f6efe1" opacity="0.22" /><circle cx="1390.046" cy="405.479" r="4.897" fill="#2563eb" /><circle cx="1390.046" cy="405.479" r="7.897" fill="none" stroke="#d8cbb3" stroke-width="1.4" opacity="0.55" /><circle cx="1406.845" cy="493.47" r="7.925" fill="#f6efe1" opacity="0.22" /><circle cx="1406.845" cy="493.47" r="6.004" fill="#15803d" /><circle cx="1406.845" cy="493.47" r="9.004" fill="none" stroke="#d8cbb3" stroke-width="1.4" opacity="0.55" /><circle cx="1395.24" cy="419.289" r="7.151" fill="#f6efe1" opacity="0.22" /><circle cx="1395.24" cy="419.289" r="5.418" fill="#2563eb" /><circle cx="1395.24" cy="419.289" r="8.418" fill="none" stroke="#d8cbb3" stroke-width="1.4" opacity="0.55" /><rect x="1424.454" y="642.47" width="80.8" height="22" rx="11" fill="#deebf4" stroke="#3a6b87" opacity="0.96" /><text x="1433.454" y="657.47" class="move-label">out Qxf7#</text><rect x="1388.34" y="427.958" width="78" height="22" rx="11" fill="#fdebd2" stroke="#c27b1b" opacity="0.96" /><text x="1397.34" y="442.958" class="move-label">in Nf6</text><rect x="1350.771" y="429.913" width="78" height="22" rx="11" fill="#fdebd2" stroke="#c27b1b" opacity="0.96" /><text x="1359.771" y="444.913" class="move-label">in Qh5</text><line x1="1406.845" y1="493.47" x2="1422.845" y2="486.47" stroke="#2f6b38" stroke-width="1.5" opacity="0.8" /><rect x="1422.845" y="475.47" width="99.4" height="22" rx="11" fill="#ecf5ea" stroke="#2f6b38" opacity="0.96" /><text x="1431.845" y="490.47" class="move-label">Qxf7# · 1-0</text><circle cx="1402" cy="486" r="10" fill="none" stroke="#7a4b12" stroke-width="2.4" opacity="0.8" /></g><text x="40" y="154" class="section">Budget 3</text><text x="40" y="824" class="copy">Only the coarse structure ribbon is active.</text><text x="592" y="154" class="section">Budget 6</text><text x="592" y="824" class="copy">A brighter inner core appears without changing the coarse move read.</text><text x="1144" y="154" class="section">Budget 12</text><text x="1144" y="824" class="copy">Structure stays readable while tactical and contextual residue become visible.</text><text x="40" y="850" class="section">Expected read</text><text x="40" y="878" class="copy">The same move labels stay attached to the same carriers while additional ribbons join the neighborhood as the budget</text><text x="40" y="898" class="copy">rises.</text><line x1="40" y1="902" x2="94" y2="902" stroke="#566574" stroke-width="12" stroke-linecap="round" /><line x1="52" y1="902" x2="82" y2="902" stroke="#87a9c8" stroke-width="4.5" stroke-linecap="round" /><circle cx="96" cy="902" r="4" fill="#dcecff" /><circle cx="108" cy="902" r="4" fill="#dcecff" /><text x="132" y="907" class="copy">Structure stays visually dominant while the inner bands add forcing and contextual detail.</text></svg>