<svg xmlns="http://www.w3.org/2000/svg" width="1700" height="920" viewBox="0 0 1700 920"><style>.eyebrow { font: 700 14px "Avenir Next", "Segoe UI", sans-serif; letter-spacing: 0.14em; text-transform: uppercase; fill: #7a6a55; }.title { font: 700 30px "Iowan Old Style", "Palatino Linotype", serif; fill: #231f18; }.subtitle { font: 400 16px "Avenir Next", "Segoe UI", sans-serif; fill: #5f5547; }.section { font: 700 17px "Avenir Next", "Segoe UI", sans-serif; fill: #2c271f; }.section-small { font: 700 17px "Avenir Next", "Segoe UI", sans-serif; fill: #231f18; }.copy { font: 400 15px "Avenir Next", "Segoe UI", sans-serif; fill: #5f5547; }.metric-label { font: 700 12px "Avenir Next", "Segoe UI", sans-serif; letter-spacing: 0.08em; text-transform: uppercase; fill: #7a6a55; }.move-label { font: 700 12px "Avenir Next", "Segoe UI", sans-serif; fill: #231f18; }.board-label { font: 700 11px "Avenir Next", "Segoe UI", sans-serif; fill: #7a6a55; }.board-copy { font: 400 13px "Avenir Next", "Segoe UI", sans-serif; fill: #5f5547; }.board-piece { font: 700 28px "Georgia", "Times New Roman", serif; text-anchor: middle; dominant-baseline: middle; paint-order: stroke; }.board-piece.white { fill: #f0e6d0; stroke: #2b2116; stroke-width: 1.8px; }.board-piece.black { fill: #2a221b; stroke: #f7f0e4; stroke-width: 0.65px; }</style><rect width="100%" height="100%" fill="#ece4d7" /><rect x="24" y="24" width="1652" height="872" rx="28" fill="#fbf7ef" stroke="#ddd5c7" /><text x="40" y="62" class="eyebrow">N10b refinement review</text><text x="40" y="96" class="title">Italian Branch Lab: refinement toward b4, d3, d4, h3, Ng5, O-O</text><text x="40" y="124" class="subtitle">Italian Branch Lab · White to move · fixed radius 2</text><defs><clipPath id="refinement-panel-0-clip"><rect x="40" y="176" width="516" height="620" rx="26" /></clipPath></defs><rect x="40" y="176" width="516" height="620" rx="26" fill="#fdfbf6" stroke="#dcd3c4" /><ellipse cx="298" cy="721.6" rx="144.48" ry="37.2" fill="#ece3d3" opacity="0.72" /><g clip-path="url(#refinement-panel-0-clip)"><path d="M286.65 497.256 L287.06 493.837 L285.938 489.16 L284.463 484.492 L283.919 481.146 L285.131 479.94 L288.116 480.86 L292.08 483.06 L295.763 485.2 L298 486 " fill="none" stroke="#d9e2ea" stroke-width="2.262624" stroke-linecap="round" stroke-linejoin="round" opacity="0.32" /><path d="M286.65 497.256 L287.06 493.837 L285.938 489.16 L284.463 484.492 L283.919 481.146 L285.131 479.94 L288.116 480.86 L292.08 483.06 L295.763 485.2 L298 486 " fill="none" stroke="#566574" stroke-width="1.4112" stroke-linecap="round" stroke-linejoin="round" opacity="0.96" /><path d="M298 486 L298.921 483.046 L299.075 478.242 L299.062 473.298 L299.535 470.013 L300.914 469.519 L303.219 471.808 L306.063 475.74 L308.824 479.503 L310.918 481.379 " fill="none" stroke="#d9e2ea" stroke-width="2.262624" stroke-linecap="round" stroke-linejoin="round" opacity="0.32" /><path d="M298 486 L298.921 483.046 L299.075 478.242 L299.062 473.298 L299.535 470.013 L300.914 469.519 L303.219 471.808 L306.063 475.74 L308.824 479.503 L310.918 481.379 " fill="none" stroke="#566574" stroke-width="1.4112" stroke-linecap="round" stroke-linejoin="round" opacity="0.96" /><circle cx="286.65" cy="497.256" r="1.916" fill="#f6efe1" opacity="0.22" /><circle cx="286.65" cy="497.256" r="1.68" fill="#0f766e" /><circle cx="286.65" cy="497.256" r="4.68" fill="none" stroke="#d8cbb3" stroke-width="1.4" opacity="0.55" /><circle cx="298" cy="486" r="2.902" fill="#fff5d6" opacity="0.46" /><circle cx="298" cy="486" r="2.103" fill="#0f766e" /><circle cx="298" cy="486" r="5.103" fill="none" stroke="#b7791f" stroke-width="2.4" opacity="0.95" /><circle cx="310.918" cy="481.379" r="1.916" fill="#f6efe1" opacity="0.22" /><circle cx="310.918" cy="481.379" r="1.68" fill="#0f766e" /><circle cx="310.918" cy="481.379" r="4.68" fill="none" stroke="#d8cbb3" stroke-width="1.4" opacity="0.55" /><rect x="250.031" y="451.94" width="78" height="22" rx="11" fill="#fdebd2" stroke="#c27b1b" opacity="0.96" /><text x="259.031" y="466.94" class="move-label">in Nf6</text><rect x="285.314" y="481.519" width="78" height="22" rx="11" fill="#deebf4" stroke="#3a6b87" opacity="0.96" /><text x="294.314" y="496.519" class="move-label">out Ng5</text><circle cx="298" cy="486" r="10" fill="none" stroke="#7a4b12" stroke-width="2.4" opacity="0.8" /></g><defs><clipPath id="refinement-panel-1-clip"><rect x="592" y="176" width="516" height="620" rx="26" /></clipPath></defs><rect x="592" y="176" width="516" height="620" rx="26" fill="#fdfbf6" stroke="#dcd3c4" /><ellipse cx="850" cy="721.6" rx="144.48" ry="37.2" fill="#ece3d3" opacity="0.72" /><g clip-path="url(#refinement-panel-1-clip)"><path d="M838.65 497.256 L838.251 494.483 L835.788 489.781 L832.455 484.445 L830.05 480.268 L830.091 478.689 L833.068 480.091 L838.19 483.61 L843.783 487.571 L848.122 490.313 L850.239 490.964 L850.283 489.745 L849.299 487.721 L848.584 486.146 L848.929 485.72 L850 486 " fill="none" stroke="#d9e2ea" stroke-width="2.262624" stroke-linecap="round" stroke-linejoin="round" opacity="0.32" /><path d="M838.65 497.256 L838.251 494.483 L835.788 489.781 L832.455 484.445 L830.05 480.268 L830.091 478.689 L833.068 480.091 L838.19 483.61 L843.783 487.571 L848.122 490.313 L850.239 490.964 L850.283 489.745 L849.299 487.721 L848.584 486.146 L848.929 485.72 L850 486 " fill="none" stroke="#566574" stroke-width="1.4112" stroke-linecap="round" stroke-linejoin="round" opacity="0.96" /><path d="M838.65 497.256 L838.251 494.483 L835.788 489.781 L832.455 484.445 L830.05 480.268 L830.091 478.689 L833.068 480.091 L838.19 483.61 L843.783 487.571 L848.122 490.313 L850.239 490.964 L850.283 489.745 L849.299 487.721 L848.584 486.146 L848.929 485.72 L850 486 " fill="none" stroke="#87a9c8" stroke-width="0.31751999999999997" stroke-linecap="round" stroke-linejoin="round" opacity="0.88" /><path d="M850 486 L850.23 483.264 L849.433 477.81 L848.213 471.379 L847.467 466.452 L847.947 465.047 L849.888 467.738 L852.889 473.362 L856.115 479.601 L858.719 484.142 L860.235 485.744 L860.752 484.688 L860.797 482.43 L861.012 480.719 L861.779 480.557 L862.918 481.379 " fill="none" stroke="#d9e2ea" stroke-width="2.262624" stroke-linecap="round" stroke-linejoin="round" opacity="0.32" /><path d="M850 486 L850.23 483.264 L849.433 477.81 L848.213 471.379 L847.467 466.452 L847.947 465.047 L849.888 467.738 L852.889 473.362 L856.115 479.601 L858.719 484.142 L860.235 485.744 L860.752 484.688 L860.797 482.43 L861.012 480.719 L861.779 480.557 L862.918 481.379 " fill="none" stroke="#566574" stroke-width="1.4112" stroke-linecap="round" stroke-linejoin="round" opacity="0.96" /><path d="M850 486 L850.23 483.264 L849.433 477.81 L848.213 471.379 L847.467 466.452 L847.947 465.047 L849.888 467.738 L852.889 473.362 L856.115 479.601 L858.719 484.142 L860.235 485.744 L860.752 484.688 L860.797 482.43 L861.012 480.719 L861.779 480.557 L862.918 481.379 " fill="none" stroke="#87a9c8" stroke-width="0.31751999999999997" stroke-linecap="round" stroke-linejoin="round" opacity="0.88" /><path d="M850 486 L850.491 483.733 L850.254 478.873 L849.709 473.023 L849.491 468.509 L850.138 467.249 L851.822 469.815 L854.263 475.131 L856.87 481.024 L859.04 485.307 L860.445 486.81 L861.148 485.791 L861.524 483.622 L862.022 481.934 L862.901 481.648 L864.026 482.227 " fill="none" stroke="#d9e2ea" stroke-width="2.216448" stroke-linecap="round" stroke-linejoin="round" opacity="0.32" /><path d="M850 486 L850.491 483.733 L850.254 478.873 L849.709 473.023 L849.491 468.509 L850.138 467.249 L851.822 469.815 L854.263 475.131 L856.87 481.024 L859.04 485.307 L860.445 486.81 L861.148 485.791 L861.524 483.622 L862.022 481.934 L862.901 481.648 L864.026 482.227 " fill="none" stroke="#566574" stroke-width="1.3824" stroke-linecap="round" stroke-linejoin="round" opacity="0.96" /><path d="M850 486 L850.491 483.733 L850.254 478.873 L849.709 473.023 L849.491 468.509 L850.138 467.249 L851.822 469.815 L854.263 475.131 L856.87 481.024 L859.04 485.307 L860.445 486.81 L861.148 485.791 L861.524 483.622 L862.022 481.934 L862.901 481.648 L864.026 482.227 " fill="none" stroke="#87a9c8" stroke-width="0.31104" stroke-linecap="round" stroke-linejoin="round" opacity="0.88" /><path d="M850 486 L850.162 483.716 L849.25 478.959 L847.882 473.263 L846.997 468.848 L847.393 467.546 L849.329 469.897 L852.391 474.873 L855.706 480.398 L858.378 484.386 L859.911 485.719 L860.393 484.648 L860.372 482.482 L860.513 480.78 L861.208 480.417 L862.262 480.88 " fill="none" stroke="#d9e2ea" stroke-width="2.216448" stroke-linecap="round" stroke-linejoin="round" opacity="0.32" /><path d="M850 486 L850.162 483.716 L849.25 478.959 L847.882 473.263 L846.997 468.848 L847.393 467.546 L849.329 469.897 L852.391 474.873 L855.706 480.398 L858.378 484.386 L859.911 485.719 L860.393 484.648 L860.372 482.482 L860.513 480.78 L861.208 480.417 L862.262 480.88 " fill="none" stroke="#566574" stroke-width="1.3824" stroke-linecap="round" stroke-linejoin="round" opacity="0.96" /><path d="M850 486 L850.162 483.716 L849.25 478.959 L847.882 473.263 L846.997 468.848 L847.393 467.546 L849.329 469.897 L852.391 474.873 L855.706 480.398 L858.378 484.386 L859.911 485.719 L860.393 484.648 L860.372 482.482 L860.513 480.78 L861.208 480.417 L862.262 480.88 " fill="none" stroke="#87a9c8" stroke-width="0.31104" stroke-linecap="round" stroke-linejoin="round" opacity="0.88" /><path d="M850 486 L851.85 486.038 L856.456 486.727 L862.262 487.587 L866.825 487.98 L868.084 487.435 L865.401 485.874 L859.826 483.633 L853.553 481.286 L848.875 479.372 L847.14 478.16 L848.198 477.539 L850.633 477.116 L852.681 476.468 L853.331 475.403 L853.085 474.132 " fill="none" stroke="#d9e2ea" stroke-width="2.216448" stroke-linecap="round" stroke-linejoin="round" opacity="0.32" /><path d="M850 486 L851.85 486.038 L856.456 486.727 L862.262 487.587 L866.825 487.98 L868.084 487.435 L865.401 485.874 L859.826 483.633 L853.553 481.286 L848.875 479.372 L847.14 478.16 L848.198 477.539 L850.633 477.116 L852.681 476.468 L853.331 475.403 L853.085 474.132 " fill="none" stroke="#566574" stroke-width="1.3824" stroke-linecap="round" stroke-linejoin="round" opacity="0.96" /><path d="M850 486 L851.85 486.038 L856.456 486.727 L862.262 487.587 L866.825 487.98 L868.084 487.435 L865.401 485.874 L859.826 483.633 L853.553 481.286 L848.875 479.372 L847.14 478.16 L848.198 477.539 L850.633 477.116 L852.681 476.468 L853.331 475.403 L853.085 474.132 " fill="none" stroke="#87a9c8" stroke-width="0.31104" stroke-linecap="round" stroke-linejoin="round" opacity="0.88" /><circle cx="838.65" cy="497.256" r="1.916" fill="#f6efe1" opacity="0.22" /><circle cx="838.65" cy="497.256" r="1.68" fill="#0f766e" /><circle cx="838.65" cy="497.256" r="4.68" fill="none" stroke="#d8cbb3" stroke-width="1.4" opacity="0.55" /><circle cx="850" cy="486" r="2.902" fill="#fff5d6" opacity="0.46" /><circle cx="850" cy="486" r="2.103" fill="#0f766e" /><circle cx="850" cy="486" r="5.103" fill="none" stroke="#b7791f" stroke-width="2.4" opacity="0.95" /><circle cx="864.026" cy="482.227" r="1.916" fill="#f6efe1" opacity="0.22" /><circle cx="864.026" cy="482.227" r="1.68" fill="#0f766e" /><circle cx="864.026" cy="482.227" r="4.68" fill="none" stroke="#d8cbb3" stroke-width="1.4" opacity="0.55" /><circle cx="862.918" cy="481.379" r="1.916" fill="#f6efe1" opacity="0.22" /><circle cx="862.918" cy="481.379" r="1.68" fill="#0f766e" /><circle cx="862.918" cy="481.379" r="4.68" fill="none" stroke="#d8cbb3" stroke-width="1.4" opacity="0.55" /><circle cx="862.262" cy="480.88" r="1.916" fill="#f6efe1" opacity="0.22" /><circle cx="862.262" cy="480.88" r="1.68" fill="#0f766e" /><circle cx="862.262" cy="480.88" r="4.68" fill="none" stroke="#d8cbb3" stroke-width="1.4" opacity="0.55" /><circle cx="853.085" cy="474.132" r="1.916" fill="#f6efe1" opacity="0.22" /><circle cx="853.085" cy="474.132" r="1.68" fill="#0f766e" /><circle cx="853.085" cy="474.132" r="4.68" fill="none" stroke="#d8cbb3" stroke-width="1.4" opacity="0.55" /><rect x="840.515" y="491.601" width="78" height="22" rx="11" fill="#deebf4" stroke="#3a6b87" opacity="0.96" /><text x="849.515" y="506.601" class="move-label">out Ng5</text><rect x="808.683" y="459.571" width="78" height="22" rx="11" fill="#fdebd2" stroke="#c27b1b" opacity="0.96" /><text x="817.683" y="474.571" class="move-label">in Nf6</text><rect x="841.27" y="493.024" width="78" height="22" rx="11" fill="#deebf4" stroke="#3a6b87" opacity="0.96" /><text x="850.27" y="508.024" class="move-label">out h3</text><rect x="840.106" y="492.398" width="78" height="22" rx="11" fill="#deebf4" stroke="#3a6b87" opacity="0.96" /><text x="849.106" y="507.398" class="move-label">out b4</text><rect x="837.953" y="493.286" width="78" height="22" rx="11" fill="#deebf4" stroke="#3a6b87" opacity="0.96" /><text x="846.953" y="508.286" class="move-label">out d3</text><circle cx="850" cy="486" r="10" fill="none" stroke="#7a4b12" stroke-width="2.4" opacity="0.8" /></g><defs><clipPath id="refinement-panel-2-clip"><rect x="1144" y="176" width="516" height="620" rx="26" /></clipPath></defs><rect x="1144" y="176" width="516" height="620" rx="26" fill="#fdfbf6" stroke="#dcd3c4" /><ellipse cx="1402" cy="721.6" rx="144.48" ry="37.2" fill="#ece3d3" opacity="0.72" /><g clip-path="url(#refinement-panel-2-clip)"><path d="M1414.918 481.379 L1411.979 477.4 L1407.129 471.974 L1401.055 465.726 L1394.514 459.32 L1388.21 453.343 L1382.657 448.18 L1378.105 443.957 L1374.568 440.577 L1371.94 437.849 L1370.152 435.654 L1369.287 434.059 L1369.566 433.311 L1371.21 433.699 L1374.263 435.372 L1378.471 438.21 L1383.287 441.805 L1388.015 445.577 L1392.042 448.967 L1395.071 451.654 L1397.258 453.689 L1399.145 455.471 L1401.394 457.544 L1404.462 460.318 L1408.388 463.871 L1412.777 467.909 L1416.958 471.875 L1420.106 475.051 " fill="none" stroke="#cdeae6" stroke-width="2.53968" stroke-linecap="round" stroke-linejoin="round" opacity="0.32" /><path d="M1414.918 481.379 L1411.979 477.4 L1407.129 471.974 L1401.055 465.726 L1394.514 459.32 L1388.21 453.343 L1382.657 448.18 L1378.105 443.957 L1374.568 440.577 L1371.94 437.849 L1370.152 435.654 L1369.287 434.059 L1369.566 433.311 L1371.21 433.699 L1374.263 435.372 L1378.471 438.21 L1383.287 441.805 L1388.015 445.577 L1392.042 448.967 L1395.071 451.654 L1397.258 453.689 L1399.145 455.471 L1401.394 457.544 L1404.462 460.318 L1408.388 463.871 L1412.777 467.909 L1416.958 471.875 L1420.106 475.051 " fill="none" stroke="#0f766e" stroke-width="1.584" stroke-linecap="round" stroke-linejoin="round" opacity="0.96" /><path d="M1414.918 481.379 L1411.979 477.4 L1407.129 471.974 L1401.055 465.726 L1394.514 459.32 L1388.21 453.343 L1382.657 448.18 L1378.105 443.957 L1374.568 440.577 L1371.94 437.849 L1370.152 435.654 L1369.287 434.059 L1369.566 433.311 L1371.21 433.699 L1374.263 435.372 L1378.471 438.21 L1383.287 441.805 L1388.015 445.577 L1392.042 448.967 L1395.071 451.654 L1397.258 453.689 L1399.145 455.471 L1401.394 457.544 L1404.462 460.318 L1408.388 463.871 L1412.777 467.909 L1416.958 471.875 L1420.106 475.051 " fill="none" stroke="#41c8bb" stroke-width="0.35640000000000005" stroke-linecap="round" stroke-linejoin="round" opacity="0.88" /><circle cx="1411.979" cy="477.4" r="0.168" fill="#baf3eb" opacity="0.9" /><circle cx="1382.657" cy="448.18" r="0.168" fill="#baf3eb" opacity="0.9" /><circle cx="1369.287" cy="434.059" r="0.168" fill="#baf3eb" opacity="0.9" /><circle cx="1383.287" cy="441.805" r="0.168" fill="#baf3eb" opacity="0.9" /><circle cx="1399.145" cy="455.471" r="0.168" fill="#baf3eb" opacity="0.9" /><circle cx="1416.958" cy="471.875" r="0.168" fill="#baf3eb" opacity="0.9" /><path d="M1402 486 L1400.663 481.159 L1398.141 474.317 L1394.842 466.29 L1391.223 457.961 L1387.713 450.121 L1384.632 443.305 L1382.145 437.716 L1380.273 433.263 L1378.959 429.725 L1378.167 426.963 L1377.945 425.07 L1378.421 424.358 L1379.723 425.184 L1381.871 427.71 L1384.705 431.74 L1387.894 436.705 L1391.015 441.818 L1393.702 446.338 L1395.779 449.859 L1397.347 452.479 L1398.739 454.756 L1400.355 457.426 L1402.475 461.029 L1405.117 465.652 L1408.045 470.881 L1410.852 475.967 L1413.04 479.958 " fill="none" stroke="#cdeae6" stroke-width="2.53968" stroke-linecap="round" stroke-linejoin="round" opacity="0.32" /><path d="M1402 486 L1400.663 481.159 L1398.141 474.317 L1394.842 466.29 L1391.223 457.961 L1387.713 450.121 L1384.632 443.305 L1382.145 437.716 L1380.273 433.263 L1378.959 429.725 L1378.167 426.963 L1377.945 425.07 L1378.421 424.358 L1379.723 425.184 L1381.871 427.71 L1384.705 431.74 L1387.894 436.705 L1391.015 441.818 L1393.702 446.338 L1395.779 449.859 L1397.347 452.479 L1398.739 454.756 L1400.355 457.426 L1402.475 461.029 L1405.117 465.652 L1408.045 470.881 L1410.852 475.967 L1413.04 479.958 " fill="none" stroke="#0f766e" stroke-width="1.584" stroke-linecap="round" stroke-linejoin="round" opacity="0.96" /><path d="M1402 486 L1400.663 481.159 L1398.141 474.317 L1394.842 466.29 L1391.223 457.961 L1387.713 450.121 L1384.632 443.305 L1382.145 437.716 L1380.273 433.263 L1378.959 429.725 L1378.167 426.963 L1377.945 425.07 L1378.421 424.358 L1379.723 425.184 L1381.871 427.71 L1384.705 431.74 L1387.894 436.705 L1391.015 441.818 L1393.702 446.338 L1395.779 449.859 L1397.347 452.479 L1398.739 454.756 L1400.355 457.426 L1402.475 461.029 L1405.117 465.652 L1408.045 470.881 L1410.852 475.967 L1413.04 479.958 " fill="none" stroke="#41c8bb" stroke-width="0.35640000000000005" stroke-linecap="round" stroke-linejoin="round" opacity="0.88" /><circle cx="1400.663" cy="481.159" r="0.168" fill="#baf3eb" opacity="0.9" /><circle cx="1384.632" cy="443.305" r="0.168" fill="#baf3eb" opacity="0.9" /><circle cx="1377.945" cy="425.07" r="0.168" fill="#baf3eb" opacity="0.9" /><circle cx="1387.894" cy="436.705" r="0.168" fill="#baf3eb" opacity="0.9" /><circle cx="1398.739" cy="454.756" r="0.168" fill="#baf3eb" opacity="0.9" /><circle cx="1410.852" cy="475.967" r="0.168" fill="#baf3eb" opacity="0.9" /><path d="M1390.65 497.256 L1390.691 495.964 L1390.02 493.944 L1388.799 491.395 L1387.28 488.625 L1385.726 485.961 L1384.352 483.659 L1383.306 481.86 L1382.691 480.604 L1382.607 479.88 L1383.161 479.679 L1384.453 480.02 L1386.528 480.937 L1389.313 482.426 L1392.59 484.388 L1396.01 486.604 L1399.158 488.746 L1401.64 490.453 L1403.18 491.415 L1403.698 491.478 L1403.342 490.706 L1402.452 489.374 L1401.453 487.885 L1400.724 486.634 L1400.483 485.876 L1400.751 485.657 L1401.362 485.814 L1402 486 " fill="none" stroke="#d9e2ea" stroke-width="2.262624" stroke-linecap="round" stroke-linejoin="round" opacity="0.32" /><path d="M1390.65 497.256 L1390.691 495.964 L1390.02 493.944 L1388.799 491.395 L1387.28 488.625 L1385.726 485.961 L1384.352 483.659 L1383.306 481.86 L1382.691 480.604 L1382.607 479.88 L1383.161 479.679 L1384.453 480.02 L1386.528 480.937 L1389.313 482.426 L1392.59 484.388 L1396.01 486.604 L1399.158 488.746 L1401.64 490.453 L1403.18 491.415 L1403.698 491.478 L1403.342 490.706 L1402.452 489.374 L1401.453 487.885 L1400.724 486.634 L1400.483 485.876 L1400.751 485.657 L1401.362 485.814 L1402 486 " fill="none" stroke="#566574" stroke-width="1.4112" stroke-linecap="round" stroke-linejoin="round" opacity="0.96" /><path d="M1390.65 497.256 L1390.691 495.964 L1390.02 493.944 L1388.799 491.395 L1387.28 488.625 L1385.726 485.961 L1384.352 483.659 L1383.306 481.86 L1382.691 480.604 L1382.607 479.88 L1383.161 479.679 L1384.453 480.02 L1386.528 480.937 L1389.313 482.426 L1392.59 484.388 L1396.01 486.604 L1399.158 488.746 L1401.64 490.453 L1403.18 491.415 L1403.698 491.478 L1403.342 490.706 L1402.452 489.374 L1401.453 487.885 L1400.724 486.634 L1400.483 485.876 L1400.751 485.657 L1401.362 485.814 L1402 486 " fill="none" stroke="#87a9c8" stroke-width="0.31751999999999997" stroke-linecap="round" stroke-linejoin="round" opacity="0.88" /><circle cx="1390.691" cy="495.964" r="0.168" fill="#dcecff" opacity="0.9" /><circle cx="1384.352" cy="483.659" r="0.168" fill="#dcecff" opacity="0.9" /><circle cx="1384.453" cy="480.02" r="0.168" fill="#dcecff" opacity="0.9" /><circle cx="1399.158" cy="488.746" r="0.168" fill="#dcecff" opacity="0.9" /><circle cx="1402.452" cy="489.374" r="0.168" fill="#dcecff" opacity="0.9" /><circle cx="1401.362" cy="485.814" r="0.168" fill="#dcecff" opacity="0.9" /><path d="M1402 486 L1402.259 484.829 L1402.16 482.66 L1401.784 479.752 L1401.264 476.507 L1400.734 473.35 L1400.305 470.614 L1400.053 468.497 L1400.025 467.084 L1400.263 466.404 L1400.809 466.496 L1401.704 467.42 L1402.965 469.225 L1404.56 471.877 L1406.391 475.187 L1408.301 478.796 L1410.095 482.22 L1411.586 484.946 L1412.636 486.566 L1413.198 486.897 L1413.337 486.063 L1413.212 484.468 L1413.029 482.677 L1412.978 481.225 L1413.173 480.452 L1413.629 480.41 L1414.265 480.875 L1414.918 481.379 " fill="none" stroke="#d9e2ea" stroke-width="2.262624" stroke-linecap="round" stroke-linejoin="round" opacity="0.32" /><path d="M1402 486 L1402.259 484.829 L1402.16 482.66 L1401.784 479.752 L1401.264 476.507 L1400.734 473.35 L1400.305 470.614 L1400.053 468.497 L1400.025 467.084 L1400.263 466.404 L1400.809 466.496 L1401.704 467.42 L1402.965 469.225 L1404.56 471.877 L1406.391 475.187 L1408.301 478.796 L1410.095 482.22 L1411.586 484.946 L1412.636 486.566 L1413.198 486.897 L1413.337 486.063 L1413.212 484.468 L1413.029 482.677 L1412.978 481.225 L1413.173 480.452 L1413.629 480.41 L1414.265 480.875 L1414.918 481.379 " fill="none" stroke="#566574" stroke-width="1.4112" stroke-linecap="round" stroke-linejoin="round" opacity="0.96" /><path d="M1402 486 L1402.259 484.829 L1402.16 482.66 L1401.784 479.752 L1401.264 476.507 L1400.734 473.35 L1400.305 470.614 L1400.053 468.497 L1400.025 467.084 L1400.263 466.404 L1400.809 466.496 L1401.704 467.42 L1402.965 469.225 L1404.56 471.877 L1406.391 475.187 L1408.301 478.796 L1410.095 482.22 L1411.586 484.946 L1412.636 486.566 L1413.198 486.897 L1413.337 486.063 L1413.212 484.468 L1413.029 482.677 L1412.978 481.225 L1413.173 480.452 L1413.629 480.41 L1414.265 480.875 L1414.918 481.379 " fill="none" stroke="#87a9c8" stroke-width="0.31751999999999997" stroke-linecap="round" stroke-linejoin="round" opacity="0.88" /><circle cx="1402.259" cy="484.829" r="0.168" fill="#dcecff" opacity="0.9" /><circle cx="1400.305" cy="470.614" r="0.168" fill="#dcecff" opacity="0.9" /><circle cx="1401.704" cy="467.42" r="0.168" fill="#dcecff" opacity="0.9" /><circle cx="1410.095" cy="482.22" r="0.168" fill="#dcecff" opacity="0.9" /><circle cx="1413.212" cy="484.468" r="0.168" fill="#dcecff" opacity="0.9" /><circle cx="1414.265" cy="480.875" r="0.168" fill="#dcecff" opacity="0.9" /><path d="M1414.262 480.88 L1414.449 479.806 L1414.405 477.667 L1414.187 474.734 L1413.885 471.43 L1413.596 468.204 L1413.396 465.408 L1413.333 463.256 L1413.43 461.842 L1413.696 461.212 L1414.14 461.414 L1414.773 462.522 L1415.603 464.59 L1416.62 467.571 L1417.779 471.254 L1419.002 475.242 L1420.183 479.009 L1421.21 482.006 L1421.993 483.8 L1422.491 484.204 L1422.729 483.355 L1422.796 481.693 L1422.82 479.824 L1422.922 478.319 L1423.181 477.538 L1423.613 477.534 L1424.168 478.068 L1424.736 478.644 " fill="none" stroke="#d9e2ea" stroke-width="2.285712" stroke-linecap="round" stroke-linejoin="round" opacity="0.32" /><path d="M1414.262 480.88 L1414.449 479.806 L1414.405 477.667 L1414.187 474.734 L1413.885 471.43 L1413.596 468.204 L1413.396 465.408 L1413.333 463.256 L1413.43 461.842 L1413.696 461.212 L1414.14 461.414 L1414.773 462.522 L1415.603 464.59 L1416.62 467.571 L1417.779 471.254 L1419.002 475.242 L1420.183 479.009 L1421.21 482.006 L1421.993 483.8 L1422.491 484.204 L1422.729 483.355 L1422.796 481.693 L1422.82 479.824 L1422.922 478.319 L1423.181 477.538 L1423.613 477.534 L1424.168 478.068 L1424.736 478.644 " fill="none" stroke="#566574" stroke-width="1.4256" stroke-linecap="round" stroke-linejoin="round" opacity="0.96" /><path d="M1414.262 480.88 L1414.449 479.806 L1414.405 477.667 L1414.187 474.734 L1413.885 471.43 L1413.596 468.204 L1413.396 465.408 L1413.333 463.256 L1413.43 461.842 L1413.696 461.212 L1414.14 461.414 L1414.773 462.522 L1415.603 464.59 L1416.62 467.571 L1417.779 471.254 L1419.002 475.242 L1420.183 479.009 L1421.21 482.006 L1421.993 483.8 L1422.491 484.204 L1422.729 483.355 L1422.796 481.693 L1422.82 479.824 L1422.922 478.319 L1423.181 477.538 L1423.613 477.534 L1424.168 478.068 L1424.736 478.644 " fill="none" stroke="#87a9c8" stroke-width="0.32076" stroke-linecap="round" stroke-linejoin="round" opacity="0.88" /><circle cx="1414.449" cy="479.806" r="0.168" fill="#dcecff" opacity="0.9" /><circle cx="1413.396" cy="465.408" r="0.168" fill="#dcecff" opacity="0.9" /><circle cx="1414.773" cy="462.522" r="0.168" fill="#dcecff" opacity="0.9" /><circle cx="1420.183" cy="479.009" r="0.168" fill="#dcecff" opacity="0.9" /><circle cx="1422.796" cy="481.693" r="0.168" fill="#dcecff" opacity="0.9" /><circle cx="1424.168" cy="478.068" r="0.168" fill="#dcecff" opacity="0.9" /><path d="M1402 486 L1402.365 485.067 L1402.476 483.189 L1402.393 480.609 L1402.211 477.712 L1402.024 474.896 L1401.909 472.465 L1401.914 470.586 L1402.07 469.317 L1402.4 468.67 L1402.934 468.683 L1403.707 469.438 L1404.74 471.02 L1406.021 473.438 L1407.488 476.545 L1409.031 480.007 L1410.509 483.346 L1411.782 486.042 L1412.742 487.672 L1413.349 488.035 L1413.644 487.24 L1413.741 485.679 L1413.791 483.908 L1413.933 482.453 L1414.252 481.642 L1414.757 481.519 L1415.387 481.863 L1416.026 482.227 " fill="none" stroke="#d9e2ea" stroke-width="2.216448" stroke-linecap="round" stroke-linejoin="round" opacity="0.32" /><path d="M1402 486 L1402.365 485.067 L1402.476 483.189 L1402.393 480.609 L1402.211 477.712 L1402.024 474.896 L1401.909 472.465 L1401.914 470.586 L1402.07 469.317 L1402.4 468.67 L1402.934 468.683 L1403.707 469.438 L1404.74 471.02 L1406.021 473.438 L1407.488 476.545 L1409.031 480.007 L1410.509 483.346 L1411.782 486.042 L1412.742 487.672 L1413.349 488.035 L1413.644 487.24 L1413.741 485.679 L1413.791 483.908 L1413.933 482.453 L1414.252 481.642 L1414.757 481.519 L1415.387 481.863 L1416.026 482.227 " fill="none" stroke="#566574" stroke-width="1.3824" stroke-linecap="round" stroke-linejoin="round" opacity="0.96" /><path d="M1402 486 L1402.365 485.067 L1402.476 483.189 L1402.393 480.609 L1402.211 477.712 L1402.024 474.896 L1401.909 472.465 L1401.914 470.586 L1402.07 469.317 L1402.4 468.67 L1402.934 468.683 L1403.707 469.438 L1404.74 471.02 L1406.021 473.438 L1407.488 476.545 L1409.031 480.007 L1410.509 483.346 L1411.782 486.042 L1412.742 487.672 L1413.349 488.035 L1413.644 487.24 L1413.741 485.679 L1413.791 483.908 L1413.933 482.453 L1414.252 481.642 L1414.757 481.519 L1415.387 481.863 L1416.026 482.227 " fill="none" stroke="#87a9c8" stroke-width="0.31104" stroke-linecap="round" stroke-linejoin="round" opacity="0.88" /><circle cx="1402.365" cy="485.067" r="0.168" fill="#dcecff" opacity="0.9" /><circle cx="1401.909" cy="472.465" r="0.168" fill="#dcecff" opacity="0.9" /><circle cx="1403.707" cy="469.438" r="0.168" fill="#dcecff" opacity="0.9" /><circle cx="1410.509" cy="483.346" r="0.168" fill="#dcecff" opacity="0.9" /><circle cx="1413.741" cy="485.679" r="0.168" fill="#dcecff" opacity="0.9" /><circle cx="1415.387" cy="481.863" r="0.168" fill="#dcecff" opacity="0.9" /><path d="M1402 486 L1402.226 485.042 L1402.078 483.181 L1401.645 480.651 L1401.064 477.819 L1400.476 475.068 L1399.993 472.692 L1399.684 470.849 L1399.593 469.59 L1399.759 468.926 L1400.231 468.887 L1401.065 469.549 L1402.296 470.994 L1403.905 473.235 L1405.797 476.132 L1407.801 479.371 L1409.702 482.499 L1411.284 485.021 L1412.39 486.528 L1412.961 486.829 L1413.064 486.023 L1412.873 484.484 L1412.617 482.742 L1412.5 481.3 L1412.643 480.473 L1413.059 480.306 L1413.656 480.584 L1414.262 480.88 " fill="none" stroke="#d9e2ea" stroke-width="2.216448" stroke-linecap="round" stroke-linejoin="round" opacity="0.32" /><path d="M1402 486 L1402.226 485.042 L1402.078 483.181 L1401.645 480.651 L1401.064 477.819 L1400.476 475.068 L1399.993 472.692 L1399.684 470.849 L1399.593 469.59 L1399.759 468.926 L1400.231 468.887 L1401.065 469.549 L1402.296 470.994 L1403.905 473.235 L1405.797 476.132 L1407.801 479.371 L1409.702 482.499 L1411.284 485.021 L1412.39 486.528 L1412.961 486.829 L1413.064 486.023 L1412.873 484.484 L1412.617 482.742 L1412.5 481.3 L1412.643 480.473 L1413.059 480.306 L1413.656 480.584 L1414.262 480.88 " fill="none" stroke="#566574" stroke-width="1.3824" stroke-linecap="round" stroke-linejoin="round" opacity="0.96" /><path d="M1402 486 L1402.226 485.042 L1402.078 483.181 L1401.645 480.651 L1401.064 477.819 L1400.476 475.068 L1399.993 472.692 L1399.684 470.849 L1399.593 469.59 L1399.759 468.926 L1400.231 468.887 L1401.065 469.549 L1402.296 470.994 L1403.905 473.235 L1405.797 476.132 L1407.801 479.371 L1409.702 482.499 L1411.284 485.021 L1412.39 486.528 L1412.961 486.829 L1413.064 486.023 L1412.873 484.484 L1412.617 482.742 L1412.5 481.3 L1412.643 480.473 L1413.059 480.306 L1413.656 480.584 L1414.262 480.88 " fill="none" stroke="#87a9c8" stroke-width="0.31104" stroke-linecap="round" stroke-linejoin="round" opacity="0.88" /><circle cx="1402.226" cy="485.042" r="0.168" fill="#dcecff" opacity="0.9" /><circle cx="1399.993" cy="472.692" r="0.168" fill="#dcecff" opacity="0.9" /><circle cx="1401.065" cy="469.549" r="0.168" fill="#dcecff" opacity="0.9" /><circle cx="1409.702" cy="482.499" r="0.168" fill="#dcecff" opacity="0.9" /><circle cx="1412.873" cy="484.484" r="0.168" fill="#dcecff" opacity="0.9" /><circle cx="1413.656" cy="480.584" r="0.168" fill="#dcecff" opacity="0.9" /><path d="M1402 486 L1402.685 485.94 L1404.318 486.15 L1406.692 486.553 L1409.463 487.014 L1412.256 487.378 L1414.758 487.525 L1416.772 487.409 L1418.192 487.059 L1418.959 486.554 L1418.989 485.971 L1418.164 485.349 L1416.369 484.669 L1413.582 483.876 L1409.975 482.913 L1405.97 481.773 L1402.182 480.523 L1399.262 479.297 L1397.683 478.246 L1397.581 477.48 L1398.723 477.02 L1400.601 476.794 L1402.611 476.661 L1404.235 476.469 L1405.184 476.107 L1405.45 475.544 L1405.273 474.841 L1405.085 474.132 " fill="none" stroke="#d9e2ea" stroke-width="2.216448" stroke-linecap="round" stroke-linejoin="round" opacity="0.32" /><path d="M1402 486 L1402.685 485.94 L1404.318 486.15 L1406.692 486.553 L1409.463 487.014 L1412.256 487.378 L1414.758 487.525 L1416.772 487.409 L1418.192 487.059 L1418.959 486.554 L1418.989 485.971 L1418.164 485.349 L1416.369 484.669 L1413.582 483.876 L1409.975 482.913 L1405.97 481.773 L1402.182 480.523 L1399.262 479.297 L1397.683 478.246 L1397.581 477.48 L1398.723 477.02 L1400.601 476.794 L1402.611 476.661 L1404.235 476.469 L1405.184 476.107 L1405.45 475.544 L1405.273 474.841 L1405.085 474.132 " fill="none" stroke="#566574" stroke-width="1.3824" stroke-linecap="round" stroke-linejoin="round" opacity="0.96" /><path d="M1402 486 L1402.685 485.94 L1404.318 486.15 L1406.692 486.553 L1409.463 487.014 L1412.256 487.378 L1414.758 487.525 L1416.772 487.409 L1418.192 487.059 L1418.959 486.554 L1418.989 485.971 L1418.164 485.349 L1416.369 484.669 L1413.582 483.876 L1409.975 482.913 L1405.97 481.773 L1402.182 480.523 L1399.262 479.297 L1397.683 478.246 L1397.581 477.48 L1398.723 477.02 L1400.601 476.794 L1402.611 476.661 L1404.235 476.469 L1405.184 476.107 L1405.45 475.544 L1405.273 474.841 L1405.085 474.132 " fill="none" stroke="#87a9c8" stroke-width="0.31104" stroke-linecap="round" stroke-linejoin="round" opacity="0.88" /><circle cx="1402.685" cy="485.94" r="0.168" fill="#dcecff" opacity="0.9" /><circle cx="1414.758" cy="487.525" r="0.168" fill="#dcecff" opacity="0.9" /><circle cx="1418.164" cy="485.349" r="0.168" fill="#dcecff" opacity="0.9" /><circle cx="1402.182" cy="480.523" r="0.168" fill="#dcecff" opacity="0.9" /><circle cx="1400.601" cy="476.794" r="0.168" fill="#dcecff" opacity="0.9" /><circle cx="1405.273" cy="474.841" r="0.168" fill="#dcecff" opacity="0.9" /><path d="M1402 486 L1402.574 485.685 L1404.126 485.369 L1406.442 485.034 L1409.169 484.642 L1411.919 484.147 L1414.371 483.519 L1416.32 482.768 L1417.658 481.953 L1418.32 481.171 L1418.219 480.521 L1417.232 480.076 L1415.236 479.849 L1412.211 479.791 L1408.337 479.796 L1404.052 479.739 L1399.996 479.511 L1396.844 479.061 L1395.083 478.404 L1394.851 477.612 L1395.904 476.77 L1397.717 475.951 L1399.665 475.186 L1401.214 474.472 L1402.066 473.782 L1402.214 473.087 L1401.908 472.38 L1401.591 471.671 " fill="none" stroke="#d9e2ea" stroke-width="2.216448" stroke-linecap="round" stroke-linejoin="round" opacity="0.32" /><path d="M1402 486 L1402.574 485.685 L1404.126 485.369 L1406.442 485.034 L1409.169 484.642 L1411.919 484.147 L1414.371 483.519 L1416.32 482.768 L1417.658 481.953 L1418.32 481.171 L1418.219 480.521 L1417.232 480.076 L1415.236 479.849 L1412.211 479.791 L1408.337 479.796 L1404.052 479.739 L1399.996 479.511 L1396.844 479.061 L1395.083 478.404 L1394.851 477.612 L1395.904 476.77 L1397.717 475.951 L1399.665 475.186 L1401.214 474.472 L1402.066 473.782 L1402.214 473.087 L1401.908 472.38 L1401.591 471.671 " fill="none" stroke="#566574" stroke-width="1.3824" stroke-linecap="round" stroke-linejoin="round" opacity="0.96" /><path d="M1402 486 L1402.574 485.685 L1404.126 485.369 L1406.442 485.034 L1409.169 484.642 L1411.919 484.147 L1414.371 483.519 L1416.32 482.768 L1417.658 481.953 L1418.32 481.171 L1418.219 480.521 L1417.232 480.076 L1415.236 479.849 L1412.211 479.791 L1408.337 479.796 L1404.052 479.739 L1399.996 479.511 L1396.844 479.061 L1395.083 478.404 L1394.851 477.612 L1395.904 476.77 L1397.717 475.951 L1399.665 475.186 L1401.214 474.472 L1402.066 473.782 L1402.214 473.087 L1401.908 472.38 L1401.591 471.671 " fill="none" stroke="#87a9c8" stroke-width="0.31104" stroke-linecap="round" stroke-linejoin="round" opacity="0.88" /><circle cx="1402.574" cy="485.685" r="0.168" fill="#dcecff" opacity="0.9" /><circle cx="1414.371" cy="483.519" r="0.168" fill="#dcecff" opacity="0.9" /><circle cx="1417.232" cy="480.076" r="0.168" fill="#dcecff" opacity="0.9" /><circle cx="1399.996" cy="479.511" r="0.168" fill="#dcecff" opacity="0.9" /><circle cx="1397.717" cy="475.951" r="0.168" fill="#dcecff" opacity="0.9" /><circle cx="1401.908" cy="472.38" r="0.168" fill="#dcecff" opacity="0.9" /><path d="M1405.085 474.132 L1405.773 474.249 L1407.405 474.738 L1409.775 475.503 L1412.539 476.375 L1415.32 477.167 L1417.805 477.729 L1419.796 477.99 L1421.193 477.962 L1421.938 477.704 L1421.958 477.273 L1421.136 476.685 L1419.36 475.909 L1416.603 474.893 L1413.032 473.612 L1409.059 472.119 L1405.293 470.561 L1402.382 469.146 L1400.799 468.076 L1400.681 467.465 L1401.801 467.3 L1403.656 467.445 L1405.643 467.69 L1407.249 467.827 L1408.182 467.719 L1408.434 467.338 L1408.245 466.77 L1408.045 466.195 " fill="none" stroke="#d9e2ea" stroke-width="2.216448" stroke-linecap="round" stroke-linejoin="round" opacity="0.32" /><path d="M1405.085 474.132 L1405.773 474.249 L1407.405 474.738 L1409.775 475.503 L1412.539 476.375 L1415.32 477.167 L1417.805 477.729 L1419.796 477.99 L1421.193 477.962 L1421.938 477.704 L1421.958 477.273 L1421.136 476.685 L1419.36 475.909 L1416.603 474.893 L1413.032 473.612 L1409.059 472.119 L1405.293 470.561 L1402.382 469.146 L1400.799 468.076 L1400.681 467.465 L1401.801 467.3 L1403.656 467.445 L1405.643 467.69 L1407.249 467.827 L1408.182 467.719 L1408.434 467.338 L1408.245 466.77 L1408.045 466.195 " fill="none" stroke="#566574" stroke-width="1.3824" stroke-linecap="round" stroke-linejoin="round" opacity="0.96" /><path d="M1405.085 474.132 L1405.773 474.249 L1407.405 474.738 L1409.775 475.503 L1412.539 476.375 L1415.32 477.167 L1417.805 477.729 L1419.796 477.99 L1421.193 477.962 L1421.938 477.704 L1421.958 477.273 L1421.136 476.685 L1419.36 475.909 L1416.603 474.893 L1413.032 473.612 L1409.059 472.119 L1405.293 470.561 L1402.382 469.146 L1400.799 468.076 L1400.681 467.465 L1401.801 467.3 L1403.656 467.445 L1405.643 467.69 L1407.249 467.827 L1408.182 467.719 L1408.434 467.338 L1408.245 466.77 L1408.045 466.195 " fill="none" stroke="#87a9c8" stroke-width="0.31104" stroke-linecap="round" stroke-linejoin="round" opacity="0.88" /><circle cx="1405.773" cy="474.249" r="0.168" fill="#dcecff" opacity="0.9" /><circle cx="1417.805" cy="477.729" r="0.168" fill="#dcecff" opacity="0.9" /><circle cx="1421.136" cy="476.685" r="0.168" fill="#dcecff" opacity="0.9" /><circle cx="1405.293" cy="470.561" r="0.168" fill="#dcecff" opacity="0.9" /><circle cx="1403.656" cy="467.445" r="0.168" fill="#dcecff" opacity="0.9" /><circle cx="1408.245" cy="466.77" r="0.168" fill="#dcecff" opacity="0.9" /><path d="M1413.04 479.958 L1415.883 481.182 L1422.725 482.829 L1432.693 484.729 L1444.638 486.667 L1457.261 488.419 L1469.38 489.825 L1480.159 490.844 L1489.202 491.56 L1496.451 492.133 L1501.96 492.718 L1505.68 493.387 L1507.365 494.087 L1506.652 494.646 L1503.305 494.825 L1497.48 494.419 L1489.843 493.344 L1481.405 491.682 L1473.119 489.64 L1465.502 487.441 L1458.506 485.243 L1451.683 483.09 L1444.536 480.948 L1436.88 478.762 L1429.058 476.522 L1421.904 474.298 L1416.504 472.231 L1414.027 470.499 " fill="none" stroke="#f2d2ae" stroke-width="3.30928" stroke-linecap="round" stroke-linejoin="round" opacity="0.32" /><path d="M1413.04 479.958 L1415.883 481.182 L1422.725 482.829 L1432.693 484.729 L1444.638 486.667 L1457.261 488.419 L1469.38 489.825 L1480.159 490.844 L1489.202 491.56 L1496.451 492.133 L1501.96 492.718 L1505.68 493.387 L1507.365 494.087 L1506.652 494.646 L1503.305 494.825 L1497.48 494.419 L1489.843 493.344 L1481.405 491.682 L1473.119 489.64 L1465.502 487.441 L1458.506 485.243 L1451.683 483.09 L1444.536 480.948 L1436.88 478.762 L1429.058 476.522 L1421.904 474.298 L1416.504 472.231 L1414.027 470.499 " fill="none" stroke="#b85c1b" stroke-width="2.064" stroke-linecap="round" stroke-linejoin="round" opacity="0.96" /><path d="M1413.04 479.958 L1415.883 481.182 L1422.725 482.829 L1432.693 484.729 L1444.638 486.667 L1457.261 488.419 L1469.38 489.825 L1480.159 490.844 L1489.202 491.56 L1496.451 492.133 L1501.96 492.718 L1505.68 493.387 L1507.365 494.087 L1506.652 494.646 L1503.305 494.825 L1497.48 494.419 L1489.843 493.344 L1481.405 491.682 L1473.119 489.64 L1465.502 487.441 L1458.506 485.243 L1451.683 483.09 L1444.536 480.948 L1436.88 478.762 L1429.058 476.522 L1421.904 474.298 L1416.504 472.231 L1414.027 470.499 " fill="none" stroke="#f4a340" stroke-width="0.4644" stroke-linecap="round" stroke-linejoin="round" opacity="0.88" /><circle cx="1415.883" cy="481.182" r="0.21672000000000002" fill="#ffe0aa" opacity="0.9" /><circle cx="1469.38" cy="489.825" r="0.21672000000000002" fill="#ffe0aa" opacity="0.9" /><circle cx="1505.68" cy="493.387" r="0.21672000000000002" fill="#ffe0aa" opacity="0.9" /><circle cx="1489.843" cy="493.344" r="0.21672000000000002" fill="#ffe0aa" opacity="0.9" /><circle cx="1451.683" cy="483.09" r="0.21672000000000002" fill="#ffe0aa" opacity="0.9" /><circle cx="1416.504" cy="472.231" r="0.21672000000000002" fill="#ffe0aa" opacity="0.9" /><circle cx="1390.65" cy="497.256" r="1.916" fill="#f6efe1" opacity="0.22" /><circle cx="1390.65" cy="497.256" r="1.68" fill="#0f766e" /><circle cx="1390.65" cy="497.256" r="4.68" fill="none" stroke="#d8cbb3" stroke-width="1.4" opacity="0.55" /><circle cx="1402" cy="486" r="2.902" fill="#fff5d6" opacity="0.46" /><circle cx="1402" cy="486" r="2.103" fill="#0f766e" /><circle cx="1402" cy="486" r="5.103" fill="none" stroke="#b7791f" stroke-width="2.4" opacity="0.95" /><circle cx="1416.026" cy="482.227" r="1.916" fill="#f6efe1" opacity="0.22" /><circle cx="1416.026" cy="482.227" r="1.68" fill="#0f766e" /><circle cx="1416.026" cy="482.227" r="4.68" fill="none" stroke="#d8cbb3" stroke-width="1.4" opacity="0.55" /><circle cx="1414.918" cy="481.379" r="1.916" fill="#f6efe1" opacity="0.22" /><circle cx="1414.918" cy="481.379" r="1.68" fill="#0f766e" /><circle cx="1414.918" cy="481.379" r="4.68" fill="none" stroke="#d8cbb3" stroke-width="1.4" opacity="0.55" /><circle cx="1414.262" cy="480.88" r="1.916" fill="#f6efe1" opacity="0.22" /><circle cx="1414.262" cy="480.88" r="1.68" fill="#0f766e" /><circle cx="1414.262" cy="480.88" r="4.68" fill="none" stroke="#d8cbb3" stroke-width="1.4" opacity="0.55" /><circle cx="1413.04" cy="479.958" r="1.916" fill="#f6efe1" opacity="0.22" /><circle cx="1413.04" cy="479.958" r="1.68" fill="#0f766e" /><circle cx="1413.04" cy="479.958" r="4.68" fill="none" stroke="#d8cbb3" stroke-width="1.4" opacity="0.55" /><circle cx="1424.736" cy="478.644" r="1.916" fill="#f6efe1" opacity="0.22" /><circle cx="1424.736" cy="478.644" r="1.68" fill="#0f766e" /><circle cx="1424.736" cy="478.644" r="4.68" fill="none" stroke="#d8cbb3" stroke-width="1.4" opacity="0.55" /><circle cx="1420.106" cy="475.051" r="1.916" fill="#f6efe1" opacity="0.22" /><circle cx="1420.106" cy="475.051" r="1.68" fill="#0f766e" /><circle cx="1420.106" cy="475.051" r="4.68" fill="none" stroke="#d8cbb3" stroke-width="1.4" opacity="0.55" /><circle cx="1405.085" cy="474.132" r="1.916" fill="#f6efe1" opacity="0.22" /><circle cx="1405.085" cy="474.132" r="1.68" fill="#0f766e" /><circle cx="1405.085" cy="474.132" r="4.68" fill="none" stroke="#d8cbb3" stroke-width="1.4" opacity="0.55" /><circle cx="1401.591" cy="471.671" r="1.916" fill="#f6efe1" opacity="0.22" /><circle cx="1401.591" cy="471.671" r="1.68" fill="#0f766e" /><circle cx="1401.591" cy="471.671" r="4.68" fill="none" stroke="#d8cbb3" stroke-width="1.4" opacity="0.55" /><circle cx="1414.027" cy="470.499" r="1.916" fill="#f6efe1" opacity="0.22" /><circle cx="1414.027" cy="470.499" r="1.68" fill="#0f766e" /><circle cx="1414.027" cy="470.499" r="4.68" fill="none" stroke="#d8cbb3" stroke-width="1.4" opacity="0.55" /><circle cx="1408.045" cy="466.195" r="1.916" fill="#f6efe1" opacity="0.22" /><circle cx="1408.045" cy="466.195" r="1.68" fill="#0f766e" /><circle cx="1408.045" cy="466.195" r="4.68" fill="none" stroke="#d8cbb3" stroke-width="1.4" opacity="0.55" /><rect x="1339.163" y="407.372" width="78" height="22" rx="11" fill="#f7f1e6" stroke="#0f766e" opacity="0.96" /><text x="1348.163" y="422.372" class="move-label">O-O</text><rect x="1366.271" y="439.71" width="78" height="22" rx="11" fill="#deebf4" stroke="#3a6b87" opacity="0.96" /><text x="1375.271" y="454.71" class="move-label">out O-O</text><rect x="1357.49" y="456.388" width="78" height="22" rx="11" fill="#fdebd2" stroke="#c27b1b" opacity="0.96" /><text x="1366.49" y="471.388" class="move-label">in Nf6</text><rect x="1390.791" y="487.187" width="78" height="22" rx="11" fill="#deebf4" stroke="#3a6b87" opacity="0.96" /><text x="1399.791" y="502.187" class="move-label">out Ng5</text><rect x="1382.679" y="443.254" width="78" height="22" rx="11" fill="#f7f1e6" stroke="#566574" opacity="0.96" /><text x="1391.679" y="458.254" class="move-label">Bb6</text><rect x="1391.888" y="488.545" width="78" height="22" rx="11" fill="#deebf4" stroke="#3a6b87" opacity="0.96" /><text x="1400.888" y="503.545" class="move-label">out h3</text><rect x="1390.197" y="488.132" width="78" height="22" rx="11" fill="#deebf4" stroke="#3a6b87" opacity="0.96" /><text x="1399.197" y="503.132" class="move-label">out b4</text><rect x="1394.375" y="494.913" width="78" height="22" rx="11" fill="#deebf4" stroke="#3a6b87" opacity="0.96" /><text x="1403.375" y="509.913" class="move-label">out d3</text><rect x="1392.737" y="491.796" width="78" height="22" rx="11" fill="#deebf4" stroke="#3a6b87" opacity="0.96" /><text x="1401.737" y="506.796" class="move-label">out d4</text><rect x="1377.932" y="445.612" width="78" height="22" rx="11" fill="#f7f1e6" stroke="#566574" opacity="0.96" /><text x="1386.932" y="460.612" class="move-label">d6</text><rect x="1468.205" y="466.825" width="78" height="22" rx="11" fill="#f7f1e6" stroke="#b85c1b" opacity="0.96" /><text x="1477.205" y="481.825" class="move-label">Nxe4</text><circle cx="1402" cy="486" r="10" fill="none" stroke="#7a4b12" stroke-width="2.4" opacity="0.8" /></g><text x="40" y="154" class="section">Budget 3</text><text x="40" y="824" class="copy">Only the coarse structure ribbon is active.</text><text x="592" y="154" class="section">Budget 6</text><text x="592" y="824" class="copy">A brighter inner core appears without changing the coarse move read.</text><text x="1144" y="154" class="section">Budget 12</text><text x="1144" y="824" class="copy">Structure stays readable while tactical and contextual residue become visible.</text><text x="40" y="850" class="section">Expected read</text><text x="40" y="878" class="copy">The same move labels stay attached to the same carriers while additional ribbons join the neighborhood as the budget</text><text x="40" y="898" class="copy">rises.</text><line x1="40" y1="902" x2="94" y2="902" stroke="#566574" stroke-width="12" stroke-linecap="round" /><line x1="52" y1="902" x2="82" y2="902" stroke="#87a9c8" stroke-width="4.5" stroke-linecap="round" /><circle cx="96" cy="902" r="4" fill="#dcecff" /><circle cx="108" cy="902" r="4" fill="#dcecff" /><text x="132" y="907" class="copy">Structure stays visually dominant while the inner bands add forcing and contextual detail.</text></svg>