<svg xmlns="http://www.w3.org/2000/svg" width="1700" height="920" viewBox="0 0 1700 920"><style>.eyebrow { font: 700 14px "Avenir Next", "Segoe UI", sans-serif; letter-spacing: 0.14em; text-transform: uppercase; fill: #7a6a55; }.title { font: 700 30px "Iowan Old Style", "Palatino Linotype", serif; fill: #231f18; }.subtitle { font: 400 16px "Avenir Next", "Segoe UI", sans-serif; fill: #5f5547; }.section { font: 700 17px "Avenir Next", "Segoe UI", sans-serif; fill: #2c271f; }.section-small { font: 700 17px "Avenir Next", "Segoe UI", sans-serif; fill: #231f18; }.copy { font: 400 15px "Avenir Next", "Segoe UI", sans-serif; fill: #5f5547; }.metric-label { font: 700 12px "Avenir Next", "Segoe UI", sans-serif; letter-spacing: 0.08em; text-transform: uppercase; fill: #7a6a55; }.move-label { font: 700 12px "Avenir Next", "Segoe UI", sans-serif; fill: #231f18; }.board-label { font: 700 11px "Avenir Next", "Segoe UI", sans-serif; fill: #7a6a55; }.board-copy { font: 400 13px "Avenir Next", "Segoe UI", sans-serif; fill: #5f5547; }.board-piece { font: 700 28px "Georgia", "Times New Roman", serif; text-anchor: middle; dominant-baseline: middle; paint-order: stroke; }.board-piece.white { fill: #f0e6d0; stroke: #2b2116; stroke-width: 1.8px; }.board-piece.black { fill: #2a221b; stroke: #f7f0e4; stroke-width: 0.65px; }</style><rect width="100%" height="100%" fill="#ece4d7" /><rect x="24" y="24" width="1652" height="872" rx="28" fill="#fbf7ef" stroke="#ddd5c7" /><text x="40" y="62" class="eyebrow">Viewer refinement review</text><text x="40" y="96" class="title">1. e4 subtree: refinement toward b4, d3, d4, h3, Ng5, O-O</text><text x="40" y="124" class="subtitle">1. e4 subtree · White to move · fixed radius 2</text><defs><clipPath id="refinement-panel-0-clip"><rect x="40" y="176" width="516" height="620" rx="26" /></clipPath></defs><rect x="40" y="176" width="516" height="620" rx="26" fill="#fdfbf6" stroke="#dcd3c4" /><ellipse cx="298" cy="721.6" rx="144.48" ry="37.2" fill="#ece3d3" opacity="0.72" /><g clip-path="url(#refinement-panel-0-clip)"><path d="M298.414 477.614 L290.088 481.038 L276.614 490.119 L263.451 499.892 L255.317 505.834 L254.855 505.331 L262.05 498.368 L274.232 487.518 L286.637 477.256 L293.76 472.504 " fill="none" stroke="#99f6e4" stroke-width="2.53968" stroke-linecap="round" stroke-linejoin="round" opacity="0.32" /><path d="M298.414 477.614 L290.088 481.038 L276.614 490.119 L263.451 499.892 L255.317 505.834 L254.855 505.331 L262.05 498.368 L274.232 487.518 L286.637 477.256 L293.76 472.504 " fill="none" stroke="#0f766e" stroke-width="1.584" stroke-linecap="round" stroke-linejoin="round" opacity="0.96" /><path d="M300.648 488.931 L290.486 487.876 L273.926 490.302 L257.732 493.711 L247.792 495.658 L247.42 494.673 L256.611 490.728 L272.03 485.221 L287.754 480.505 L296.982 478.997 " fill="none" stroke="#99f6e4" stroke-width="2.53968" stroke-linecap="round" stroke-linejoin="round" opacity="0.32" /><path d="M300.648 488.931 L290.486 487.876 L273.926 490.302 L257.732 493.711 L247.792 495.658 L247.42 494.673 L256.611 490.728 L272.03 485.221 L287.754 480.505 L296.982 478.997 " fill="none" stroke="#0f766e" stroke-width="1.584" stroke-linecap="round" stroke-linejoin="round" opacity="0.96" /><path d="M308.651 499.779 L306.69 498.238 L303.335 497.919 L299.73 498.079 L297.107 497.86 L296.246 496.696 L297.138 494.572 L298.985 492.028 L300.539 489.902 L300.648 488.931 " fill="none" stroke="#cbd5e1" stroke-width="2.262624" stroke-linecap="round" stroke-linejoin="round" opacity="0.32" /><path d="M308.651 499.779 L306.69 498.238 L303.335 497.919 L299.73 498.079 L297.107 497.86 L296.246 496.696 L297.138 494.572 L298.985 492.028 L300.539 489.902 L300.648 488.931 " fill="none" stroke="#334155" stroke-width="1.4112" stroke-linecap="round" stroke-linejoin="round" opacity="0.96" /><path d="M300.648 488.931 L299.162 486.973 L295.88 485.536 L292.24 484.417 L289.804 483.345 L289.562 482.131 L291.514 480.759 L294.663 479.392 L297.444 478.278 L298.414 477.614 " fill="none" stroke="#cbd5e1" stroke-width="2.262624" stroke-linecap="round" stroke-linejoin="round" opacity="0.32" /><path d="M300.648 488.931 L299.162 486.973 L295.88 485.536 L292.24 484.417 L289.804 483.345 L289.562 482.131 L291.514 480.759 L294.663 479.392 L297.444 478.278 L298.414 477.614 " fill="none" stroke="#334155" stroke-width="1.4112" stroke-linecap="round" stroke-linejoin="round" opacity="0.96" /><path d="M297.912 478.098 L296.59 476.418 L293.378 474.986 L289.779 473.774 L287.428 472.713 L287.367 471.745 L289.599 470.858 L293.078 470.091 L296.169 469.496 L297.366 469.095 " fill="none" stroke="#cbd5e1" stroke-width="2.285712" stroke-linecap="round" stroke-linejoin="round" opacity="0.32" /><path d="M297.912 478.098 L296.59 476.418 L293.378 474.986 L289.779 473.774 L287.428 472.713 L287.367 471.745 L289.599 470.858 L293.078 470.091 L296.169 469.496 L297.366 469.095 " fill="none" stroke="#334155" stroke-width="1.4256" stroke-linecap="round" stroke-linejoin="round" opacity="0.96" /><path d="M310.379 524.367 L309.063 521.041 L306.17 517.956 L302.954 515.079 L300.803 512.332 L300.61 509.646 L302.379 507.007 L305.214 504.451 L307.724 502.034 L308.651 499.779 " fill="none" stroke="#cbd5e1" stroke-width="2.216448" stroke-linecap="round" stroke-linejoin="round" opacity="0.32" /><path d="M310.379 524.367 L309.063 521.041 L306.17 517.956 L302.954 515.079 L300.803 512.332 L300.61 509.646 L302.379 507.007 L305.214 504.451 L307.724 502.034 L308.651 499.779 " fill="none" stroke="#334155" stroke-width="1.3824" stroke-linecap="round" stroke-linejoin="round" opacity="0.96" /><path d="M300.648 488.931 L299.207 487.495 L296.078 486.573 L292.593 485.878 L290.226 485.058 L289.926 483.878 L291.692 482.328 L294.573 480.631 L297.092 479.126 L297.912 478.098 " fill="none" stroke="#cbd5e1" stroke-width="2.216448" stroke-linecap="round" stroke-linejoin="round" opacity="0.32" /><path d="M300.648 488.931 L299.207 487.495 L296.078 486.573 L292.593 485.878 L290.226 485.058 L289.926 483.878 L291.692 482.328 L294.573 480.631 L297.092 479.126 L297.912 478.098 " fill="none" stroke="#334155" stroke-width="1.3824" stroke-linecap="round" stroke-linejoin="round" opacity="0.96" /><path d="M300.648 488.931 L299.329 487.201 L296.278 485.76 L292.86 484.497 L290.589 483.259 L290.436 481.936 L292.403 480.52 L295.517 479.104 L298.261 477.828 L299.268 476.799 " fill="none" stroke="#cbd5e1" stroke-width="2.216448" stroke-linecap="round" stroke-linejoin="round" opacity="0.32" /><path d="M300.648 488.931 L299.329 487.201 L296.278 485.76 L292.86 484.497 L290.589 483.259 L290.436 481.936 L292.403 480.52 L295.517 479.104 L298.261 477.828 L299.268 476.799 " fill="none" stroke="#334155" stroke-width="1.3824" stroke-linecap="round" stroke-linejoin="round" opacity="0.96" /><path d="M300.648 488.931 L299.462 488.14 L298.479 485.483 L297.535 482.268 L296.44 480.055 L295.072 479.887 L293.443 481.765 L291.691 484.649 L290.018 486.981 L288.591 487.452 " fill="none" stroke="#cbd5e1" stroke-width="2.216448" stroke-linecap="round" stroke-linejoin="round" opacity="0.32" /><path d="M300.648 488.931 L299.462 488.14 L298.479 485.483 L297.535 482.268 L296.44 480.055 L295.072 479.887 L293.443 481.765 L291.691 484.649 L290.018 486.981 L288.591 487.452 " fill="none" stroke="#334155" stroke-width="1.3824" stroke-linecap="round" stroke-linejoin="round" opacity="0.96" /><path d="M300.648 488.931 L300.059 487.936 L300.171 485.203 L300.441 481.942 L300.24 479.597 L299.156 479.136 L297.197 480.562 L294.79 482.914 L292.573 484.753 L291.09 484.868 " fill="none" stroke="#cbd5e1" stroke-width="2.216448" stroke-linecap="round" stroke-linejoin="round" opacity="0.32" /><path d="M300.648 488.931 L300.059 487.936 L300.171 485.203 L300.441 481.942 L300.24 479.597 L299.156 479.136 L297.197 480.562 L294.79 482.914 L292.573 484.753 L291.09 484.868 " fill="none" stroke="#334155" stroke-width="1.3824" stroke-linecap="round" stroke-linejoin="round" opacity="0.96" /><path d="M291.09 484.868 L290.923 483.95 L291.659 481.336 L292.618 478.205 L293.004 475.971 L292.293 475.579 L290.49 477.031 L288.13 479.389 L286.013 481.243 L284.822 481.412 " fill="none" stroke="#cbd5e1" stroke-width="2.216448" stroke-linecap="round" stroke-linejoin="round" opacity="0.32" /><path d="M291.09 484.868 L290.923 483.95 L291.659 481.336 L292.618 478.205 L293.004 475.971 L292.293 475.579 L290.49 477.031 L288.13 479.389 L286.013 481.243 L284.822 481.412 " fill="none" stroke="#334155" stroke-width="1.3824" stroke-linecap="round" stroke-linejoin="round" opacity="0.96" /><path d="M299.268 476.799 L299.024 475.823 L299.552 473.089 L300.26 469.836 L300.457 467.541 L299.69 467.19 L297.966 468.786 L295.748 471.347 L293.732 473.4 L292.512 473.707 " fill="none" stroke="#cbd5e1" stroke-width="2.216448" stroke-linecap="round" stroke-linejoin="round" opacity="0.32" /><path d="M299.268 476.799 L299.024 475.823 L299.552 473.089 L300.26 469.836 L300.457 467.541 L299.69 467.19 L297.966 468.786 L295.748 471.347 L293.732 473.4 L292.512 473.707 " fill="none" stroke="#334155" stroke-width="1.3824" stroke-linecap="round" stroke-linejoin="round" opacity="0.96" /><path d="M288.591 487.452 L287.385 480.451 L286.436 457.788 L285.622 430.392 L284.729 412.105 L283.601 412.083 L282.267 430.33 L280.946 457.687 L279.913 480.313 L279.294 487.28 " fill="none" stroke="#fed7aa" stroke-width="3.2631040000000002" stroke-linecap="round" stroke-linejoin="round" opacity="0.32" /><path d="M288.591 487.452 L287.385 480.451 L286.436 457.788 L285.622 430.392 L284.729 412.105 L283.601 412.083 L282.267 430.33 L280.946 457.687 L279.913 480.313 L279.294 487.28 " fill="none" stroke="#d97706" stroke-width="2.0352" stroke-linecap="round" stroke-linejoin="round" opacity="0.96" /><path d="M296.982 478.997 L298.629 471.936 L304.551 447.696 L311.708 417.646 L316.126 397.204 L315.135 396.945 L308.777 416.884 L299.806 446.469 L292.26 470.295 L289.175 476.988 " fill="none" stroke="#fed7aa" stroke-width="3.30928" stroke-linecap="round" stroke-linejoin="round" opacity="0.32" /><path d="M296.982 478.997 L298.629 471.936 L304.551 447.696 L311.708 417.646 L316.126 397.204 L315.135 396.945 L308.777 416.884 L299.806 446.469 L292.26 470.295 L289.175 476.988 " fill="none" stroke="#d97706" stroke-width="2.064" stroke-linecap="round" stroke-linejoin="round" opacity="0.96" /><circle cx="310.379" cy="524.367" r="1.914" fill="#f6efe1" opacity="0.22" /><circle cx="310.379" cy="524.367" r="1.679" fill="#0f766e" /><circle cx="310.379" cy="524.367" r="4.679" fill="none" stroke="#d8cbb3" stroke-width="1.4" opacity="0.55" /><circle cx="308.651" cy="499.779" r="1.914" fill="#f6efe1" opacity="0.22" /><circle cx="308.651" cy="499.779" r="1.679" fill="#0f766e" /><circle cx="308.651" cy="499.779" r="4.679" fill="none" stroke="#d8cbb3" stroke-width="1.4" opacity="0.55" /><circle cx="300.648" cy="488.931" r="2.891" fill="#fff5d6" opacity="0.46" /><circle cx="300.648" cy="488.931" r="2.095" fill="#0f766e" /><circle cx="300.648" cy="488.931" r="5.095" fill="none" stroke="#b7791f" stroke-width="2.4" opacity="0.95" /><circle cx="288.591" cy="487.452" r="1.914" fill="#f6efe1" opacity="0.22" /><circle cx="288.591" cy="487.452" r="1.679" fill="#0f766e" /><circle cx="288.591" cy="487.452" r="4.679" fill="none" stroke="#d8cbb3" stroke-width="1.4" opacity="0.55" /><circle cx="279.294" cy="487.28" r="1.914" fill="#f6efe1" opacity="0.22" /><circle cx="279.294" cy="487.28" r="1.679" fill="#0f766e" /><circle cx="279.294" cy="487.28" r="4.679" fill="none" stroke="#d8cbb3" stroke-width="1.4" opacity="0.55" /><circle cx="291.09" cy="484.868" r="1.914" fill="#f6efe1" opacity="0.22" /><circle cx="291.09" cy="484.868" r="1.679" fill="#0f766e" /><circle cx="291.09" cy="484.868" r="4.679" fill="none" stroke="#d8cbb3" stroke-width="1.4" opacity="0.55" /><circle cx="284.822" cy="481.412" r="1.914" fill="#f6efe1" opacity="0.22" /><circle cx="284.822" cy="481.412" r="1.679" fill="#0f766e" /><circle cx="284.822" cy="481.412" r="4.679" fill="none" stroke="#d8cbb3" stroke-width="1.4" opacity="0.55" /><circle cx="296.982" cy="478.997" r="1.914" fill="#f6efe1" opacity="0.22" /><circle cx="296.982" cy="478.997" r="1.679" fill="#0f766e" /><circle cx="296.982" cy="478.997" r="4.679" fill="none" stroke="#d8cbb3" stroke-width="1.4" opacity="0.55" /><circle cx="297.912" cy="478.098" r="1.914" fill="#f6efe1" opacity="0.22" /><circle cx="297.912" cy="478.098" r="1.679" fill="#0f766e" /><circle cx="297.912" cy="478.098" r="4.679" fill="none" stroke="#d8cbb3" stroke-width="1.4" opacity="0.55" /><circle cx="298.414" cy="477.614" r="1.914" fill="#f6efe1" opacity="0.22" /><circle cx="298.414" cy="477.614" r="1.679" fill="#0f766e" /><circle cx="298.414" cy="477.614" r="4.679" fill="none" stroke="#d8cbb3" stroke-width="1.4" opacity="0.55" /><circle cx="289.175" cy="476.988" r="1.914" fill="#f6efe1" opacity="0.22" /><circle cx="289.175" cy="476.988" r="1.679" fill="#0f766e" /><circle cx="289.175" cy="476.988" r="4.679" fill="none" stroke="#d8cbb3" stroke-width="1.4" opacity="0.55" /><circle cx="299.268" cy="476.799" r="1.914" fill="#f6efe1" opacity="0.22" /><circle cx="299.268" cy="476.799" r="1.679" fill="#0f766e" /><circle cx="299.268" cy="476.799" r="4.679" fill="none" stroke="#d8cbb3" stroke-width="1.4" opacity="0.55" /><circle cx="292.512" cy="473.707" r="1.914" fill="#f6efe1" opacity="0.22" /><circle cx="292.512" cy="473.707" r="1.679" fill="#0f766e" /><circle cx="292.512" cy="473.707" r="4.679" fill="none" stroke="#d8cbb3" stroke-width="1.4" opacity="0.55" /><circle cx="293.76" cy="472.504" r="1.914" fill="#f6efe1" opacity="0.22" /><circle cx="293.76" cy="472.504" r="1.679" fill="#0f766e" /><circle cx="293.76" cy="472.504" r="4.679" fill="none" stroke="#d8cbb3" stroke-width="1.4" opacity="0.55" /><circle cx="297.366" cy="469.095" r="1.914" fill="#f6efe1" opacity="0.22" /><circle cx="297.366" cy="469.095" r="1.679" fill="#0f766e" /><circle cx="297.366" cy="469.095" r="4.679" fill="none" stroke="#d8cbb3" stroke-width="1.4" opacity="0.55" /><rect x="231.82" y="506.673" width="78" height="17.6" rx="8.8" fill="#deebf4" stroke="#3a6b87" opacity="0.74" /><text x="239.02" y="518.673" class="move-label" style="font-size:9.6px">out O-O</text><rect x="261.146" y="468.696" width="78" height="17.6" rx="8.8" fill="#fdebd2" stroke="#c27b1b" opacity="0.74" /><text x="268.346" y="480.696" class="move-label" style="font-size:9.6px">in Nf6</text><circle cx="300.648" cy="488.931" r="10" fill="none" stroke="#7a4b12" stroke-width="2.4" opacity="0.8" /></g><defs><clipPath id="refinement-panel-1-clip"><rect x="592" y="176" width="516" height="620" rx="26" /></clipPath></defs><rect x="592" y="176" width="516" height="620" rx="26" fill="#fdfbf6" stroke="#dcd3c4" /><ellipse cx="850" cy="721.6" rx="144.48" ry="37.2" fill="#ece3d3" opacity="0.72" /><g clip-path="url(#refinement-panel-1-clip)"><path d="M849.972 474.68 L842.721 478.039 L830.496 486.506 L817.388 496.417 L807.276 504.056 L802.369 507.152 L802.608 505.588 L806.228 500.979 L811.033 495.467 L815.507 490.596 L819.236 486.841 L822.742 483.731 L826.979 480.344 L832.58 476.041 L839.017 471.244 L843.922 468.035 " fill="none" stroke="#99f6e4" stroke-width="2.53968" stroke-linecap="round" stroke-linejoin="round" opacity="0.32" /><path d="M849.972 474.68 L842.721 478.039 L830.496 486.506 L817.388 496.417 L807.276 504.056 L802.369 507.152 L802.608 505.588 L806.228 500.979 L811.033 495.467 L815.507 490.596 L819.236 486.841 L822.742 483.731 L826.979 480.344 L832.58 476.041 L839.017 471.244 L843.922 468.035 " fill="none" stroke="#0f766e" stroke-width="1.584" stroke-linecap="round" stroke-linejoin="round" opacity="0.96" /><path d="M849.972 474.68 L842.721 478.039 L830.496 486.506 L817.388 496.417 L807.276 504.056 L802.369 507.152 L802.608 505.588 L806.228 500.979 L811.033 495.467 L815.507 490.596 L819.236 486.841 L822.742 483.731 L826.979 480.344 L832.58 476.041 L839.017 471.244 L843.922 468.035 " fill="none" stroke="#14b8a6" stroke-width="0.35640000000000005" stroke-linecap="round" stroke-linejoin="round" opacity="0.88" /><path d="M852.874 489.383 L843.988 488.748 L828.935 491.101 L812.767 494.64 L800.305 497.357 L794.305 497.91 L794.701 496.117 L799.302 492.802 L805.39 489.152 L811.097 486.064 L815.919 483.843 L820.51 482.254 L826.052 480.791 L833.32 479.087 L841.651 477.318 L848.11 476.478 " fill="none" stroke="#99f6e4" stroke-width="2.53968" stroke-linecap="round" stroke-linejoin="round" opacity="0.32" /><path d="M852.874 489.383 L843.988 488.748 L828.935 491.101 L812.767 494.64 L800.305 497.357 L794.305 497.91 L794.701 496.117 L799.302 492.802 L805.39 489.152 L811.097 486.064 L815.919 483.843 L820.51 482.254 L826.052 480.791 L833.32 479.087 L841.651 477.318 L848.11 476.478 " fill="none" stroke="#0f766e" stroke-width="1.584" stroke-linecap="round" stroke-linejoin="round" opacity="0.96" /><path d="M852.874 489.383 L843.988 488.748 L828.935 491.101 L812.767 494.64 L800.305 497.357 L794.305 497.91 L794.701 496.117 L799.302 492.802 L805.39 489.152 L811.097 486.064 L815.919 483.843 L820.51 482.254 L826.052 480.791 L833.32 479.087 L841.651 477.318 L848.11 476.478 " fill="none" stroke="#14b8a6" stroke-width="0.35640000000000005" stroke-linecap="round" stroke-linejoin="round" opacity="0.88" /><path d="M863.261 503.462 L860.879 502.748 L855.985 504.002 L850.101 506.242 L845.455 507.857 L843.889 507.422 L845.978 504.395 L850.737 499.402 L856.094 493.936 L859.909 489.624 L860.974 487.451 L859.472 487.376 L856.699 488.482 L854.263 489.559 L853.13 489.798 L852.874 489.383 " fill="none" stroke="#cbd5e1" stroke-width="2.262624" stroke-linecap="round" stroke-linejoin="round" opacity="0.32" /><path d="M863.261 503.462 L860.879 502.748 L855.985 504.002 L850.101 506.242 L845.455 507.857 L843.889 507.422 L845.978 504.395 L850.737 499.402 L856.094 493.936 L859.909 489.624 L860.974 487.451 L859.472 487.376 L856.699 488.482 L854.263 489.559 L853.13 489.798 L852.874 489.383 " fill="none" stroke="#334155" stroke-width="1.4112" stroke-linecap="round" stroke-linejoin="round" opacity="0.96" /><path d="M863.261 503.462 L860.879 502.748 L855.985 504.002 L850.101 506.242 L845.455 507.857 L843.889 507.422 L845.978 504.395 L850.737 499.402 L856.094 493.936 L859.909 489.624 L860.974 487.451 L859.472 487.376 L856.699 488.482 L854.263 489.559 L853.13 489.798 L852.874 489.383 " fill="none" stroke="#94a3b8" stroke-width="0.31751999999999997" stroke-linecap="round" stroke-linejoin="round" opacity="0.88" /><path d="M852.874 489.383 L850.676 487.988 L845.277 487.331 L838.585 487.139 L833.415 486.868 L832.116 485.993 L835.431 484.27 L842.122 481.868 L849.564 479.29 L855.049 477.12 L857.05 475.744 L855.795 475.19 L852.922 475.163 L850.464 475.23 L849.657 475.07 L849.972 474.68 " fill="none" stroke="#cbd5e1" stroke-width="2.262624" stroke-linecap="round" stroke-linejoin="round" opacity="0.32" /><path d="M852.874 489.383 L850.676 487.988 L845.277 487.331 L838.585 487.139 L833.415 486.868 L832.116 485.993 L835.431 484.27 L842.122 481.868 L849.564 479.29 L855.049 477.12 L857.05 475.744 L855.795 475.19 L852.922 475.163 L850.464 475.23 L849.657 475.07 L849.972 474.68 " fill="none" stroke="#334155" stroke-width="1.4112" stroke-linecap="round" stroke-linejoin="round" opacity="0.96" /><path d="M852.874 489.383 L850.676 487.988 L845.277 487.331 L838.585 487.139 L833.415 486.868 L832.116 485.993 L835.431 484.27 L842.122 481.868 L849.564 479.29 L855.049 477.12 L857.05 475.744 L855.795 475.19 L852.922 475.163 L850.464 475.23 L849.657 475.07 L849.972 474.68 " fill="none" stroke="#94a3b8" stroke-width="0.31751999999999997" stroke-linecap="round" stroke-linejoin="round" opacity="0.88" /><path d="M849.319 475.308 L847.21 474.034 L841.742 473.048 L834.899 472.315 L829.635 471.662 L828.422 470.884 L832.053 469.851 L839.229 468.578 L847.195 467.223 L853.1 466.003 L855.343 465.089 L854.166 464.528 L851.29 464.241 L848.85 464.072 L848.14 463.877 L848.609 463.602 " fill="none" stroke="#cbd5e1" stroke-width="2.285712" stroke-linecap="round" stroke-linejoin="round" opacity="0.32" /><path d="M849.319 475.308 L847.21 474.034 L841.742 473.048 L834.899 472.315 L829.635 471.662 L828.422 470.884 L832.053 469.851 L839.229 468.578 L847.195 467.223 L853.1 466.003 L855.343 465.089 L854.166 464.528 L851.29 464.241 L848.85 464.072 L848.14 463.877 L848.609 463.602 " fill="none" stroke="#334155" stroke-width="1.4256" stroke-linecap="round" stroke-linejoin="round" opacity="0.96" /><path d="M849.319 475.308 L847.21 474.034 L841.742 473.048 L834.899 472.315 L829.635 471.662 L828.422 470.884 L832.053 469.851 L839.229 468.578 L847.195 467.223 L853.1 466.003 L855.343 465.089 L854.166 464.528 L851.29 464.241 L848.85 464.072 L848.14 463.877 L848.609 463.602 " fill="none" stroke="#94a3b8" stroke-width="0.32076" stroke-linecap="round" stroke-linejoin="round" opacity="0.88" /><path d="M865.487 535.322 L863.589 532.667 L858.964 530.314 L853.209 528.271 L848.721 526.372 L847.518 524.377 L850.256 522.105 L855.893 519.531 L862.202 516.799 L866.881 514.148 L868.633 511.788 L867.659 509.805 L865.353 508.136 L863.428 506.621 L862.891 505.092 L863.261 503.462 " fill="none" stroke="#cbd5e1" stroke-width="2.216448" stroke-linecap="round" stroke-linejoin="round" opacity="0.32" /><path d="M865.487 535.322 L863.589 532.667 L858.964 530.314 L853.209 528.271 L848.721 526.372 L847.518 524.377 L850.256 522.105 L855.893 519.531 L862.202 516.799 L866.881 514.148 L868.633 511.788 L867.659 509.805 L865.353 508.136 L863.428 506.621 L862.891 505.092 L863.261 503.462 " fill="none" stroke="#334155" stroke-width="1.3824" stroke-linecap="round" stroke-linejoin="round" opacity="0.96" /><path d="M865.487 535.322 L863.589 532.667 L858.964 530.314 L853.209 528.271 L848.721 526.372 L847.518 524.377 L850.256 522.105 L855.893 519.531 L862.202 516.799 L866.881 514.148 L868.633 511.788 L867.659 509.805 L865.353 508.136 L863.428 506.621 L862.891 505.092 L863.261 503.462 " fill="none" stroke="#94a3b8" stroke-width="0.31104" stroke-linecap="round" stroke-linejoin="round" opacity="0.88" /><path d="M852.874 489.383 L850.837 488.434 L845.879 488.29 L839.696 488.611 L834.844 488.762 L833.483 488.136 L836.328 486.46 L842.279 483.938 L848.963 481.152 L853.91 478.776 L855.72 477.245 L854.597 476.582 L852.022 476.446 L849.822 476.353 L849.087 475.962 L849.319 475.308 " fill="none" stroke="#cbd5e1" stroke-width="2.216448" stroke-linecap="round" stroke-linejoin="round" opacity="0.32" /><path d="M852.874 489.383 L850.837 488.434 L845.879 488.29 L839.696 488.611 L834.844 488.762 L833.483 488.136 L836.328 486.46 L842.279 483.938 L848.963 481.152 L853.91 478.776 L855.72 477.245 L854.597 476.582 L852.022 476.446 L849.822 476.353 L849.087 475.962 L849.319 475.308 " fill="none" stroke="#334155" stroke-width="1.3824" stroke-linecap="round" stroke-linejoin="round" opacity="0.96" /><path d="M852.874 489.383 L850.837 488.434 L845.879 488.29 L839.696 488.611 L834.844 488.762 L833.483 488.136 L836.328 486.46 L842.279 483.938 L848.963 481.152 L853.91 478.776 L855.72 477.245 L854.597 476.582 L852.022 476.446 L849.822 476.353 L849.087 475.962 L849.319 475.308 " fill="none" stroke="#94a3b8" stroke-width="0.31104" stroke-linecap="round" stroke-linejoin="round" opacity="0.88" /><path d="M852.874 489.383 L850.91 488.083 L845.95 487.195 L839.734 486.609 L834.881 486.029 L833.606 485.141 L836.644 483.767 L842.866 481.965 L849.836 480.001 L855.023 478.213 L856.998 476.848 L855.968 475.954 L853.455 475.388 L851.33 474.913 L850.708 474.333 L851.08 473.62 " fill="none" stroke="#cbd5e1" stroke-width="2.216448" stroke-linecap="round" stroke-linejoin="round" opacity="0.32" /><path d="M852.874 489.383 L850.91 488.083 L845.95 487.195 L839.734 486.609 L834.881 486.029 L833.606 485.141 L836.644 483.767 L842.866 481.965 L849.836 480.001 L855.023 478.213 L856.998 476.848 L855.968 475.954 L853.455 475.388 L851.33 474.913 L850.708 474.333 L851.08 473.62 " fill="none" stroke="#334155" stroke-width="1.3824" stroke-linecap="round" stroke-linejoin="round" opacity="0.96" /><path d="M852.874 489.383 L850.91 488.083 L845.95 487.195 L839.734 486.609 L834.881 486.029 L833.606 485.141 L836.644 483.767 L842.866 481.965 L849.836 480.001 L855.023 478.213 L856.998 476.848 L855.968 475.954 L853.455 475.388 L851.33 474.913 L850.708 474.333 L851.08 473.62 " fill="none" stroke="#94a3b8" stroke-width="0.31104" stroke-linecap="round" stroke-linejoin="round" opacity="0.88" /><path d="M852.874 489.383 L852.07 487.887 L851.636 483.247 L851.359 477.093 L850.904 472.155 L849.987 470.826 L848.522 473.933 L846.653 480.359 L844.684 487.645 L842.931 493.17 L841.587 495.333 L840.642 494.213 L839.912 491.345 L839.161 488.729 L838.244 487.585 L837.214 487.461 " fill="none" stroke="#cbd5e1" stroke-width="2.216448" stroke-linecap="round" stroke-linejoin="round" opacity="0.32" /><path d="M852.874 489.383 L852.07 487.887 L851.636 483.247 L851.359 477.093 L850.904 472.155 L849.987 470.826 L848.522 473.933 L846.653 480.359 L844.684 487.645 L842.931 493.17 L841.587 495.333 L840.642 494.213 L839.912 491.345 L839.161 488.729 L838.244 487.585 L837.214 487.461 " fill="none" stroke="#334155" stroke-width="1.3824" stroke-linecap="round" stroke-linejoin="round" opacity="0.96" /><path d="M852.874 489.383 L852.07 487.887 L851.636 483.247 L851.359 477.093 L850.904 472.155 L849.987 470.826 L848.522 473.933 L846.653 480.359 L844.684 487.645 L842.931 493.17 L841.587 495.333 L840.642 494.213 L839.912 491.345 L839.161 488.729 L838.244 487.585 L837.214 487.461 " fill="none" stroke="#94a3b8" stroke-width="0.31104" stroke-linecap="round" stroke-linejoin="round" opacity="0.88" /><path d="M852.874 489.383 L852.792 487.797 L853.931 483.292 L855.6 477.371 L856.71 472.565 L856.339 471.096 L854.2 473.735 L850.768 479.455 L847.026 485.978 L843.994 490.871 L842.276 492.644 L841.811 491.366 L841.98 488.46 L842.003 485.782 L841.425 484.469 L840.459 484.105 " fill="none" stroke="#cbd5e1" stroke-width="2.216448" stroke-linecap="round" stroke-linejoin="round" opacity="0.32" /><path d="M852.874 489.383 L852.792 487.797 L853.931 483.292 L855.6 477.371 L856.71 472.565 L856.339 471.096 L854.2 473.735 L850.768 479.455 L847.026 485.978 L843.994 490.871 L842.276 492.644 L841.811 491.366 L841.98 488.46 L842.003 485.782 L841.425 484.469 L840.459 484.105 " fill="none" stroke="#334155" stroke-width="1.3824" stroke-linecap="round" stroke-linejoin="round" opacity="0.96" /><path d="M852.874 489.383 L852.792 487.797 L853.931 483.292 L855.6 477.371 L856.71 472.565 L856.339 471.096 L854.2 473.735 L850.768 479.455 L847.026 485.978 L843.994 490.871 L842.276 492.644 L841.811 491.366 L841.98 488.46 L842.003 485.782 L841.425 484.469 L840.459 484.105 " fill="none" stroke="#94a3b8" stroke-width="0.31104" stroke-linecap="round" stroke-linejoin="round" opacity="0.88" /><path d="M840.459 484.105 L840.779 482.59 L842.655 478.222 L845.232 472.474 L847.131 467.819 L847.176 466.428 L844.988 469.054 L841.155 474.69 L836.918 481.111 L833.577 485.938 L831.904 487.716 L831.835 486.511 L832.587 483.719 L833.168 481.152 L832.991 479.92 L832.315 479.616 " fill="none" stroke="#cbd5e1" stroke-width="2.216448" stroke-linecap="round" stroke-linejoin="round" opacity="0.32" /><path d="M840.459 484.105 L840.779 482.59 L842.655 478.222 L845.232 472.474 L847.131 467.819 L847.176 466.428 L844.988 469.054 L841.155 474.69 L836.918 481.111 L833.577 485.938 L831.904 487.716 L831.835 486.511 L832.587 483.719 L833.168 481.152 L832.991 479.92 L832.315 479.616 " fill="none" stroke="#334155" stroke-width="1.3824" stroke-linecap="round" stroke-linejoin="round" opacity="0.96" /><path d="M840.459 484.105 L840.779 482.59 L842.655 478.222 L845.232 472.474 L847.131 467.819 L847.176 466.428 L844.988 469.054 L841.155 474.69 L836.918 481.111 L833.577 485.938 L831.904 487.716 L831.835 486.511 L832.587 483.719 L833.168 481.152 L832.991 479.92 L832.315 479.616 " fill="none" stroke="#94a3b8" stroke-width="0.31104" stroke-linecap="round" stroke-linejoin="round" opacity="0.88" /><path d="M851.08 473.62 L851.298 472.002 L852.854 467.42 L854.996 461.426 L856.532 456.601 L856.45 455.199 L854.438 457.985 L851.012 463.895 L847.248 470.607 L844.262 475.65 L842.711 477.527 L842.528 476.324 L843.034 473.5 L843.373 470.942 L843.051 469.79 L842.301 469.601 " fill="none" stroke="#cbd5e1" stroke-width="2.216448" stroke-linecap="round" stroke-linejoin="round" opacity="0.32" /><path d="M851.08 473.62 L851.298 472.002 L852.854 467.42 L854.996 461.426 L856.532 456.601 L856.45 455.199 L854.438 457.985 L851.012 463.895 L847.248 470.607 L844.262 475.65 L842.711 477.527 L842.528 476.324 L843.034 473.5 L843.373 470.942 L843.051 469.79 L842.301 469.601 " fill="none" stroke="#334155" stroke-width="1.3824" stroke-linecap="round" stroke-linejoin="round" opacity="0.96" /><path d="M851.08 473.62 L851.298 472.002 L852.854 467.42 L854.996 461.426 L856.532 456.601 L856.45 455.199 L854.438 457.985 L851.012 463.895 L847.248 470.607 L844.262 475.65 L842.711 477.527 L842.528 476.324 L843.034 473.5 L843.373 470.942 L843.051 469.79 L842.301 469.601 " fill="none" stroke="#94a3b8" stroke-width="0.31104" stroke-linecap="round" stroke-linejoin="round" opacity="0.88" /><path d="M837.214 487.461 L836.191 481.594 L835.359 464.312 L834.661 441.888 L833.977 421.958 L833.183 410.016 L832.209 407.474 L831.077 412.238 L829.875 420.736 L828.724 430.06 L827.721 439.212 L826.905 448.929 L826.265 460.194 L825.768 472.498 L825.394 483.065 L825.14 487.239 " fill="none" stroke="#fed7aa" stroke-width="3.2631040000000002" stroke-linecap="round" stroke-linejoin="round" opacity="0.32" /><path d="M837.214 487.461 L836.191 481.594 L835.359 464.312 L834.661 441.888 L833.977 421.958 L833.183 410.016 L832.209 407.474 L831.077 412.238 L829.875 420.736 L828.724 430.06 L827.721 439.212 L826.905 448.929 L826.265 460.194 L825.768 472.498 L825.394 483.065 L825.14 487.239 " fill="none" stroke="#d97706" stroke-width="2.0352" stroke-linecap="round" stroke-linejoin="round" opacity="0.96" /><path d="M837.214 487.461 L836.191 481.594 L835.359 464.312 L834.661 441.888 L833.977 421.958 L833.183 410.016 L832.209 407.474 L831.077 412.238 L829.875 420.736 L828.724 430.06 L827.721 439.212 L826.905 448.929 L826.265 460.194 L825.768 472.498 L825.394 483.065 L825.14 487.239 " fill="none" stroke="#f59e0b" stroke-width="0.45792" stroke-linecap="round" stroke-linejoin="round" opacity="0.88" /><path d="M848.11 476.478 L849.419 470.72 L853.791 452.784 L859.61 428.713 L864.838 406.41 L867.941 391.985 L868.438 387.466 L866.787 391.137 L863.859 399.55 L860.396 409.727 L856.695 420.469 L852.672 432.165 L848.238 445.325 L843.697 458.956 L839.873 469.996 L837.967 473.866 " fill="none" stroke="#fed7aa" stroke-width="3.30928" stroke-linecap="round" stroke-linejoin="round" opacity="0.32" /><path d="M848.11 476.478 L849.419 470.72 L853.791 452.784 L859.61 428.713 L864.838 406.41 L867.941 391.985 L868.438 387.466 L866.787 391.137 L863.859 399.55 L860.396 409.727 L856.695 420.469 L852.672 432.165 L848.238 445.325 L843.697 458.956 L839.873 469.996 L837.967 473.866 " fill="none" stroke="#d97706" stroke-width="2.064" stroke-linecap="round" stroke-linejoin="round" opacity="0.96" /><path d="M848.11 476.478 L849.419 470.72 L853.791 452.784 L859.61 428.713 L864.838 406.41 L867.941 391.985 L868.438 387.466 L866.787 391.137 L863.859 399.55 L860.396 409.727 L856.695 420.469 L852.672 432.165 L848.238 445.325 L843.697 458.956 L839.873 469.996 L837.967 473.866 " fill="none" stroke="#f59e0b" stroke-width="0.4644" stroke-linecap="round" stroke-linejoin="round" opacity="0.88" /><circle cx="865.487" cy="535.322" r="1.914" fill="#f6efe1" opacity="0.22" /><circle cx="865.487" cy="535.322" r="1.679" fill="#0f766e" /><circle cx="865.487" cy="535.322" r="4.679" fill="none" stroke="#d8cbb3" stroke-width="1.4" opacity="0.55" /><circle cx="863.261" cy="503.462" r="1.914" fill="#f6efe1" opacity="0.22" /><circle cx="863.261" cy="503.462" r="1.679" fill="#0f766e" /><circle cx="863.261" cy="503.462" r="4.679" fill="none" stroke="#d8cbb3" stroke-width="1.4" opacity="0.55" /><circle cx="852.874" cy="489.383" r="2.891" fill="#fff5d6" opacity="0.46" /><circle cx="852.874" cy="489.383" r="2.095" fill="#0f766e" /><circle cx="852.874" cy="489.383" r="5.095" fill="none" stroke="#b7791f" stroke-width="2.4" opacity="0.95" /><circle cx="837.214" cy="487.461" r="1.914" fill="#f6efe1" opacity="0.22" /><circle cx="837.214" cy="487.461" r="1.679" fill="#0f766e" /><circle cx="837.214" cy="487.461" r="4.679" fill="none" stroke="#d8cbb3" stroke-width="1.4" opacity="0.55" /><circle cx="825.14" cy="487.239" r="1.914" fill="#f6efe1" opacity="0.22" /><circle cx="825.14" cy="487.239" r="1.679" fill="#0f766e" /><circle cx="825.14" cy="487.239" r="4.679" fill="none" stroke="#d8cbb3" stroke-width="1.4" opacity="0.55" /><circle cx="840.459" cy="484.105" r="1.914" fill="#f6efe1" opacity="0.22" /><circle cx="840.459" cy="484.105" r="1.679" fill="#0f766e" /><circle cx="840.459" cy="484.105" r="4.679" fill="none" stroke="#d8cbb3" stroke-width="1.4" opacity="0.55" /><circle cx="832.315" cy="479.616" r="1.914" fill="#f6efe1" opacity="0.22" /><circle cx="832.315" cy="479.616" r="1.679" fill="#0f766e" /><circle cx="832.315" cy="479.616" r="4.679" fill="none" stroke="#d8cbb3" stroke-width="1.4" opacity="0.55" /><circle cx="848.11" cy="476.478" r="1.914" fill="#f6efe1" opacity="0.22" /><circle cx="848.11" cy="476.478" r="1.679" fill="#0f766e" /><circle cx="848.11" cy="476.478" r="4.679" fill="none" stroke="#d8cbb3" stroke-width="1.4" opacity="0.55" /><circle cx="849.319" cy="475.308" r="1.914" fill="#f6efe1" opacity="0.22" /><circle cx="849.319" cy="475.308" r="1.679" fill="#0f766e" /><circle cx="849.319" cy="475.308" r="4.679" fill="none" stroke="#d8cbb3" stroke-width="1.4" opacity="0.55" /><circle cx="849.972" cy="474.68" r="1.914" fill="#f6efe1" opacity="0.22" /><circle cx="849.972" cy="474.68" r="1.679" fill="#0f766e" /><circle cx="849.972" cy="474.68" r="4.679" fill="none" stroke="#d8cbb3" stroke-width="1.4" opacity="0.55" /><circle cx="837.967" cy="473.866" r="1.914" fill="#f6efe1" opacity="0.22" /><circle cx="837.967" cy="473.866" r="1.679" fill="#0f766e" /><circle cx="837.967" cy="473.866" r="4.679" fill="none" stroke="#d8cbb3" stroke-width="1.4" opacity="0.55" /><circle cx="851.08" cy="473.62" r="1.914" fill="#f6efe1" opacity="0.22" /><circle cx="851.08" cy="473.62" r="1.679" fill="#0f766e" /><circle cx="851.08" cy="473.62" r="4.679" fill="none" stroke="#d8cbb3" stroke-width="1.4" opacity="0.55" /><circle cx="842.301" cy="469.601" r="1.914" fill="#f6efe1" opacity="0.22" /><circle cx="842.301" cy="469.601" r="1.679" fill="#0f766e" /><circle cx="842.301" cy="469.601" r="4.679" fill="none" stroke="#d8cbb3" stroke-width="1.4" opacity="0.55" /><circle cx="843.922" cy="468.035" r="1.914" fill="#f6efe1" opacity="0.22" /><circle cx="843.922" cy="468.035" r="1.679" fill="#0f766e" /><circle cx="843.922" cy="468.035" r="4.679" fill="none" stroke="#d8cbb3" stroke-width="1.4" opacity="0.55" /><circle cx="848.609" cy="463.602" r="1.914" fill="#f6efe1" opacity="0.22" /><circle cx="848.609" cy="463.602" r="1.679" fill="#0f766e" /><circle cx="848.609" cy="463.602" r="4.679" fill="none" stroke="#d8cbb3" stroke-width="1.4" opacity="0.55" /><rect x="789.79" y="501.152" width="78" height="17.6" rx="8.8" fill="#deebf4" stroke="#3a6b87" opacity="0.82" /><text x="796.99" y="513.152" class="move-label" style="font-size:9.6px">out O-O</text><rect x="820.994" y="465.936" width="78" height="17.6" rx="8.8" fill="#fdebd2" stroke="#c27b1b" opacity="0.82" /><text x="828.194" y="477.936" class="move-label" style="font-size:9.6px">in Nf6</text><rect x="833.964" y="491.29" width="78" height="17.6" rx="8.8" fill="#deebf4" stroke="#3a6b87" opacity="0.82" /><text x="841.164" y="503.29" class="move-label" style="font-size:9.6px">out Ng5</text><rect x="828.759" y="371.55" width="78" height="17.6" rx="8.8" fill="#f7f1e6" stroke="#d97706" opacity="0.43" /><text x="835.959" y="383.55" class="move-label" style="font-size:9.6px">Nxe4</text><circle cx="852.874" cy="489.383" r="10" fill="none" stroke="#7a4b12" stroke-width="2.4" opacity="0.8" /></g><defs><clipPath id="refinement-panel-2-clip"><rect x="1144" y="176" width="516" height="620" rx="26" /></clipPath></defs><rect x="1144" y="176" width="516" height="620" rx="26" fill="#fdfbf6" stroke="#dcd3c4" /><ellipse cx="1402" cy="721.6" rx="144.48" ry="37.2" fill="#ece3d3" opacity="0.72" /><g clip-path="url(#refinement-panel-2-clip)"><path d="M1400.916 469.288 L1396.557 470.896 L1389.584 475.066 L1380.995 480.977 L1371.82 487.748 L1362.972 494.557 L1355.105 500.757 L1348.557 505.931 L1343.403 509.871 L1339.582 512.502 L1337.063 513.773 L1335.957 513.592 L1336.477 511.851 L1338.786 508.537 L1342.806 503.849 L1348.115 498.26 L1353.982 492.47 L1359.53 487.251 L1364.011 483.213 L1367.092 480.568 L1369.023 479.001 L1370.555 477.786 L1372.586 476.114 L1375.722 473.481 L1380.004 469.907 L1384.894 465.914 L1389.474 462.323 L1392.586 460.133 " fill="none" stroke="#99f6e4" stroke-width="2.53968" stroke-linecap="round" stroke-linejoin="round" opacity="0.32" /><path d="M1400.916 469.288 L1396.557 470.896 L1389.584 475.066 L1380.995 480.977 L1371.82 487.748 L1362.972 494.557 L1355.105 500.757 L1348.557 505.931 L1343.403 509.871 L1339.582 512.502 L1337.063 513.773 L1335.957 513.592 L1336.477 511.851 L1338.786 508.537 L1342.806 503.849 L1348.115 498.26 L1353.982 492.47 L1359.53 487.251 L1364.011 483.213 L1367.092 480.568 L1369.023 479.001 L1370.555 477.786 L1372.586 476.114 L1375.722 473.481 L1380.004 469.907 L1384.894 465.914 L1389.474 462.323 L1392.586 460.133 " fill="none" stroke="#0f766e" stroke-width="1.584" stroke-linecap="round" stroke-linejoin="round" opacity="0.96" /><path d="M1400.916 469.288 L1396.557 470.896 L1389.584 475.066 L1380.995 480.977 L1371.82 487.748 L1362.972 494.557 L1355.105 500.757 L1348.557 505.931 L1343.403 509.871 L1339.582 512.502 L1337.063 513.773 L1335.957 513.592 L1336.477 511.851 L1338.786 508.537 L1342.806 503.849 L1348.115 498.26 L1353.982 492.47 L1359.53 487.251 L1364.011 483.213 L1367.092 480.568 L1369.023 479.001 L1370.555 477.786 L1372.586 476.114 L1375.722 473.481 L1380.004 469.907 L1384.894 465.914 L1389.474 462.323 L1392.586 460.133 " fill="none" stroke="#14b8a6" stroke-width="0.35640000000000005" stroke-linecap="round" stroke-linejoin="round" opacity="0.88" /><circle cx="1396.557" cy="470.896" r="0.168" fill="#ccfbf1" opacity="0.9" /><circle cx="1355.105" cy="500.757" r="0.168" fill="#ccfbf1" opacity="0.9" /><circle cx="1335.957" cy="513.592" r="0.168" fill="#ccfbf1" opacity="0.9" /><circle cx="1353.982" cy="492.47" r="0.168" fill="#ccfbf1" opacity="0.9" /><circle cx="1370.555" cy="477.786" r="0.168" fill="#ccfbf1" opacity="0.9" /><circle cx="1389.474" cy="462.323" r="0.168" fill="#ccfbf1" opacity="0.9" /><path d="M1404.909 489.521 L1399.541 488.41 L1390.934 488.736 L1380.32 490.163 L1368.977 492.299 L1358.045 494.734 L1348.34 497.1 L1340.283 499.093 L1333.956 500.491 L1329.266 501.146 L1326.168 500.965 L1324.798 499.909 L1325.44 497.994 L1328.317 495.321 L1333.356 492.102 L1340.046 488.654 L1347.479 485.362 L1354.559 482.598 L1360.342 480.615 L1364.403 479.438 L1367.045 478.836 L1369.195 478.404 L1371.968 477.739 L1376.126 476.63 L1381.726 475.137 L1388.107 473.551 L1394.128 472.276 L1398.355 471.763 " fill="none" stroke="#99f6e4" stroke-width="2.53968" stroke-linecap="round" stroke-linejoin="round" opacity="0.32" /><path d="M1404.909 489.521 L1399.541 488.41 L1390.934 488.736 L1380.32 490.163 L1368.977 492.299 L1358.045 494.734 L1348.34 497.1 L1340.283 499.093 L1333.956 500.491 L1329.266 501.146 L1326.168 500.965 L1324.798 499.909 L1325.44 497.994 L1328.317 495.321 L1333.356 492.102 L1340.046 488.654 L1347.479 485.362 L1354.559 482.598 L1360.342 480.615 L1364.403 479.438 L1367.045 478.836 L1369.195 478.404 L1371.968 477.739 L1376.126 476.63 L1381.726 475.137 L1388.107 473.551 L1394.128 472.276 L1398.355 471.763 " fill="none" stroke="#0f766e" stroke-width="1.584" stroke-linecap="round" stroke-linejoin="round" opacity="0.96" /><path d="M1404.909 489.521 L1399.541 488.41 L1390.934 488.736 L1380.32 490.163 L1368.977 492.299 L1358.045 494.734 L1348.34 497.1 L1340.283 499.093 L1333.956 500.491 L1329.266 501.146 L1326.168 500.965 L1324.798 499.909 L1325.44 497.994 L1328.317 495.321 L1333.356 492.102 L1340.046 488.654 L1347.479 485.362 L1354.559 482.598 L1360.342 480.615 L1364.403 479.438 L1367.045 478.836 L1369.195 478.404 L1371.968 477.739 L1376.126 476.63 L1381.726 475.137 L1388.107 473.551 L1394.128 472.276 L1398.355 471.763 " fill="none" stroke="#14b8a6" stroke-width="0.35640000000000005" stroke-linecap="round" stroke-linejoin="round" opacity="0.88" /><circle cx="1399.541" cy="488.41" r="0.168" fill="#ccfbf1" opacity="0.9" /><circle cx="1348.34" cy="497.1" r="0.168" fill="#ccfbf1" opacity="0.9" /><circle cx="1324.798" cy="499.909" r="0.168" fill="#ccfbf1" opacity="0.9" /><circle cx="1347.479" cy="485.362" r="0.168" fill="#ccfbf1" opacity="0.9" /><circle cx="1369.195" cy="478.404" r="0.168" fill="#ccfbf1" opacity="0.9" /><circle cx="1394.128" cy="472.276" r="0.168" fill="#ccfbf1" opacity="0.9" /><path d="M1419.179 508.863 L1417.776 507.936 L1415.163 507.862 L1411.646 508.481 L1407.684 509.558 L1403.743 510.86 L1400.182 512.191 L1397.232 513.371 L1395.039 514.188 L1393.735 514.367 L1393.477 513.601 L1394.425 511.641 L1396.654 508.42 L1400.054 504.131 L1404.278 499.22 L1408.767 494.295 L1412.849 489.984 L1415.872 486.804 L1417.358 485.05 L1417.141 484.725 L1415.437 485.54 L1412.799 486.992 L1409.948 488.523 L1407.532 489.688 L1405.936 490.263 L1405.197 490.268 L1405.036 489.904 L1404.909 489.521 " fill="none" stroke="#cbd5e1" stroke-width="2.262624" stroke-linecap="round" stroke-linejoin="round" opacity="0.32" /><path d="M1419.179 508.863 L1417.776 507.936 L1415.163 507.862 L1411.646 508.481 L1407.684 509.558 L1403.743 510.86 L1400.182 512.191 L1397.232 513.371 L1395.039 514.188 L1393.735 514.367 L1393.477 513.601 L1394.425 511.641 L1396.654 508.42 L1400.054 504.131 L1404.278 499.22 L1408.767 494.295 L1412.849 489.984 L1415.872 486.804 L1417.358 485.05 L1417.141 484.725 L1415.437 485.54 L1412.799 486.992 L1409.948 488.523 L1407.532 489.688 L1405.936 490.263 L1405.197 490.268 L1405.036 489.904 L1404.909 489.521 " fill="none" stroke="#334155" stroke-width="1.4112" stroke-linecap="round" stroke-linejoin="round" opacity="0.96" /><path d="M1419.179 508.863 L1417.776 507.936 L1415.163 507.862 L1411.646 508.481 L1407.684 509.558 L1403.743 510.86 L1400.182 512.191 L1397.232 513.371 L1395.039 514.188 L1393.735 514.367 L1393.477 513.601 L1394.425 511.641 L1396.654 508.42 L1400.054 504.131 L1404.278 499.22 L1408.767 494.295 L1412.849 489.984 L1415.872 486.804 L1417.358 485.05 L1417.141 484.725 L1415.437 485.54 L1412.799 486.992 L1409.948 488.523 L1407.532 489.688 L1405.936 490.263 L1405.197 490.268 L1405.036 489.904 L1404.909 489.521 " fill="none" stroke="#94a3b8" stroke-width="0.31751999999999997" stroke-linecap="round" stroke-linejoin="round" opacity="0.88" /><circle cx="1417.776" cy="507.936" r="0.168" fill="#e2e8f0" opacity="0.9" /><circle cx="1400.182" cy="512.191" r="0.168" fill="#e2e8f0" opacity="0.9" /><circle cx="1394.425" cy="511.641" r="0.168" fill="#e2e8f0" opacity="0.9" /><circle cx="1412.849" cy="489.984" r="0.168" fill="#e2e8f0" opacity="0.9" /><circle cx="1412.799" cy="486.992" r="0.168" fill="#e2e8f0" opacity="0.9" /><circle cx="1405.036" cy="489.904" r="0.168" fill="#e2e8f0" opacity="0.9" /><path d="M1404.909 489.521 L1403.795 488.33 L1401.153 487.42 L1397.358 486.763 L1392.973 486.32 L1388.571 486.059 L1384.598 485.941 L1381.349 485.898 L1379.03 485.812 L1377.835 485.513 L1377.996 484.811 L1379.731 483.566 L1383.132 481.749 L1388.036 479.477 L1393.972 476.988 L1400.208 474.575 L1405.882 472.508 L1410.176 470.979 L1412.5 470.064 L1412.663 469.713 L1410.949 469.772 L1408.066 470.029 L1404.922 470.28 L1402.335 470.385 L1400.787 470.293 L1400.324 470.029 L1400.595 469.662 L1400.916 469.288 " fill="none" stroke="#cbd5e1" stroke-width="2.262624" stroke-linecap="round" stroke-linejoin="round" opacity="0.32" /><path d="M1404.909 489.521 L1403.795 488.33 L1401.153 487.42 L1397.358 486.763 L1392.973 486.32 L1388.571 486.059 L1384.598 485.941 L1381.349 485.898 L1379.03 485.812 L1377.835 485.513 L1377.996 484.811 L1379.731 483.566 L1383.132 481.749 L1388.036 479.477 L1393.972 476.988 L1400.208 474.575 L1405.882 472.508 L1410.176 470.979 L1412.5 470.064 L1412.663 469.713 L1410.949 469.772 L1408.066 470.029 L1404.922 470.28 L1402.335 470.385 L1400.787 470.293 L1400.324 470.029 L1400.595 469.662 L1400.916 469.288 " fill="none" stroke="#334155" stroke-width="1.4112" stroke-linecap="round" stroke-linejoin="round" opacity="0.96" /><path d="M1404.909 489.521 L1403.795 488.33 L1401.153 487.42 L1397.358 486.763 L1392.973 486.32 L1388.571 486.059 L1384.598 485.941 L1381.349 485.898 L1379.03 485.812 L1377.835 485.513 L1377.996 484.811 L1379.731 483.566 L1383.132 481.749 L1388.036 479.477 L1393.972 476.988 L1400.208 474.575 L1405.882 472.508 L1410.176 470.979 L1412.5 470.064 L1412.663 469.713 L1410.949 469.772 L1408.066 470.029 L1404.922 470.28 L1402.335 470.385 L1400.787 470.293 L1400.324 470.029 L1400.595 469.662 L1400.916 469.288 " fill="none" stroke="#94a3b8" stroke-width="0.31751999999999997" stroke-linecap="round" stroke-linejoin="round" opacity="0.88" /><circle cx="1403.795" cy="488.33" r="0.168" fill="#e2e8f0" opacity="0.9" /><circle cx="1384.598" cy="485.941" r="0.168" fill="#e2e8f0" opacity="0.9" /><circle cx="1379.731" cy="483.566" r="0.168" fill="#e2e8f0" opacity="0.9" /><circle cx="1405.882" cy="472.508" r="0.168" fill="#e2e8f0" opacity="0.9" /><circle cx="1408.066" cy="470.029" r="0.168" fill="#e2e8f0" opacity="0.9" /><circle cx="1400.595" cy="469.662" r="0.168" fill="#e2e8f0" opacity="0.9" /><path d="M1400.017 470.153 L1399.008 469.171 L1396.398 468.27 L1392.574 467.46 L1388.121 466.761 L1383.635 466.197 L1379.579 465.779 L1376.267 465.48 L1373.92 465.226 L1372.756 464.903 L1373.028 464.383 L1374.976 463.577 L1378.693 462.471 L1384 461.142 L1390.389 459.734 L1397.079 458.407 L1403.16 457.296 L1407.774 456.476 L1410.309 455.953 L1410.569 455.671 L1408.861 455.538 L1405.928 455.451 L1402.726 455.334 L1400.113 455.151 L1398.593 454.907 L1398.21 454.623 L1398.597 454.322 L1399.036 454.02 " fill="none" stroke="#cbd5e1" stroke-width="2.285712" stroke-linecap="round" stroke-linejoin="round" opacity="0.32" /><path d="M1400.017 470.153 L1399.008 469.171 L1396.398 468.27 L1392.574 467.46 L1388.121 466.761 L1383.635 466.197 L1379.579 465.779 L1376.267 465.48 L1373.92 465.226 L1372.756 464.903 L1373.028 464.383 L1374.976 463.577 L1378.693 462.471 L1384 461.142 L1390.389 459.734 L1397.079 458.407 L1403.16 457.296 L1407.774 456.476 L1410.309 455.953 L1410.569 455.671 L1408.861 455.538 L1405.928 455.451 L1402.726 455.334 L1400.113 455.151 L1398.593 454.907 L1398.21 454.623 L1398.597 454.322 L1399.036 454.02 " fill="none" stroke="#334155" stroke-width="1.4256" stroke-linecap="round" stroke-linejoin="round" opacity="0.96" /><path d="M1400.017 470.153 L1399.008 469.171 L1396.398 468.27 L1392.574 467.46 L1388.121 466.761 L1383.635 466.197 L1379.579 465.779 L1376.267 465.48 L1373.92 465.226 L1372.756 464.903 L1373.028 464.383 L1374.976 463.577 L1378.693 462.471 L1384 461.142 L1390.389 459.734 L1397.079 458.407 L1403.16 457.296 L1407.774 456.476 L1410.309 455.953 L1410.569 455.671 L1408.861 455.538 L1405.928 455.451 L1402.726 455.334 L1400.113 455.151 L1398.593 454.907 L1398.21 454.623 L1398.597 454.322 L1399.036 454.02 " fill="none" stroke="#94a3b8" stroke-width="0.32076" stroke-linecap="round" stroke-linejoin="round" opacity="0.88" /><circle cx="1399.008" cy="469.171" r="0.168" fill="#e2e8f0" opacity="0.9" /><circle cx="1379.579" cy="465.779" r="0.168" fill="#e2e8f0" opacity="0.9" /><circle cx="1374.976" cy="463.577" r="0.168" fill="#e2e8f0" opacity="0.9" /><circle cx="1403.16" cy="457.296" r="0.168" fill="#e2e8f0" opacity="0.9" /><circle cx="1405.928" cy="455.451" r="0.168" fill="#e2e8f0" opacity="0.9" /><circle cx="1398.597" cy="454.322" r="0.168" fill="#e2e8f0" opacity="0.9" /><path d="M1422.206 552.517 L1421.213 550.376 L1418.911 548.273 L1415.627 546.249 L1411.856 544.384 L1408.098 542.772 L1404.734 541.471 L1401.992 540.451 L1400.008 539.571 L1398.905 538.6 L1398.861 537.283 L1400.08 535.439 L1402.697 533.044 L1406.652 530.249 L1411.607 527.328 L1416.963 524.576 L1421.965 522.22 L1425.86 520.362 L1428.083 518.971 L1428.42 517.91 L1427.093 516.995 L1424.716 516.062 L1422.095 515.018 L1419.96 513.852 L1418.737 512.611 L1418.46 511.354 L1418.809 510.108 L1419.179 508.863 " fill="none" stroke="#cbd5e1" stroke-width="2.216448" stroke-linecap="round" stroke-linejoin="round" opacity="0.32" /><path d="M1422.206 552.517 L1421.213 550.376 L1418.911 548.273 L1415.627 546.249 L1411.856 544.384 L1408.098 542.772 L1404.734 541.471 L1401.992 540.451 L1400.008 539.571 L1398.905 538.6 L1398.861 537.283 L1400.08 535.439 L1402.697 533.044 L1406.652 530.249 L1411.607 527.328 L1416.963 524.576 L1421.965 522.22 L1425.86 520.362 L1428.083 518.971 L1428.42 517.91 L1427.093 516.995 L1424.716 516.062 L1422.095 515.018 L1419.96 513.852 L1418.737 512.611 L1418.46 511.354 L1418.809 510.108 L1419.179 508.863 " fill="none" stroke="#334155" stroke-width="1.3824" stroke-linecap="round" stroke-linejoin="round" opacity="0.96" /><path d="M1422.206 552.517 L1421.213 550.376 L1418.911 548.273 L1415.627 546.249 L1411.856 544.384 L1408.098 542.772 L1404.734 541.471 L1401.992 540.451 L1400.008 539.571 L1398.905 538.6 L1398.861 537.283 L1400.08 535.439 L1402.697 533.044 L1406.652 530.249 L1411.607 527.328 L1416.963 524.576 L1421.965 522.22 L1425.86 520.362 L1428.083 518.971 L1428.42 517.91 L1427.093 516.995 L1424.716 516.062 L1422.095 515.018 L1419.96 513.852 L1418.737 512.611 L1418.46 511.354 L1418.809 510.108 L1419.179 508.863 " fill="none" stroke="#94a3b8" stroke-width="0.31104" stroke-linecap="round" stroke-linejoin="round" opacity="0.88" /><circle cx="1421.213" cy="550.376" r="0.168" fill="#e2e8f0" opacity="0.9" /><circle cx="1404.734" cy="541.471" r="0.168" fill="#e2e8f0" opacity="0.9" /><circle cx="1400.08" cy="535.439" r="0.168" fill="#e2e8f0" opacity="0.9" /><circle cx="1421.965" cy="522.22" r="0.168" fill="#e2e8f0" opacity="0.9" /><circle cx="1424.716" cy="516.062" r="0.168" fill="#e2e8f0" opacity="0.9" /><circle cx="1418.809" cy="510.108" r="0.168" fill="#e2e8f0" opacity="0.9" /><path d="M1404.909 489.521 L1403.86 488.657 L1401.42 488.108 L1397.931 487.827 L1393.911 487.755 L1389.874 487.842 L1386.211 488.044 L1383.162 488.293 L1380.888 488.469 L1379.558 488.392 L1379.404 487.854 L1380.676 486.689 L1383.523 484.848 L1387.852 482.444 L1393.256 479.734 L1399.052 477.048 L1404.405 474.704 L1408.505 472.935 L1410.763 471.846 L1410.972 471.397 L1409.396 471.415 L1406.708 471.656 L1403.779 471.878 L1401.383 471.913 L1399.961 471.699 L1399.537 471.268 L1399.768 470.711 L1400.017 470.153 " fill="none" stroke="#cbd5e1" stroke-width="2.216448" stroke-linecap="round" stroke-linejoin="round" opacity="0.32" /><path d="M1404.909 489.521 L1403.86 488.657 L1401.42 488.108 L1397.931 487.827 L1393.911 487.755 L1389.874 487.842 L1386.211 488.044 L1383.162 488.293 L1380.888 488.469 L1379.558 488.392 L1379.404 487.854 L1380.676 486.689 L1383.523 484.848 L1387.852 482.444 L1393.256 479.734 L1399.052 477.048 L1404.405 474.704 L1408.505 472.935 L1410.763 471.846 L1410.972 471.397 L1409.396 471.415 L1406.708 471.656 L1403.779 471.878 L1401.383 471.913 L1399.961 471.699 L1399.537 471.268 L1399.768 470.711 L1400.017 470.153 " fill="none" stroke="#334155" stroke-width="1.3824" stroke-linecap="round" stroke-linejoin="round" opacity="0.96" /><path d="M1404.909 489.521 L1403.86 488.657 L1401.42 488.108 L1397.931 487.827 L1393.911 487.755 L1389.874 487.842 L1386.211 488.044 L1383.162 488.293 L1380.888 488.469 L1379.558 488.392 L1379.404 487.854 L1380.676 486.689 L1383.523 484.848 L1387.852 482.444 L1393.256 479.734 L1399.052 477.048 L1404.405 474.704 L1408.505 472.935 L1410.763 471.846 L1410.972 471.397 L1409.396 471.415 L1406.708 471.656 L1403.779 471.878 L1401.383 471.913 L1399.961 471.699 L1399.537 471.268 L1399.768 470.711 L1400.017 470.153 " fill="none" stroke="#94a3b8" stroke-width="0.31104" stroke-linecap="round" stroke-linejoin="round" opacity="0.88" /><circle cx="1403.86" cy="488.657" r="0.168" fill="#e2e8f0" opacity="0.9" /><circle cx="1386.211" cy="488.044" r="0.168" fill="#e2e8f0" opacity="0.9" /><circle cx="1380.676" cy="486.689" r="0.168" fill="#e2e8f0" opacity="0.9" /><circle cx="1404.405" cy="474.704" r="0.168" fill="#e2e8f0" opacity="0.9" /><circle cx="1406.708" cy="471.656" r="0.168" fill="#e2e8f0" opacity="0.9" /><circle cx="1399.768" cy="470.711" r="0.168" fill="#e2e8f0" opacity="0.9" /><path d="M1404.909 489.521 L1403.928 488.457 L1401.521 487.522 L1398.038 486.715 L1394.009 486.044 L1389.962 485.531 L1386.298 485.18 L1383.265 484.956 L1381.028 484.761 L1379.761 484.441 L1379.698 483.819 L1381.095 482.764 L1384.102 481.25 L1388.625 479.376 L1394.246 477.343 L1400.269 475.386 L1405.839 473.707 L1410.131 472.431 L1412.54 471.583 L1412.854 471.094 L1411.341 470.831 L1408.688 470.642 L1405.787 470.402 L1403.43 470.048 L1402.072 469.576 L1401.739 469.02 L1402.08 468.423 L1402.441 467.828 " fill="none" stroke="#cbd5e1" stroke-width="2.216448" stroke-linecap="round" stroke-linejoin="round" opacity="0.32" /><path d="M1404.909 489.521 L1403.928 488.457 L1401.521 487.522 L1398.038 486.715 L1394.009 486.044 L1389.962 485.531 L1386.298 485.18 L1383.265 484.956 L1381.028 484.761 L1379.761 484.441 L1379.698 483.819 L1381.095 482.764 L1384.102 481.25 L1388.625 479.376 L1394.246 477.343 L1400.269 475.386 L1405.839 473.707 L1410.131 472.431 L1412.54 471.583 L1412.854 471.094 L1411.341 470.831 L1408.688 470.642 L1405.787 470.402 L1403.43 470.048 L1402.072 469.576 L1401.739 469.02 L1402.08 468.423 L1402.441 467.828 " fill="none" stroke="#334155" stroke-width="1.3824" stroke-linecap="round" stroke-linejoin="round" opacity="0.96" /><path d="M1404.909 489.521 L1403.928 488.457 L1401.521 487.522 L1398.038 486.715 L1394.009 486.044 L1389.962 485.531 L1386.298 485.18 L1383.265 484.956 L1381.028 484.761 L1379.761 484.441 L1379.698 483.819 L1381.095 482.764 L1384.102 481.25 L1388.625 479.376 L1394.246 477.343 L1400.269 475.386 L1405.839 473.707 L1410.131 472.431 L1412.54 471.583 L1412.854 471.094 L1411.341 470.831 L1408.688 470.642 L1405.787 470.402 L1403.43 470.048 L1402.072 469.576 L1401.739 469.02 L1402.08 468.423 L1402.441 467.828 " fill="none" stroke="#94a3b8" stroke-width="0.31104" stroke-linecap="round" stroke-linejoin="round" opacity="0.88" /><circle cx="1403.928" cy="488.457" r="0.168" fill="#e2e8f0" opacity="0.9" /><circle cx="1386.298" cy="485.18" r="0.168" fill="#e2e8f0" opacity="0.9" /><circle cx="1381.095" cy="482.764" r="0.168" fill="#e2e8f0" opacity="0.9" /><circle cx="1405.839" cy="473.707" r="0.168" fill="#e2e8f0" opacity="0.9" /><circle cx="1408.688" cy="470.642" r="0.168" fill="#e2e8f0" opacity="0.9" /><circle cx="1402.08" cy="468.423" r="0.168" fill="#e2e8f0" opacity="0.9" /><path d="M1404.909 489.521 L1404.231 488.913 L1403.729 486.89 L1403.361 483.722 L1403.061 479.857 L1402.761 475.788 L1402.405 471.941 L1401.959 468.643 L1401.409 466.145 L1400.74 464.685 L1399.927 464.537 L1398.935 465.99 L1397.73 469.254 L1396.303 474.306 L1394.695 480.735 L1393.007 487.694 L1391.383 494.044 L1389.969 498.678 L1388.86 500.9 L1388.067 500.642 L1387.524 498.432 L1387.116 495.17 L1386.718 491.819 L1386.24 489.138 L1385.638 487.504 L1384.924 486.876 L1384.146 486.874 L1383.376 486.878 " fill="none" stroke="#cbd5e1" stroke-width="2.216448" stroke-linecap="round" stroke-linejoin="round" opacity="0.32" /><path d="M1404.909 489.521 L1404.231 488.913 L1403.729 486.89 L1403.361 483.722 L1403.061 479.857 L1402.761 475.788 L1402.405 471.941 L1401.959 468.643 L1401.409 466.145 L1400.74 464.685 L1399.927 464.537 L1398.935 465.99 L1397.73 469.254 L1396.303 474.306 L1394.695 480.735 L1393.007 487.694 L1391.383 494.044 L1389.969 498.678 L1388.86 500.9 L1388.067 500.642 L1387.524 498.432 L1387.116 495.17 L1386.718 491.819 L1386.24 489.138 L1385.638 487.504 L1384.924 486.876 L1384.146 486.874 L1383.376 486.878 " fill="none" stroke="#334155" stroke-width="1.3824" stroke-linecap="round" stroke-linejoin="round" opacity="0.96" /><path d="M1404.909 489.521 L1404.231 488.913 L1403.729 486.89 L1403.361 483.722 L1403.061 479.857 L1402.761 475.788 L1402.405 471.941 L1401.959 468.643 L1401.409 466.145 L1400.74 464.685 L1399.927 464.537 L1398.935 465.99 L1397.73 469.254 L1396.303 474.306 L1394.695 480.735 L1393.007 487.694 L1391.383 494.044 L1389.969 498.678 L1388.86 500.9 L1388.067 500.642 L1387.524 498.432 L1387.116 495.17 L1386.718 491.819 L1386.24 489.138 L1385.638 487.504 L1384.924 486.876 L1384.146 486.874 L1383.376 486.878 " fill="none" stroke="#94a3b8" stroke-width="0.31104" stroke-linecap="round" stroke-linejoin="round" opacity="0.88" /><circle cx="1404.231" cy="488.913" r="0.168" fill="#e2e8f0" opacity="0.9" /><circle cx="1402.405" cy="471.941" r="0.168" fill="#e2e8f0" opacity="0.9" /><circle cx="1398.935" cy="465.99" r="0.168" fill="#e2e8f0" opacity="0.9" /><circle cx="1391.383" cy="494.044" r="0.168" fill="#e2e8f0" opacity="0.9" /><circle cx="1387.116" cy="495.17" r="0.168" fill="#e2e8f0" opacity="0.9" /><circle cx="1384.146" cy="486.874" r="0.168" fill="#e2e8f0" opacity="0.9" /><path d="M1404.909 489.521 L1404.639 488.806 L1404.947 486.782 L1405.709 483.696 L1406.714 479.957 L1407.729 476.018 L1408.562 472.27 L1409.088 469.016 L1409.248 466.497 L1409.008 464.942 L1408.316 464.614 L1407.096 465.785 L1405.263 468.649 L1402.795 473.179 L1399.794 478.987 L1396.533 485.28 L1393.419 490.996 L1390.877 495.108 L1389.209 496.974 L1388.485 496.536 L1388.537 494.288 L1389.035 491.068 L1389.6 487.77 L1389.921 485.096 L1389.831 483.396 L1389.335 482.627 L1388.584 482.441 L1387.834 482.262 " fill="none" stroke="#cbd5e1" stroke-width="2.216448" stroke-linecap="round" stroke-linejoin="round" opacity="0.32" /><path d="M1404.909 489.521 L1404.639 488.806 L1404.947 486.782 L1405.709 483.696 L1406.714 479.957 L1407.729 476.018 L1408.562 472.27 L1409.088 469.016 L1409.248 466.497 L1409.008 464.942 L1408.316 464.614 L1407.096 465.785 L1405.263 468.649 L1402.795 473.179 L1399.794 478.987 L1396.533 485.28 L1393.419 490.996 L1390.877 495.108 L1389.209 496.974 L1388.485 496.536 L1388.537 494.288 L1389.035 491.068 L1389.6 487.77 L1389.921 485.096 L1389.831 483.396 L1389.335 482.627 L1388.584 482.441 L1387.834 482.262 " fill="none" stroke="#334155" stroke-width="1.3824" stroke-linecap="round" stroke-linejoin="round" opacity="0.96" /><path d="M1404.909 489.521 L1404.639 488.806 L1404.947 486.782 L1405.709 483.696 L1406.714 479.957 L1407.729 476.018 L1408.562 472.27 L1409.088 469.016 L1409.248 466.497 L1409.008 464.942 L1408.316 464.614 L1407.096 465.785 L1405.263 468.649 L1402.795 473.179 L1399.794 478.987 L1396.533 485.28 L1393.419 490.996 L1390.877 495.108 L1389.209 496.974 L1388.485 496.536 L1388.537 494.288 L1389.035 491.068 L1389.6 487.77 L1389.921 485.096 L1389.831 483.396 L1389.335 482.627 L1388.584 482.441 L1387.834 482.262 " fill="none" stroke="#94a3b8" stroke-width="0.31104" stroke-linecap="round" stroke-linejoin="round" opacity="0.88" /><circle cx="1404.639" cy="488.806" r="0.168" fill="#e2e8f0" opacity="0.9" /><circle cx="1408.562" cy="472.27" r="0.168" fill="#e2e8f0" opacity="0.9" /><circle cx="1407.096" cy="465.785" r="0.168" fill="#e2e8f0" opacity="0.9" /><circle cx="1393.419" cy="490.996" r="0.168" fill="#e2e8f0" opacity="0.9" /><circle cx="1389.035" cy="491.068" r="0.168" fill="#e2e8f0" opacity="0.9" /><circle cx="1388.584" cy="482.441" r="0.168" fill="#e2e8f0" opacity="0.9" /><path d="M1387.834 482.262 L1387.791 481.58 L1388.47 479.615 L1389.723 476.61 L1391.302 472.971 L1392.933 469.141 L1394.382 465.511 L1395.49 462.376 L1396.161 459.967 L1396.32 458.501 L1395.872 458.224 L1394.699 459.399 L1392.698 462.213 L1389.854 466.647 L1386.328 472.33 L1382.498 478.497 L1378.902 484.113 L1376.087 488.175 L1374.424 490.048 L1373.976 489.671 L1374.509 487.524 L1375.592 484.423 L1376.741 481.244 L1377.57 478.672 L1377.876 477.053 L1377.672 476.347 L1377.149 476.212 L1376.626 476.084 " fill="none" stroke="#cbd5e1" stroke-width="2.216448" stroke-linecap="round" stroke-linejoin="round" opacity="0.32" /><path d="M1387.834 482.262 L1387.791 481.58 L1388.47 479.615 L1389.723 476.61 L1391.302 472.971 L1392.933 469.141 L1394.382 465.511 L1395.49 462.376 L1396.161 459.967 L1396.32 458.501 L1395.872 458.224 L1394.699 459.399 L1392.698 462.213 L1389.854 466.647 L1386.328 472.33 L1382.498 478.497 L1378.902 484.113 L1376.087 488.175 L1374.424 490.048 L1373.976 489.671 L1374.509 487.524 L1375.592 484.423 L1376.741 481.244 L1377.57 478.672 L1377.876 477.053 L1377.672 476.347 L1377.149 476.212 L1376.626 476.084 " fill="none" stroke="#334155" stroke-width="1.3824" stroke-linecap="round" stroke-linejoin="round" opacity="0.96" /><path d="M1387.834 482.262 L1387.791 481.58 L1388.47 479.615 L1389.723 476.61 L1391.302 472.971 L1392.933 469.141 L1394.382 465.511 L1395.49 462.376 L1396.161 459.967 L1396.32 458.501 L1395.872 458.224 L1394.699 459.399 L1392.698 462.213 L1389.854 466.647 L1386.328 472.33 L1382.498 478.497 L1378.902 484.113 L1376.087 488.175 L1374.424 490.048 L1373.976 489.671 L1374.509 487.524 L1375.592 484.423 L1376.741 481.244 L1377.57 478.672 L1377.876 477.053 L1377.672 476.347 L1377.149 476.212 L1376.626 476.084 " fill="none" stroke="#94a3b8" stroke-width="0.31104" stroke-linecap="round" stroke-linejoin="round" opacity="0.88" /><circle cx="1387.791" cy="481.58" r="0.168" fill="#e2e8f0" opacity="0.9" /><circle cx="1394.382" cy="465.511" r="0.168" fill="#e2e8f0" opacity="0.9" /><circle cx="1394.699" cy="459.399" r="0.168" fill="#e2e8f0" opacity="0.9" /><circle cx="1378.902" cy="484.113" r="0.168" fill="#e2e8f0" opacity="0.9" /><circle cx="1375.592" cy="484.423" r="0.168" fill="#e2e8f0" opacity="0.9" /><circle cx="1377.149" cy="476.212" r="0.168" fill="#e2e8f0" opacity="0.9" /><path d="M1402.441 467.828 L1402.376 467.066 L1402.945 464.953 L1404.013 461.753 L1405.35 457.906 L1406.705 453.897 L1407.865 450.15 L1408.693 446.972 L1409.12 444.584 L1409.106 443.175 L1408.597 442.967 L1407.509 444.204 L1405.753 447.078 L1403.305 451.586 L1400.278 457.379 L1396.969 463.704 L1393.818 469.518 L1391.291 473.789 L1389.714 475.845 L1389.166 475.59 L1389.465 473.496 L1390.25 470.389 L1391.11 467.175 L1391.702 464.581 L1391.843 462.979 L1391.536 462.342 L1390.946 462.311 L1390.355 462.29 " fill="none" stroke="#cbd5e1" stroke-width="2.216448" stroke-linecap="round" stroke-linejoin="round" opacity="0.32" /><path d="M1402.441 467.828 L1402.376 467.066 L1402.945 464.953 L1404.013 461.753 L1405.35 457.906 L1406.705 453.897 L1407.865 450.15 L1408.693 446.972 L1409.12 444.584 L1409.106 443.175 L1408.597 442.967 L1407.509 444.204 L1405.753 447.078 L1403.305 451.586 L1400.278 457.379 L1396.969 463.704 L1393.818 469.518 L1391.291 473.789 L1389.714 475.845 L1389.166 475.59 L1389.465 473.496 L1390.25 470.389 L1391.11 467.175 L1391.702 464.581 L1391.843 462.979 L1391.536 462.342 L1390.946 462.311 L1390.355 462.29 " fill="none" stroke="#334155" stroke-width="1.3824" stroke-linecap="round" stroke-linejoin="round" opacity="0.96" /><path d="M1402.441 467.828 L1402.376 467.066 L1402.945 464.953 L1404.013 461.753 L1405.35 457.906 L1406.705 453.897 L1407.865 450.15 L1408.693 446.972 L1409.12 444.584 L1409.106 443.175 L1408.597 442.967 L1407.509 444.204 L1405.753 447.078 L1403.305 451.586 L1400.278 457.379 L1396.969 463.704 L1393.818 469.518 L1391.291 473.789 L1389.714 475.845 L1389.166 475.59 L1389.465 473.496 L1390.25 470.389 L1391.11 467.175 L1391.702 464.581 L1391.843 462.979 L1391.536 462.342 L1390.946 462.311 L1390.355 462.29 " fill="none" stroke="#94a3b8" stroke-width="0.31104" stroke-linecap="round" stroke-linejoin="round" opacity="0.88" /><circle cx="1402.376" cy="467.066" r="0.168" fill="#e2e8f0" opacity="0.9" /><circle cx="1407.865" cy="450.15" r="0.168" fill="#e2e8f0" opacity="0.9" /><circle cx="1407.509" cy="444.204" r="0.168" fill="#e2e8f0" opacity="0.9" /><circle cx="1393.818" cy="469.518" r="0.168" fill="#e2e8f0" opacity="0.9" /><circle cx="1390.25" cy="470.389" r="0.168" fill="#e2e8f0" opacity="0.9" /><circle cx="1390.946" cy="462.311" r="0.168" fill="#e2e8f0" opacity="0.9" /><path d="M1383.376 486.878 L1382.433 484.631 L1381.543 476.691 L1380.717 464.178 L1379.976 448.607 L1379.338 431.773 L1378.805 415.416 L1378.345 400.865 L1377.89 388.846 L1377.35 379.581 L1376.64 373.076 L1375.702 369.422 L1374.529 368.914 L1373.177 371.925 L1371.771 378.553 L1370.47 388.244 L1369.418 399.696 L1368.681 411.249 L1368.227 421.586 L1367.956 430.255 L1367.753 437.717 L1367.541 444.938 L1367.299 452.803 L1367.056 461.595 L1366.862 470.754 L1366.752 479.018 L1366.731 484.826 L1366.772 486.572 " fill="none" stroke="#fed7aa" stroke-width="3.2631040000000002" stroke-linecap="round" stroke-linejoin="round" opacity="0.32" /><path d="M1383.376 486.878 L1382.433 484.631 L1381.543 476.691 L1380.717 464.178 L1379.976 448.607 L1379.338 431.773 L1378.805 415.416 L1378.345 400.865 L1377.89 388.846 L1377.35 379.581 L1376.64 373.076 L1375.702 369.422 L1374.529 368.914 L1373.177 371.925 L1371.771 378.553 L1370.47 388.244 L1369.418 399.696 L1368.681 411.249 L1368.227 421.586 L1367.956 430.255 L1367.753 437.717 L1367.541 444.938 L1367.299 452.803 L1367.056 461.595 L1366.862 470.754 L1366.752 479.018 L1366.731 484.826 L1366.772 486.572 " fill="none" stroke="#d97706" stroke-width="2.0352" stroke-linecap="round" stroke-linejoin="round" opacity="0.96" /><path d="M1383.376 486.878 L1382.433 484.631 L1381.543 476.691 L1380.717 464.178 L1379.976 448.607 L1379.338 431.773 L1378.805 415.416 L1378.345 400.865 L1377.89 388.846 L1377.35 379.581 L1376.64 373.076 L1375.702 369.422 L1374.529 368.914 L1373.177 371.925 L1371.771 378.553 L1370.47 388.244 L1369.418 399.696 L1368.681 411.249 L1368.227 421.586 L1367.956 430.255 L1367.753 437.717 L1367.541 444.938 L1367.299 452.803 L1367.056 461.595 L1366.862 470.754 L1366.752 479.018 L1366.731 484.826 L1366.772 486.572 " fill="none" stroke="#f59e0b" stroke-width="0.45792" stroke-linecap="round" stroke-linejoin="round" opacity="0.88" /><circle cx="1382.433" cy="484.631" r="0.213696" fill="#fde68a" opacity="0.9" /><circle cx="1378.805" cy="415.416" r="0.213696" fill="#fde68a" opacity="0.9" /><circle cx="1375.702" cy="369.422" r="0.213696" fill="#fde68a" opacity="0.9" /><circle cx="1369.418" cy="399.696" r="0.213696" fill="#fde68a" opacity="0.9" /><circle cx="1367.541" cy="444.938" r="0.213696" fill="#fde68a" opacity="0.9" /><circle cx="1366.731" cy="484.826" r="0.213696" fill="#fde68a" opacity="0.9" /><path d="M1398.355 471.763 L1398.71 469.557 L1400.599 461.352 L1403.749 448.115 L1407.765 431.282 L1412.155 412.678 L1416.429 394.177 L1420.217 377.292 L1423.321 362.909 L1425.697 351.341 L1427.358 342.64 L1428.273 336.949 L1428.317 334.692 L1427.311 336.458 L1425.133 342.605 L1421.86 352.752 L1417.837 365.568 L1413.576 379.154 L1409.535 391.856 L1405.932 402.936 L1402.708 412.674 L1399.644 421.942 L1396.525 431.557 L1393.294 441.74 L1390.111 451.873 L1387.308 460.667 L1385.276 466.6 L1384.395 468.167 " fill="none" stroke="#fed7aa" stroke-width="3.30928" stroke-linecap="round" stroke-linejoin="round" opacity="0.32" /><path d="M1398.355 471.763 L1398.71 469.557 L1400.599 461.352 L1403.749 448.115 L1407.765 431.282 L1412.155 412.678 L1416.429 394.177 L1420.217 377.292 L1423.321 362.909 L1425.697 351.341 L1427.358 342.64 L1428.273 336.949 L1428.317 334.692 L1427.311 336.458 L1425.133 342.605 L1421.86 352.752 L1417.837 365.568 L1413.576 379.154 L1409.535 391.856 L1405.932 402.936 L1402.708 412.674 L1399.644 421.942 L1396.525 431.557 L1393.294 441.74 L1390.111 451.873 L1387.308 460.667 L1385.276 466.6 L1384.395 468.167 " fill="none" stroke="#d97706" stroke-width="2.064" stroke-linecap="round" stroke-linejoin="round" opacity="0.96" /><path d="M1398.355 471.763 L1398.71 469.557 L1400.599 461.352 L1403.749 448.115 L1407.765 431.282 L1412.155 412.678 L1416.429 394.177 L1420.217 377.292 L1423.321 362.909 L1425.697 351.341 L1427.358 342.64 L1428.273 336.949 L1428.317 334.692 L1427.311 336.458 L1425.133 342.605 L1421.86 352.752 L1417.837 365.568 L1413.576 379.154 L1409.535 391.856 L1405.932 402.936 L1402.708 412.674 L1399.644 421.942 L1396.525 431.557 L1393.294 441.74 L1390.111 451.873 L1387.308 460.667 L1385.276 466.6 L1384.395 468.167 " fill="none" stroke="#f59e0b" stroke-width="0.4644" stroke-linecap="round" stroke-linejoin="round" opacity="0.88" /><circle cx="1398.71" cy="469.557" r="0.21672000000000002" fill="#fde68a" opacity="0.9" /><circle cx="1416.429" cy="394.177" r="0.21672000000000002" fill="#fde68a" opacity="0.9" /><circle cx="1428.273" cy="336.949" r="0.21672000000000002" fill="#fde68a" opacity="0.9" /><circle cx="1417.837" cy="365.568" r="0.21672000000000002" fill="#fde68a" opacity="0.9" /><circle cx="1399.644" cy="421.942" r="0.21672000000000002" fill="#fde68a" opacity="0.9" /><circle cx="1385.276" cy="466.6" r="0.21672000000000002" fill="#fde68a" opacity="0.9" /><circle cx="1422.206" cy="552.517" r="1.914" fill="#f6efe1" opacity="0.22" /><circle cx="1422.206" cy="552.517" r="1.679" fill="#0f766e" /><circle cx="1422.206" cy="552.517" r="4.679" fill="none" stroke="#d8cbb3" stroke-width="1.4" opacity="0.55" /><circle cx="1419.179" cy="508.863" r="1.914" fill="#f6efe1" opacity="0.22" /><circle cx="1419.179" cy="508.863" r="1.679" fill="#0f766e" /><circle cx="1419.179" cy="508.863" r="4.679" fill="none" stroke="#d8cbb3" stroke-width="1.4" opacity="0.55" /><circle cx="1404.909" cy="489.521" r="2.891" fill="#fff5d6" opacity="0.46" /><circle cx="1404.909" cy="489.521" r="2.095" fill="#0f766e" /><circle cx="1404.909" cy="489.521" r="5.095" fill="none" stroke="#b7791f" stroke-width="2.4" opacity="0.95" /><circle cx="1383.376" cy="486.878" r="1.914" fill="#f6efe1" opacity="0.22" /><circle cx="1383.376" cy="486.878" r="1.679" fill="#0f766e" /><circle cx="1383.376" cy="486.878" r="4.679" fill="none" stroke="#d8cbb3" stroke-width="1.4" opacity="0.55" /><circle cx="1366.772" cy="486.572" r="1.914" fill="#f6efe1" opacity="0.22" /><circle cx="1366.772" cy="486.572" r="1.679" fill="#0f766e" /><circle cx="1366.772" cy="486.572" r="4.679" fill="none" stroke="#d8cbb3" stroke-width="1.4" opacity="0.55" /><circle cx="1387.834" cy="482.262" r="1.914" fill="#f6efe1" opacity="0.22" /><circle cx="1387.834" cy="482.262" r="1.679" fill="#0f766e" /><circle cx="1387.834" cy="482.262" r="4.679" fill="none" stroke="#d8cbb3" stroke-width="1.4" opacity="0.55" /><circle cx="1376.626" cy="476.084" r="1.914" fill="#f6efe1" opacity="0.22" /><circle cx="1376.626" cy="476.084" r="1.679" fill="#0f766e" /><circle cx="1376.626" cy="476.084" r="4.679" fill="none" stroke="#d8cbb3" stroke-width="1.4" opacity="0.55" /><circle cx="1398.355" cy="471.763" r="1.914" fill="#f6efe1" opacity="0.22" /><circle cx="1398.355" cy="471.763" r="1.679" fill="#0f766e" /><circle cx="1398.355" cy="471.763" r="4.679" fill="none" stroke="#d8cbb3" stroke-width="1.4" opacity="0.55" /><circle cx="1400.017" cy="470.153" r="1.914" fill="#f6efe1" opacity="0.22" /><circle cx="1400.017" cy="470.153" r="1.679" fill="#0f766e" /><circle cx="1400.017" cy="470.153" r="4.679" fill="none" stroke="#d8cbb3" stroke-width="1.4" opacity="0.55" /><circle cx="1400.916" cy="469.288" r="1.914" fill="#f6efe1" opacity="0.22" /><circle cx="1400.916" cy="469.288" r="1.679" fill="#0f766e" /><circle cx="1400.916" cy="469.288" r="4.679" fill="none" stroke="#d8cbb3" stroke-width="1.4" opacity="0.55" /><circle cx="1384.395" cy="468.167" r="1.914" fill="#f6efe1" opacity="0.22" /><circle cx="1384.395" cy="468.167" r="1.679" fill="#0f766e" /><circle cx="1384.395" cy="468.167" r="4.679" fill="none" stroke="#d8cbb3" stroke-width="1.4" opacity="0.55" /><circle cx="1402.441" cy="467.828" r="1.914" fill="#f6efe1" opacity="0.22" /><circle cx="1402.441" cy="467.828" r="1.679" fill="#0f766e" /><circle cx="1402.441" cy="467.828" r="4.679" fill="none" stroke="#d8cbb3" stroke-width="1.4" opacity="0.55" /><circle cx="1390.355" cy="462.29" r="1.914" fill="#f6efe1" opacity="0.22" /><circle cx="1390.355" cy="462.29" r="1.679" fill="#0f766e" /><circle cx="1390.355" cy="462.29" r="4.679" fill="none" stroke="#d8cbb3" stroke-width="1.4" opacity="0.55" /><circle cx="1392.586" cy="460.133" r="1.914" fill="#f6efe1" opacity="0.22" /><circle cx="1392.586" cy="460.133" r="1.679" fill="#0f766e" /><circle cx="1392.586" cy="460.133" r="4.679" fill="none" stroke="#d8cbb3" stroke-width="1.4" opacity="0.55" /><circle cx="1399.036" cy="454.02" r="1.914" fill="#f6efe1" opacity="0.22" /><circle cx="1399.036" cy="454.02" r="1.679" fill="#0f766e" /><circle cx="1399.036" cy="454.02" r="4.679" fill="none" stroke="#d8cbb3" stroke-width="1.4" opacity="0.55" /><rect x="1307.706" y="475.849" width="78" height="17.6" rx="8.8" fill="#f7f1e6" stroke="#0f766e" opacity="0.38" /><text x="1314.906" y="487.849" class="move-label" style="font-size:9.6px">O-O</text><rect x="1317.756" y="504.102" width="78" height="17.6" rx="8.8" fill="#deebf4" stroke="#3a6b87" opacity="0.88" /><text x="1324.956" y="516.102" class="move-label" style="font-size:9.6px">out O-O</text><rect x="1369.178" y="471.22" width="78" height="17.6" rx="8.8" fill="#fdebd2" stroke="#c27b1b" opacity="0.88" /><text x="1376.378" y="483.22" class="move-label" style="font-size:9.6px">in Nf6</text><rect x="1378.372" y="488.988" width="78" height="17.6" rx="8.8" fill="#deebf4" stroke="#3a6b87" opacity="0.88" /><text x="1385.572" y="500.988" class="move-label" style="font-size:9.6px">out Ng5</text><rect x="1379.095" y="492.735" width="78" height="17.6" rx="8.8" fill="#deebf4" stroke="#3a6b87" opacity="0.88" /><text x="1386.295" y="504.735" class="move-label" style="font-size:9.6px">out d4</text><rect x="1336.671" y="350.553" width="78" height="17.6" rx="8.8" fill="#f7f1e6" stroke="#d97706" opacity="0.43" /><text x="1343.871" y="362.553" class="move-label" style="font-size:9.6px">exd4</text><rect x="1390.033" y="314.605" width="78" height="17.6" rx="8.8" fill="#f7f1e6" stroke="#d97706" opacity="0.48" /><text x="1397.233" y="326.605" class="move-label" style="font-size:9.6px">Nxe4</text><circle cx="1404.909" cy="489.521" r="10" fill="none" stroke="#7a4b12" stroke-width="2.4" opacity="0.8" /></g><text x="40" y="154" class="section">Budget 3</text><text x="40" y="824" class="copy">Only the coarse structure ribbon is active.</text><text x="592" y="154" class="section">Budget 6</text><text x="592" y="824" class="copy">A brighter inner core appears without changing the coarse move read.</text><text x="1144" y="154" class="section">Budget 12</text><text x="1144" y="824" class="copy">Structure stays readable while tactical and contextual residue become visible.</text><text x="40" y="850" class="section">Expected read</text><text x="40" y="878" class="copy">The same move labels stay attached to the same carriers while additional ribbons and labels join the neighborhood as</text><text x="40" y="898" class="copy">the camera moves closer.</text><line x1="40" y1="902" x2="94" y2="902" stroke="#566574" stroke-width="12" stroke-linecap="round" /><line x1="52" y1="902" x2="82" y2="902" stroke="#87a9c8" stroke-width="4.5" stroke-linecap="round" /><circle cx="96" cy="902" r="4" fill="#dcecff" /><circle cx="108" cy="902" r="4" fill="#dcecff" /><text x="132" y="907" class="copy">Structure stays visually dominant while the inner bands add forcing and contextual detail.</text></svg>