<svg xmlns="http://www.w3.org/2000/svg" width="1700" height="920" viewBox="0 0 1700 920"><style>.eyebrow { font: 700 14px "Avenir Next", "Segoe UI", sans-serif; letter-spacing: 0.14em; text-transform: uppercase; fill: #7a6a55; }.title { font: 700 30px "Iowan Old Style", "Palatino Linotype", serif; fill: #231f18; }.subtitle { font: 400 16px "Avenir Next", "Segoe UI", sans-serif; fill: #5f5547; }.section { font: 700 17px "Avenir Next", "Segoe UI", sans-serif; fill: #2c271f; }.section-small { font: 700 17px "Avenir Next", "Segoe UI", sans-serif; fill: #231f18; }.copy { font: 400 15px "Avenir Next", "Segoe UI", sans-serif; fill: #5f5547; }.metric-label { font: 700 12px "Avenir Next", "Segoe UI", sans-serif; letter-spacing: 0.08em; text-transform: uppercase; fill: #7a6a55; }.move-label { font: 700 12px "Avenir Next", "Segoe UI", sans-serif; fill: #231f18; }.board-label { font: 700 11px "Avenir Next", "Segoe UI", sans-serif; fill: #7a6a55; }.board-copy { font: 400 13px "Avenir Next", "Segoe UI", sans-serif; fill: #5f5547; }.board-piece { font: 700 28px "Georgia", "Times New Roman", serif; text-anchor: middle; dominant-baseline: middle; paint-order: stroke; }.board-piece.white { fill: #f0e6d0; stroke: #2b2116; stroke-width: 1.8px; }.board-piece.black { fill: #2a221b; stroke: #f7f0e4; stroke-width: 0.65px; }</style><rect width="100%" height="100%" fill="#ece4d7" /><rect x="24" y="24" width="1652" height="872" rx="28" fill="#fbf7ef" stroke="#ddd5c7" /><text x="40" y="62" class="eyebrow">Viewer refinement review</text><text x="40" y="96" class="title">Italian Branch Lab: refinement toward b4, d3, d4, h3, Ng5, O-O</text><text x="40" y="124" class="subtitle">Italian Branch Lab · White to move · fixed radius 2</text><defs><clipPath id="refinement-panel-0-clip"><rect x="40" y="176" width="516" height="620" rx="26" /></clipPath></defs><rect x="40" y="176" width="516" height="620" rx="26" fill="#fdfbf6" stroke="#dcd3c4" /><ellipse cx="298" cy="721.6" rx="144.48" ry="37.2" fill="#ece3d3" opacity="0.72" /><g clip-path="url(#refinement-panel-0-clip)"><path d="M303.57 479.694 L292.729 476.458 L274.926 474.682 L257.541 473.869 L247.007 473.351 L246.957 472.667 L257.393 471.8 L274.683 471.162 L292.392 471.355 L303.126 472.812 " fill="none" stroke="#99f6e4" stroke-width="2.53968" stroke-linecap="round" stroke-linejoin="round" opacity="0.32" /><path d="M303.57 479.694 L292.729 476.458 L274.926 474.682 L257.541 473.869 L247.007 473.351 L246.957 472.667 L257.393 471.8 L274.683 471.162 L292.392 471.355 L303.126 472.812 " fill="none" stroke="#0f766e" stroke-width="1.584" stroke-linecap="round" stroke-linejoin="round" opacity="0.96" /><path d="M298.239 489.933 L288.812 482.079 L272.782 473.186 L257.017 465.487 L247.572 460.693 L247.899 459.686 L258.008 462.444 L274.478 468.02 L291.286 474.611 L301.585 479.889 " fill="none" stroke="#99f6e4" stroke-width="2.53968" stroke-linecap="round" stroke-linejoin="round" opacity="0.32" /><path d="M298.239 489.933 L288.812 482.079 L272.782 473.186 L257.017 465.487 L247.572 460.693 L247.899 459.686 L258.008 462.444 L274.478 468.02 L291.286 474.611 L301.585 479.889 " fill="none" stroke="#0f766e" stroke-width="1.584" stroke-linecap="round" stroke-linejoin="round" opacity="0.96" /><path d="M297.715 503.367 L296.591 500.759 L293.694 498.276 L290.431 496.057 L288.338 494.203 L288.392 492.759 L290.596 491.707 L293.974 490.973 L296.992 490.432 L298.239 489.933 " fill="none" stroke="#cbd5e1" stroke-width="2.262624" stroke-linecap="round" stroke-linejoin="round" opacity="0.32" /><path d="M297.715 503.367 L296.591 500.759 L293.694 498.276 L290.431 496.057 L288.338 494.203 L288.392 492.759 L290.596 491.707 L293.974 490.973 L296.992 490.432 L298.239 489.933 " fill="none" stroke="#334155" stroke-width="1.4112" stroke-linecap="round" stroke-linejoin="round" opacity="0.96" /><path d="M298.239 489.933 L297.726 487.281 L295.566 483.955 L293.065 480.704 L291.645 478.291 L292.216 477.19 L294.786 477.389 L298.458 478.392 L301.821 479.413 L303.57 479.694 " fill="none" stroke="#cbd5e1" stroke-width="2.262624" stroke-linecap="round" stroke-linejoin="round" opacity="0.32" /><path d="M298.239 489.933 L297.726 487.281 L295.566 483.955 L293.065 480.704 L291.645 478.291 L292.216 477.19 L294.786 477.389 L298.458 478.392 L301.821 479.413 L303.57 479.694 " fill="none" stroke="#334155" stroke-width="1.4112" stroke-linecap="round" stroke-linejoin="round" opacity="0.96" /><path d="M302.875 479.761 L302.354 477.441 L300.28 474.172 L297.894 470.878 L296.547 468.529 L297.106 467.733 L299.578 468.483 L303.108 470.155 L306.354 471.766 L308.078 472.381 " fill="none" stroke="#cbd5e1" stroke-width="2.285712" stroke-linecap="round" stroke-linejoin="round" opacity="0.32" /><path d="M302.875 479.761 L302.354 477.441 L300.28 474.172 L297.894 470.878 L296.547 468.529 L297.106 467.733 L299.578 468.483 L303.108 470.155 L306.354 471.766 L308.078 472.381 " fill="none" stroke="#334155" stroke-width="1.4256" stroke-linecap="round" stroke-linejoin="round" opacity="0.96" /><path d="M283.679 523.697 L284.443 520.181 L283.862 515.897 L282.967 511.598 L282.911 508.086 L284.442 505.861 L287.572 504.915 L291.569 504.722 L295.292 504.462 L297.715 503.367 " fill="none" stroke="#cbd5e1" stroke-width="2.216448" stroke-linecap="round" stroke-linejoin="round" opacity="0.32" /><path d="M283.679 523.697 L284.443 520.181 L283.862 515.897 L282.967 511.598 L282.911 508.086 L284.442 505.861 L287.572 504.915 L291.569 504.722 L295.292 504.462 L297.715 503.367 " fill="none" stroke="#334155" stroke-width="1.3824" stroke-linecap="round" stroke-linejoin="round" opacity="0.96" /><path d="M298.239 489.933 L297.695 487.808 L295.553 485.057 L293.067 482.288 L291.626 480.146 L292.131 479.035 L294.584 478.95 L298.094 479.473 L301.275 479.948 L302.875 479.761 " fill="none" stroke="#cbd5e1" stroke-width="2.216448" stroke-linecap="round" stroke-linejoin="round" opacity="0.32" /><path d="M298.239 489.933 L297.695 487.808 L295.553 485.057 L293.067 482.288 L291.626 480.146 L292.131 479.035 L294.584 478.95 L298.094 479.473 L301.275 479.948 L302.875 479.761 " fill="none" stroke="#334155" stroke-width="1.3824" stroke-linecap="round" stroke-linejoin="round" opacity="0.96" /><path d="M298.239 489.933 L297.974 487.653 L296.219 484.544 L294.141 481.373 L293.038 478.961 L293.747 477.831 L296.273 477.976 L299.788 478.862 L303.001 479.657 L304.747 479.584 " fill="none" stroke="#cbd5e1" stroke-width="2.216448" stroke-linecap="round" stroke-linejoin="round" opacity="0.32" /><path d="M298.239 489.933 L297.974 487.653 L296.219 484.544 L294.141 481.373 L293.038 478.961 L293.747 477.831 L296.273 477.976 L299.788 478.862 L303.001 479.657 L304.747 479.584 " fill="none" stroke="#334155" stroke-width="1.3824" stroke-linecap="round" stroke-linejoin="round" opacity="0.96" /><path d="M298.239 489.933 L298.72 488.9 L300.795 486.927 L303.249 484.612 L304.665 482.69 L304.106 481.659 L301.576 481.525 L298.016 481.805 L294.85 481.775 L293.296 480.835 " fill="none" stroke="#cbd5e1" stroke-width="2.216448" stroke-linecap="round" stroke-linejoin="round" opacity="0.32" /><path d="M298.239 489.933 L298.72 488.9 L300.795 486.927 L303.249 484.612 L304.665 482.69 L304.106 481.659 L301.576 481.525 L298.016 481.805 L294.85 481.775 L293.296 480.835 " fill="none" stroke="#334155" stroke-width="1.3824" stroke-linecap="round" stroke-linejoin="round" opacity="0.96" /><path d="M298.239 489.933 L298.125 488.69 L299.297 486.099 L300.773 483.069 L301.406 480.696 L300.441 479.718 L297.884 480.142 L294.503 481.244 L291.452 481.937 L289.718 481.31 " fill="none" stroke="#cbd5e1" stroke-width="2.216448" stroke-linecap="round" stroke-linejoin="round" opacity="0.32" /><path d="M298.239 489.933 L298.125 488.69 L299.297 486.099 L300.773 483.069 L301.406 480.696 L300.441 479.718 L297.884 480.142 L294.503 481.244 L291.452 481.937 L289.718 481.31 " fill="none" stroke="#334155" stroke-width="1.3824" stroke-linecap="round" stroke-linejoin="round" opacity="0.96" /><path d="M293.296 480.835 L294.068 480.127 L296.568 478.636 L299.488 476.852 L301.297 475.38 L300.986 474.633 L298.557 474.614 L295.023 474.924 L291.915 474.963 L290.547 474.243 " fill="none" stroke="#cbd5e1" stroke-width="2.216448" stroke-linecap="round" stroke-linejoin="round" opacity="0.32" /><path d="M293.296 480.835 L294.068 480.127 L296.568 478.636 L299.488 476.852 L301.297 475.38 L300.986 474.633 L298.557 474.614 L295.023 474.924 L291.915 474.963 L290.547 474.243 " fill="none" stroke="#334155" stroke-width="1.3824" stroke-linecap="round" stroke-linejoin="round" opacity="0.96" /><path d="M304.747 479.584 L305.496 478.784 L307.904 477.072 L310.698 475.039 L312.395 473.405 L312.016 472.656 L309.563 472.797 L306.02 473.353 L302.872 473.611 L301.397 472.98 " fill="none" stroke="#cbd5e1" stroke-width="2.216448" stroke-linecap="round" stroke-linejoin="round" opacity="0.32" /><path d="M304.747 479.584 L305.496 478.784 L307.904 477.072 L310.698 475.039 L312.395 473.405 L312.016 472.656 L309.563 472.797 L306.02 473.353 L302.872 473.611 L301.397 472.98 " fill="none" stroke="#334155" stroke-width="1.3824" stroke-linecap="round" stroke-linejoin="round" opacity="0.96" /><path d="M289.718 481.31 L294.648 475.597 L309.297 457.695 L326.502 436.039 L337.507 421.32 L336.643 420.599 L323.924 433.9 L305.067 454.203 L288.874 470.852 L282.527 475.409 " fill="none" stroke="#fed7aa" stroke-width="3.2631040000000002" stroke-linecap="round" stroke-linejoin="round" opacity="0.32" /><path d="M289.718 481.31 L294.648 475.597 L309.297 457.695 L326.502 436.039 L337.507 421.32 L336.643 420.599 L323.924 433.9 L305.067 454.203 L288.874 470.852 L282.527 475.409 " fill="none" stroke="#d97706" stroke-width="2.0352" stroke-linecap="round" stroke-linejoin="round" opacity="0.96" /><path d="M301.585 479.889 L309.501 476.154 L331.174 461.558 L356.724 443.028 L373.428 430.081 L372.824 429.266 L354.928 440.616 L328.248 457.659 L305.549 470.925 L296.731 473.479 " fill="none" stroke="#fed7aa" stroke-width="3.30928" stroke-linecap="round" stroke-linejoin="round" opacity="0.32" /><path d="M301.585 479.889 L309.501 476.154 L331.174 461.558 L356.724 443.028 L373.428 430.081 L372.824 429.266 L354.928 440.616 L328.248 457.659 L305.549 470.925 L296.731 473.479 " fill="none" stroke="#d97706" stroke-width="2.064" stroke-linecap="round" stroke-linejoin="round" opacity="0.96" /><circle cx="283.679" cy="523.697" r="1.914" fill="#f6efe1" opacity="0.22" /><circle cx="283.679" cy="523.697" r="1.679" fill="#0f766e" /><circle cx="283.679" cy="523.697" r="4.679" fill="none" stroke="#d8cbb3" stroke-width="1.4" opacity="0.55" /><circle cx="297.715" cy="503.367" r="1.914" fill="#f6efe1" opacity="0.22" /><circle cx="297.715" cy="503.367" r="1.679" fill="#0f766e" /><circle cx="297.715" cy="503.367" r="4.679" fill="none" stroke="#d8cbb3" stroke-width="1.4" opacity="0.55" /><circle cx="298.239" cy="489.933" r="2.891" fill="#fff5d6" opacity="0.46" /><circle cx="298.239" cy="489.933" r="2.095" fill="#0f766e" /><circle cx="298.239" cy="489.933" r="5.095" fill="none" stroke="#b7791f" stroke-width="2.4" opacity="0.95" /><circle cx="289.718" cy="481.31" r="1.914" fill="#f6efe1" opacity="0.22" /><circle cx="289.718" cy="481.31" r="1.679" fill="#0f766e" /><circle cx="289.718" cy="481.31" r="4.679" fill="none" stroke="#d8cbb3" stroke-width="1.4" opacity="0.55" /><circle cx="293.296" cy="480.835" r="1.914" fill="#f6efe1" opacity="0.22" /><circle cx="293.296" cy="480.835" r="1.679" fill="#0f766e" /><circle cx="293.296" cy="480.835" r="4.679" fill="none" stroke="#d8cbb3" stroke-width="1.4" opacity="0.55" /><circle cx="301.585" cy="479.889" r="1.914" fill="#f6efe1" opacity="0.22" /><circle cx="301.585" cy="479.889" r="1.679" fill="#0f766e" /><circle cx="301.585" cy="479.889" r="4.679" fill="none" stroke="#d8cbb3" stroke-width="1.4" opacity="0.55" /><circle cx="302.875" cy="479.761" r="1.914" fill="#f6efe1" opacity="0.22" /><circle cx="302.875" cy="479.761" r="1.679" fill="#0f766e" /><circle cx="302.875" cy="479.761" r="4.679" fill="none" stroke="#d8cbb3" stroke-width="1.4" opacity="0.55" /><circle cx="303.57" cy="479.694" r="1.914" fill="#f6efe1" opacity="0.22" /><circle cx="303.57" cy="479.694" r="1.679" fill="#0f766e" /><circle cx="303.57" cy="479.694" r="4.679" fill="none" stroke="#d8cbb3" stroke-width="1.4" opacity="0.55" /><circle cx="304.747" cy="479.584" r="1.914" fill="#f6efe1" opacity="0.22" /><circle cx="304.747" cy="479.584" r="1.679" fill="#0f766e" /><circle cx="304.747" cy="479.584" r="4.679" fill="none" stroke="#d8cbb3" stroke-width="1.4" opacity="0.55" /><circle cx="282.527" cy="475.409" r="1.914" fill="#f6efe1" opacity="0.22" /><circle cx="282.527" cy="475.409" r="1.679" fill="#0f766e" /><circle cx="282.527" cy="475.409" r="4.679" fill="none" stroke="#d8cbb3" stroke-width="1.4" opacity="0.55" /><circle cx="290.547" cy="474.243" r="1.914" fill="#f6efe1" opacity="0.22" /><circle cx="290.547" cy="474.243" r="1.679" fill="#0f766e" /><circle cx="290.547" cy="474.243" r="4.679" fill="none" stroke="#d8cbb3" stroke-width="1.4" opacity="0.55" /><circle cx="296.731" cy="473.479" r="1.914" fill="#f6efe1" opacity="0.22" /><circle cx="296.731" cy="473.479" r="1.679" fill="#0f766e" /><circle cx="296.731" cy="473.479" r="4.679" fill="none" stroke="#d8cbb3" stroke-width="1.4" opacity="0.55" /><circle cx="301.397" cy="472.98" r="1.914" fill="#f6efe1" opacity="0.22" /><circle cx="301.397" cy="472.98" r="1.679" fill="#0f766e" /><circle cx="301.397" cy="472.98" r="4.679" fill="none" stroke="#d8cbb3" stroke-width="1.4" opacity="0.55" /><circle cx="303.126" cy="472.812" r="1.914" fill="#f6efe1" opacity="0.22" /><circle cx="303.126" cy="472.812" r="1.679" fill="#0f766e" /><circle cx="303.126" cy="472.812" r="4.679" fill="none" stroke="#d8cbb3" stroke-width="1.4" opacity="0.55" /><circle cx="308.078" cy="472.381" r="1.914" fill="#f6efe1" opacity="0.22" /><circle cx="308.078" cy="472.381" r="1.679" fill="#0f766e" /><circle cx="308.078" cy="472.381" r="4.679" fill="none" stroke="#d8cbb3" stroke-width="1.4" opacity="0.55" /><rect x="232.299" y="471.686" width="78" height="17.6" rx="8.8" fill="#deebf4" stroke="#3a6b87" opacity="0.74" /><text x="239.499" y="483.686" class="move-label" style="font-size:9.6px">out O-O</text><rect x="253.292" y="464.759" width="78" height="17.6" rx="8.8" fill="#fdebd2" stroke="#c27b1b" opacity="0.74" /><text x="260.492" y="476.759" class="move-label" style="font-size:9.6px">in Nf6</text><circle cx="298.239" cy="489.933" r="10" fill="none" stroke="#7a4b12" stroke-width="2.4" opacity="0.8" /></g><defs><clipPath id="refinement-panel-1-clip"><rect x="592" y="176" width="516" height="620" rx="26" /></clipPath></defs><rect x="592" y="176" width="516" height="620" rx="26" fill="#fdfbf6" stroke="#dcd3c4" /><ellipse cx="850" cy="721.6" rx="144.48" ry="37.2" fill="#ece3d3" opacity="0.72" /><g clip-path="url(#refinement-panel-1-clip)"><path d="M857.059 477.124 L847.5 474.64 L831.229 473.21 L813.763 472.52 L800.361 472.019 L794.031 471.225 L794.697 469.967 L799.955 468.421 L806.839 466.949 L813.328 465.872 L818.892 465.337 L824.261 465.306 L830.732 465.638 L839.151 466.206 L848.804 467.005 L856.484 468.177 " fill="none" stroke="#99f6e4" stroke-width="2.53968" stroke-linecap="round" stroke-linejoin="round" opacity="0.32" /><path d="M857.059 477.124 L847.5 474.64 L831.229 473.21 L813.763 472.52 L800.361 472.019 L794.031 471.225 L794.697 469.967 L799.955 468.421 L806.839 466.949 L813.328 465.872 L818.892 465.337 L824.261 465.306 L830.732 465.638 L839.151 466.206 L848.804 467.005 L856.484 468.177 " fill="none" stroke="#0f766e" stroke-width="1.584" stroke-linecap="round" stroke-linejoin="round" opacity="0.96" /><path d="M857.059 477.124 L847.5 474.64 L831.229 473.21 L813.763 472.52 L800.361 472.019 L794.031 471.225 L794.697 469.967 L799.955 468.421 L806.839 466.949 L813.328 465.872 L818.892 465.337 L824.261 465.306 L830.732 465.638 L839.151 466.206 L848.804 467.005 L856.484 468.177 " fill="none" stroke="#14b8a6" stroke-width="0.35640000000000005" stroke-linecap="round" stroke-linejoin="round" opacity="0.88" /><path d="M850.132 490.426 L841.831 483.827 L827.193 475.871 L811.327 468.281 L799.17 462.44 L793.583 458.959 L794.526 457.621 L799.758 457.715 L806.495 458.516 L812.84 459.613 L818.3 460.966 L823.559 462.802 L829.83 465.449 L837.904 469.082 L847.111 473.411 L854.479 477.378 " fill="none" stroke="#99f6e4" stroke-width="2.53968" stroke-linecap="round" stroke-linejoin="round" opacity="0.32" /><path d="M850.132 490.426 L841.831 483.827 L827.193 475.871 L811.327 468.281 L799.17 462.44 L793.583 458.959 L794.526 457.621 L799.758 457.715 L806.495 458.516 L812.84 459.613 L818.3 460.966 L823.559 462.802 L829.83 465.449 L837.904 469.082 L847.111 473.411 L854.479 477.378 " fill="none" stroke="#0f766e" stroke-width="1.584" stroke-linecap="round" stroke-linejoin="round" opacity="0.96" /><path d="M850.132 490.426 L841.831 483.827 L827.193 475.871 L811.327 468.281 L799.17 462.44 L793.583 458.959 L794.526 457.621 L799.758 457.715 L806.495 458.516 L812.84 459.613 L818.3 460.966 L823.559 462.802 L829.83 465.449 L837.904 469.082 L847.111 473.411 L854.479 477.378 " fill="none" stroke="#14b8a6" stroke-width="0.35640000000000005" stroke-linecap="round" stroke-linejoin="round" opacity="0.88" /><path d="M849.453 507.86 L847.568 505.67 L842.536 503.49 L836.219 501.509 L831.383 499.844 L830.337 498.504 L833.82 497.402 L840.613 496.406 L848.141 495.404 L853.747 494.358 L855.934 493.314 L854.928 492.369 L852.335 491.615 L850.151 491.089 L849.59 490.741 L850.132 490.426 " fill="none" stroke="#cbd5e1" stroke-width="2.262624" stroke-linecap="round" stroke-linejoin="round" opacity="0.32" /><path d="M849.453 507.86 L847.568 505.67 L842.536 503.49 L836.219 501.509 L831.383 499.844 L830.337 498.504 L833.82 497.402 L840.613 496.406 L848.141 495.404 L853.747 494.358 L855.934 493.314 L854.928 492.369 L852.335 491.615 L850.151 491.089 L849.59 490.741 L850.132 490.426 " fill="none" stroke="#334155" stroke-width="1.4112" stroke-linecap="round" stroke-linejoin="round" opacity="0.96" /><path d="M849.453 507.86 L847.568 505.67 L842.536 503.49 L836.219 501.509 L831.383 499.844 L830.337 498.504 L833.82 497.402 L840.613 496.406 L848.141 495.404 L853.747 494.358 L855.934 493.314 L854.928 492.369 L852.335 491.615 L850.151 491.089 L849.59 490.741 L850.132 490.426 " fill="none" stroke="#94a3b8" stroke-width="0.31751999999999997" stroke-linecap="round" stroke-linejoin="round" opacity="0.88" /><path d="M850.132 490.426 L848.798 487.806 L844.549 483.8 L839.109 479.394 L835.036 475.912 L834.473 474.387 L838.099 475.074 L844.781 477.318 L852.131 479.879 L857.699 481.549 L860.119 481.71 L859.61 480.543 L857.657 478.839 L856.105 477.514 L856.067 477.06 L857.059 477.124 " fill="none" stroke="#cbd5e1" stroke-width="2.262624" stroke-linecap="round" stroke-linejoin="round" opacity="0.32" /><path d="M850.132 490.426 L848.798 487.806 L844.549 483.8 L839.109 479.394 L835.036 475.912 L834.473 474.387 L838.099 475.074 L844.781 477.318 L852.131 479.879 L857.699 481.549 L860.119 481.71 L859.61 480.543 L857.657 478.839 L856.105 477.514 L856.067 477.06 L857.059 477.124 " fill="none" stroke="#334155" stroke-width="1.4112" stroke-linecap="round" stroke-linejoin="round" opacity="0.96" /><path d="M850.132 490.426 L848.798 487.806 L844.549 483.8 L839.109 479.394 L835.036 475.912 L834.473 474.387 L838.099 475.074 L844.781 477.318 L852.131 479.879 L857.699 481.549 L860.119 481.71 L859.61 480.543 L857.657 478.839 L856.105 477.514 L856.067 477.06 L857.059 477.124 " fill="none" stroke="#94a3b8" stroke-width="0.31751999999999997" stroke-linecap="round" stroke-linejoin="round" opacity="0.88" /><path d="M856.156 477.211 L854.846 474.749 L850.778 470.446 L845.59 465.524 L841.712 461.686 L841.177 460.297 L844.63 461.731 L850.985 465.171 L857.97 469.021 L863.258 471.696 L865.561 472.364 L865.097 471.234 L863.286 469.316 L861.873 467.807 L861.908 467.376 L862.92 467.616 " fill="none" stroke="#cbd5e1" stroke-width="2.285712" stroke-linecap="round" stroke-linejoin="round" opacity="0.32" /><path d="M856.156 477.211 L854.846 474.749 L850.778 470.446 L845.59 465.524 L841.712 461.686 L841.177 460.297 L844.63 461.731 L850.985 465.171 L857.97 469.021 L863.258 471.696 L865.561 472.364 L865.097 471.234 L863.286 469.316 L861.873 467.807 L861.908 467.376 L862.92 467.616 " fill="none" stroke="#334155" stroke-width="1.4256" stroke-linecap="round" stroke-linejoin="round" opacity="0.96" /><path d="M856.156 477.211 L854.846 474.749 L850.778 470.446 L845.59 465.524 L841.712 461.686 L841.177 460.297 L844.63 461.731 L850.985 465.171 L857.97 469.021 L863.258 471.696 L865.561 472.364 L865.097 471.234 L863.286 469.316 L861.873 467.807 L861.908 467.376 L862.92 467.616 " fill="none" stroke="#94a3b8" stroke-width="0.32076" stroke-linecap="round" stroke-linejoin="round" opacity="0.88" /><path d="M831.255 534.201 L831.176 530.864 L828.801 526.099 L825.426 520.907 L823.043 516.633 L823.357 514.328 L826.944 514.237 L832.955 515.682 L839.536 517.399 L844.764 518.168 L847.549 517.376 L848.048 515.23 L847.413 512.548 L847.073 510.251 L847.88 508.816 L849.453 507.86 " fill="none" stroke="#cbd5e1" stroke-width="2.216448" stroke-linecap="round" stroke-linejoin="round" opacity="0.32" /><path d="M831.255 534.201 L831.176 530.864 L828.801 526.099 L825.426 520.907 L823.043 516.633 L823.357 514.328 L826.944 514.237 L832.955 515.682 L839.536 517.399 L844.764 518.168 L847.549 517.376 L848.048 515.23 L847.413 512.548 L847.073 510.251 L847.88 508.816 L849.453 507.86 " fill="none" stroke="#334155" stroke-width="1.3824" stroke-linecap="round" stroke-linejoin="round" opacity="0.96" /><path d="M831.255 534.201 L831.176 530.864 L828.801 526.099 L825.426 520.907 L823.043 516.633 L823.357 514.328 L826.944 514.237 L832.955 515.682 L839.536 517.399 L844.764 518.168 L847.549 517.376 L848.048 515.23 L847.413 512.548 L847.073 510.251 L847.88 508.816 L849.453 507.86 " fill="none" stroke="#94a3b8" stroke-width="0.31104" stroke-linecap="round" stroke-linejoin="round" opacity="0.88" /><path d="M850.132 490.426 L848.854 488.327 L844.821 485.062 L839.624 481.433 L835.669 478.525 L835.002 477.194 L838.298 477.649 L844.514 479.351 L851.406 481.281 L856.656 482.446 L858.961 482.345 L858.52 481.14 L856.73 479.487 L855.308 478.136 L855.274 477.477 L856.156 477.211 " fill="none" stroke="#cbd5e1" stroke-width="2.216448" stroke-linecap="round" stroke-linejoin="round" opacity="0.32" /><path d="M850.132 490.426 L848.854 488.327 L844.821 485.062 L839.624 481.433 L835.669 478.525 L835.002 477.194 L838.298 477.649 L844.514 479.351 L851.406 481.281 L856.656 482.446 L858.961 482.345 L858.52 481.14 L856.73 479.487 L855.308 478.136 L855.274 477.477 L856.156 477.211 " fill="none" stroke="#334155" stroke-width="1.3824" stroke-linecap="round" stroke-linejoin="round" opacity="0.96" /><path d="M850.132 490.426 L848.854 488.327 L844.821 485.062 L839.624 481.433 L835.669 478.525 L835.002 477.194 L838.298 477.649 L844.514 479.351 L851.406 481.281 L856.656 482.446 L858.961 482.345 L858.52 481.14 L856.73 479.487 L855.308 478.136 L855.274 477.477 L856.156 477.211 " fill="none" stroke="#94a3b8" stroke-width="0.31104" stroke-linecap="round" stroke-linejoin="round" opacity="0.88" /><path d="M850.132 490.426 L849.131 488.097 L845.562 484.25 L840.908 479.888 L837.412 476.406 L836.977 474.922 L840.234 475.735 L846.209 478.17 L852.81 480.92 L857.878 482.695 L860.207 482.824 L859.984 481.497 L858.511 479.547 L857.387 477.943 L857.561 477.207 L858.588 476.982 " fill="none" stroke="#cbd5e1" stroke-width="2.216448" stroke-linecap="round" stroke-linejoin="round" opacity="0.32" /><path d="M850.132 490.426 L849.131 488.097 L845.562 484.25 L840.908 479.888 L837.412 476.406 L836.977 474.922 L840.234 475.735 L846.209 478.17 L852.81 480.92 L857.878 482.695 L860.207 482.824 L859.984 481.497 L858.511 479.547 L857.387 477.943 L857.561 477.207 L858.588 476.982 " fill="none" stroke="#334155" stroke-width="1.3824" stroke-linecap="round" stroke-linejoin="round" opacity="0.96" /><path d="M850.132 490.426 L849.131 488.097 L845.562 484.25 L840.908 479.888 L837.412 476.406 L836.977 474.922 L840.234 475.735 L846.209 478.17 L852.81 480.92 L857.878 482.695 L860.207 482.824 L859.984 481.497 L858.511 479.547 L857.387 477.943 L857.561 477.207 L858.588 476.982 " fill="none" stroke="#94a3b8" stroke-width="0.31104" stroke-linecap="round" stroke-linejoin="round" opacity="0.88" /><path d="M850.132 490.426 L851.342 489.231 L855.299 486.495 L860.461 482.95 L864.384 479.898 L865.002 478.516 L861.672 479.252 L855.449 481.614 L848.53 484.436 L843.204 486.43 L840.818 486.781 L841.23 485.483 L843.034 483.259 L844.475 481.087 L844.537 479.594 L843.711 478.608 " fill="none" stroke="#cbd5e1" stroke-width="2.216448" stroke-linecap="round" stroke-linejoin="round" opacity="0.32" /><path d="M850.132 490.426 L851.342 489.231 L855.299 486.495 L860.461 482.95 L864.384 479.898 L865.002 478.516 L861.672 479.252 L855.449 481.614 L848.53 484.436 L843.204 486.43 L840.818 486.781 L841.23 485.483 L843.034 483.259 L844.475 481.087 L844.537 479.594 L843.711 478.608 " fill="none" stroke="#334155" stroke-width="1.3824" stroke-linecap="round" stroke-linejoin="round" opacity="0.96" /><path d="M850.132 490.426 L851.342 489.231 L855.299 486.495 L860.461 482.95 L864.384 479.898 L865.002 478.516 L861.672 479.252 L855.449 481.614 L848.53 484.436 L843.204 486.43 L840.818 486.781 L841.23 485.483 L843.034 483.259 L844.475 481.087 L844.537 479.594 L843.711 478.608 " fill="none" stroke="#94a3b8" stroke-width="0.31104" stroke-linecap="round" stroke-linejoin="round" opacity="0.88" /><path d="M850.132 490.426 L850.721 488.855 L853.533 485.041 L857.321 480.109 L860.106 475.983 L860.21 474.373 L857.111 475.891 L851.664 479.774 L845.651 484.291 L840.929 487.573 L838.592 488.461 L838.527 486.989 L839.604 484.239 L840.399 481.635 L840.088 480.063 L839.063 479.225 " fill="none" stroke="#cbd5e1" stroke-width="2.216448" stroke-linecap="round" stroke-linejoin="round" opacity="0.32" /><path d="M850.132 490.426 L850.721 488.855 L853.533 485.041 L857.321 480.109 L860.106 475.983 L860.21 474.373 L857.111 475.891 L851.664 479.774 L845.651 484.291 L840.929 487.573 L838.592 488.461 L838.527 486.989 L839.604 484.239 L840.399 481.635 L840.088 480.063 L839.063 479.225 " fill="none" stroke="#334155" stroke-width="1.3824" stroke-linecap="round" stroke-linejoin="round" opacity="0.96" /><path d="M850.132 490.426 L850.721 488.855 L853.533 485.041 L857.321 480.109 L860.106 475.983 L860.21 474.373 L857.111 475.891 L851.664 479.774 L845.651 484.291 L840.929 487.573 L838.592 488.461 L838.527 486.989 L839.604 484.239 L840.399 481.635 L840.088 480.063 L839.063 479.225 " fill="none" stroke="#94a3b8" stroke-width="0.31104" stroke-linecap="round" stroke-linejoin="round" opacity="0.88" /><path d="M843.711 478.608 L845.201 477.72 L849.661 475.552 L855.436 472.706 L859.888 470.262 L860.782 469.199 L857.418 469.891 L850.928 471.937 L843.68 474.369 L838.149 476.117 L835.795 476.499 L836.471 475.503 L838.66 473.728 L840.463 471.986 L840.78 470.801 L840.136 470.038 " fill="none" stroke="#cbd5e1" stroke-width="2.216448" stroke-linecap="round" stroke-linejoin="round" opacity="0.32" /><path d="M843.711 478.608 L845.201 477.72 L849.661 475.552 L855.436 472.706 L859.888 470.262 L860.782 469.199 L857.418 469.891 L850.928 471.937 L843.68 474.369 L838.149 476.117 L835.795 476.499 L836.471 475.503 L838.66 473.728 L840.463 471.986 L840.78 470.801 L840.136 470.038 " fill="none" stroke="#334155" stroke-width="1.3824" stroke-linecap="round" stroke-linejoin="round" opacity="0.96" /><path d="M843.711 478.608 L845.201 477.72 L849.661 475.552 L855.436 472.706 L859.888 470.262 L860.782 469.199 L857.418 469.891 L850.928 471.937 L843.68 474.369 L838.149 476.117 L835.795 476.499 L836.471 475.503 L838.66 473.728 L840.463 471.986 L840.78 470.801 L840.136 470.038 " fill="none" stroke="#94a3b8" stroke-width="0.31104" stroke-linecap="round" stroke-linejoin="round" opacity="0.88" /><path d="M858.588 476.982 L860.059 475.952 L864.394 473.421 L869.969 470.12 L874.232 467.322 L875.034 466.173 L871.714 467.097 L865.387 469.606 L858.346 472.553 L852.971 474.688 L850.657 475.222 L851.242 474.158 L853.251 472.208 L854.856 470.326 L855.008 469.115 L854.236 468.395 " fill="none" stroke="#cbd5e1" stroke-width="2.216448" stroke-linecap="round" stroke-linejoin="round" opacity="0.32" /><path d="M858.588 476.982 L860.059 475.952 L864.394 473.421 L869.969 470.12 L874.232 467.322 L875.034 466.173 L871.714 467.097 L865.387 469.606 L858.346 472.553 L852.971 474.688 L850.657 475.222 L851.242 474.158 L853.251 472.208 L854.856 470.326 L855.008 469.115 L854.236 468.395 " fill="none" stroke="#334155" stroke-width="1.3824" stroke-linecap="round" stroke-linejoin="round" opacity="0.96" /><path d="M858.588 476.982 L860.059 475.952 L864.394 473.421 L869.969 470.12 L874.232 467.322 L875.034 466.173 L871.714 467.097 L865.387 469.606 L858.346 472.553 L852.971 474.688 L850.657 475.222 L851.242 474.158 L853.251 472.208 L854.856 470.326 L855.008 469.115 L854.236 468.395 " fill="none" stroke="#94a3b8" stroke-width="0.31104" stroke-linecap="round" stroke-linejoin="round" opacity="0.88" /><path d="M839.063 479.225 L843.133 474.408 L854.334 460.721 L868.539 443.007 L880.91 427.179 L888.083 417.489 L889.29 415.033 L885.897 418.201 L880.104 424.238 L873.641 430.889 L867.035 437.377 L859.783 444.278 L851.301 452.368 L842.01 461.278 L833.79 468.875 L829.715 471.555 " fill="none" stroke="#fed7aa" stroke-width="3.2631040000000002" stroke-linecap="round" stroke-linejoin="round" opacity="0.32" /><path d="M839.063 479.225 L843.133 474.408 L854.334 460.721 L868.539 443.007 L880.91 427.179 L888.083 417.489 L889.29 415.033 L885.897 418.201 L880.104 424.238 L873.641 430.889 L867.035 437.377 L859.783 444.278 L851.301 452.368 L842.01 461.278 L833.79 468.875 L829.715 471.555 " fill="none" stroke="#d97706" stroke-width="2.0352" stroke-linecap="round" stroke-linejoin="round" opacity="0.96" /><path d="M839.063 479.225 L843.133 474.408 L854.334 460.721 L868.539 443.007 L880.91 427.179 L888.083 417.489 L889.29 415.033 L885.897 418.201 L880.104 424.238 L873.641 430.889 L867.035 437.377 L859.783 444.278 L851.301 452.368 L842.01 461.278 L833.79 468.875 L829.715 471.555 " fill="none" stroke="#f59e0b" stroke-width="0.45792" stroke-linecap="round" stroke-linejoin="round" opacity="0.88" /><path d="M854.479 477.378 L860.861 474.297 L877.102 463.557 L897.93 448.847 L916.814 435.07 L928.922 426.053 L932.8 423.096 L929.907 425.152 L922.931 430.047 L914.077 435.861 L904.134 441.784 L892.734 448.051 L879.578 455.04 L865.711 462.236 L853.908 467.832 L848.172 469.044 " fill="none" stroke="#fed7aa" stroke-width="3.30928" stroke-linecap="round" stroke-linejoin="round" opacity="0.32" /><path d="M854.479 477.378 L860.861 474.297 L877.102 463.557 L897.93 448.847 L916.814 435.07 L928.922 426.053 L932.8 423.096 L929.907 425.152 L922.931 430.047 L914.077 435.861 L904.134 441.784 L892.734 448.051 L879.578 455.04 L865.711 462.236 L853.908 467.832 L848.172 469.044 " fill="none" stroke="#d97706" stroke-width="2.064" stroke-linecap="round" stroke-linejoin="round" opacity="0.96" /><path d="M854.479 477.378 L860.861 474.297 L877.102 463.557 L897.93 448.847 L916.814 435.07 L928.922 426.053 L932.8 423.096 L929.907 425.152 L922.931 430.047 L914.077 435.861 L904.134 441.784 L892.734 448.051 L879.578 455.04 L865.711 462.236 L853.908 467.832 L848.172 469.044 " fill="none" stroke="#f59e0b" stroke-width="0.4644" stroke-linecap="round" stroke-linejoin="round" opacity="0.88" /><circle cx="831.255" cy="534.201" r="1.914" fill="#f6efe1" opacity="0.22" /><circle cx="831.255" cy="534.201" r="1.679" fill="#0f766e" /><circle cx="831.255" cy="534.201" r="4.679" fill="none" stroke="#d8cbb3" stroke-width="1.4" opacity="0.55" /><circle cx="849.453" cy="507.86" r="1.914" fill="#f6efe1" opacity="0.22" /><circle cx="849.453" cy="507.86" r="1.679" fill="#0f766e" /><circle cx="849.453" cy="507.86" r="4.679" fill="none" stroke="#d8cbb3" stroke-width="1.4" opacity="0.55" /><circle cx="850.132" cy="490.426" r="2.891" fill="#fff5d6" opacity="0.46" /><circle cx="850.132" cy="490.426" r="2.095" fill="#0f766e" /><circle cx="850.132" cy="490.426" r="5.095" fill="none" stroke="#b7791f" stroke-width="2.4" opacity="0.95" /><circle cx="839.063" cy="479.225" r="1.914" fill="#f6efe1" opacity="0.22" /><circle cx="839.063" cy="479.225" r="1.679" fill="#0f766e" /><circle cx="839.063" cy="479.225" r="4.679" fill="none" stroke="#d8cbb3" stroke-width="1.4" opacity="0.55" /><circle cx="843.711" cy="478.608" r="1.914" fill="#f6efe1" opacity="0.22" /><circle cx="843.711" cy="478.608" r="1.679" fill="#0f766e" /><circle cx="843.711" cy="478.608" r="4.679" fill="none" stroke="#d8cbb3" stroke-width="1.4" opacity="0.55" /><circle cx="854.479" cy="477.378" r="1.914" fill="#f6efe1" opacity="0.22" /><circle cx="854.479" cy="477.378" r="1.679" fill="#0f766e" /><circle cx="854.479" cy="477.378" r="4.679" fill="none" stroke="#d8cbb3" stroke-width="1.4" opacity="0.55" /><circle cx="856.156" cy="477.211" r="1.914" fill="#f6efe1" opacity="0.22" /><circle cx="856.156" cy="477.211" r="1.679" fill="#0f766e" /><circle cx="856.156" cy="477.211" r="4.679" fill="none" stroke="#d8cbb3" stroke-width="1.4" opacity="0.55" /><circle cx="857.059" cy="477.124" r="1.914" fill="#f6efe1" opacity="0.22" /><circle cx="857.059" cy="477.124" r="1.679" fill="#0f766e" /><circle cx="857.059" cy="477.124" r="4.679" fill="none" stroke="#d8cbb3" stroke-width="1.4" opacity="0.55" /><circle cx="858.588" cy="476.982" r="1.914" fill="#f6efe1" opacity="0.22" /><circle cx="858.588" cy="476.982" r="1.679" fill="#0f766e" /><circle cx="858.588" cy="476.982" r="4.679" fill="none" stroke="#d8cbb3" stroke-width="1.4" opacity="0.55" /><circle cx="829.715" cy="471.555" r="1.914" fill="#f6efe1" opacity="0.22" /><circle cx="829.715" cy="471.555" r="1.679" fill="#0f766e" /><circle cx="829.715" cy="471.555" r="4.679" fill="none" stroke="#d8cbb3" stroke-width="1.4" opacity="0.55" /><circle cx="840.136" cy="470.038" r="1.914" fill="#f6efe1" opacity="0.22" /><circle cx="840.136" cy="470.038" r="1.679" fill="#0f766e" /><circle cx="840.136" cy="470.038" r="4.679" fill="none" stroke="#d8cbb3" stroke-width="1.4" opacity="0.55" /><circle cx="848.172" cy="469.044" r="1.914" fill="#f6efe1" opacity="0.22" /><circle cx="848.172" cy="469.044" r="1.679" fill="#0f766e" /><circle cx="848.172" cy="469.044" r="4.679" fill="none" stroke="#d8cbb3" stroke-width="1.4" opacity="0.55" /><circle cx="854.236" cy="468.395" r="1.914" fill="#f6efe1" opacity="0.22" /><circle cx="854.236" cy="468.395" r="1.679" fill="#0f766e" /><circle cx="854.236" cy="468.395" r="4.679" fill="none" stroke="#d8cbb3" stroke-width="1.4" opacity="0.55" /><circle cx="856.484" cy="468.177" r="1.914" fill="#f6efe1" opacity="0.22" /><circle cx="856.484" cy="468.177" r="1.679" fill="#0f766e" /><circle cx="856.484" cy="468.177" r="4.679" fill="none" stroke="#d8cbb3" stroke-width="1.4" opacity="0.55" /><circle cx="862.92" cy="467.616" r="1.914" fill="#f6efe1" opacity="0.22" /><circle cx="862.92" cy="467.616" r="1.679" fill="#0f766e" /><circle cx="862.92" cy="467.616" r="4.679" fill="none" stroke="#d8cbb3" stroke-width="1.4" opacity="0.55" /><rect x="790.895" y="470.516" width="78" height="17.6" rx="8.8" fill="#deebf4" stroke="#3a6b87" opacity="0.82" /><text x="798.095" y="482.516" class="move-label" style="font-size:9.6px">out O-O</text><rect x="813.041" y="467.404" width="78" height="17.6" rx="8.8" fill="#fdebd2" stroke="#c27b1b" opacity="0.82" /><text x="820.241" y="479.404" class="move-label" style="font-size:9.6px">in Nf6</text><rect x="836.531" y="491.879" width="78" height="17.6" rx="8.8" fill="#deebf4" stroke="#3a6b87" opacity="0.82" /><text x="843.731" y="503.879" class="move-label" style="font-size:9.6px">out Ng5</text><rect x="887.831" y="402.047" width="78" height="17.6" rx="8.8" fill="#f7f1e6" stroke="#d97706" opacity="0.43" /><text x="895.031" y="414.047" class="move-label" style="font-size:9.6px">Nxe4</text><circle cx="850.132" cy="490.426" r="10" fill="none" stroke="#7a4b12" stroke-width="2.4" opacity="0.8" /></g><defs><clipPath id="refinement-panel-2-clip"><rect x="1144" y="176" width="516" height="620" rx="26" /></clipPath></defs><rect x="1144" y="176" width="516" height="620" rx="26" fill="#fdfbf6" stroke="#dcd3c4" /><ellipse cx="1402" cy="721.6" rx="144.48" ry="37.2" fill="#ece3d3" opacity="0.72" /><g clip-path="url(#refinement-panel-2-clip)"><path d="M1411.605 472.253 L1405.769 470.313 L1396.405 468.801 L1384.871 467.718 L1372.568 467.033 L1360.743 466.675 L1350.284 466.528 L1341.641 466.447 L1334.892 466.272 L1329.922 465.863 L1326.67 465.135 L1325.285 464.086 L1326.085 462.791 L1329.328 461.385 L1334.952 460.021 L1342.414 458.843 L1350.731 457.96 L1358.712 457.428 L1365.325 457.239 L1370.093 457.318 L1373.333 457.548 L1376.047 457.809 L1379.454 458.026 L1384.399 458.203 L1390.964 458.402 L1398.438 458.712 L1405.583 459.206 L1410.818 459.925 " fill="none" stroke="#99f6e4" stroke-width="2.53968" stroke-linecap="round" stroke-linejoin="round" opacity="0.32" /><path d="M1411.605 472.253 L1405.769 470.313 L1396.405 468.801 L1384.871 467.718 L1372.568 467.033 L1360.743 466.675 L1350.284 466.528 L1341.641 466.447 L1334.892 466.272 L1329.922 465.863 L1326.67 465.135 L1325.285 464.086 L1326.085 462.791 L1329.328 461.385 L1334.952 460.021 L1342.414 458.843 L1350.731 457.96 L1358.712 457.428 L1365.325 457.239 L1370.093 457.318 L1373.333 457.548 L1376.047 457.809 L1379.454 458.026 L1384.399 458.203 L1390.964 458.402 L1398.438 458.712 L1405.583 459.206 L1410.818 459.925 " fill="none" stroke="#0f766e" stroke-width="1.584" stroke-linecap="round" stroke-linejoin="round" opacity="0.96" /><path d="M1411.605 472.253 L1405.769 470.313 L1396.405 468.801 L1384.871 467.718 L1372.568 467.033 L1360.743 466.675 L1350.284 466.528 L1341.641 466.447 L1334.892 466.272 L1329.922 465.863 L1326.67 465.135 L1325.285 464.086 L1326.085 462.791 L1329.328 461.385 L1334.952 460.021 L1342.414 458.843 L1350.731 457.96 L1358.712 457.428 L1365.325 457.239 L1370.093 457.318 L1373.333 457.548 L1376.047 457.809 L1379.454 458.026 L1384.399 458.203 L1390.964 458.402 L1398.438 458.712 L1405.583 459.206 L1410.818 459.925 " fill="none" stroke="#14b8a6" stroke-width="0.35640000000000005" stroke-linecap="round" stroke-linejoin="round" opacity="0.88" /><circle cx="1405.769" cy="470.313" r="0.168" fill="#ccfbf1" opacity="0.9" /><circle cx="1350.284" cy="466.528" r="0.168" fill="#ccfbf1" opacity="0.9" /><circle cx="1325.285" cy="464.086" r="0.168" fill="#ccfbf1" opacity="0.9" /><circle cx="1350.731" cy="457.96" r="0.168" fill="#ccfbf1" opacity="0.9" /><circle cx="1376.047" cy="457.809" r="0.168" fill="#ccfbf1" opacity="0.9" /><circle cx="1405.583" cy="459.206" r="0.168" fill="#ccfbf1" opacity="0.9" /><path d="M1402.074 490.555 L1397.181 485.884 L1388.967 480.372 L1378.666 474.534 L1367.574 468.873 L1356.854 463.783 L1347.353 459.471 L1339.517 455.936 L1333.438 453.018 L1329.028 450.502 L1326.237 448.265 L1325.205 446.361 L1326.223 445.009 L1329.525 444.473 L1335.042 444.916 L1342.258 446.299 L1350.247 448.37 L1357.893 450.731 L1364.238 452.97 L1368.849 454.812 L1372.032 456.239 L1374.728 457.494 L1378.074 458.96 L1382.852 460.962 L1389.129 463.603 L1396.24 466.713 L1403.034 469.897 L1408.055 472.602 " fill="none" stroke="#99f6e4" stroke-width="2.53968" stroke-linecap="round" stroke-linejoin="round" opacity="0.32" /><path d="M1402.074 490.555 L1397.181 485.884 L1388.967 480.372 L1378.666 474.534 L1367.574 468.873 L1356.854 463.783 L1347.353 459.471 L1339.517 455.936 L1333.438 453.018 L1329.028 450.502 L1326.237 448.265 L1325.205 446.361 L1326.223 445.009 L1329.525 444.473 L1335.042 444.916 L1342.258 446.299 L1350.247 448.37 L1357.893 450.731 L1364.238 452.97 L1368.849 454.812 L1372.032 456.239 L1374.728 457.494 L1378.074 458.96 L1382.852 460.962 L1389.129 463.603 L1396.24 466.713 L1403.034 469.897 L1408.055 472.602 " fill="none" stroke="#0f766e" stroke-width="1.584" stroke-linecap="round" stroke-linejoin="round" opacity="0.96" /><path d="M1402.074 490.555 L1397.181 485.884 L1388.967 480.372 L1378.666 474.534 L1367.574 468.873 L1356.854 463.783 L1347.353 459.471 L1339.517 455.936 L1333.438 453.018 L1329.028 450.502 L1326.237 448.265 L1325.205 446.361 L1326.223 445.009 L1329.525 444.473 L1335.042 444.916 L1342.258 446.299 L1350.247 448.37 L1357.893 450.731 L1364.238 452.97 L1368.849 454.812 L1372.032 456.239 L1374.728 457.494 L1378.074 458.96 L1382.852 460.962 L1389.129 463.603 L1396.24 466.713 L1403.034 469.897 L1408.055 472.602 " fill="none" stroke="#14b8a6" stroke-width="0.35640000000000005" stroke-linecap="round" stroke-linejoin="round" opacity="0.88" /><circle cx="1397.181" cy="485.884" r="0.168" fill="#ccfbf1" opacity="0.9" /><circle cx="1347.353" cy="459.471" r="0.168" fill="#ccfbf1" opacity="0.9" /><circle cx="1325.205" cy="446.361" r="0.168" fill="#ccfbf1" opacity="0.9" /><circle cx="1350.247" cy="448.37" r="0.168" fill="#ccfbf1" opacity="0.9" /><circle cx="1374.728" cy="457.494" r="0.168" fill="#ccfbf1" opacity="0.9" /><circle cx="1403.034" cy="469.897" r="0.168" fill="#ccfbf1" opacity="0.9" /><path d="M1401.141 514.502 L1400.259 512.786 L1397.879 510.987 L1394.363 509.176 L1390.261 507.465 L1386.13 505.977 L1382.411 504.791 L1379.395 503.91 L1377.287 503.24 L1376.285 502.621 L1376.615 501.878 L1378.492 500.893 L1382.005 499.654 L1386.993 498.263 L1392.993 496.89 L1399.285 495.699 L1405.02 494.791 L1409.396 494.178 L1411.839 493.788 L1412.163 493.501 L1410.651 493.201 L1407.997 492.817 L1405.09 492.351 L1402.732 491.86 L1401.395 491.418 L1401.123 491.072 L1401.573 490.809 L1402.074 490.555 " fill="none" stroke="#cbd5e1" stroke-width="2.262624" stroke-linecap="round" stroke-linejoin="round" opacity="0.32" /><path d="M1401.141 514.502 L1400.259 512.786 L1397.879 510.987 L1394.363 509.176 L1390.261 507.465 L1386.13 505.977 L1382.411 504.791 L1379.395 503.91 L1377.287 503.24 L1376.285 502.621 L1376.615 501.878 L1378.492 500.893 L1382.005 499.654 L1386.993 498.263 L1392.993 496.89 L1399.285 495.699 L1405.02 494.791 L1409.396 494.178 L1411.839 493.788 L1412.163 493.501 L1410.651 493.201 L1407.997 492.817 L1405.09 492.351 L1402.732 491.86 L1401.395 491.418 L1401.123 491.072 L1401.573 490.809 L1402.074 490.555 " fill="none" stroke="#334155" stroke-width="1.4112" stroke-linecap="round" stroke-linejoin="round" opacity="0.96" /><path d="M1401.141 514.502 L1400.259 512.786 L1397.879 510.987 L1394.363 509.176 L1390.261 507.465 L1386.13 505.977 L1382.411 504.791 L1379.395 503.91 L1377.287 503.24 L1376.285 502.621 L1376.615 501.878 L1378.492 500.893 L1382.005 499.654 L1386.993 498.263 L1392.993 496.89 L1399.285 495.699 L1405.02 494.791 L1409.396 494.178 L1411.839 493.788 L1412.163 493.501 L1410.651 493.201 L1407.997 492.817 L1405.09 492.351 L1402.732 491.86 L1401.395 491.418 L1401.123 491.072 L1401.573 490.809 L1402.074 490.555 " fill="none" stroke="#94a3b8" stroke-width="0.31751999999999997" stroke-linecap="round" stroke-linejoin="round" opacity="0.88" /><circle cx="1400.259" cy="512.786" r="0.168" fill="#e2e8f0" opacity="0.9" /><circle cx="1382.411" cy="504.791" r="0.168" fill="#e2e8f0" opacity="0.9" /><circle cx="1378.492" cy="500.893" r="0.168" fill="#e2e8f0" opacity="0.9" /><circle cx="1405.02" cy="494.791" r="0.168" fill="#e2e8f0" opacity="0.9" /><circle cx="1407.997" cy="492.817" r="0.168" fill="#e2e8f0" opacity="0.9" /><circle cx="1401.573" cy="490.809" r="0.168" fill="#e2e8f0" opacity="0.9" /><path d="M1402.074 490.555 L1401.569 488.803 L1399.672 486.318 L1396.721 483.319 L1393.225 480.14 L1389.702 477.124 L1386.563 474.534 L1384.081 472.498 L1382.445 471.036 L1381.835 470.108 L1382.456 469.677 L1384.5 469.743 L1388.043 470.338 L1392.932 471.47 L1398.742 473.064 L1404.817 474.931 L1410.387 476.773 L1414.724 478.245 L1417.303 479.035 L1417.949 478.966 L1416.915 478.071 L1414.829 476.6 L1412.506 474.95 L1410.688 473.524 L1409.818 472.591 L1409.942 472.209 L1410.746 472.216 L1411.605 472.253 " fill="none" stroke="#cbd5e1" stroke-width="2.262624" stroke-linecap="round" stroke-linejoin="round" opacity="0.32" /><path d="M1402.074 490.555 L1401.569 488.803 L1399.672 486.318 L1396.721 483.319 L1393.225 480.14 L1389.702 477.124 L1386.563 474.534 L1384.081 472.498 L1382.445 471.036 L1381.835 470.108 L1382.456 469.677 L1384.5 469.743 L1388.043 470.338 L1392.932 471.47 L1398.742 473.064 L1404.817 474.931 L1410.387 476.773 L1414.724 478.245 L1417.303 479.035 L1417.949 478.966 L1416.915 478.071 L1414.829 476.6 L1412.506 474.95 L1410.688 473.524 L1409.818 472.591 L1409.942 472.209 L1410.746 472.216 L1411.605 472.253 " fill="none" stroke="#334155" stroke-width="1.4112" stroke-linecap="round" stroke-linejoin="round" opacity="0.96" /><path d="M1402.074 490.555 L1401.569 488.803 L1399.672 486.318 L1396.721 483.319 L1393.225 480.14 L1389.702 477.124 L1386.563 474.534 L1384.081 472.498 L1382.445 471.036 L1381.835 470.108 L1382.456 469.677 L1384.5 469.743 L1388.043 470.338 L1392.932 471.47 L1398.742 473.064 L1404.817 474.931 L1410.387 476.773 L1414.724 478.245 L1417.303 479.035 L1417.949 478.966 L1416.915 478.071 L1414.829 476.6 L1412.506 474.95 L1410.688 473.524 L1409.818 472.591 L1409.942 472.209 L1410.746 472.216 L1411.605 472.253 " fill="none" stroke="#94a3b8" stroke-width="0.31751999999999997" stroke-linecap="round" stroke-linejoin="round" opacity="0.88" /><circle cx="1401.569" cy="488.803" r="0.168" fill="#e2e8f0" opacity="0.9" /><circle cx="1386.563" cy="474.534" r="0.168" fill="#e2e8f0" opacity="0.9" /><circle cx="1384.5" cy="469.743" r="0.168" fill="#e2e8f0" opacity="0.9" /><circle cx="1410.387" cy="476.773" r="0.168" fill="#e2e8f0" opacity="0.9" /><circle cx="1414.829" cy="476.6" r="0.168" fill="#e2e8f0" opacity="0.9" /><circle cx="1410.746" cy="472.216" r="0.168" fill="#e2e8f0" opacity="0.9" /><path d="M1410.362 472.372 L1409.83 470.855 L1407.975 468.4 L1405.119 465.264 L1401.753 461.841 L1398.377 458.536 L1395.386 455.66 L1393.042 453.387 L1391.517 451.781 L1390.97 450.859 L1391.58 450.646 L1393.52 451.195 L1396.858 452.55 L1401.456 454.676 L1406.922 457.401 L1412.65 460.404 L1417.923 463.25 L1422.054 465.477 L1424.544 466.704 L1425.217 466.749 L1424.301 465.701 L1422.382 463.925 L1420.232 461.944 L1418.558 460.268 L1417.785 459.224 L1417.964 458.868 L1418.795 458.993 L1419.679 459.153 " fill="none" stroke="#cbd5e1" stroke-width="2.285712" stroke-linecap="round" stroke-linejoin="round" opacity="0.32" /><path d="M1410.362 472.372 L1409.83 470.855 L1407.975 468.4 L1405.119 465.264 L1401.753 461.841 L1398.377 458.536 L1395.386 455.66 L1393.042 453.387 L1391.517 451.781 L1390.97 450.859 L1391.58 450.646 L1393.52 451.195 L1396.858 452.55 L1401.456 454.676 L1406.922 457.401 L1412.65 460.404 L1417.923 463.25 L1422.054 465.477 L1424.544 466.704 L1425.217 466.749 L1424.301 465.701 L1422.382 463.925 L1420.232 461.944 L1418.558 460.268 L1417.785 459.224 L1417.964 458.868 L1418.795 458.993 L1419.679 459.153 " fill="none" stroke="#334155" stroke-width="1.4256" stroke-linecap="round" stroke-linejoin="round" opacity="0.96" /><path d="M1410.362 472.372 L1409.83 470.855 L1407.975 468.4 L1405.119 465.264 L1401.753 461.841 L1398.377 458.536 L1395.386 455.66 L1393.042 453.387 L1391.517 451.781 L1390.97 450.859 L1391.58 450.646 L1393.52 451.195 L1396.858 452.55 L1401.456 454.676 L1406.922 457.401 L1412.65 460.404 L1417.923 463.25 L1422.054 465.477 L1424.544 466.704 L1425.217 466.749 L1424.301 465.701 L1422.382 463.925 L1420.232 461.944 L1418.558 460.268 L1417.785 459.224 L1417.964 458.868 L1418.795 458.993 L1419.679 459.153 " fill="none" stroke="#94a3b8" stroke-width="0.32076" stroke-linecap="round" stroke-linejoin="round" opacity="0.88" /><circle cx="1409.83" cy="470.855" r="0.168" fill="#e2e8f0" opacity="0.9" /><circle cx="1395.386" cy="455.66" r="0.168" fill="#e2e8f0" opacity="0.9" /><circle cx="1393.52" cy="451.195" r="0.168" fill="#e2e8f0" opacity="0.9" /><circle cx="1417.923" cy="463.25" r="0.168" fill="#e2e8f0" opacity="0.9" /><circle cx="1422.382" cy="463.925" r="0.168" fill="#e2e8f0" opacity="0.9" /><circle cx="1418.795" cy="458.993" r="0.168" fill="#e2e8f0" opacity="0.9" /><path d="M1376.184 550.593 L1376.548 548.235 L1375.838 545.096 L1374.304 541.416 L1372.324 537.571 L1370.28 533.961 L1368.466 530.875 L1367.081 528.432 L1366.278 526.59 L1366.221 525.217 L1367.121 524.191 L1369.184 523.475 L1372.521 523.128 L1377.034 523.249 L1382.376 523.875 L1387.989 524.904 L1393.21 526.072 L1397.415 527.007 L1400.16 527.33 L1401.31 526.782 L1401.087 525.335 L1400.021 523.216 L1398.785 520.843 L1397.97 518.661 L1397.917 516.981 L1398.642 515.879 L1399.88 515.182 L1401.141 514.502 " fill="none" stroke="#cbd5e1" stroke-width="2.216448" stroke-linecap="round" stroke-linejoin="round" opacity="0.32" /><path d="M1376.184 550.593 L1376.548 548.235 L1375.838 545.096 L1374.304 541.416 L1372.324 537.571 L1370.28 533.961 L1368.466 530.875 L1367.081 528.432 L1366.278 526.59 L1366.221 525.217 L1367.121 524.191 L1369.184 523.475 L1372.521 523.128 L1377.034 523.249 L1382.376 523.875 L1387.989 524.904 L1393.21 526.072 L1397.415 527.007 L1400.16 527.33 L1401.31 526.782 L1401.087 525.335 L1400.021 523.216 L1398.785 520.843 L1397.97 518.661 L1397.917 516.981 L1398.642 515.879 L1399.88 515.182 L1401.141 514.502 " fill="none" stroke="#334155" stroke-width="1.3824" stroke-linecap="round" stroke-linejoin="round" opacity="0.96" /><path d="M1376.184 550.593 L1376.548 548.235 L1375.838 545.096 L1374.304 541.416 L1372.324 537.571 L1370.28 533.961 L1368.466 530.875 L1367.081 528.432 L1366.278 526.59 L1366.221 525.217 L1367.121 524.191 L1369.184 523.475 L1372.521 523.128 L1377.034 523.249 L1382.376 523.875 L1387.989 524.904 L1393.21 526.072 L1397.415 527.007 L1400.16 527.33 L1401.31 526.782 L1401.087 525.335 L1400.021 523.216 L1398.785 520.843 L1397.97 518.661 L1397.917 516.981 L1398.642 515.879 L1399.88 515.182 L1401.141 514.502 " fill="none" stroke="#94a3b8" stroke-width="0.31104" stroke-linecap="round" stroke-linejoin="round" opacity="0.88" /><circle cx="1376.548" cy="548.235" r="0.168" fill="#e2e8f0" opacity="0.9" /><circle cx="1368.466" cy="530.875" r="0.168" fill="#e2e8f0" opacity="0.9" /><circle cx="1369.184" cy="523.475" r="0.168" fill="#e2e8f0" opacity="0.9" /><circle cx="1393.21" cy="526.072" r="0.168" fill="#e2e8f0" opacity="0.9" /><circle cx="1400.021" cy="523.216" r="0.168" fill="#e2e8f0" opacity="0.9" /><circle cx="1399.88" cy="515.182" r="0.168" fill="#e2e8f0" opacity="0.9" /><path d="M1402.074 490.555 L1401.575 489.155 L1399.765 487.132 L1396.964 484.668 L1393.655 482.051 L1390.324 479.58 L1387.339 477.472 L1384.935 475.825 L1383.265 474.63 L1382.49 473.821 L1382.824 473.345 L1384.495 473.201 L1387.637 473.438 L1392.158 474.108 L1397.676 475.193 L1403.554 476.564 L1409.018 477.979 L1413.321 479.131 L1415.913 479.729 L1416.601 479.592 L1415.625 478.723 L1413.606 477.329 L1411.356 475.751 L1409.601 474.342 L1408.764 473.342 L1408.872 472.801 L1409.605 472.58 L1410.362 472.372 " fill="none" stroke="#cbd5e1" stroke-width="2.216448" stroke-linecap="round" stroke-linejoin="round" opacity="0.32" /><path d="M1402.074 490.555 L1401.575 489.155 L1399.765 487.132 L1396.964 484.668 L1393.655 482.051 L1390.324 479.58 L1387.339 477.472 L1384.935 475.825 L1383.265 474.63 L1382.49 473.821 L1382.824 473.345 L1384.495 473.201 L1387.637 473.438 L1392.158 474.108 L1397.676 475.193 L1403.554 476.564 L1409.018 477.979 L1413.321 479.131 L1415.913 479.729 L1416.601 479.592 L1415.625 478.723 L1413.606 477.329 L1411.356 475.751 L1409.601 474.342 L1408.764 473.342 L1408.872 472.801 L1409.605 472.58 L1410.362 472.372 " fill="none" stroke="#334155" stroke-width="1.3824" stroke-linecap="round" stroke-linejoin="round" opacity="0.96" /><path d="M1402.074 490.555 L1401.575 489.155 L1399.765 487.132 L1396.964 484.668 L1393.655 482.051 L1390.324 479.58 L1387.339 477.472 L1384.935 475.825 L1383.265 474.63 L1382.49 473.821 L1382.824 473.345 L1384.495 473.201 L1387.637 473.438 L1392.158 474.108 L1397.676 475.193 L1403.554 476.564 L1409.018 477.979 L1413.321 479.131 L1415.913 479.729 L1416.601 479.592 L1415.625 478.723 L1413.606 477.329 L1411.356 475.751 L1409.601 474.342 L1408.764 473.342 L1408.872 472.801 L1409.605 472.58 L1410.362 472.372 " fill="none" stroke="#94a3b8" stroke-width="0.31104" stroke-linecap="round" stroke-linejoin="round" opacity="0.88" /><circle cx="1401.575" cy="489.155" r="0.168" fill="#e2e8f0" opacity="0.9" /><circle cx="1387.339" cy="477.472" r="0.168" fill="#e2e8f0" opacity="0.9" /><circle cx="1384.495" cy="473.201" r="0.168" fill="#e2e8f0" opacity="0.9" /><circle cx="1409.018" cy="477.979" r="0.168" fill="#e2e8f0" opacity="0.9" /><circle cx="1413.606" cy="477.329" r="0.168" fill="#e2e8f0" opacity="0.9" /><circle cx="1409.605" cy="472.58" r="0.168" fill="#e2e8f0" opacity="0.9" /><path d="M1402.074 490.555 L1401.754 489.041 L1400.211 486.735 L1397.745 483.863 L1394.804 480.772 L1391.842 477.822 L1389.204 475.28 L1387.11 473.273 L1385.702 471.811 L1385.13 470.849 L1385.588 470.364 L1387.288 470.384 L1390.349 470.978 L1394.687 472.184 L1399.949 473.935 L1405.546 476.017 L1410.762 478.088 L1414.905 479.743 L1417.464 480.622 L1418.259 480.519 L1417.507 479.47 L1415.786 477.761 L1413.847 475.84 L1412.367 474.152 L1411.741 472.99 L1411.999 472.408 L1412.842 472.224 L1413.709 472.056 " fill="none" stroke="#cbd5e1" stroke-width="2.216448" stroke-linecap="round" stroke-linejoin="round" opacity="0.32" /><path d="M1402.074 490.555 L1401.754 489.041 L1400.211 486.735 L1397.745 483.863 L1394.804 480.772 L1391.842 477.822 L1389.204 475.28 L1387.11 473.273 L1385.702 471.811 L1385.13 470.849 L1385.588 470.364 L1387.288 470.384 L1390.349 470.978 L1394.687 472.184 L1399.949 473.935 L1405.546 476.017 L1410.762 478.088 L1414.905 479.743 L1417.464 480.622 L1418.259 480.519 L1417.507 479.47 L1415.786 477.761 L1413.847 475.84 L1412.367 474.152 L1411.741 472.99 L1411.999 472.408 L1412.842 472.224 L1413.709 472.056 " fill="none" stroke="#334155" stroke-width="1.3824" stroke-linecap="round" stroke-linejoin="round" opacity="0.96" /><path d="M1402.074 490.555 L1401.754 489.041 L1400.211 486.735 L1397.745 483.863 L1394.804 480.772 L1391.842 477.822 L1389.204 475.28 L1387.11 473.273 L1385.702 471.811 L1385.13 470.849 L1385.588 470.364 L1387.288 470.384 L1390.349 470.978 L1394.687 472.184 L1399.949 473.935 L1405.546 476.017 L1410.762 478.088 L1414.905 479.743 L1417.464 480.622 L1418.259 480.519 L1417.507 479.47 L1415.786 477.761 L1413.847 475.84 L1412.367 474.152 L1411.741 472.99 L1411.999 472.408 L1412.842 472.224 L1413.709 472.056 " fill="none" stroke="#94a3b8" stroke-width="0.31104" stroke-linecap="round" stroke-linejoin="round" opacity="0.88" /><circle cx="1401.754" cy="489.041" r="0.168" fill="#e2e8f0" opacity="0.9" /><circle cx="1389.204" cy="475.28" r="0.168" fill="#e2e8f0" opacity="0.9" /><circle cx="1387.288" cy="470.384" r="0.168" fill="#e2e8f0" opacity="0.9" /><circle cx="1410.762" cy="478.088" r="0.168" fill="#e2e8f0" opacity="0.9" /><circle cx="1415.786" cy="477.761" r="0.168" fill="#e2e8f0" opacity="0.9" /><circle cx="1412.842" cy="472.224" r="0.168" fill="#e2e8f0" opacity="0.9" /><path d="M1402.074 490.555 L1402.53 489.905 L1404.287 488.598 L1407.07 486.743 L1410.41 484.515 L1413.786 482.103 L1416.757 479.681 L1419.041 477.408 L1420.496 475.454 L1421.047 474.01 L1420.592 473.284 L1418.97 473.464 L1416.011 474.659 L1411.664 476.816 L1406.149 479.662 L1400.05 482.705 L1394.249 485.33 L1389.684 486.981 L1387.027 487.349 L1386.449 486.458 L1387.599 484.624 L1389.754 482.32 L1392.074 480.019 L1393.852 478.072 L1394.698 476.632 L1394.613 475.66 L1393.93 474.975 L1393.239 474.295 " fill="none" stroke="#cbd5e1" stroke-width="2.216448" stroke-linecap="round" stroke-linejoin="round" opacity="0.32" /><path d="M1402.074 490.555 L1402.53 489.905 L1404.287 488.598 L1407.07 486.743 L1410.41 484.515 L1413.786 482.103 L1416.757 479.681 L1419.041 477.408 L1420.496 475.454 L1421.047 474.01 L1420.592 473.284 L1418.97 473.464 L1416.011 474.659 L1411.664 476.816 L1406.149 479.662 L1400.05 482.705 L1394.249 485.33 L1389.684 486.981 L1387.027 487.349 L1386.449 486.458 L1387.599 484.624 L1389.754 482.32 L1392.074 480.019 L1393.852 478.072 L1394.698 476.632 L1394.613 475.66 L1393.93 474.975 L1393.239 474.295 " fill="none" stroke="#334155" stroke-width="1.3824" stroke-linecap="round" stroke-linejoin="round" opacity="0.96" /><path d="M1402.074 490.555 L1402.53 489.905 L1404.287 488.598 L1407.07 486.743 L1410.41 484.515 L1413.786 482.103 L1416.757 479.681 L1419.041 477.408 L1420.496 475.454 L1421.047 474.01 L1420.592 473.284 L1418.97 473.464 L1416.011 474.659 L1411.664 476.816 L1406.149 479.662 L1400.05 482.705 L1394.249 485.33 L1389.684 486.981 L1387.027 487.349 L1386.449 486.458 L1387.599 484.624 L1389.754 482.32 L1392.074 480.019 L1393.852 478.072 L1394.698 476.632 L1394.613 475.66 L1393.93 474.975 L1393.239 474.295 " fill="none" stroke="#94a3b8" stroke-width="0.31104" stroke-linecap="round" stroke-linejoin="round" opacity="0.88" /><circle cx="1402.53" cy="489.905" r="0.168" fill="#e2e8f0" opacity="0.9" /><circle cx="1416.757" cy="479.681" r="0.168" fill="#e2e8f0" opacity="0.9" /><circle cx="1418.97" cy="473.464" r="0.168" fill="#e2e8f0" opacity="0.9" /><circle cx="1394.249" cy="485.33" r="0.168" fill="#e2e8f0" opacity="0.9" /><circle cx="1389.754" cy="482.32" r="0.168" fill="#e2e8f0" opacity="0.9" /><circle cx="1393.93" cy="474.975" r="0.168" fill="#e2e8f0" opacity="0.9" /><path d="M1402.074 490.555 L1402.144 489.737 L1403.266 487.929 L1405.217 485.311 L1407.618 482.177 L1410.048 478.849 L1412.154 475.613 L1413.708 472.703 L1414.598 470.324 L1414.755 468.687 L1414.091 468.025 L1412.469 468.568 L1409.746 470.464 L1405.882 473.675 L1401.063 477.871 L1395.774 482.411 L1390.741 486.457 L1386.732 489.217 L1384.288 490.211 L1383.544 489.419 L1384.203 487.245 L1385.674 484.345 L1387.272 481.405 L1388.428 478.955 L1388.832 477.25 L1388.487 476.252 L1387.667 475.695 L1386.843 475.145 " fill="none" stroke="#cbd5e1" stroke-width="2.216448" stroke-linecap="round" stroke-linejoin="round" opacity="0.32" /><path d="M1402.074 490.555 L1402.144 489.737 L1403.266 487.929 L1405.217 485.311 L1407.618 482.177 L1410.048 478.849 L1412.154 475.613 L1413.708 472.703 L1414.598 470.324 L1414.755 468.687 L1414.091 468.025 L1412.469 468.568 L1409.746 470.464 L1405.882 473.675 L1401.063 477.871 L1395.774 482.411 L1390.741 486.457 L1386.732 489.217 L1384.288 490.211 L1383.544 489.419 L1384.203 487.245 L1385.674 484.345 L1387.272 481.405 L1388.428 478.955 L1388.832 477.25 L1388.487 476.252 L1387.667 475.695 L1386.843 475.145 " fill="none" stroke="#334155" stroke-width="1.3824" stroke-linecap="round" stroke-linejoin="round" opacity="0.96" /><path d="M1402.074 490.555 L1402.144 489.737 L1403.266 487.929 L1405.217 485.311 L1407.618 482.177 L1410.048 478.849 L1412.154 475.613 L1413.708 472.703 L1414.598 470.324 L1414.755 468.687 L1414.091 468.025 L1412.469 468.568 L1409.746 470.464 L1405.882 473.675 L1401.063 477.871 L1395.774 482.411 L1390.741 486.457 L1386.732 489.217 L1384.288 490.211 L1383.544 489.419 L1384.203 487.245 L1385.674 484.345 L1387.272 481.405 L1388.428 478.955 L1388.832 477.25 L1388.487 476.252 L1387.667 475.695 L1386.843 475.145 " fill="none" stroke="#94a3b8" stroke-width="0.31104" stroke-linecap="round" stroke-linejoin="round" opacity="0.88" /><circle cx="1402.144" cy="489.737" r="0.168" fill="#e2e8f0" opacity="0.9" /><circle cx="1412.154" cy="475.613" r="0.168" fill="#e2e8f0" opacity="0.9" /><circle cx="1412.469" cy="468.568" r="0.168" fill="#e2e8f0" opacity="0.9" /><circle cx="1390.741" cy="486.457" r="0.168" fill="#e2e8f0" opacity="0.9" /><circle cx="1385.674" cy="484.345" r="0.168" fill="#e2e8f0" opacity="0.9" /><circle cx="1387.667" cy="475.695" r="0.168" fill="#e2e8f0" opacity="0.9" /><path d="M1393.239 474.295 L1393.859 473.812 L1395.88 472.784 L1399.01 471.301 L1402.75 469.51 L1406.547 467.568 L1409.932 465.62 L1412.596 463.8 L1414.377 462.246 L1415.178 461.114 L1414.877 460.577 L1413.29 460.789 L1410.232 461.841 L1405.656 463.69 L1399.813 466.115 L1393.348 468.705 L1387.228 470.951 L1382.473 472.389 L1379.804 472.761 L1379.397 472.085 L1380.855 470.625 L1383.391 468.775 L1386.093 466.928 L1388.204 465.375 L1389.308 464.242 L1389.408 463.499 L1388.865 462.993 L1388.313 462.49 " fill="none" stroke="#cbd5e1" stroke-width="2.216448" stroke-linecap="round" stroke-linejoin="round" opacity="0.32" /><path d="M1393.239 474.295 L1393.859 473.812 L1395.88 472.784 L1399.01 471.301 L1402.75 469.51 L1406.547 467.568 L1409.932 465.62 L1412.596 463.8 L1414.377 462.246 L1415.178 461.114 L1414.877 460.577 L1413.29 460.789 L1410.232 461.841 L1405.656 463.69 L1399.813 466.115 L1393.348 468.705 L1387.228 470.951 L1382.473 472.389 L1379.804 472.761 L1379.397 472.085 L1380.855 470.625 L1383.391 468.775 L1386.093 466.928 L1388.204 465.375 L1389.308 464.242 L1389.408 463.499 L1388.865 462.993 L1388.313 462.49 " fill="none" stroke="#334155" stroke-width="1.3824" stroke-linecap="round" stroke-linejoin="round" opacity="0.96" /><path d="M1393.239 474.295 L1393.859 473.812 L1395.88 472.784 L1399.01 471.301 L1402.75 469.51 L1406.547 467.568 L1409.932 465.62 L1412.596 463.8 L1414.377 462.246 L1415.178 461.114 L1414.877 460.577 L1413.29 460.789 L1410.232 461.841 L1405.656 463.69 L1399.813 466.115 L1393.348 468.705 L1387.228 470.951 L1382.473 472.389 L1379.804 472.761 L1379.397 472.085 L1380.855 470.625 L1383.391 468.775 L1386.093 466.928 L1388.204 465.375 L1389.308 464.242 L1389.408 463.499 L1388.865 462.993 L1388.313 462.49 " fill="none" stroke="#94a3b8" stroke-width="0.31104" stroke-linecap="round" stroke-linejoin="round" opacity="0.88" /><circle cx="1393.859" cy="473.812" r="0.168" fill="#e2e8f0" opacity="0.9" /><circle cx="1409.932" cy="465.62" r="0.168" fill="#e2e8f0" opacity="0.9" /><circle cx="1413.29" cy="460.789" r="0.168" fill="#e2e8f0" opacity="0.9" /><circle cx="1387.228" cy="470.951" r="0.168" fill="#e2e8f0" opacity="0.9" /><circle cx="1383.391" cy="468.775" r="0.168" fill="#e2e8f0" opacity="0.9" /><circle cx="1388.865" cy="462.993" r="0.168" fill="#e2e8f0" opacity="0.9" /><path d="M1413.709 472.056 L1414.362 471.499 L1416.383 470.29 L1419.48 468.542 L1423.149 466.443 L1426.831 464.195 L1430.052 461.981 L1432.514 459.957 L1434.086 458.271 L1434.715 457.08 L1434.325 456.558 L1432.77 456.87 L1429.878 458.118 L1425.581 460.267 L1420.079 463.081 L1413.946 466.113 L1408.074 468.784 L1403.43 470.561 L1400.725 471.128 L1400.163 470.488 L1401.399 468.925 L1403.697 466.889 L1406.184 464.84 L1408.116 463.124 L1409.076 461.906 L1409.052 461.153 L1408.393 460.687 L1407.723 460.226 " fill="none" stroke="#cbd5e1" stroke-width="2.216448" stroke-linecap="round" stroke-linejoin="round" opacity="0.32" /><path d="M1413.709 472.056 L1414.362 471.499 L1416.383 470.29 L1419.48 468.542 L1423.149 466.443 L1426.831 464.195 L1430.052 461.981 L1432.514 459.957 L1434.086 458.271 L1434.715 457.08 L1434.325 456.558 L1432.77 456.87 L1429.878 458.118 L1425.581 460.267 L1420.079 463.081 L1413.946 466.113 L1408.074 468.784 L1403.43 470.561 L1400.725 471.128 L1400.163 470.488 L1401.399 468.925 L1403.697 466.889 L1406.184 464.84 L1408.116 463.124 L1409.076 461.906 L1409.052 461.153 L1408.393 460.687 L1407.723 460.226 " fill="none" stroke="#334155" stroke-width="1.3824" stroke-linecap="round" stroke-linejoin="round" opacity="0.96" /><path d="M1413.709 472.056 L1414.362 471.499 L1416.383 470.29 L1419.48 468.542 L1423.149 466.443 L1426.831 464.195 L1430.052 461.981 L1432.514 459.957 L1434.086 458.271 L1434.715 457.08 L1434.325 456.558 L1432.77 456.87 L1429.878 458.118 L1425.581 460.267 L1420.079 463.081 L1413.946 466.113 L1408.074 468.784 L1403.43 470.561 L1400.725 471.128 L1400.163 470.488 L1401.399 468.925 L1403.697 466.889 L1406.184 464.84 L1408.116 463.124 L1409.076 461.906 L1409.052 461.153 L1408.393 460.687 L1407.723 460.226 " fill="none" stroke="#94a3b8" stroke-width="0.31104" stroke-linecap="round" stroke-linejoin="round" opacity="0.88" /><circle cx="1414.362" cy="471.499" r="0.168" fill="#e2e8f0" opacity="0.9" /><circle cx="1430.052" cy="461.981" r="0.168" fill="#e2e8f0" opacity="0.9" /><circle cx="1432.77" cy="456.87" r="0.168" fill="#e2e8f0" opacity="0.9" /><circle cx="1408.074" cy="468.784" r="0.168" fill="#e2e8f0" opacity="0.9" /><circle cx="1403.697" cy="466.889" r="0.168" fill="#e2e8f0" opacity="0.9" /><circle cx="1408.393" cy="460.687" r="0.168" fill="#e2e8f0" opacity="0.9" /><path d="M1386.843 475.145 L1388.454 473.125 L1393.702 466.687 L1401.812 456.694 L1411.748 444.317 L1422.299 430.945 L1432.339 417.926 L1441.065 406.289 L1448.113 396.606 L1453.463 389.051 L1457.21 383.629 L1459.344 380.405 L1459.658 379.595 L1457.829 381.477 L1453.656 386.124 L1447.345 393.118 L1439.627 401.473 L1431.55 409.924 L1424.03 417.463 L1417.469 423.741 L1411.673 429.11 L1406.078 434.309 L1400.122 440.021 L1393.598 446.468 L1386.833 453.223 L1380.624 459.309 L1375.984 463.514 L1373.969 464.58 " fill="none" stroke="#fed7aa" stroke-width="3.2631040000000002" stroke-linecap="round" stroke-linejoin="round" opacity="0.32" /><path d="M1386.843 475.145 L1388.454 473.125 L1393.702 466.687 L1401.812 456.694 L1411.748 444.317 L1422.299 430.945 L1432.339 417.926 L1441.065 406.289 L1448.113 396.606 L1453.463 389.051 L1457.21 383.629 L1459.344 380.405 L1459.658 379.595 L1457.829 381.477 L1453.656 386.124 L1447.345 393.118 L1439.627 401.473 L1431.55 409.924 L1424.03 417.463 L1417.469 423.741 L1411.673 429.11 L1406.078 434.309 L1400.122 440.021 L1393.598 446.468 L1386.833 453.223 L1380.624 459.309 L1375.984 463.514 L1373.969 464.58 " fill="none" stroke="#d97706" stroke-width="2.0352" stroke-linecap="round" stroke-linejoin="round" opacity="0.96" /><path d="M1386.843 475.145 L1388.454 473.125 L1393.702 466.687 L1401.812 456.694 L1411.748 444.317 L1422.299 430.945 L1432.339 417.926 L1441.065 406.289 L1448.113 396.606 L1453.463 389.051 L1457.21 383.629 L1459.344 380.405 L1459.658 379.595 L1457.829 381.477 L1453.656 386.124 L1447.345 393.118 L1439.627 401.473 L1431.55 409.924 L1424.03 417.463 L1417.469 423.741 L1411.673 429.11 L1406.078 434.309 L1400.122 440.021 L1393.598 446.468 L1386.833 453.223 L1380.624 459.309 L1375.984 463.514 L1373.969 464.58 " fill="none" stroke="#f59e0b" stroke-width="0.45792" stroke-linecap="round" stroke-linejoin="round" opacity="0.88" /><circle cx="1388.454" cy="473.125" r="0.213696" fill="#fde68a" opacity="0.9" /><circle cx="1432.339" cy="417.926" r="0.213696" fill="#fde68a" opacity="0.9" /><circle cx="1459.344" cy="380.405" r="0.213696" fill="#fde68a" opacity="0.9" /><circle cx="1439.627" cy="401.473" r="0.213696" fill="#fde68a" opacity="0.9" /><circle cx="1406.078" cy="434.309" r="0.213696" fill="#fde68a" opacity="0.9" /><circle cx="1375.984" cy="463.514" r="0.213696" fill="#fde68a" opacity="0.9" /><path d="M1408.055 472.602 L1411.081 471.572 L1419.115 466.826 L1431.244 458.933 L1446.129 448.737 L1462.118 437.326 L1477.595 425.836 L1491.374 415.217 L1502.905 406.079 L1512.172 398.701 L1519.348 393.187 L1524.436 389.665 L1527.065 388.373 L1526.574 389.598 L1522.364 393.439 L1514.4 399.541 L1503.527 407.017 L1491.269 414.704 L1479.158 421.661 L1468.078 427.537 L1458.04 432.589 L1448.462 437.4 L1438.684 442.482 L1428.474 447.951 L1418.285 453.407 L1409.167 458.044 L1402.423 460.921 L1399.375 461.121 " fill="none" stroke="#fed7aa" stroke-width="3.30928" stroke-linecap="round" stroke-linejoin="round" opacity="0.32" /><path d="M1408.055 472.602 L1411.081 471.572 L1419.115 466.826 L1431.244 458.933 L1446.129 448.737 L1462.118 437.326 L1477.595 425.836 L1491.374 415.217 L1502.905 406.079 L1512.172 398.701 L1519.348 393.187 L1524.436 389.665 L1527.065 388.373 L1526.574 389.598 L1522.364 393.439 L1514.4 399.541 L1503.527 407.017 L1491.269 414.704 L1479.158 421.661 L1468.078 427.537 L1458.04 432.589 L1448.462 437.4 L1438.684 442.482 L1428.474 447.951 L1418.285 453.407 L1409.167 458.044 L1402.423 460.921 L1399.375 461.121 " fill="none" stroke="#d97706" stroke-width="2.064" stroke-linecap="round" stroke-linejoin="round" opacity="0.96" /><path d="M1408.055 472.602 L1411.081 471.572 L1419.115 466.826 L1431.244 458.933 L1446.129 448.737 L1462.118 437.326 L1477.595 425.836 L1491.374 415.217 L1502.905 406.079 L1512.172 398.701 L1519.348 393.187 L1524.436 389.665 L1527.065 388.373 L1526.574 389.598 L1522.364 393.439 L1514.4 399.541 L1503.527 407.017 L1491.269 414.704 L1479.158 421.661 L1468.078 427.537 L1458.04 432.589 L1448.462 437.4 L1438.684 442.482 L1428.474 447.951 L1418.285 453.407 L1409.167 458.044 L1402.423 460.921 L1399.375 461.121 " fill="none" stroke="#f59e0b" stroke-width="0.4644" stroke-linecap="round" stroke-linejoin="round" opacity="0.88" /><circle cx="1411.081" cy="471.572" r="0.21672000000000002" fill="#fde68a" opacity="0.9" /><circle cx="1477.595" cy="425.836" r="0.21672000000000002" fill="#fde68a" opacity="0.9" /><circle cx="1524.436" cy="389.665" r="0.21672000000000002" fill="#fde68a" opacity="0.9" /><circle cx="1503.527" cy="407.017" r="0.21672000000000002" fill="#fde68a" opacity="0.9" /><circle cx="1448.462" cy="437.4" r="0.21672000000000002" fill="#fde68a" opacity="0.9" /><circle cx="1402.423" cy="460.921" r="0.21672000000000002" fill="#fde68a" opacity="0.9" /><circle cx="1376.184" cy="550.593" r="1.914" fill="#f6efe1" opacity="0.22" /><circle cx="1376.184" cy="550.593" r="1.679" fill="#0f766e" /><circle cx="1376.184" cy="550.593" r="4.679" fill="none" stroke="#d8cbb3" stroke-width="1.4" opacity="0.55" /><circle cx="1401.141" cy="514.502" r="1.914" fill="#f6efe1" opacity="0.22" /><circle cx="1401.141" cy="514.502" r="1.679" fill="#0f766e" /><circle cx="1401.141" cy="514.502" r="4.679" fill="none" stroke="#d8cbb3" stroke-width="1.4" opacity="0.55" /><circle cx="1402.074" cy="490.555" r="2.891" fill="#fff5d6" opacity="0.46" /><circle cx="1402.074" cy="490.555" r="2.095" fill="#0f766e" /><circle cx="1402.074" cy="490.555" r="5.095" fill="none" stroke="#b7791f" stroke-width="2.4" opacity="0.95" /><circle cx="1386.843" cy="475.145" r="1.914" fill="#f6efe1" opacity="0.22" /><circle cx="1386.843" cy="475.145" r="1.679" fill="#0f766e" /><circle cx="1386.843" cy="475.145" r="4.679" fill="none" stroke="#d8cbb3" stroke-width="1.4" opacity="0.55" /><circle cx="1393.239" cy="474.295" r="1.914" fill="#f6efe1" opacity="0.22" /><circle cx="1393.239" cy="474.295" r="1.679" fill="#0f766e" /><circle cx="1393.239" cy="474.295" r="4.679" fill="none" stroke="#d8cbb3" stroke-width="1.4" opacity="0.55" /><circle cx="1408.055" cy="472.602" r="1.914" fill="#f6efe1" opacity="0.22" /><circle cx="1408.055" cy="472.602" r="1.679" fill="#0f766e" /><circle cx="1408.055" cy="472.602" r="4.679" fill="none" stroke="#d8cbb3" stroke-width="1.4" opacity="0.55" /><circle cx="1410.362" cy="472.372" r="1.914" fill="#f6efe1" opacity="0.22" /><circle cx="1410.362" cy="472.372" r="1.679" fill="#0f766e" /><circle cx="1410.362" cy="472.372" r="4.679" fill="none" stroke="#d8cbb3" stroke-width="1.4" opacity="0.55" /><circle cx="1411.605" cy="472.253" r="1.914" fill="#f6efe1" opacity="0.22" /><circle cx="1411.605" cy="472.253" r="1.679" fill="#0f766e" /><circle cx="1411.605" cy="472.253" r="4.679" fill="none" stroke="#d8cbb3" stroke-width="1.4" opacity="0.55" /><circle cx="1413.709" cy="472.056" r="1.914" fill="#f6efe1" opacity="0.22" /><circle cx="1413.709" cy="472.056" r="1.679" fill="#0f766e" /><circle cx="1413.709" cy="472.056" r="4.679" fill="none" stroke="#d8cbb3" stroke-width="1.4" opacity="0.55" /><circle cx="1373.969" cy="464.58" r="1.914" fill="#f6efe1" opacity="0.22" /><circle cx="1373.969" cy="464.58" r="1.679" fill="#0f766e" /><circle cx="1373.969" cy="464.58" r="4.679" fill="none" stroke="#d8cbb3" stroke-width="1.4" opacity="0.55" /><circle cx="1388.313" cy="462.49" r="1.914" fill="#f6efe1" opacity="0.22" /><circle cx="1388.313" cy="462.49" r="1.679" fill="#0f766e" /><circle cx="1388.313" cy="462.49" r="4.679" fill="none" stroke="#d8cbb3" stroke-width="1.4" opacity="0.55" /><circle cx="1399.375" cy="461.121" r="1.914" fill="#f6efe1" opacity="0.22" /><circle cx="1399.375" cy="461.121" r="1.679" fill="#0f766e" /><circle cx="1399.375" cy="461.121" r="4.679" fill="none" stroke="#d8cbb3" stroke-width="1.4" opacity="0.55" /><circle cx="1407.723" cy="460.226" r="1.914" fill="#f6efe1" opacity="0.22" /><circle cx="1407.723" cy="460.226" r="1.679" fill="#0f766e" /><circle cx="1407.723" cy="460.226" r="4.679" fill="none" stroke="#d8cbb3" stroke-width="1.4" opacity="0.55" /><circle cx="1410.818" cy="459.925" r="1.914" fill="#f6efe1" opacity="0.22" /><circle cx="1410.818" cy="459.925" r="1.679" fill="#0f766e" /><circle cx="1410.818" cy="459.925" r="4.679" fill="none" stroke="#d8cbb3" stroke-width="1.4" opacity="0.55" /><circle cx="1419.679" cy="459.153" r="1.914" fill="#f6efe1" opacity="0.22" /><circle cx="1419.679" cy="459.153" r="1.679" fill="#0f766e" /><circle cx="1419.679" cy="459.153" r="4.679" fill="none" stroke="#d8cbb3" stroke-width="1.4" opacity="0.55" /><rect x="1299.852" y="432.021" width="78" height="17.6" rx="8.8" fill="#f7f1e6" stroke="#0f766e" opacity="0.38" /><text x="1307.052" y="444.021" class="move-label" style="font-size:9.6px">O-O</text><rect x="1319.442" y="456.916" width="78" height="17.6" rx="8.8" fill="#deebf4" stroke="#3a6b87" opacity="0.88" /><text x="1326.642" y="468.916" class="move-label" style="font-size:9.6px">out O-O</text><rect x="1357.893" y="468.89" width="78" height="17.6" rx="8.8" fill="#fdebd2" stroke="#c27b1b" opacity="0.88" /><text x="1365.093" y="480.89" class="move-label" style="font-size:9.6px">in Nf6</text><rect x="1383.142" y="485.064" width="78" height="17.6" rx="8.8" fill="#deebf4" stroke="#3a6b87" opacity="0.88" /><text x="1390.342" y="497.064" class="move-label" style="font-size:9.6px">out Ng5</text><rect x="1385.463" y="489.871" width="78" height="17.6" rx="8.8" fill="#deebf4" stroke="#3a6b87" opacity="0.88" /><text x="1392.663" y="501.871" class="move-label" style="font-size:9.6px">out d4</text><rect x="1418.556" y="358.124" width="78" height="17.6" rx="8.8" fill="#f7f1e6" stroke="#d97706" opacity="0.43" /><text x="1425.756" y="370.124" class="move-label" style="font-size:9.6px">exd4</text><rect x="1487.264" y="365.439" width="78" height="17.6" rx="8.8" fill="#f7f1e6" stroke="#d97706" opacity="0.48" /><text x="1494.464" y="377.439" class="move-label" style="font-size:9.6px">Nxe4</text><circle cx="1402.074" cy="490.555" r="10" fill="none" stroke="#7a4b12" stroke-width="2.4" opacity="0.8" /></g><text x="40" y="154" class="section">Budget 3</text><text x="40" y="824" class="copy">Only the coarse structure ribbon is active.</text><text x="592" y="154" class="section">Budget 6</text><text x="592" y="824" class="copy">A brighter inner core appears without changing the coarse move read.</text><text x="1144" y="154" class="section">Budget 12</text><text x="1144" y="824" class="copy">Structure stays readable while tactical and contextual residue become visible.</text><text x="40" y="850" class="section">Expected read</text><text x="40" y="878" class="copy">The same move labels stay attached to the same carriers while additional ribbons and labels join the neighborhood as</text><text x="40" y="898" class="copy">the camera moves closer.</text><line x1="40" y1="902" x2="94" y2="902" stroke="#566574" stroke-width="12" stroke-linecap="round" /><line x1="52" y1="902" x2="82" y2="902" stroke="#87a9c8" stroke-width="4.5" stroke-linecap="round" /><circle cx="96" cy="902" r="4" fill="#dcecff" /><circle cx="108" cy="902" r="4" fill="#dcecff" /><text x="132" y="907" class="copy">Structure stays visually dominant while the inner bands add forcing and contextual detail.</text></svg>