<svg xmlns="http://www.w3.org/2000/svg" width="1500" height="980" viewBox="0 0 1500 980"><style>.eyebrow { font: 700 14px "Avenir Next", "Segoe UI", sans-serif; letter-spacing: 0.14em; text-transform: uppercase; fill: #7a6a55; }.title { font: 700 30px "Iowan Old Style", "Palatino Linotype", serif; fill: #231f18; }.subtitle { font: 400 16px "Avenir Next", "Segoe UI", sans-serif; fill: #5f5547; }.section { font: 700 17px "Avenir Next", "Segoe UI", sans-serif; fill: #2c271f; }.section-small { font: 700 17px "Avenir Next", "Segoe UI", sans-serif; fill: #231f18; }.copy { font: 400 15px "Avenir Next", "Segoe UI", sans-serif; fill: #5f5547; }.metric-label { font: 700 12px "Avenir Next", "Segoe UI", sans-serif; letter-spacing: 0.08em; text-transform: uppercase; fill: #7a6a55; }.move-label { font: 700 12px "Avenir Next", "Segoe UI", sans-serif; fill: #231f18; }.board-label { font: 700 11px "Avenir Next", "Segoe UI", sans-serif; fill: #7a6a55; }.board-copy { font: 400 13px "Avenir Next", "Segoe UI", sans-serif; fill: #5f5547; }.board-piece { font: 700 28px "Georgia", "Times New Roman", serif; text-anchor: middle; dominant-baseline: middle; paint-order: stroke; }.board-piece.white { fill: #f0e6d0; stroke: #2b2116; stroke-width: 1.8px; }.board-piece.black { fill: #2a221b; stroke: #f7f0e4; stroke-width: 0.65px; }</style><rect width="100%" height="100%" fill="#f2ecdf" /><rect x="24" y="24" width="1452" height="932" rx="28" fill="#fbf7ef" stroke="#ddd5c7" /><text x="48" y="62" class="eyebrow">Viewer review artifact</text><text x="48" y="96" class="title">1. e4 subtree: Nf6 to b4, d3, d4, h3, Ng5, O-O</text><text x="48" y="124" class="subtitle">1. e4 subtree · White to move · radius 2 · distance 5.0 · budget 3</text><defs><clipPath id="structure-panel-clip"><rect x="48" y="158" width="930" height="720" rx="26" /></clipPath></defs><rect x="48" y="158" width="930" height="720" rx="26" fill="#fdfbf6" stroke="#dcd3c4" /><ellipse cx="513" cy="791.6" rx="260.4" ry="43.2" fill="#ece3d3" opacity="0.72" /><g clip-path="url(#structure-panel-clip)"><path d="M513.481 508.262 L503.812 512.238 L488.164 522.783 L472.878 534.133 L463.433 541.033 L462.896 540.449 L471.252 532.363 L485.398 519.763 L499.804 507.845 L508.076 502.327 " fill="none" stroke="#99f6e4" stroke-width="2.53968" stroke-linecap="round" stroke-linejoin="round" opacity="0.32" /><path d="M513.481 508.262 L503.812 512.238 L488.164 522.783 L472.878 534.133 L463.433 541.033 L462.896 540.449 L471.252 532.363 L485.398 519.763 L499.804 507.845 L508.076 502.327 " fill="none" stroke="#0f766e" stroke-width="1.584" stroke-linecap="round" stroke-linejoin="round" opacity="0.96" /><path d="M516.076 521.404 L504.274 520.178 L485.043 522.996 L466.238 526.955 L454.694 529.216 L454.262 528.071 L464.935 523.49 L482.841 517.096 L501.102 511.619 L511.817 509.868 " fill="none" stroke="#99f6e4" stroke-width="2.53968" stroke-linecap="round" stroke-linejoin="round" opacity="0.32" /><path d="M516.076 521.404 L504.274 520.178 L485.043 522.996 L466.238 526.955 L454.694 529.216 L454.262 528.071 L464.935 523.49 L482.841 517.096 L501.102 511.619 L511.817 509.868 " fill="none" stroke="#0f766e" stroke-width="1.584" stroke-linecap="round" stroke-linejoin="round" opacity="0.96" /><path d="M525.369 534.002 L523.092 532.212 L519.196 531.842 L515.009 532.027 L511.963 531.773 L510.964 530.421 L511.999 527.955 L514.144 525 L515.949 522.531 L516.076 521.404 " fill="none" stroke="#cbd5e1" stroke-width="2.262624" stroke-linecap="round" stroke-linejoin="round" opacity="0.32" /><path d="M525.369 534.002 L523.092 532.212 L519.196 531.842 L515.009 532.027 L511.963 531.773 L510.964 530.421 L511.999 527.955 L514.144 525 L515.949 522.531 L516.076 521.404 " fill="none" stroke="#334155" stroke-width="1.4112" stroke-linecap="round" stroke-linejoin="round" opacity="0.96" /><path d="M516.076 521.404 L514.349 519.129 L510.538 517.461 L506.311 516.162 L503.482 514.917 L503.201 513.507 L505.468 511.914 L509.125 510.327 L512.355 509.033 L513.481 508.262 " fill="none" stroke="#cbd5e1" stroke-width="2.262624" stroke-linecap="round" stroke-linejoin="round" opacity="0.32" /><path d="M516.076 521.404 L514.349 519.129 L510.538 517.461 L506.311 516.162 L503.482 514.917 L503.201 513.507 L505.468 511.914 L509.125 510.327 L512.355 509.033 L513.481 508.262 " fill="none" stroke="#334155" stroke-width="1.4112" stroke-linecap="round" stroke-linejoin="round" opacity="0.96" /><path d="M512.898 508.823 L511.362 506.872 L507.633 505.21 L503.453 503.802 L500.722 502.57 L500.652 501.445 L503.244 500.416 L507.285 499.525 L510.874 498.834 L512.264 498.368 " fill="none" stroke="#cbd5e1" stroke-width="2.285712" stroke-linecap="round" stroke-linejoin="round" opacity="0.32" /><path d="M512.898 508.823 L511.362 506.872 L507.633 505.21 L503.453 503.802 L500.722 502.57 L500.652 501.445 L503.244 500.416 L507.285 499.525 L510.874 498.834 L512.264 498.368 " fill="none" stroke="#334155" stroke-width="1.4256" stroke-linecap="round" stroke-linejoin="round" opacity="0.96" /><path d="M527.375 562.555 L525.847 558.693 L522.488 555.111 L518.753 551.769 L516.255 548.579 L516.031 545.46 L518.085 542.395 L521.377 539.427 L524.293 536.62 L525.369 534.002 " fill="none" stroke="#cbd5e1" stroke-width="2.216448" stroke-linecap="round" stroke-linejoin="round" opacity="0.32" /><path d="M527.375 562.555 L525.847 558.693 L522.488 555.111 L518.753 551.769 L516.255 548.579 L516.031 545.46 L518.085 542.395 L521.377 539.427 L524.293 536.62 L525.369 534.002 " fill="none" stroke="#334155" stroke-width="1.3824" stroke-linecap="round" stroke-linejoin="round" opacity="0.96" /><path d="M516.076 521.404 L514.402 519.736 L510.768 518.665 L506.72 517.858 L503.972 516.906 L503.623 515.535 L505.674 513.735 L509.021 511.764 L511.946 510.017 L512.898 508.823 " fill="none" stroke="#cbd5e1" stroke-width="2.216448" stroke-linecap="round" stroke-linejoin="round" opacity="0.32" /><path d="M516.076 521.404 L514.402 519.736 L510.768 518.665 L506.72 517.858 L503.972 516.906 L503.623 515.535 L505.674 513.735 L509.021 511.764 L511.946 510.017 L512.898 508.823 " fill="none" stroke="#334155" stroke-width="1.3824" stroke-linecap="round" stroke-linejoin="round" opacity="0.96" /><path d="M516.076 521.404 L514.544 519.395 L511 517.721 L507.032 516.254 L504.393 514.817 L504.216 513.281 L506.501 511.636 L510.116 509.992 L513.303 508.51 L514.472 507.315 " fill="none" stroke="#cbd5e1" stroke-width="2.216448" stroke-linecap="round" stroke-linejoin="round" opacity="0.32" /><path d="M516.076 521.404 L514.544 519.395 L511 517.721 L507.032 516.254 L504.393 514.817 L504.216 513.281 L506.501 511.636 L510.116 509.992 L513.303 508.51 L514.472 507.315 " fill="none" stroke="#334155" stroke-width="1.3824" stroke-linecap="round" stroke-linejoin="round" opacity="0.96" /><path d="M516.076 521.404 L514.698 520.485 L513.557 517.399 L512.46 513.665 L511.188 511.096 L509.6 510.901 L507.708 513.082 L505.673 516.431 L503.73 519.139 L502.073 519.686 " fill="none" stroke="#cbd5e1" stroke-width="2.216448" stroke-linecap="round" stroke-linejoin="round" opacity="0.32" /><path d="M516.076 521.404 L514.698 520.485 L513.557 517.399 L512.46 513.665 L511.188 511.096 L509.6 510.901 L507.708 513.082 L505.673 516.431 L503.73 519.139 L502.073 519.686 " fill="none" stroke="#334155" stroke-width="1.3824" stroke-linecap="round" stroke-linejoin="round" opacity="0.96" /><path d="M516.076 521.404 L515.391 520.248 L515.521 517.075 L515.835 513.288 L515.602 510.565 L514.343 510.029 L512.068 511.684 L509.272 514.417 L506.698 516.552 L504.976 516.685 " fill="none" stroke="#cbd5e1" stroke-width="2.216448" stroke-linecap="round" stroke-linejoin="round" opacity="0.32" /><path d="M516.076 521.404 L515.391 520.248 L515.521 517.075 L515.835 513.288 L515.602 510.565 L514.343 510.029 L512.068 511.684 L509.272 514.417 L506.698 516.552 L504.976 516.685 " fill="none" stroke="#334155" stroke-width="1.3824" stroke-linecap="round" stroke-linejoin="round" opacity="0.96" /><path d="M504.976 516.685 L504.782 515.62 L505.636 512.584 L506.749 508.948 L507.198 506.354 L506.372 505.898 L504.279 507.584 L501.538 510.323 L499.08 512.476 L497.697 512.673 " fill="none" stroke="#cbd5e1" stroke-width="2.216448" stroke-linecap="round" stroke-linejoin="round" opacity="0.32" /><path d="M504.976 516.685 L504.782 515.62 L505.636 512.584 L506.749 508.948 L507.198 506.354 L506.372 505.898 L504.279 507.584 L501.538 510.323 L499.08 512.476 L497.697 512.673 " fill="none" stroke="#334155" stroke-width="1.3824" stroke-linecap="round" stroke-linejoin="round" opacity="0.96" /><path d="M514.472 507.315 L514.189 506.181 L514.803 503.007 L515.624 499.229 L515.853 496.564 L514.963 496.156 L512.961 498.009 L510.385 500.984 L508.044 503.368 L506.627 503.725 " fill="none" stroke="#cbd5e1" stroke-width="2.216448" stroke-linecap="round" stroke-linejoin="round" opacity="0.32" /><path d="M514.472 507.315 L514.189 506.181 L514.803 503.007 L515.624 499.229 L515.853 496.564 L514.963 496.156 L512.961 498.009 L510.385 500.984 L508.044 503.368 L506.627 503.725 " fill="none" stroke="#334155" stroke-width="1.3824" stroke-linecap="round" stroke-linejoin="round" opacity="0.96" /><path d="M502.073 519.686 L500.673 511.556 L499.571 485.238 L498.626 453.423 L497.589 432.186 L496.279 432.161 L494.729 453.351 L493.196 485.12 L491.996 511.396 L491.277 519.487 " fill="none" stroke="#fed7aa" stroke-width="3.2631040000000002" stroke-linecap="round" stroke-linejoin="round" opacity="0.32" /><path d="M502.073 519.686 L500.673 511.556 L499.571 485.238 L498.626 453.423 L497.589 432.186 L496.279 432.161 L494.729 453.351 L493.196 485.12 L491.996 511.396 L491.277 519.487 " fill="none" stroke="#d97706" stroke-width="2.0352" stroke-linecap="round" stroke-linejoin="round" opacity="0.96" /><path d="M511.817 509.868 L513.73 501.667 L520.607 473.518 L528.919 438.621 L534.049 414.882 L532.899 414.582 L525.515 437.736 L515.097 472.093 L506.335 499.762 L502.752 507.535 " fill="none" stroke="#fed7aa" stroke-width="3.30928" stroke-linecap="round" stroke-linejoin="round" opacity="0.32" /><path d="M511.817 509.868 L513.73 501.667 L520.607 473.518 L528.919 438.621 L534.049 414.882 L532.899 414.582 L525.515 437.736 L515.097 472.093 L506.335 499.762 L502.752 507.535 " fill="none" stroke="#d97706" stroke-width="2.064" stroke-linecap="round" stroke-linejoin="round" opacity="0.96" /><circle cx="527.375" cy="562.555" r="1.914" fill="#f6efe1" opacity="0.22" /><circle cx="527.375" cy="562.555" r="1.679" fill="#0f766e" /><circle cx="527.375" cy="562.555" r="4.679" fill="none" stroke="#d8cbb3" stroke-width="1.4" opacity="0.55" /><circle cx="525.369" cy="534.002" r="1.914" fill="#f6efe1" opacity="0.22" /><circle cx="525.369" cy="534.002" r="1.679" fill="#0f766e" /><circle cx="525.369" cy="534.002" r="4.679" fill="none" stroke="#d8cbb3" stroke-width="1.4" opacity="0.55" /><circle cx="516.076" cy="521.404" r="2.891" fill="#fff5d6" opacity="0.46" /><circle cx="516.076" cy="521.404" r="2.095" fill="#0f766e" /><circle cx="516.076" cy="521.404" r="5.095" fill="none" stroke="#b7791f" stroke-width="2.4" opacity="0.95" /><circle cx="502.073" cy="519.686" r="1.914" fill="#f6efe1" opacity="0.22" /><circle cx="502.073" cy="519.686" r="1.679" fill="#0f766e" /><circle cx="502.073" cy="519.686" r="4.679" fill="none" stroke="#d8cbb3" stroke-width="1.4" opacity="0.55" /><circle cx="491.277" cy="519.487" r="1.914" fill="#f6efe1" opacity="0.22" /><circle cx="491.277" cy="519.487" r="1.679" fill="#0f766e" /><circle cx="491.277" cy="519.487" r="4.679" fill="none" stroke="#d8cbb3" stroke-width="1.4" opacity="0.55" /><circle cx="504.976" cy="516.685" r="1.914" fill="#f6efe1" opacity="0.22" /><circle cx="504.976" cy="516.685" r="1.679" fill="#0f766e" /><circle cx="504.976" cy="516.685" r="4.679" fill="none" stroke="#d8cbb3" stroke-width="1.4" opacity="0.55" /><circle cx="497.697" cy="512.673" r="1.914" fill="#f6efe1" opacity="0.22" /><circle cx="497.697" cy="512.673" r="1.679" fill="#0f766e" /><circle cx="497.697" cy="512.673" r="4.679" fill="none" stroke="#d8cbb3" stroke-width="1.4" opacity="0.55" /><circle cx="511.817" cy="509.868" r="1.914" fill="#f6efe1" opacity="0.22" /><circle cx="511.817" cy="509.868" r="1.679" fill="#0f766e" /><circle cx="511.817" cy="509.868" r="4.679" fill="none" stroke="#d8cbb3" stroke-width="1.4" opacity="0.55" /><circle cx="512.898" cy="508.823" r="1.914" fill="#f6efe1" opacity="0.22" /><circle cx="512.898" cy="508.823" r="1.679" fill="#0f766e" /><circle cx="512.898" cy="508.823" r="4.679" fill="none" stroke="#d8cbb3" stroke-width="1.4" opacity="0.55" /><circle cx="513.481" cy="508.262" r="1.914" fill="#f6efe1" opacity="0.22" /><circle cx="513.481" cy="508.262" r="1.679" fill="#0f766e" /><circle cx="513.481" cy="508.262" r="4.679" fill="none" stroke="#d8cbb3" stroke-width="1.4" opacity="0.55" /><circle cx="502.752" cy="507.535" r="1.914" fill="#f6efe1" opacity="0.22" /><circle cx="502.752" cy="507.535" r="1.679" fill="#0f766e" /><circle cx="502.752" cy="507.535" r="4.679" fill="none" stroke="#d8cbb3" stroke-width="1.4" opacity="0.55" /><circle cx="514.472" cy="507.315" r="1.914" fill="#f6efe1" opacity="0.22" /><circle cx="514.472" cy="507.315" r="1.679" fill="#0f766e" /><circle cx="514.472" cy="507.315" r="4.679" fill="none" stroke="#d8cbb3" stroke-width="1.4" opacity="0.55" /><circle cx="506.627" cy="503.725" r="1.914" fill="#f6efe1" opacity="0.22" /><circle cx="506.627" cy="503.725" r="1.679" fill="#0f766e" /><circle cx="506.627" cy="503.725" r="4.679" fill="none" stroke="#d8cbb3" stroke-width="1.4" opacity="0.55" /><circle cx="508.076" cy="502.327" r="1.914" fill="#f6efe1" opacity="0.22" /><circle cx="508.076" cy="502.327" r="1.679" fill="#0f766e" /><circle cx="508.076" cy="502.327" r="4.679" fill="none" stroke="#d8cbb3" stroke-width="1.4" opacity="0.55" /><circle cx="512.264" cy="498.368" r="1.914" fill="#f6efe1" opacity="0.22" /><circle cx="512.264" cy="498.368" r="1.679" fill="#0f766e" /><circle cx="512.264" cy="498.368" r="4.679" fill="none" stroke="#d8cbb3" stroke-width="1.4" opacity="0.55" /><rect x="438.662" y="540.071" width="78" height="17.6" rx="8.8" fill="#deebf4" stroke="#3a6b87" opacity="0.74" /><text x="445.862" y="552.071" class="move-label" style="font-size:9.6px">out O-O</text><rect x="475.864" y="502.421" width="78" height="17.6" rx="8.8" fill="#fdebd2" stroke="#c27b1b" opacity="0.74" /><text x="483.064" y="514.421" class="move-label" style="font-size:9.6px">in Nf6</text><circle cx="516.076" cy="521.404" r="10" fill="none" stroke="#7a4b12" stroke-width="2.4" opacity="0.8" /></g><rect x="1012" y="158" width="428" height="790" rx="26" fill="#fdfaf3" stroke="#dcd3c4" /><text x="1036" y="188" class="section">Reference check</text><text x="1036" y="216" class="copy">The geometry remains primary here: SAN</text><text x="1036" y="236" class="copy">labels sit on the carriers themselves,</text><text x="1036" y="256" class="copy">terminal outcomes sit on terminal</text><text x="1036" y="276" class="copy">nodes, and this board is only a static</text><text x="1036" y="296" class="copy">reference check for ply 8 · middlegame</text><text x="1036" y="316" class="copy">·</text><text x="1036" y="336" class="copy">white[Q1,R2,B2,N2,P8]|black[Q1,R2,B2,N2,P8]</text><text x="1036" y="356" class="copy">in 1. e4 subtree.</text><rect x="1046" y="332" width="360" height="414" rx="22" fill="#f4eee4" stroke="#ddd5c7" /><text x="1064" y="360" class="metric-label">Focus board</text><rect x="1064" y="376" width="40.5" height="40.5" fill="#ead8ba" /><text x="1084.25" y="397.87" class="board-piece black">♜</text><text x="1056" y="399.49" class="board-label" text-anchor="end">8</text><rect x="1104.5" y="376" width="40.5" height="40.5" fill="#9e7a52" /><rect x="1145" y="376" width="40.5" height="40.5" fill="#ead8ba" /><text x="1165.25" y="397.87" class="board-piece black">♝</text><rect x="1185.5" y="376" width="40.5" height="40.5" fill="#9e7a52" /><text x="1205.75" y="397.87" class="board-piece black">♛</text><rect x="1226" y="376" width="40.5" height="40.5" fill="#ead8ba" /><text x="1246.25" y="397.87" class="board-piece black">♚</text><rect x="1266.5" y="376" width="40.5" height="40.5" fill="#9e7a52" /><rect x="1307" y="376" width="40.5" height="40.5" fill="#ead8ba" /><rect x="1347.5" y="376" width="40.5" height="40.5" fill="#9e7a52" /><text x="1367.75" y="397.87" class="board-piece black">♜</text><rect x="1064" y="416.5" width="40.5" height="40.5" fill="#9e7a52" /><text x="1084.25" y="438.37" class="board-piece black">♟</text><text x="1056" y="439.99" class="board-label" text-anchor="end">7</text><rect x="1104.5" y="416.5" width="40.5" height="40.5" fill="#ead8ba" /><text x="1124.75" y="438.37" class="board-piece black">♟</text><rect x="1145" y="416.5" width="40.5" height="40.5" fill="#9e7a52" /><text x="1165.25" y="438.37" class="board-piece black">♟</text><rect x="1185.5" y="416.5" width="40.5" height="40.5" fill="#ead8ba" /><text x="1205.75" y="438.37" class="board-piece black">♟</text><rect x="1226" y="416.5" width="40.5" height="40.5" fill="#9e7a52" /><rect x="1266.5" y="416.5" width="40.5" height="40.5" fill="#ead8ba" /><text x="1286.75" y="438.37" class="board-piece black">♟</text><rect x="1307" y="416.5" width="40.5" height="40.5" fill="#9e7a52" /><text x="1327.25" y="438.37" class="board-piece black">♟</text><rect x="1347.5" y="416.5" width="40.5" height="40.5" fill="#ead8ba" /><text x="1367.75" y="438.37" class="board-piece black">♟</text><rect x="1064" y="457" width="40.5" height="40.5" fill="#ead8ba" /><text x="1056" y="480.49" class="board-label" text-anchor="end">6</text><rect x="1104.5" y="457" width="40.5" height="40.5" fill="#9e7a52" /><rect x="1145" y="457" width="40.5" height="40.5" fill="#ead8ba" /><text x="1165.25" y="478.87" class="board-piece black">♞</text><rect x="1185.5" y="457" width="40.5" height="40.5" fill="#9e7a52" /><rect x="1226" y="457" width="40.5" height="40.5" fill="#ead8ba" /><rect x="1266.5" y="457" width="40.5" height="40.5" fill="#9e7a52" /><text x="1286.75" y="478.87" class="board-piece black">♞</text><rect x="1307" y="457" width="40.5" height="40.5" fill="#ead8ba" /><rect x="1347.5" y="457" width="40.5" height="40.5" fill="#9e7a52" /><rect x="1064" y="497.5" width="40.5" height="40.5" fill="#9e7a52" /><text x="1056" y="520.99" class="board-label" text-anchor="end">5</text><rect x="1104.5" y="497.5" width="40.5" height="40.5" fill="#ead8ba" /><rect x="1145" y="497.5" width="40.5" height="40.5" fill="#9e7a52" /><text x="1165.25" y="519.37" class="board-piece black">♝</text><rect x="1185.5" y="497.5" width="40.5" height="40.5" fill="#ead8ba" /><rect x="1226" y="497.5" width="40.5" height="40.5" fill="#9e7a52" /><text x="1246.25" y="519.37" class="board-piece black">♟</text><rect x="1266.5" y="497.5" width="40.5" height="40.5" fill="#ead8ba" /><rect x="1307" y="497.5" width="40.5" height="40.5" fill="#9e7a52" /><rect x="1347.5" y="497.5" width="40.5" height="40.5" fill="#ead8ba" /><rect x="1064" y="538" width="40.5" height="40.5" fill="#ead8ba" /><text x="1056" y="561.49" class="board-label" text-anchor="end">4</text><rect x="1104.5" y="538" width="40.5" height="40.5" fill="#9e7a52" /><rect x="1145" y="538" width="40.5" height="40.5" fill="#ead8ba" /><text x="1165.25" y="559.87" class="board-piece white">♗</text><rect x="1185.5" y="538" width="40.5" height="40.5" fill="#9e7a52" /><rect x="1226" y="538" width="40.5" height="40.5" fill="#ead8ba" /><text x="1246.25" y="559.87" class="board-piece white">♙</text><rect x="1266.5" y="538" width="40.5" height="40.5" fill="#9e7a52" /><rect x="1307" y="538" width="40.5" height="40.5" fill="#ead8ba" /><rect x="1347.5" y="538" width="40.5" height="40.5" fill="#9e7a52" /><rect x="1064" y="578.5" width="40.5" height="40.5" fill="#9e7a52" /><text x="1056" y="601.99" class="board-label" text-anchor="end">3</text><rect x="1104.5" y="578.5" width="40.5" height="40.5" fill="#ead8ba" /><rect x="1145" y="578.5" width="40.5" height="40.5" fill="#9e7a52" /><text x="1165.25" y="600.37" class="board-piece white">♙</text><rect x="1185.5" y="578.5" width="40.5" height="40.5" fill="#ead8ba" /><rect x="1226" y="578.5" width="40.5" height="40.5" fill="#9e7a52" /><rect x="1266.5" y="578.5" width="40.5" height="40.5" fill="#ead8ba" /><text x="1286.75" y="600.37" class="board-piece white">♘</text><rect x="1307" y="578.5" width="40.5" height="40.5" fill="#9e7a52" /><rect x="1347.5" y="578.5" width="40.5" height="40.5" fill="#ead8ba" /><rect x="1064" y="619" width="40.5" height="40.5" fill="#ead8ba" /><text x="1084.25" y="640.87" class="board-piece white">♙</text><text x="1056" y="642.49" class="board-label" text-anchor="end">2</text><rect x="1104.5" y="619" width="40.5" height="40.5" fill="#9e7a52" /><text x="1124.75" y="640.87" class="board-piece white">♙</text><rect x="1145" y="619" width="40.5" height="40.5" fill="#ead8ba" /><rect x="1185.5" y="619" width="40.5" height="40.5" fill="#9e7a52" /><text x="1205.75" y="640.87" class="board-piece white">♙</text><rect x="1226" y="619" width="40.5" height="40.5" fill="#ead8ba" /><rect x="1266.5" y="619" width="40.5" height="40.5" fill="#9e7a52" /><text x="1286.75" y="640.87" class="board-piece white">♙</text><rect x="1307" y="619" width="40.5" height="40.5" fill="#ead8ba" /><text x="1327.25" y="640.87" class="board-piece white">♙</text><rect x="1347.5" y="619" width="40.5" height="40.5" fill="#9e7a52" /><text x="1367.75" y="640.87" class="board-piece white">♙</text><rect x="1064" y="659.5" width="40.5" height="40.5" fill="#9e7a52" /><text x="1084.25" y="681.37" class="board-piece white">♖</text><text x="1084.25" y="716" class="board-label" text-anchor="middle">a</text><text x="1056" y="682.99" class="board-label" text-anchor="end">1</text><rect x="1104.5" y="659.5" width="40.5" height="40.5" fill="#ead8ba" /><text x="1124.75" y="681.37" class="board-piece white">♘</text><text x="1124.75" y="716" class="board-label" text-anchor="middle">b</text><rect x="1145" y="659.5" width="40.5" height="40.5" fill="#9e7a52" /><text x="1165.25" y="681.37" class="board-piece white">♗</text><text x="1165.25" y="716" class="board-label" text-anchor="middle">c</text><rect x="1185.5" y="659.5" width="40.5" height="40.5" fill="#ead8ba" /><text x="1205.75" y="681.37" class="board-piece white">♕</text><text x="1205.75" y="716" class="board-label" text-anchor="middle">d</text><rect x="1226" y="659.5" width="40.5" height="40.5" fill="#9e7a52" /><text x="1246.25" y="681.37" class="board-piece white">♔</text><text x="1246.25" y="716" class="board-label" text-anchor="middle">e</text><rect x="1266.5" y="659.5" width="40.5" height="40.5" fill="#ead8ba" /><text x="1286.75" y="716" class="board-label" text-anchor="middle">f</text><rect x="1307" y="659.5" width="40.5" height="40.5" fill="#9e7a52" /><text x="1327.25" y="716" class="board-label" text-anchor="middle">g</text><rect x="1347.5" y="659.5" width="40.5" height="40.5" fill="#ead8ba" /><text x="1367.75" y="681.37" class="board-piece white">♖</text><text x="1367.75" y="716" class="board-label" text-anchor="middle">h</text><text x="1064" y="724" class="board-copy">White to move</text><text x="1064" y="744" class="board-copy">Castling KQkq · e.p. none</text><rect x="1036" y="756" width="380" height="88" rx="18" fill="#f4eee4" stroke="#ddd5c7" /><text x="1052" y="782" class="metric-label">Focused node</text><text x="1052" y="804" class="copy">ply 8 · middlegame ·</text><text x="1052" y="824" class="copy">white[Q1,R2,B2,N2,P8]|black[Q1,R2,B2,N2,P8]</text><text x="1036" y="836" class="section">Moves touching focus</text><rect x="1036" y="852" width="380" height="44" rx="14" fill="#f4eee4" stroke="#ddd5c7" /><text x="1052" y="868" class="metric-label">Into focus</text><text x="1052" y="886" class="section-small">Nf6</text><text x="1144" y="886" class="copy">quiet move</text><rect x="1036" y="904" width="380" height="44" rx="14" fill="#f4eee4" stroke="#ddd5c7" /><text x="1052" y="920" class="metric-label">From focus</text><text x="1052" y="938" class="section-small">b4</text><text x="1144" y="938" class="copy">quiet move</text><text x="1036" y="974" class="copy">+ 5 more local moves in the fixture graph</text><text x="48" y="930" class="section">How to read the ribbons</text><line x1="48" y1="954" x2="102" y2="954" stroke="#566574" stroke-width="12" stroke-linecap="round" /><line x1="60" y1="954" x2="90" y2="954" stroke="#87a9c8" stroke-width="4.5" stroke-linecap="round" /><circle cx="104" cy="954" r="4" fill="#dcecff" /><circle cx="116" cy="954" r="4" fill="#dcecff" /><text x="140" y="959" class="copy">Outer ribbon keeps the coarse move path readable; inner glow and dots add tactical and contextual residue.</text></svg>