<svg xmlns="http://www.w3.org/2000/svg" width="1500" height="980" viewBox="0 0 1500 980"><style>.eyebrow { font: 700 14px "Avenir Next", "Segoe UI", sans-serif; letter-spacing: 0.14em; text-transform: uppercase; fill: #7a6a55; }.title { font: 700 30px "Iowan Old Style", "Palatino Linotype", serif; fill: #231f18; }.subtitle { font: 400 16px "Avenir Next", "Segoe UI", sans-serif; fill: #5f5547; }.section { font: 700 17px "Avenir Next", "Segoe UI", sans-serif; fill: #2c271f; }.section-small { font: 700 17px "Avenir Next", "Segoe UI", sans-serif; fill: #231f18; }.copy { font: 400 15px "Avenir Next", "Segoe UI", sans-serif; fill: #5f5547; }.metric-label { font: 700 12px "Avenir Next", "Segoe UI", sans-serif; letter-spacing: 0.08em; text-transform: uppercase; fill: #7a6a55; }.move-label { font: 700 12px "Avenir Next", "Segoe UI", sans-serif; fill: #231f18; }.board-label { font: 700 11px "Avenir Next", "Segoe UI", sans-serif; fill: #7a6a55; }.board-copy { font: 400 13px "Avenir Next", "Segoe UI", sans-serif; fill: #5f5547; }.board-piece { font: 700 28px "Georgia", "Times New Roman", serif; text-anchor: middle; dominant-baseline: middle; paint-order: stroke; }.board-piece.white { fill: #f0e6d0; stroke: #2b2116; stroke-width: 1.8px; }.board-piece.black { fill: #2a221b; stroke: #f7f0e4; stroke-width: 0.65px; }</style><rect width="100%" height="100%" fill="#f2ecdf" /><rect x="24" y="24" width="1452" height="932" rx="28" fill="#fbf7ef" stroke="#ddd5c7" /><text x="48" y="62" class="eyebrow">Viewer review artifact</text><text x="48" y="96" class="title">Italian Branch Lab: Nf6 to b4, d3, d4, h3, Ng5, O-O</text><text x="48" y="124" class="subtitle">Italian Branch Lab · White to move · radius 2 · distance 5.0 · budget 3</text><defs><clipPath id="structure-panel-clip"><rect x="48" y="158" width="930" height="720" rx="26" /></clipPath></defs><rect x="48" y="158" width="930" height="720" rx="26" fill="#fdfbf6" stroke="#dcd3c4" /><ellipse cx="513" cy="791.6" rx="260.4" ry="43.2" fill="#ece3d3" opacity="0.72" /><g clip-path="url(#structure-panel-clip)"><path d="M500.103 528.546 L500.502 525.212 L499.395 520.623 L497.937 516.025 L497.398 512.724 L498.595 511.534 L501.541 512.443 L505.445 514.613 L509.06 516.718 L511.238 517.498 " fill="none" stroke="#d9e2ea" stroke-width="2.262624" stroke-linecap="round" stroke-linejoin="round" opacity="0.32" /><path d="M500.103 528.546 L500.502 525.212 L499.395 520.623 L497.937 516.025 L497.398 512.724 L498.595 511.534 L501.541 512.443 L505.445 514.613 L509.06 516.718 L511.238 517.498 " fill="none" stroke="#566574" stroke-width="1.4112" stroke-linecap="round" stroke-linejoin="round" opacity="0.96" /><path d="M511.238 517.498 L512.165 514.6 L512.336 509.867 L512.337 504.984 L512.81 501.736 L514.172 501.248 L516.437 503.515 L519.219 507.403 L521.901 511.116 L523.91 512.965 " fill="none" stroke="#d9e2ea" stroke-width="2.262624" stroke-linecap="round" stroke-linejoin="round" opacity="0.32" /><path d="M511.238 517.498 L512.165 514.6 L512.336 509.867 L512.337 504.984 L512.81 501.736 L514.172 501.248 L516.437 503.515 L519.219 507.403 L521.901 511.116 L523.91 512.965 " fill="none" stroke="#566574" stroke-width="1.4112" stroke-linecap="round" stroke-linejoin="round" opacity="0.96" /><circle cx="500.103" cy="528.546" r="1.916" fill="#f6efe1" opacity="0.22" /><circle cx="500.103" cy="528.546" r="1.68" fill="#0f766e" /><circle cx="500.103" cy="528.546" r="4.68" fill="none" stroke="#d8cbb3" stroke-width="1.4" opacity="0.55" /><circle cx="511.238" cy="517.498" r="2.902" fill="#fff5d6" opacity="0.46" /><circle cx="511.238" cy="517.498" r="2.103" fill="#0f766e" /><circle cx="511.238" cy="517.498" r="5.103" fill="none" stroke="#b7791f" stroke-width="2.4" opacity="0.95" /><circle cx="523.91" cy="512.965" r="1.916" fill="#f6efe1" opacity="0.22" /><circle cx="523.91" cy="512.965" r="1.68" fill="#0f766e" /><circle cx="523.91" cy="512.965" r="4.68" fill="none" stroke="#d8cbb3" stroke-width="1.4" opacity="0.55" /><rect x="463.495" y="483.534" width="78" height="17.6" rx="8.8" fill="#fdebd2" stroke="#c27b1b" opacity="0.74" /><text x="470.695" y="495.534" class="move-label" style="font-size:9.6px">in Nf6</text><rect x="498.572" y="513.248" width="78" height="17.6" rx="8.8" fill="#deebf4" stroke="#3a6b87" opacity="0.74" /><text x="505.772" y="525.248" class="move-label" style="font-size:9.6px">out Ng5</text><circle cx="511.238" cy="517.498" r="10" fill="none" stroke="#7a4b12" stroke-width="2.4" opacity="0.8" /></g><rect x="1012" y="158" width="428" height="790" rx="26" fill="#fdfaf3" stroke="#dcd3c4" /><text x="1036" y="188" class="section">Reference check</text><text x="1036" y="216" class="copy">The geometry remains primary here: SAN</text><text x="1036" y="236" class="copy">labels sit on the carriers themselves,</text><text x="1036" y="256" class="copy">terminal outcomes sit on terminal</text><text x="1036" y="276" class="copy">nodes, and this board is only a static</text><text x="1036" y="296" class="copy">reference check for the position after</text><text x="1036" y="316" class="copy">1. e4 e5 2. Nf3 Nc6 3. Bc4 Bc5 4. c3</text><text x="1036" y="336" class="copy">Nf6 in Italian Branch Lab.</text><rect x="1046" y="332" width="360" height="414" rx="22" fill="#f4eee4" stroke="#ddd5c7" /><text x="1064" y="360" class="metric-label">Focus board</text><rect x="1064" y="376" width="40.5" height="40.5" fill="#ead8ba" /><text x="1084.25" y="397.87" class="board-piece black">♜</text><text x="1056" y="399.49" class="board-label" text-anchor="end">8</text><rect x="1104.5" y="376" width="40.5" height="40.5" fill="#9e7a52" /><rect x="1145" y="376" width="40.5" height="40.5" fill="#ead8ba" /><text x="1165.25" y="397.87" class="board-piece black">♝</text><rect x="1185.5" y="376" width="40.5" height="40.5" fill="#9e7a52" /><text x="1205.75" y="397.87" class="board-piece black">♛</text><rect x="1226" y="376" width="40.5" height="40.5" fill="#ead8ba" /><text x="1246.25" y="397.87" class="board-piece black">♚</text><rect x="1266.5" y="376" width="40.5" height="40.5" fill="#9e7a52" /><rect x="1307" y="376" width="40.5" height="40.5" fill="#ead8ba" /><rect x="1347.5" y="376" width="40.5" height="40.5" fill="#9e7a52" /><text x="1367.75" y="397.87" class="board-piece black">♜</text><rect x="1064" y="416.5" width="40.5" height="40.5" fill="#9e7a52" /><text x="1084.25" y="438.37" class="board-piece black">♟</text><text x="1056" y="439.99" class="board-label" text-anchor="end">7</text><rect x="1104.5" y="416.5" width="40.5" height="40.5" fill="#ead8ba" /><text x="1124.75" y="438.37" class="board-piece black">♟</text><rect x="1145" y="416.5" width="40.5" height="40.5" fill="#9e7a52" /><text x="1165.25" y="438.37" class="board-piece black">♟</text><rect x="1185.5" y="416.5" width="40.5" height="40.5" fill="#ead8ba" /><text x="1205.75" y="438.37" class="board-piece black">♟</text><rect x="1226" y="416.5" width="40.5" height="40.5" fill="#9e7a52" /><rect x="1266.5" y="416.5" width="40.5" height="40.5" fill="#ead8ba" /><text x="1286.75" y="438.37" class="board-piece black">♟</text><rect x="1307" y="416.5" width="40.5" height="40.5" fill="#9e7a52" /><text x="1327.25" y="438.37" class="board-piece black">♟</text><rect x="1347.5" y="416.5" width="40.5" height="40.5" fill="#ead8ba" /><text x="1367.75" y="438.37" class="board-piece black">♟</text><rect x="1064" y="457" width="40.5" height="40.5" fill="#ead8ba" /><text x="1056" y="480.49" class="board-label" text-anchor="end">6</text><rect x="1104.5" y="457" width="40.5" height="40.5" fill="#9e7a52" /><rect x="1145" y="457" width="40.5" height="40.5" fill="#ead8ba" /><text x="1165.25" y="478.87" class="board-piece black">♞</text><rect x="1185.5" y="457" width="40.5" height="40.5" fill="#9e7a52" /><rect x="1226" y="457" width="40.5" height="40.5" fill="#ead8ba" /><rect x="1266.5" y="457" width="40.5" height="40.5" fill="#9e7a52" /><text x="1286.75" y="478.87" class="board-piece black">♞</text><rect x="1307" y="457" width="40.5" height="40.5" fill="#ead8ba" /><rect x="1347.5" y="457" width="40.5" height="40.5" fill="#9e7a52" /><rect x="1064" y="497.5" width="40.5" height="40.5" fill="#9e7a52" /><text x="1056" y="520.99" class="board-label" text-anchor="end">5</text><rect x="1104.5" y="497.5" width="40.5" height="40.5" fill="#ead8ba" /><rect x="1145" y="497.5" width="40.5" height="40.5" fill="#9e7a52" /><text x="1165.25" y="519.37" class="board-piece black">♝</text><rect x="1185.5" y="497.5" width="40.5" height="40.5" fill="#ead8ba" /><rect x="1226" y="497.5" width="40.5" height="40.5" fill="#9e7a52" /><text x="1246.25" y="519.37" class="board-piece black">♟</text><rect x="1266.5" y="497.5" width="40.5" height="40.5" fill="#ead8ba" /><rect x="1307" y="497.5" width="40.5" height="40.5" fill="#9e7a52" /><rect x="1347.5" y="497.5" width="40.5" height="40.5" fill="#ead8ba" /><rect x="1064" y="538" width="40.5" height="40.5" fill="#ead8ba" /><text x="1056" y="561.49" class="board-label" text-anchor="end">4</text><rect x="1104.5" y="538" width="40.5" height="40.5" fill="#9e7a52" /><rect x="1145" y="538" width="40.5" height="40.5" fill="#ead8ba" /><text x="1165.25" y="559.87" class="board-piece white">♗</text><rect x="1185.5" y="538" width="40.5" height="40.5" fill="#9e7a52" /><rect x="1226" y="538" width="40.5" height="40.5" fill="#ead8ba" /><text x="1246.25" y="559.87" class="board-piece white">♙</text><rect x="1266.5" y="538" width="40.5" height="40.5" fill="#9e7a52" /><rect x="1307" y="538" width="40.5" height="40.5" fill="#ead8ba" /><rect x="1347.5" y="538" width="40.5" height="40.5" fill="#9e7a52" /><rect x="1064" y="578.5" width="40.5" height="40.5" fill="#9e7a52" /><text x="1056" y="601.99" class="board-label" text-anchor="end">3</text><rect x="1104.5" y="578.5" width="40.5" height="40.5" fill="#ead8ba" /><rect x="1145" y="578.5" width="40.5" height="40.5" fill="#9e7a52" /><text x="1165.25" y="600.37" class="board-piece white">♙</text><rect x="1185.5" y="578.5" width="40.5" height="40.5" fill="#ead8ba" /><rect x="1226" y="578.5" width="40.5" height="40.5" fill="#9e7a52" /><rect x="1266.5" y="578.5" width="40.5" height="40.5" fill="#ead8ba" /><text x="1286.75" y="600.37" class="board-piece white">♘</text><rect x="1307" y="578.5" width="40.5" height="40.5" fill="#9e7a52" /><rect x="1347.5" y="578.5" width="40.5" height="40.5" fill="#ead8ba" /><rect x="1064" y="619" width="40.5" height="40.5" fill="#ead8ba" /><text x="1084.25" y="640.87" class="board-piece white">♙</text><text x="1056" y="642.49" class="board-label" text-anchor="end">2</text><rect x="1104.5" y="619" width="40.5" height="40.5" fill="#9e7a52" /><text x="1124.75" y="640.87" class="board-piece white">♙</text><rect x="1145" y="619" width="40.5" height="40.5" fill="#ead8ba" /><rect x="1185.5" y="619" width="40.5" height="40.5" fill="#9e7a52" /><text x="1205.75" y="640.87" class="board-piece white">♙</text><rect x="1226" y="619" width="40.5" height="40.5" fill="#ead8ba" /><rect x="1266.5" y="619" width="40.5" height="40.5" fill="#9e7a52" /><text x="1286.75" y="640.87" class="board-piece white">♙</text><rect x="1307" y="619" width="40.5" height="40.5" fill="#ead8ba" /><text x="1327.25" y="640.87" class="board-piece white">♙</text><rect x="1347.5" y="619" width="40.5" height="40.5" fill="#9e7a52" /><text x="1367.75" y="640.87" class="board-piece white">♙</text><rect x="1064" y="659.5" width="40.5" height="40.5" fill="#9e7a52" /><text x="1084.25" y="681.37" class="board-piece white">♖</text><text x="1084.25" y="716" class="board-label" text-anchor="middle">a</text><text x="1056" y="682.99" class="board-label" text-anchor="end">1</text><rect x="1104.5" y="659.5" width="40.5" height="40.5" fill="#ead8ba" /><text x="1124.75" y="681.37" class="board-piece white">♘</text><text x="1124.75" y="716" class="board-label" text-anchor="middle">b</text><rect x="1145" y="659.5" width="40.5" height="40.5" fill="#9e7a52" /><text x="1165.25" y="681.37" class="board-piece white">♗</text><text x="1165.25" y="716" class="board-label" text-anchor="middle">c</text><rect x="1185.5" y="659.5" width="40.5" height="40.5" fill="#ead8ba" /><text x="1205.75" y="681.37" class="board-piece white">♕</text><text x="1205.75" y="716" class="board-label" text-anchor="middle">d</text><rect x="1226" y="659.5" width="40.5" height="40.5" fill="#9e7a52" /><text x="1246.25" y="681.37" class="board-piece white">♔</text><text x="1246.25" y="716" class="board-label" text-anchor="middle">e</text><rect x="1266.5" y="659.5" width="40.5" height="40.5" fill="#ead8ba" /><text x="1286.75" y="716" class="board-label" text-anchor="middle">f</text><rect x="1307" y="659.5" width="40.5" height="40.5" fill="#9e7a52" /><text x="1327.25" y="716" class="board-label" text-anchor="middle">g</text><rect x="1347.5" y="659.5" width="40.5" height="40.5" fill="#ead8ba" /><text x="1367.75" y="681.37" class="board-piece white">♖</text><text x="1367.75" y="716" class="board-label" text-anchor="middle">h</text><text x="1064" y="724" class="board-copy">White to move</text><text x="1064" y="744" class="board-copy">Castling KQkq · e.p. none</text><rect x="1036" y="756" width="380" height="88" rx="18" fill="#f4eee4" stroke="#ddd5c7" /><text x="1052" y="782" class="metric-label">Owning line</text><text x="1052" y="804" class="copy">1. e4 e5 2. Nf3 Nc6 3. Bc4 Bc5 4. c3</text><text x="1052" y="824" class="copy">Nf6</text><text x="1036" y="836" class="section">Moves touching focus</text><rect x="1036" y="852" width="380" height="44" rx="14" fill="#f4eee4" stroke="#ddd5c7" /><text x="1052" y="868" class="metric-label">Into focus</text><text x="1052" y="886" class="section-small">Nf6</text><text x="1144" y="886" class="copy">quiet move</text><rect x="1036" y="904" width="380" height="44" rx="14" fill="#f4eee4" stroke="#ddd5c7" /><text x="1052" y="920" class="metric-label">From focus</text><text x="1052" y="938" class="section-small">b4</text><text x="1144" y="938" class="copy">quiet move</text><text x="1036" y="974" class="copy">+ 5 more local moves in the fixture graph</text><text x="48" y="930" class="section">How to read the ribbons</text><line x1="48" y1="954" x2="102" y2="954" stroke="#566574" stroke-width="12" stroke-linecap="round" /><line x1="60" y1="954" x2="90" y2="954" stroke="#87a9c8" stroke-width="4.5" stroke-linecap="round" /><circle cx="104" cy="954" r="4" fill="#dcecff" /><circle cx="116" cy="954" r="4" fill="#dcecff" /><text x="140" y="959" class="copy">Outer ribbon keeps the coarse move path readable; inner glow and dots add tactical and contextual residue.</text></svg>