<svg xmlns="http://www.w3.org/2000/svg" width="1500" height="980" viewBox="0 0 1500 980"><style>.eyebrow { font: 700 14px "Avenir Next", "Segoe UI", sans-serif; letter-spacing: 0.14em; text-transform: uppercase; fill: #7a6a55; }.title { font: 700 30px "Iowan Old Style", "Palatino Linotype", serif; fill: #231f18; }.subtitle { font: 400 16px "Avenir Next", "Segoe UI", sans-serif; fill: #5f5547; }.section { font: 700 17px "Avenir Next", "Segoe UI", sans-serif; fill: #2c271f; }.section-small { font: 700 17px "Avenir Next", "Segoe UI", sans-serif; fill: #231f18; }.copy { font: 400 15px "Avenir Next", "Segoe UI", sans-serif; fill: #5f5547; }.metric-label { font: 700 12px "Avenir Next", "Segoe UI", sans-serif; letter-spacing: 0.08em; text-transform: uppercase; fill: #7a6a55; }.move-label { font: 700 12px "Avenir Next", "Segoe UI", sans-serif; fill: #231f18; }.board-label { font: 700 11px "Avenir Next", "Segoe UI", sans-serif; fill: #7a6a55; }.board-copy { font: 400 13px "Avenir Next", "Segoe UI", sans-serif; fill: #5f5547; }.board-piece { font: 700 28px "Georgia", "Times New Roman", serif; text-anchor: middle; dominant-baseline: middle; paint-order: stroke; }.board-piece.white { fill: #f0e6d0; stroke: #2b2116; stroke-width: 1.8px; }.board-piece.black { fill: #2a221b; stroke: #f7f0e4; stroke-width: 0.65px; }</style><rect width="100%" height="100%" fill="#f2ecdf" /><rect x="24" y="24" width="1452" height="932" rx="28" fill="#fbf7ef" stroke="#ddd5c7" /><text x="48" y="62" class="eyebrow">N10b review artifact</text><text x="48" y="96" class="title">Scholar&apos;s Mate: Nf6 to Qxf7#</text><text x="48" y="124" class="subtitle">Scholar&apos;s Mate · White to move · radius 2 · budget 3</text><defs><clipPath id="structure-panel-clip"><rect x="48" y="158" width="930" height="720" rx="26" /></clipPath></defs><rect x="48" y="158" width="930" height="720" rx="26" fill="#fdfbf6" stroke="#dcd3c4" /><ellipse cx="513" cy="791.6" rx="260.4" ry="43.2" fill="#ece3d3" opacity="0.72" /><g clip-path="url(#structure-panel-clip)"><path d="M513 518 L519.224 600.891 L542.493 662.762 L568.056 699.178 L582.947 712.307 L580.953 705.924 L563.908 682.051 L540.375 641.462 L522.124 587.057 L518.627 526.675 " fill="none" stroke="#f8d6df" stroke-width="5.5542240000000005" stroke-linecap="round" stroke-linejoin="round" opacity="0.32" /><path d="M513 518 L519.224 600.891 L542.493 662.762 L568.056 699.178 L582.947 712.307 L580.953 705.924 L563.908 682.051 L540.375 641.462 L522.124 587.057 L518.627 526.675 " fill="none" stroke="#a61e4d" stroke-width="2.9808000000000003" stroke-linecap="round" stroke-linejoin="round" opacity="0.96" /><path d="M505.15 440.529 L517.048 449.485 L527.571 459.844 L535.506 470.682 L539.984 480.837 L540.592 489.494 L537.428 496.623 L531.072 502.999 L522.512 509.798 L513 518 " fill="none" stroke="#d9e2ea" stroke-width="2.629536" stroke-linecap="round" stroke-linejoin="round" opacity="0.32" /><path d="M505.15 440.529 L517.048 449.485 L527.571 459.844 L535.506 470.682 L539.984 480.837 L540.592 489.494 L537.428 496.623 L531.072 502.999 L522.512 509.798 L513 518 " fill="none" stroke="#566574" stroke-width="1.4112" stroke-linecap="round" stroke-linejoin="round" opacity="0.96" /><circle cx="513" cy="518" r="9.799" fill="#fff5d6" opacity="0.46" /><circle cx="513" cy="518" r="5.939" fill="#0f766e" /><circle cx="513" cy="518" r="8.939" fill="none" stroke="#b7791f" stroke-width="2.4" opacity="0.95" /><circle cx="518.627" cy="526.675" r="7.925" fill="#f6efe1" opacity="0.22" /><circle cx="518.627" cy="526.675" r="6.004" fill="#15803d" /><circle cx="518.627" cy="526.675" r="9.004" fill="none" stroke="#d8cbb3" stroke-width="1.4" opacity="0.55" /><circle cx="505.15" cy="440.529" r="7.151" fill="#f6efe1" opacity="0.22" /><circle cx="505.15" cy="440.529" r="5.418" fill="#2563eb" /><circle cx="505.15" cy="440.529" r="8.418" fill="none" stroke="#d8cbb3" stroke-width="1.4" opacity="0.55" /><rect x="564.793" y="717.924" width="80.8" height="22" rx="11" fill="#deebf4" stroke="#3a6b87" opacity="0.96" /><text x="573.793" y="732.924" class="move-label">out Qxf7#</text><rect x="505.492" y="461.494" width="78" height="22" rx="11" fill="#fdebd2" stroke="#c27b1b" opacity="0.96" /><text x="514.492" y="476.494" class="move-label">in Nf6</text><line x1="518.627" y1="526.675" x2="534.627" y2="519.675" stroke="#2f6b38" stroke-width="1.5" opacity="0.8" /><rect x="534.627" y="508.675" width="99.4" height="22" rx="11" fill="#ecf5ea" stroke="#2f6b38" opacity="0.96" /><text x="543.627" y="523.675" class="move-label">Qxf7# · 1-0</text><circle cx="513" cy="518" r="10" fill="none" stroke="#7a4b12" stroke-width="2.4" opacity="0.8" /></g><rect x="1012" y="158" width="428" height="790" rx="26" fill="#fdfaf3" stroke="#dcd3c4" /><text x="1036" y="188" class="section">Reference check</text><text x="1036" y="216" class="copy">The geometry remains primary here: SAN</text><text x="1036" y="236" class="copy">labels sit on the carriers themselves,</text><text x="1036" y="256" class="copy">terminal outcomes sit on terminal</text><text x="1036" y="276" class="copy">nodes, and this board is only a static</text><text x="1036" y="296" class="copy">reference check for the position after</text><text x="1036" y="316" class="copy">1. e4 e5 2. Bc4 Nc6 3. Qh5 Nf6 in</text><text x="1036" y="336" class="copy">Scholar&apos;s Mate.</text><rect x="1046" y="332" width="360" height="414" rx="22" fill="#f4eee4" stroke="#ddd5c7" /><text x="1064" y="360" class="metric-label">Focus board</text><rect x="1064" y="376" width="40.5" height="40.5" fill="#ead8ba" /><text x="1084.25" y="397.87" class="board-piece black">♜</text><text x="1056" y="399.49" class="board-label" text-anchor="end">8</text><rect x="1104.5" y="376" width="40.5" height="40.5" fill="#9e7a52" /><rect x="1145" y="376" width="40.5" height="40.5" fill="#ead8ba" /><text x="1165.25" y="397.87" class="board-piece black">♝</text><rect x="1185.5" y="376" width="40.5" height="40.5" fill="#9e7a52" /><text x="1205.75" y="397.87" class="board-piece black">♛</text><rect x="1226" y="376" width="40.5" height="40.5" fill="#ead8ba" /><text x="1246.25" y="397.87" class="board-piece black">♚</text><rect x="1266.5" y="376" width="40.5" height="40.5" fill="#9e7a52" /><text x="1286.75" y="397.87" class="board-piece black">♝</text><rect x="1307" y="376" width="40.5" height="40.5" fill="#ead8ba" /><rect x="1347.5" y="376" width="40.5" height="40.5" fill="#9e7a52" /><text x="1367.75" y="397.87" class="board-piece black">♜</text><rect x="1064" y="416.5" width="40.5" height="40.5" fill="#9e7a52" /><text x="1084.25" y="438.37" class="board-piece black">♟</text><text x="1056" y="439.99" class="board-label" text-anchor="end">7</text><rect x="1104.5" y="416.5" width="40.5" height="40.5" fill="#ead8ba" /><text x="1124.75" y="438.37" class="board-piece black">♟</text><rect x="1145" y="416.5" width="40.5" height="40.5" fill="#9e7a52" /><text x="1165.25" y="438.37" class="board-piece black">♟</text><rect x="1185.5" y="416.5" width="40.5" height="40.5" fill="#ead8ba" /><text x="1205.75" y="438.37" class="board-piece black">♟</text><rect x="1226" y="416.5" width="40.5" height="40.5" fill="#9e7a52" /><rect x="1266.5" y="416.5" width="40.5" height="40.5" fill="#ead8ba" /><text x="1286.75" y="438.37" class="board-piece black">♟</text><rect x="1307" y="416.5" width="40.5" height="40.5" fill="#9e7a52" /><text x="1327.25" y="438.37" class="board-piece black">♟</text><rect x="1347.5" y="416.5" width="40.5" height="40.5" fill="#ead8ba" /><text x="1367.75" y="438.37" class="board-piece black">♟</text><rect x="1064" y="457" width="40.5" height="40.5" fill="#ead8ba" /><text x="1056" y="480.49" class="board-label" text-anchor="end">6</text><rect x="1104.5" y="457" width="40.5" height="40.5" fill="#9e7a52" /><rect x="1145" y="457" width="40.5" height="40.5" fill="#ead8ba" /><text x="1165.25" y="478.87" class="board-piece black">♞</text><rect x="1185.5" y="457" width="40.5" height="40.5" fill="#9e7a52" /><rect x="1226" y="457" width="40.5" height="40.5" fill="#ead8ba" /><rect x="1266.5" y="457" width="40.5" height="40.5" fill="#9e7a52" /><text x="1286.75" y="478.87" class="board-piece black">♞</text><rect x="1307" y="457" width="40.5" height="40.5" fill="#ead8ba" /><rect x="1347.5" y="457" width="40.5" height="40.5" fill="#9e7a52" /><rect x="1064" y="497.5" width="40.5" height="40.5" fill="#9e7a52" /><text x="1056" y="520.99" class="board-label" text-anchor="end">5</text><rect x="1104.5" y="497.5" width="40.5" height="40.5" fill="#ead8ba" /><rect x="1145" y="497.5" width="40.5" height="40.5" fill="#9e7a52" /><rect x="1185.5" y="497.5" width="40.5" height="40.5" fill="#ead8ba" /><rect x="1226" y="497.5" width="40.5" height="40.5" fill="#9e7a52" /><text x="1246.25" y="519.37" class="board-piece black">♟</text><rect x="1266.5" y="497.5" width="40.5" height="40.5" fill="#ead8ba" /><rect x="1307" y="497.5" width="40.5" height="40.5" fill="#9e7a52" /><rect x="1347.5" y="497.5" width="40.5" height="40.5" fill="#ead8ba" /><text x="1367.75" y="519.37" class="board-piece white">♕</text><rect x="1064" y="538" width="40.5" height="40.5" fill="#ead8ba" /><text x="1056" y="561.49" class="board-label" text-anchor="end">4</text><rect x="1104.5" y="538" width="40.5" height="40.5" fill="#9e7a52" /><rect x="1145" y="538" width="40.5" height="40.5" fill="#ead8ba" /><text x="1165.25" y="559.87" class="board-piece white">♗</text><rect x="1185.5" y="538" width="40.5" height="40.5" fill="#9e7a52" /><rect x="1226" y="538" width="40.5" height="40.5" fill="#ead8ba" /><text x="1246.25" y="559.87" class="board-piece white">♙</text><rect x="1266.5" y="538" width="40.5" height="40.5" fill="#9e7a52" /><rect x="1307" y="538" width="40.5" height="40.5" fill="#ead8ba" /><rect x="1347.5" y="538" width="40.5" height="40.5" fill="#9e7a52" /><rect x="1064" y="578.5" width="40.5" height="40.5" fill="#9e7a52" /><text x="1056" y="601.99" class="board-label" text-anchor="end">3</text><rect x="1104.5" y="578.5" width="40.5" height="40.5" fill="#ead8ba" /><rect x="1145" y="578.5" width="40.5" height="40.5" fill="#9e7a52" /><rect x="1185.5" y="578.5" width="40.5" height="40.5" fill="#ead8ba" /><rect x="1226" y="578.5" width="40.5" height="40.5" fill="#9e7a52" /><rect x="1266.5" y="578.5" width="40.5" height="40.5" fill="#ead8ba" /><rect x="1307" y="578.5" width="40.5" height="40.5" fill="#9e7a52" /><rect x="1347.5" y="578.5" width="40.5" height="40.5" fill="#ead8ba" /><rect x="1064" y="619" width="40.5" height="40.5" fill="#ead8ba" /><text x="1084.25" y="640.87" class="board-piece white">♙</text><text x="1056" y="642.49" class="board-label" text-anchor="end">2</text><rect x="1104.5" y="619" width="40.5" height="40.5" fill="#9e7a52" /><text x="1124.75" y="640.87" class="board-piece white">♙</text><rect x="1145" y="619" width="40.5" height="40.5" fill="#ead8ba" /><text x="1165.25" y="640.87" class="board-piece white">♙</text><rect x="1185.5" y="619" width="40.5" height="40.5" fill="#9e7a52" /><text x="1205.75" y="640.87" class="board-piece white">♙</text><rect x="1226" y="619" width="40.5" height="40.5" fill="#ead8ba" /><rect x="1266.5" y="619" width="40.5" height="40.5" fill="#9e7a52" /><text x="1286.75" y="640.87" class="board-piece white">♙</text><rect x="1307" y="619" width="40.5" height="40.5" fill="#ead8ba" /><text x="1327.25" y="640.87" class="board-piece white">♙</text><rect x="1347.5" y="619" width="40.5" height="40.5" fill="#9e7a52" /><text x="1367.75" y="640.87" class="board-piece white">♙</text><rect x="1064" y="659.5" width="40.5" height="40.5" fill="#9e7a52" /><text x="1084.25" y="681.37" class="board-piece white">♖</text><text x="1084.25" y="716" class="board-label" text-anchor="middle">a</text><text x="1056" y="682.99" class="board-label" text-anchor="end">1</text><rect x="1104.5" y="659.5" width="40.5" height="40.5" fill="#ead8ba" /><text x="1124.75" y="681.37" class="board-piece white">♘</text><text x="1124.75" y="716" class="board-label" text-anchor="middle">b</text><rect x="1145" y="659.5" width="40.5" height="40.5" fill="#9e7a52" /><text x="1165.25" y="681.37" class="board-piece white">♗</text><text x="1165.25" y="716" class="board-label" text-anchor="middle">c</text><rect x="1185.5" y="659.5" width="40.5" height="40.5" fill="#ead8ba" /><text x="1205.75" y="716" class="board-label" text-anchor="middle">d</text><rect x="1226" y="659.5" width="40.5" height="40.5" fill="#9e7a52" /><text x="1246.25" y="681.37" class="board-piece white">♔</text><text x="1246.25" y="716" class="board-label" text-anchor="middle">e</text><rect x="1266.5" y="659.5" width="40.5" height="40.5" fill="#ead8ba" /><text x="1286.75" y="716" class="board-label" text-anchor="middle">f</text><rect x="1307" y="659.5" width="40.5" height="40.5" fill="#9e7a52" /><text x="1327.25" y="681.37" class="board-piece white">♘</text><text x="1327.25" y="716" class="board-label" text-anchor="middle">g</text><rect x="1347.5" y="659.5" width="40.5" height="40.5" fill="#ead8ba" /><text x="1367.75" y="681.37" class="board-piece white">♖</text><text x="1367.75" y="716" class="board-label" text-anchor="middle">h</text><text x="1064" y="724" class="board-copy">White to move</text><text x="1064" y="744" class="board-copy">Castling KQkq · e.p. none</text><rect x="1036" y="756" width="380" height="68" rx="18" fill="#f4eee4" stroke="#ddd5c7" /><text x="1052" y="782" class="metric-label">Owning line</text><text x="1052" y="804" class="copy">1. e4 e5 2. Bc4 Nc6 3. Qh5 Nf6</text><text x="1036" y="836" class="section">Moves touching focus</text><rect x="1036" y="852" width="380" height="44" rx="14" fill="#f4eee4" stroke="#ddd5c7" /><text x="1052" y="868" class="metric-label">Into focus</text><text x="1052" y="886" class="section-small">Nf6</text><text x="1144" y="886" class="copy">quiet move</text><rect x="1036" y="904" width="380" height="44" rx="14" fill="#f4eee4" stroke="#ddd5c7" /><text x="1052" y="920" class="metric-label">From focus</text><text x="1052" y="938" class="section-small">Qxf7#</text><text x="1144" y="938" class="copy">capture checkmate</text><text x="48" y="930" class="section">How to read the ribbons</text><line x1="48" y1="954" x2="102" y2="954" stroke="#566574" stroke-width="12" stroke-linecap="round" /><line x1="60" y1="954" x2="90" y2="954" stroke="#87a9c8" stroke-width="4.5" stroke-linecap="round" /><circle cx="104" cy="954" r="4" fill="#dcecff" /><circle cx="116" cy="954" r="4" fill="#dcecff" /><text x="140" y="959" class="copy">Outer ribbon keeps the coarse move path readable; inner glow and dots add tactical and contextual residue.</text></svg>