<svg xmlns="http://www.w3.org/2000/svg" width="1500" height="980" viewBox="0 0 1500 980"><style>.eyebrow { font: 700 14px "Avenir Next", "Segoe UI", sans-serif; letter-spacing: 0.14em; text-transform: uppercase; fill: #7a6a55; }.title { font: 700 30px "Iowan Old Style", "Palatino Linotype", serif; fill: #231f18; }.subtitle { font: 400 16px "Avenir Next", "Segoe UI", sans-serif; fill: #5f5547; }.section { font: 700 17px "Avenir Next", "Segoe UI", sans-serif; fill: #2c271f; }.section-small { font: 700 17px "Avenir Next", "Segoe UI", sans-serif; fill: #231f18; }.copy { font: 400 15px "Avenir Next", "Segoe UI", sans-serif; fill: #5f5547; }.metric-label { font: 700 12px "Avenir Next", "Segoe UI", sans-serif; letter-spacing: 0.08em; text-transform: uppercase; fill: #7a6a55; }.move-label { font: 700 12px "Avenir Next", "Segoe UI", sans-serif; fill: #231f18; }.board-label { font: 700 11px "Avenir Next", "Segoe UI", sans-serif; fill: #7a6a55; }.board-copy { font: 400 13px "Avenir Next", "Segoe UI", sans-serif; fill: #5f5547; }.board-piece { font: 700 28px "Georgia", "Times New Roman", serif; text-anchor: middle; dominant-baseline: middle; paint-order: stroke; }.board-piece.white { fill: #f0e6d0; stroke: #2b2116; stroke-width: 1.8px; }.board-piece.black { fill: #2a221b; stroke: #f7f0e4; stroke-width: 0.65px; }</style><rect width="100%" height="100%" fill="#f2ecdf" /><rect x="24" y="24" width="1452" height="932" rx="28" fill="#fbf7ef" stroke="#ddd5c7" /><text x="48" y="62" class="eyebrow">Viewer review artifact</text><text x="48" y="96" class="title">Italian Branch Lab: Nf6 to b4, d3, d4, h3, Ng5, O-O</text><text x="48" y="124" class="subtitle">Italian Branch Lab · White to move · radius 2 · distance 5.0 · budget 3</text><defs><clipPath id="structure-panel-clip"><rect x="48" y="158" width="930" height="720" rx="26" /></clipPath></defs><rect x="48" y="158" width="930" height="720" rx="26" fill="#fdfbf6" stroke="#dcd3c4" /><ellipse cx="513" cy="791.6" rx="260.4" ry="43.2" fill="#ece3d3" opacity="0.72" /><g clip-path="url(#structure-panel-clip)"><path d="M519.469 510.677 L506.879 506.919 L486.204 504.856 L466.015 503.913 L453.783 503.311 L453.725 502.517 L465.844 501.51 L485.923 500.768 L506.487 500.992 L518.953 502.685 " fill="none" stroke="#99f6e4" stroke-width="2.53968" stroke-linecap="round" stroke-linejoin="round" opacity="0.32" /><path d="M519.469 510.677 L506.879 506.919 L486.204 504.856 L466.015 503.913 L453.783 503.311 L453.725 502.517 L465.844 501.51 L485.923 500.768 L506.487 500.992 L518.953 502.685 " fill="none" stroke="#0f766e" stroke-width="1.584" stroke-linecap="round" stroke-linejoin="round" opacity="0.96" /><path d="M513.277 522.567 L502.33 513.446 L483.715 503.119 L465.406 494.179 L454.439 488.611 L454.818 487.441 L466.557 490.644 L485.684 497.12 L505.203 504.775 L517.163 510.903 " fill="none" stroke="#99f6e4" stroke-width="2.53968" stroke-linecap="round" stroke-linejoin="round" opacity="0.32" /><path d="M513.277 522.567 L502.33 513.446 L483.715 503.119 L465.406 494.179 L454.439 488.611 L454.818 487.441 L466.557 490.644 L485.684 497.12 L505.203 504.775 L517.163 510.903 " fill="none" stroke="#0f766e" stroke-width="1.584" stroke-linecap="round" stroke-linejoin="round" opacity="0.96" /><path d="M512.669 538.168 L511.364 535.14 L507.999 532.256 L504.211 529.679 L501.78 527.526 L501.842 525.849 L504.402 524.628 L508.324 523.775 L511.829 523.147 L513.277 522.567 " fill="none" stroke="#cbd5e1" stroke-width="2.262624" stroke-linecap="round" stroke-linejoin="round" opacity="0.32" /><path d="M512.669 538.168 L511.364 535.14 L507.999 532.256 L504.211 529.679 L501.78 527.526 L501.842 525.849 L504.402 524.628 L508.324 523.775 L511.829 523.147 L513.277 522.567 " fill="none" stroke="#334155" stroke-width="1.4112" stroke-linecap="round" stroke-linejoin="round" opacity="0.96" /><path d="M513.277 522.567 L512.682 519.487 L510.174 515.626 L507.269 511.849 L505.62 509.048 L506.284 507.769 L509.268 508 L513.532 509.165 L517.437 510.351 L519.469 510.677 " fill="none" stroke="#cbd5e1" stroke-width="2.262624" stroke-linecap="round" stroke-linejoin="round" opacity="0.32" /><path d="M513.277 522.567 L512.682 519.487 L510.174 515.626 L507.269 511.849 L505.62 509.048 L506.284 507.769 L509.268 508 L513.532 509.165 L517.437 510.351 L519.469 510.677 " fill="none" stroke="#334155" stroke-width="1.4112" stroke-linecap="round" stroke-linejoin="round" opacity="0.96" /><path d="M518.661 510.754 L518.057 508.061 L515.648 504.264 L512.876 500.439 L511.312 497.711 L511.962 496.787 L514.832 497.658 L518.932 499.6 L522.701 501.47 L524.704 502.185 " fill="none" stroke="#cbd5e1" stroke-width="2.285712" stroke-linecap="round" stroke-linejoin="round" opacity="0.32" /><path d="M518.661 510.754 L518.057 508.061 L515.648 504.264 L512.876 500.439 L511.312 497.711 L511.962 496.787 L514.832 497.658 L518.932 499.6 L522.701 501.47 L524.704 502.185 " fill="none" stroke="#334155" stroke-width="1.4256" stroke-linecap="round" stroke-linejoin="round" opacity="0.96" /><path d="M496.369 561.778 L497.256 557.694 L496.582 552.719 L495.542 547.727 L495.477 543.648 L497.256 541.065 L500.89 539.965 L505.531 539.741 L509.855 539.439 L512.669 538.168 " fill="none" stroke="#cbd5e1" stroke-width="2.216448" stroke-linecap="round" stroke-linejoin="round" opacity="0.32" /><path d="M496.369 561.778 L497.256 557.694 L496.582 552.719 L495.542 547.727 L495.477 543.648 L497.256 541.065 L500.89 539.965 L505.531 539.741 L509.855 539.439 L512.669 538.168 " fill="none" stroke="#334155" stroke-width="1.3824" stroke-linecap="round" stroke-linejoin="round" opacity="0.96" /><path d="M513.277 522.567 L512.646 520.099 L510.159 516.905 L507.271 513.689 L505.598 511.201 L506.184 509.912 L509.033 509.813 L513.109 510.42 L516.804 510.972 L518.661 510.754 " fill="none" stroke="#cbd5e1" stroke-width="2.216448" stroke-linecap="round" stroke-linejoin="round" opacity="0.32" /><path d="M513.277 522.567 L512.646 520.099 L510.159 516.905 L507.271 513.689 L505.598 511.201 L506.184 509.912 L509.033 509.813 L513.109 510.42 L516.804 510.972 L518.661 510.754 " fill="none" stroke="#334155" stroke-width="1.3824" stroke-linecap="round" stroke-linejoin="round" opacity="0.96" /><path d="M513.277 522.567 L512.97 519.92 L510.932 516.309 L508.519 512.626 L507.237 509.826 L508.061 508.514 L510.994 508.681 L515.076 509.711 L518.808 510.634 L520.836 510.549 " fill="none" stroke="#cbd5e1" stroke-width="2.216448" stroke-linecap="round" stroke-linejoin="round" opacity="0.32" /><path d="M513.277 522.567 L512.97 519.92 L510.932 516.309 L508.519 512.626 L507.237 509.826 L508.061 508.514 L510.994 508.681 L515.076 509.711 L518.808 510.634 L520.836 510.549 " fill="none" stroke="#334155" stroke-width="1.3824" stroke-linecap="round" stroke-linejoin="round" opacity="0.96" /><path d="M513.277 522.567 L513.836 521.367 L516.246 519.076 L519.096 516.388 L520.739 514.156 L520.09 512.958 L517.153 512.803 L513.019 513.129 L509.342 513.093 L507.538 512.002 " fill="none" stroke="#cbd5e1" stroke-width="2.216448" stroke-linecap="round" stroke-linejoin="round" opacity="0.32" /><path d="M513.277 522.567 L513.836 521.367 L516.246 519.076 L519.096 516.388 L520.739 514.156 L520.09 512.958 L517.153 512.803 L513.019 513.129 L509.342 513.093 L507.538 512.002 " fill="none" stroke="#334155" stroke-width="1.3824" stroke-linecap="round" stroke-linejoin="round" opacity="0.96" /><path d="M513.277 522.567 L513.145 521.124 L514.506 518.115 L516.22 514.596 L516.955 511.841 L515.834 510.704 L512.865 511.197 L508.939 512.477 L505.396 513.281 L503.382 512.554 " fill="none" stroke="#cbd5e1" stroke-width="2.216448" stroke-linecap="round" stroke-linejoin="round" opacity="0.32" /><path d="M513.277 522.567 L513.145 521.124 L514.506 518.115 L516.22 514.596 L516.955 511.841 L515.834 510.704 L512.865 511.197 L508.939 512.477 L505.396 513.281 L503.382 512.554 " fill="none" stroke="#334155" stroke-width="1.3824" stroke-linecap="round" stroke-linejoin="round" opacity="0.96" /><path d="M507.538 512.002 L508.434 511.18 L511.338 509.448 L514.727 507.376 L516.828 505.668 L516.468 504.799 L513.647 504.777 L509.542 505.137 L505.934 505.183 L504.345 504.347 " fill="none" stroke="#cbd5e1" stroke-width="2.216448" stroke-linecap="round" stroke-linejoin="round" opacity="0.32" /><path d="M507.538 512.002 L508.434 511.18 L511.338 509.448 L514.727 507.376 L516.828 505.668 L516.468 504.799 L513.647 504.777 L509.542 505.137 L505.934 505.183 L504.345 504.347 " fill="none" stroke="#334155" stroke-width="1.3824" stroke-linecap="round" stroke-linejoin="round" opacity="0.96" /><path d="M520.836 510.549 L521.705 509.62 L524.501 507.632 L527.746 505.272 L529.716 503.374 L529.276 502.504 L526.428 502.668 L522.313 503.313 L518.658 503.612 L516.945 502.88 " fill="none" stroke="#cbd5e1" stroke-width="2.216448" stroke-linecap="round" stroke-linejoin="round" opacity="0.32" /><path d="M520.836 510.549 L521.705 509.62 L524.501 507.632 L527.746 505.272 L529.716 503.374 L529.276 502.504 L526.428 502.668 L522.313 503.313 L518.658 503.612 L516.945 502.88 " fill="none" stroke="#334155" stroke-width="1.3824" stroke-linecap="round" stroke-linejoin="round" opacity="0.96" /><path d="M503.382 512.554 L509.107 505.919 L526.119 485.13 L546.099 459.981 L558.88 442.887 L557.876 442.051 L543.106 457.496 L521.206 481.074 L502.402 500.409 L495.031 505.701 " fill="none" stroke="#fed7aa" stroke-width="3.2631040000000002" stroke-linecap="round" stroke-linejoin="round" opacity="0.32" /><path d="M503.382 512.554 L509.107 505.919 L526.119 485.13 L546.099 459.981 L558.88 442.887 L557.876 442.051 L543.106 457.496 L521.206 481.074 L502.402 500.409 L495.031 505.701 " fill="none" stroke="#d97706" stroke-width="2.0352" stroke-linecap="round" stroke-linejoin="round" opacity="0.96" /><path d="M517.163 510.903 L526.356 506.566 L551.525 489.616 L581.195 468.097 L600.594 453.062 L599.892 452.115 L579.11 465.296 L548.126 485.088 L521.767 500.493 L511.526 503.459 " fill="none" stroke="#fed7aa" stroke-width="3.30928" stroke-linecap="round" stroke-linejoin="round" opacity="0.32" /><path d="M517.163 510.903 L526.356 506.566 L551.525 489.616 L581.195 468.097 L600.594 453.062 L599.892 452.115 L579.11 465.296 L548.126 485.088 L521.767 500.493 L511.526 503.459 " fill="none" stroke="#d97706" stroke-width="2.064" stroke-linecap="round" stroke-linejoin="round" opacity="0.96" /><circle cx="496.369" cy="561.778" r="1.914" fill="#f6efe1" opacity="0.22" /><circle cx="496.369" cy="561.778" r="1.679" fill="#0f766e" /><circle cx="496.369" cy="561.778" r="4.679" fill="none" stroke="#d8cbb3" stroke-width="1.4" opacity="0.55" /><circle cx="512.669" cy="538.168" r="1.914" fill="#f6efe1" opacity="0.22" /><circle cx="512.669" cy="538.168" r="1.679" fill="#0f766e" /><circle cx="512.669" cy="538.168" r="4.679" fill="none" stroke="#d8cbb3" stroke-width="1.4" opacity="0.55" /><circle cx="513.277" cy="522.567" r="2.891" fill="#fff5d6" opacity="0.46" /><circle cx="513.277" cy="522.567" r="2.095" fill="#0f766e" /><circle cx="513.277" cy="522.567" r="5.095" fill="none" stroke="#b7791f" stroke-width="2.4" opacity="0.95" /><circle cx="503.382" cy="512.554" r="1.914" fill="#f6efe1" opacity="0.22" /><circle cx="503.382" cy="512.554" r="1.679" fill="#0f766e" /><circle cx="503.382" cy="512.554" r="4.679" fill="none" stroke="#d8cbb3" stroke-width="1.4" opacity="0.55" /><circle cx="507.538" cy="512.002" r="1.914" fill="#f6efe1" opacity="0.22" /><circle cx="507.538" cy="512.002" r="1.679" fill="#0f766e" /><circle cx="507.538" cy="512.002" r="4.679" fill="none" stroke="#d8cbb3" stroke-width="1.4" opacity="0.55" /><circle cx="517.163" cy="510.903" r="1.914" fill="#f6efe1" opacity="0.22" /><circle cx="517.163" cy="510.903" r="1.679" fill="#0f766e" /><circle cx="517.163" cy="510.903" r="4.679" fill="none" stroke="#d8cbb3" stroke-width="1.4" opacity="0.55" /><circle cx="518.661" cy="510.754" r="1.914" fill="#f6efe1" opacity="0.22" /><circle cx="518.661" cy="510.754" r="1.679" fill="#0f766e" /><circle cx="518.661" cy="510.754" r="4.679" fill="none" stroke="#d8cbb3" stroke-width="1.4" opacity="0.55" /><circle cx="519.469" cy="510.677" r="1.914" fill="#f6efe1" opacity="0.22" /><circle cx="519.469" cy="510.677" r="1.679" fill="#0f766e" /><circle cx="519.469" cy="510.677" r="4.679" fill="none" stroke="#d8cbb3" stroke-width="1.4" opacity="0.55" /><circle cx="520.836" cy="510.549" r="1.914" fill="#f6efe1" opacity="0.22" /><circle cx="520.836" cy="510.549" r="1.679" fill="#0f766e" /><circle cx="520.836" cy="510.549" r="4.679" fill="none" stroke="#d8cbb3" stroke-width="1.4" opacity="0.55" /><circle cx="495.031" cy="505.701" r="1.914" fill="#f6efe1" opacity="0.22" /><circle cx="495.031" cy="505.701" r="1.679" fill="#0f766e" /><circle cx="495.031" cy="505.701" r="4.679" fill="none" stroke="#d8cbb3" stroke-width="1.4" opacity="0.55" /><circle cx="504.345" cy="504.347" r="1.914" fill="#f6efe1" opacity="0.22" /><circle cx="504.345" cy="504.347" r="1.679" fill="#0f766e" /><circle cx="504.345" cy="504.347" r="4.679" fill="none" stroke="#d8cbb3" stroke-width="1.4" opacity="0.55" /><circle cx="511.526" cy="503.459" r="1.914" fill="#f6efe1" opacity="0.22" /><circle cx="511.526" cy="503.459" r="1.679" fill="#0f766e" /><circle cx="511.526" cy="503.459" r="4.679" fill="none" stroke="#d8cbb3" stroke-width="1.4" opacity="0.55" /><circle cx="516.945" cy="502.88" r="1.914" fill="#f6efe1" opacity="0.22" /><circle cx="516.945" cy="502.88" r="1.679" fill="#0f766e" /><circle cx="516.945" cy="502.88" r="4.679" fill="none" stroke="#d8cbb3" stroke-width="1.4" opacity="0.55" /><circle cx="518.953" cy="502.685" r="1.914" fill="#f6efe1" opacity="0.22" /><circle cx="518.953" cy="502.685" r="1.679" fill="#0f766e" /><circle cx="518.953" cy="502.685" r="4.679" fill="none" stroke="#d8cbb3" stroke-width="1.4" opacity="0.55" /><circle cx="524.704" cy="502.185" r="1.914" fill="#f6efe1" opacity="0.22" /><circle cx="524.704" cy="502.185" r="1.679" fill="#0f766e" /><circle cx="524.704" cy="502.185" r="4.679" fill="none" stroke="#d8cbb3" stroke-width="1.4" opacity="0.55" /><rect x="439.218" y="499.441" width="78" height="17.6" rx="8.8" fill="#deebf4" stroke="#3a6b87" opacity="0.74" /><text x="446.418" y="511.441" class="move-label" style="font-size:9.6px">out O-O</text><rect x="466.742" y="497.849" width="78" height="17.6" rx="8.8" fill="#fdebd2" stroke="#c27b1b" opacity="0.74" /><text x="473.942" y="509.849" class="move-label" style="font-size:9.6px">in Nf6</text><circle cx="513.277" cy="522.567" r="10" fill="none" stroke="#7a4b12" stroke-width="2.4" opacity="0.8" /></g><rect x="1012" y="158" width="428" height="790" rx="26" fill="#fdfaf3" stroke="#dcd3c4" /><text x="1036" y="188" class="section">Reference check</text><text x="1036" y="216" class="copy">The geometry remains primary here: SAN</text><text x="1036" y="236" class="copy">labels sit on the carriers themselves,</text><text x="1036" y="256" class="copy">terminal outcomes sit on terminal</text><text x="1036" y="276" class="copy">nodes, and this board is only a static</text><text x="1036" y="296" class="copy">reference check for ply 8 · middlegame</text><text x="1036" y="316" class="copy">·</text><text x="1036" y="336" class="copy">white[Q1,R2,B2,N2,P8]|black[Q1,R2,B2,N2,P8]</text><text x="1036" y="356" class="copy">in Italian Branch Lab.</text><rect x="1046" y="332" width="360" height="414" rx="22" fill="#f4eee4" stroke="#ddd5c7" /><text x="1064" y="360" class="metric-label">Focus board</text><rect x="1064" y="376" width="40.5" height="40.5" fill="#ead8ba" /><text x="1084.25" y="397.87" class="board-piece black">♜</text><text x="1056" y="399.49" class="board-label" text-anchor="end">8</text><rect x="1104.5" y="376" width="40.5" height="40.5" fill="#9e7a52" /><rect x="1145" y="376" width="40.5" height="40.5" fill="#ead8ba" /><text x="1165.25" y="397.87" class="board-piece black">♝</text><rect x="1185.5" y="376" width="40.5" height="40.5" fill="#9e7a52" /><text x="1205.75" y="397.87" class="board-piece black">♛</text><rect x="1226" y="376" width="40.5" height="40.5" fill="#ead8ba" /><text x="1246.25" y="397.87" class="board-piece black">♚</text><rect x="1266.5" y="376" width="40.5" height="40.5" fill="#9e7a52" /><rect x="1307" y="376" width="40.5" height="40.5" fill="#ead8ba" /><rect x="1347.5" y="376" width="40.5" height="40.5" fill="#9e7a52" /><text x="1367.75" y="397.87" class="board-piece black">♜</text><rect x="1064" y="416.5" width="40.5" height="40.5" fill="#9e7a52" /><text x="1084.25" y="438.37" class="board-piece black">♟</text><text x="1056" y="439.99" class="board-label" text-anchor="end">7</text><rect x="1104.5" y="416.5" width="40.5" height="40.5" fill="#ead8ba" /><text x="1124.75" y="438.37" class="board-piece black">♟</text><rect x="1145" y="416.5" width="40.5" height="40.5" fill="#9e7a52" /><text x="1165.25" y="438.37" class="board-piece black">♟</text><rect x="1185.5" y="416.5" width="40.5" height="40.5" fill="#ead8ba" /><text x="1205.75" y="438.37" class="board-piece black">♟</text><rect x="1226" y="416.5" width="40.5" height="40.5" fill="#9e7a52" /><rect x="1266.5" y="416.5" width="40.5" height="40.5" fill="#ead8ba" /><text x="1286.75" y="438.37" class="board-piece black">♟</text><rect x="1307" y="416.5" width="40.5" height="40.5" fill="#9e7a52" /><text x="1327.25" y="438.37" class="board-piece black">♟</text><rect x="1347.5" y="416.5" width="40.5" height="40.5" fill="#ead8ba" /><text x="1367.75" y="438.37" class="board-piece black">♟</text><rect x="1064" y="457" width="40.5" height="40.5" fill="#ead8ba" /><text x="1056" y="480.49" class="board-label" text-anchor="end">6</text><rect x="1104.5" y="457" width="40.5" height="40.5" fill="#9e7a52" /><rect x="1145" y="457" width="40.5" height="40.5" fill="#ead8ba" /><text x="1165.25" y="478.87" class="board-piece black">♞</text><rect x="1185.5" y="457" width="40.5" height="40.5" fill="#9e7a52" /><rect x="1226" y="457" width="40.5" height="40.5" fill="#ead8ba" /><rect x="1266.5" y="457" width="40.5" height="40.5" fill="#9e7a52" /><text x="1286.75" y="478.87" class="board-piece black">♞</text><rect x="1307" y="457" width="40.5" height="40.5" fill="#ead8ba" /><rect x="1347.5" y="457" width="40.5" height="40.5" fill="#9e7a52" /><rect x="1064" y="497.5" width="40.5" height="40.5" fill="#9e7a52" /><text x="1056" y="520.99" class="board-label" text-anchor="end">5</text><rect x="1104.5" y="497.5" width="40.5" height="40.5" fill="#ead8ba" /><rect x="1145" y="497.5" width="40.5" height="40.5" fill="#9e7a52" /><text x="1165.25" y="519.37" class="board-piece black">♝</text><rect x="1185.5" y="497.5" width="40.5" height="40.5" fill="#ead8ba" /><rect x="1226" y="497.5" width="40.5" height="40.5" fill="#9e7a52" /><text x="1246.25" y="519.37" class="board-piece black">♟</text><rect x="1266.5" y="497.5" width="40.5" height="40.5" fill="#ead8ba" /><rect x="1307" y="497.5" width="40.5" height="40.5" fill="#9e7a52" /><rect x="1347.5" y="497.5" width="40.5" height="40.5" fill="#ead8ba" /><rect x="1064" y="538" width="40.5" height="40.5" fill="#ead8ba" /><text x="1056" y="561.49" class="board-label" text-anchor="end">4</text><rect x="1104.5" y="538" width="40.5" height="40.5" fill="#9e7a52" /><rect x="1145" y="538" width="40.5" height="40.5" fill="#ead8ba" /><text x="1165.25" y="559.87" class="board-piece white">♗</text><rect x="1185.5" y="538" width="40.5" height="40.5" fill="#9e7a52" /><rect x="1226" y="538" width="40.5" height="40.5" fill="#ead8ba" /><text x="1246.25" y="559.87" class="board-piece white">♙</text><rect x="1266.5" y="538" width="40.5" height="40.5" fill="#9e7a52" /><rect x="1307" y="538" width="40.5" height="40.5" fill="#ead8ba" /><rect x="1347.5" y="538" width="40.5" height="40.5" fill="#9e7a52" /><rect x="1064" y="578.5" width="40.5" height="40.5" fill="#9e7a52" /><text x="1056" y="601.99" class="board-label" text-anchor="end">3</text><rect x="1104.5" y="578.5" width="40.5" height="40.5" fill="#ead8ba" /><rect x="1145" y="578.5" width="40.5" height="40.5" fill="#9e7a52" /><text x="1165.25" y="600.37" class="board-piece white">♙</text><rect x="1185.5" y="578.5" width="40.5" height="40.5" fill="#ead8ba" /><rect x="1226" y="578.5" width="40.5" height="40.5" fill="#9e7a52" /><rect x="1266.5" y="578.5" width="40.5" height="40.5" fill="#ead8ba" /><text x="1286.75" y="600.37" class="board-piece white">♘</text><rect x="1307" y="578.5" width="40.5" height="40.5" fill="#9e7a52" /><rect x="1347.5" y="578.5" width="40.5" height="40.5" fill="#ead8ba" /><rect x="1064" y="619" width="40.5" height="40.5" fill="#ead8ba" /><text x="1084.25" y="640.87" class="board-piece white">♙</text><text x="1056" y="642.49" class="board-label" text-anchor="end">2</text><rect x="1104.5" y="619" width="40.5" height="40.5" fill="#9e7a52" /><text x="1124.75" y="640.87" class="board-piece white">♙</text><rect x="1145" y="619" width="40.5" height="40.5" fill="#ead8ba" /><rect x="1185.5" y="619" width="40.5" height="40.5" fill="#9e7a52" /><text x="1205.75" y="640.87" class="board-piece white">♙</text><rect x="1226" y="619" width="40.5" height="40.5" fill="#ead8ba" /><rect x="1266.5" y="619" width="40.5" height="40.5" fill="#9e7a52" /><text x="1286.75" y="640.87" class="board-piece white">♙</text><rect x="1307" y="619" width="40.5" height="40.5" fill="#ead8ba" /><text x="1327.25" y="640.87" class="board-piece white">♙</text><rect x="1347.5" y="619" width="40.5" height="40.5" fill="#9e7a52" /><text x="1367.75" y="640.87" class="board-piece white">♙</text><rect x="1064" y="659.5" width="40.5" height="40.5" fill="#9e7a52" /><text x="1084.25" y="681.37" class="board-piece white">♖</text><text x="1084.25" y="716" class="board-label" text-anchor="middle">a</text><text x="1056" y="682.99" class="board-label" text-anchor="end">1</text><rect x="1104.5" y="659.5" width="40.5" height="40.5" fill="#ead8ba" /><text x="1124.75" y="681.37" class="board-piece white">♘</text><text x="1124.75" y="716" class="board-label" text-anchor="middle">b</text><rect x="1145" y="659.5" width="40.5" height="40.5" fill="#9e7a52" /><text x="1165.25" y="681.37" class="board-piece white">♗</text><text x="1165.25" y="716" class="board-label" text-anchor="middle">c</text><rect x="1185.5" y="659.5" width="40.5" height="40.5" fill="#ead8ba" /><text x="1205.75" y="681.37" class="board-piece white">♕</text><text x="1205.75" y="716" class="board-label" text-anchor="middle">d</text><rect x="1226" y="659.5" width="40.5" height="40.5" fill="#9e7a52" /><text x="1246.25" y="681.37" class="board-piece white">♔</text><text x="1246.25" y="716" class="board-label" text-anchor="middle">e</text><rect x="1266.5" y="659.5" width="40.5" height="40.5" fill="#ead8ba" /><text x="1286.75" y="716" class="board-label" text-anchor="middle">f</text><rect x="1307" y="659.5" width="40.5" height="40.5" fill="#9e7a52" /><text x="1327.25" y="716" class="board-label" text-anchor="middle">g</text><rect x="1347.5" y="659.5" width="40.5" height="40.5" fill="#ead8ba" /><text x="1367.75" y="681.37" class="board-piece white">♖</text><text x="1367.75" y="716" class="board-label" text-anchor="middle">h</text><text x="1064" y="724" class="board-copy">White to move</text><text x="1064" y="744" class="board-copy">Castling KQkq · e.p. none</text><rect x="1036" y="756" width="380" height="88" rx="18" fill="#f4eee4" stroke="#ddd5c7" /><text x="1052" y="782" class="metric-label">Focused node</text><text x="1052" y="804" class="copy">ply 8 · middlegame ·</text><text x="1052" y="824" class="copy">white[Q1,R2,B2,N2,P8]|black[Q1,R2,B2,N2,P8]</text><text x="1036" y="836" class="section">Moves touching focus</text><rect x="1036" y="852" width="380" height="44" rx="14" fill="#f4eee4" stroke="#ddd5c7" /><text x="1052" y="868" class="metric-label">Into focus</text><text x="1052" y="886" class="section-small">Nf6</text><text x="1144" y="886" class="copy">quiet move</text><rect x="1036" y="904" width="380" height="44" rx="14" fill="#f4eee4" stroke="#ddd5c7" /><text x="1052" y="920" class="metric-label">From focus</text><text x="1052" y="938" class="section-small">b4</text><text x="1144" y="938" class="copy">quiet move</text><text x="1036" y="974" class="copy">+ 5 more local moves in the fixture graph</text><text x="48" y="930" class="section">How to read the ribbons</text><line x1="48" y1="954" x2="102" y2="954" stroke="#566574" stroke-width="12" stroke-linecap="round" /><line x1="60" y1="954" x2="90" y2="954" stroke="#87a9c8" stroke-width="4.5" stroke-linecap="round" /><circle cx="104" cy="954" r="4" fill="#dcecff" /><circle cx="116" cy="954" r="4" fill="#dcecff" /><text x="140" y="959" class="copy">Outer ribbon keeps the coarse move path readable; inner glow and dots add tactical and contextual residue.</text></svg>